<?xml version="1.0" encoding="UTF-8" standalone="no"?>
<!DOCTYPE svg PUBLIC "-//W3C//DTD SVG 1.1//EN" "http://www.w3.org/Graphics/SVG/1.1/DTD/svg11.dtd">
<svg width="100%" height="100%" viewBox="0 0 1748 926" version="1.1" xmlns="http://www.w3.org/2000/svg" xmlns:xlink="http://www.w3.org/1999/xlink" xml:space="preserve" xmlns:serif="http://www.serif.com/" style="fill-rule:evenodd;clip-rule:evenodd;stroke-linecap:round;stroke-miterlimit:10;">
    <rect x="0" y="0" width="1748" height="926" style="fill:none;"/>
    <g transform="matrix(0.769714,-0.638389,0.638389,0.769714,944.45,606.07)">
        <path d="M30.436,-51.5C95.092,2.125 239.138,-105.763 304.564,-51.5" style="fill:none;fill-rule:nonzero;stroke:rgb(169,169,169);stroke-width:6px;"/>
    </g>
    <g transform="matrix(1,0,0,-1,873,174)">
        <path d="M597,-198C621,-198 633,-139 657,-139L795,-139" style="fill:none;fill-rule:nonzero;stroke:rgb(169,169,169);stroke-width:5px;"/>
    </g>
    <g transform="matrix(1,0,0,-1,873,210)">
        <path d="M597,-162C621,-162 633,-139 657,-139L741,-139" style="fill:none;fill-rule:nonzero;stroke:rgb(169,169,169);stroke-width:5px;"/>
    </g>
    <g transform="matrix(1,0,0,-1,873,246)">
        <path d="M597,-126C621,-126 633,-139 657,-139L764,-139" style="fill:none;fill-rule:nonzero;stroke:rgb(169,169,169);stroke-width:5px;"/>
    </g>
    <g transform="matrix(1,0,0,-1,873,282)">
        <path d="M597,-90C621,-90 633,-139 657,-139L841,-139" style="fill:none;fill-rule:nonzero;stroke:rgb(169,169,169);stroke-width:5px;"/>
    </g>
    <g transform="matrix(1,0,0,-1,873,318)">
        <path d="M597,-54C621,-54 633,-139 657,-139L751,-139" style="fill:none;fill-rule:nonzero;stroke:rgb(169,169,169);stroke-width:5px;"/>
    </g>
    <g transform="matrix(1,0,0,-1,873,529)">
        <path d="M62,-18C146,-18 188,36 273,36L330,36" style="fill:none;fill-rule:nonzero;stroke:rgb(169,169,169);stroke-width:6px;"/>
    </g>
    <g transform="matrix(1,0,0,-1,873,565)">
        <path d="M62,18C146,18 188,36 273,36L381,36" style="fill:none;fill-rule:nonzero;stroke:rgb(169,169,169);stroke-width:6px;"/>
    </g>
    <g transform="matrix(1,0,0,-1,873,547)">
        <path d="M381,18L619,18" style="fill:none;fill-rule:nonzero;stroke:rgb(169,169,169);stroke-width:5px;"/>
    </g>
    <g transform="matrix(1,0,0,-1,873,601)">
        <path d="M62,54C146,54 188,36 273,36L393,36" style="fill:none;fill-rule:nonzero;stroke:rgb(169,169,169);stroke-width:6px;"/>
    </g>
    <g transform="matrix(0.970405,0.241483,-0.241483,0.970405,893.259,471.692)">
        <path d="M58.691,63C143.116,41.991 197.884,84.009 282.309,63" style="fill:none;fill-rule:nonzero;stroke:rgb(169,169,169);stroke-width:6px;"/>
    </g>
    <g transform="matrix(1,0,0,-1,873,699)">
        <path d="M62,152C146,152 188,36 273,36L422,36" style="fill:none;fill-rule:nonzero;stroke:rgb(169,169,169);stroke-width:6px;"/>
    </g>
    <g transform="matrix(1,0,0,-1,873,735)">
        <path d="M62,188C146,188 188,36 273,36L396,36" style="fill:none;fill-rule:nonzero;stroke:rgb(169,169,169);stroke-width:6px;"/>
    </g>
    <g transform="matrix(1,0,0,-1,873,807)">
        <path d="M62,260C146,260 188,36 273,36L334,36" style="fill:none;fill-rule:nonzero;stroke:rgb(169,169,169);stroke-width:6px;"/>
    </g>
    <g transform="matrix(1,0,0,-1,873,995)">
        <path d="M334,224C358,224 370,260 394,260L451,260" style="fill:none;fill-rule:nonzero;stroke:rgb(169,169,169);stroke-width:5px;"/>
    </g>
    <g transform="matrix(1,0,0,-1,873,1031)">
        <path d="M334,260L646,260" style="fill:none;fill-rule:nonzero;stroke:rgb(169,169,169);stroke-width:5px;"/>
    </g>
    <g transform="matrix(1,0,0,-1,873,1067)">
        <path d="M334,296C358,296 370,260 394,260L444,260" style="fill:none;fill-rule:nonzero;stroke:rgb(169,169,169);stroke-width:5px;"/>
    </g>
    <g transform="matrix(1,0,0,-1,873,861)">
        <path d="M62,314C-22,314 -64,36 -148,36L-315,36" style="fill:none;fill-rule:nonzero;stroke:rgb(169,169,169);stroke-width:6px;"/>
    </g>
    <g transform="matrix(1,0,0,-1,873,1073)">
        <path d="M-315,248C-339,248 -351,314 -375,314L-629,314" style="fill:none;fill-rule:nonzero;stroke:rgb(169,169,169);stroke-width:5px;"/>
    </g>
    <g transform="matrix(1,0,0,-1,873,1109)">
        <path d="M-315,284C-339,284 -351,314 -375,314L-465,314" style="fill:none;fill-rule:nonzero;stroke:rgb(169,169,169);stroke-width:5px;"/>
    </g>
    <g transform="matrix(1,0,0,-1,873,1145)">
        <path d="M-315,320C-339,320 -351,314 -375,314L-489,314" style="fill:none;fill-rule:nonzero;stroke:rgb(169,169,169);stroke-width:5px;"/>
    </g>
    <g transform="matrix(1,0,0,-1,873,1205)">
        <path d="M-315,380C-339,380 -351,314 -375,314L-569,314" style="fill:none;fill-rule:nonzero;stroke:rgb(169,169,169);stroke-width:5px;"/>
    </g>
    <g transform="matrix(1,0,0,-1,873,669)">
        <path d="M62,122C-22,122 -64,36 -148,36L-329,36" style="fill:none;fill-rule:nonzero;stroke:rgb(169,169,169);stroke-width:6px;"/>
    </g>
    <g transform="matrix(1,0,0,-1,873,665)">
        <path d="M-329,32C-353,32 -365,122 -389,122L-576,122" style="fill:none;fill-rule:nonzero;stroke:rgb(169,169,169);stroke-width:5px;"/>
    </g>
    <g transform="matrix(1,0,0,-1,873,701)">
        <path d="M-329,68C-353,68 -365,122 -389,122L-675,122" style="fill:none;fill-rule:nonzero;stroke:rgb(169,169,169);stroke-width:5px;"/>
    </g>
    <g transform="matrix(1,0,0,-1,873,737)">
        <path d="M-329,104C-353,104 -365,122 -389,122L-599,122" style="fill:none;fill-rule:nonzero;stroke:rgb(169,169,169);stroke-width:5px;"/>
    </g>
    <g transform="matrix(1,0,0,-1,873,773)">
        <path d="M-329,140C-353,140 -365,122 -389,122L-509,122" style="fill:none;fill-rule:nonzero;stroke:rgb(169,169,169);stroke-width:5px;"/>
    </g>
    <g transform="matrix(1,0,0,-1,873,809)">
        <path d="M-329,176C-353,176 -365,122 -389,122L-495,122" style="fill:none;fill-rule:nonzero;stroke:rgb(169,169,169);stroke-width:5px;"/>
    </g>
    <g transform="matrix(1,0,0,-1,873,845)">
        <path d="M-329,212C-353,212 -365,122 -389,122L-478,122" style="fill:none;fill-rule:nonzero;stroke:rgb(169,169,169);stroke-width:5px;"/>
    </g>
    <g transform="matrix(-0.738029,-0.674769,0.674769,-0.738029,838.751,377.703)">
        <path d="M-185.271,-60C-123.276,-116.681 37.276,-3.319 99.271,-60" style="fill:none;fill-rule:nonzero;stroke:rgb(169,169,169);stroke-width:6px;"/>
    </g>
    <g transform="matrix(-0.5547,-0.83205,0.83205,-0.5547,359.283,-165.933)">
        <path d="M-492.083,-201C-478.77,-220.969 -397.23,-181.031 -383.917,-201" style="fill:none;fill-rule:nonzero;stroke:rgb(169,169,169);stroke-width:5px;"/>
    </g>
    <g transform="matrix(1,0,0,-1,873,-4)">
        <path d="M-633,-269C-657,-269 -669,-246 -693,-246L-766,-246" style="fill:none;fill-rule:nonzero;stroke:rgb(169,169,169);stroke-width:4px;"/>
    </g>
    <g transform="matrix(1,0,0,-1,873,32)">
        <path d="M-633,-233C-657,-233 -669,-246 -693,-246L-839,-246" style="fill:none;fill-rule:nonzero;stroke:rgb(169,169,169);stroke-width:4px;"/>
    </g>
    <g transform="matrix(1,0,0,-1,873,68)">
        <path d="M-633,-197C-657,-197 -669,-246 -693,-246L-756,-246" style="fill:none;fill-rule:nonzero;stroke:rgb(169,169,169);stroke-width:4px;"/>
    </g>
    <g transform="matrix(1,0,0,-1,873,207)">
        <path d="M-408,-148C-432,-148 -444,-156 -468,-156L-618,-156" style="fill:none;fill-rule:nonzero;stroke:rgb(169,169,169);stroke-width:5px;"/>
    </g>
    <g transform="matrix(1,0,0,-1,873,243)">
        <path d="M-408,-112C-432,-112 -444,-156 -468,-156L-585,-156" style="fill:none;fill-rule:nonzero;stroke:rgb(169,169,169);stroke-width:5px;"/>
    </g>
    <g transform="matrix(1,0,0,-1,873,279)">
        <path d="M-408,-76C-432,-76 -444,-156 -468,-156L-549,-156" style="fill:none;fill-rule:nonzero;stroke:rgb(169,169,169);stroke-width:5px;"/>
    </g>
    <g transform="matrix(1,0,0,-1,873,315)">
        <path d="M-408,-40C-432,-40 -444,-156 -468,-156L-518,-156" style="fill:none;fill-rule:nonzero;stroke:rgb(169,169,169);stroke-width:5px;"/>
    </g>
    <g transform="matrix(1,0,0,-1,873,351)">
        <path d="M-408,-4C-432,-4 -444,-156 -468,-156L-519,-156" style="fill:none;fill-rule:nonzero;stroke:rgb(169,169,169);stroke-width:5px;"/>
    </g>
    <g transform="matrix(1,0,0,1,0,169.664)">
        <path d="M1086,378.168L1086,406.168C1086,411.691 1081.52,416.168 1076,416.168L795,416.168C789.477,416.168 785,411.691 785,406.168L785,350.168C785,344.645 789.477,340.168 795,340.168L1076,340.168C1081.52,340.168 1086,344.645 1086,350.168L1086,378.168Z" style="fill:rgb(255,251,0);fill-rule:nonzero;stroke:rgb(255,252,121);stroke-width:1px;stroke-linejoin:round;stroke-miterlimit:4;"/>
    </g>
    <g transform="matrix(1,0,0,1,0,-180.336)">
        <path d="M1470,553.168L1470,593.168C1470,598.691 1465.52,603.168 1460,603.168L1156,603.168C1150.48,603.168 1146,598.691 1146,593.168L1146,513.168C1146,507.645 1150.48,503.168 1156,503.168L1460,503.168C1465.52,503.168 1470,507.645 1470,513.168L1470,553.168Z" style="fill:rgb(255,252,121);fill-rule:nonzero;stroke:rgb(255,252,121);stroke-width:6px;stroke-linejoin:round;stroke-miterlimit:4;"/>
    </g>
    <g transform="matrix(1,0,0,1,0,277.564)">
        <path d="M1150,316.268C1149.2,315.668 1148.6,314.668 1148.6,313.568C1148.6,311.668 1150.1,310.168 1152,310.168L1152.5,310.168C1152.4,309.868 1152.3,309.568 1152.3,309.168C1152.3,307.568 1153.6,306.268 1155.2,306.268C1156.5,306.268 1157.6,307.068 1158,308.268C1159.14,305.668 1161.72,303.868 1164.68,303.868C1165.73,303.868 1166.68,304.068 1167.54,304.468C1168.78,303.268 1170.5,302.568 1172.4,302.568C1174.6,302.568 1176.6,303.568 1177.94,305.168C1178.7,304.568 1179.65,304.168 1180.7,304.168C1182.13,304.168 1183.38,304.768 1184.23,305.868C1185.28,304.568 1186.9,303.668 1188.62,303.668C1191.29,303.668 1193.58,305.568 1194.25,308.268C1195.78,303.968 1199.78,300.868 1204.46,300.868C1206.75,300.868 1208.75,301.568 1210.47,302.768C1211.71,300.168 1214.28,298.368 1217.24,298.368C1220.96,298.368 1224.11,301.168 1224.78,304.868C1225.16,304.668 1229.36,304.668 1230.5,308.268C1231.36,305.968 1233.55,304.368 1236.03,304.368C1238.04,304.368 1239.75,305.368 1240.9,306.968C1241.66,305.468 1243.19,304.468 1244.9,304.468C1246.05,304.468 1247.19,304.968 1247.96,305.768C1249.01,304.768 1250.44,304.168 1252.06,304.168C1254.35,304.168 1256.35,305.468 1257.4,307.368C1258.45,306.068 1259.98,305.268 1261.79,305.268C1263.89,305.268 1265.8,306.468 1266.75,308.268C1266.85,305.768 1268.85,303.768 1271.23,303.768C1272.38,303.768 1273.43,304.268 1274.29,304.968C1275.81,303.168 1278.01,302.068 1280.39,302.068C1283.16,302.068 1285.54,303.568 1286.97,305.668C1288.12,304.468 1289.64,303.768 1291.36,303.768C1293.27,303.768 1294.99,304.668 1296.13,306.068C1296.8,305.768 1297.56,305.568 1298.33,305.568C1300.23,305.568 1301.95,306.568 1303,308.268C1303.2,307.168 1304.2,306.268 1305.4,306.268C1306.8,306.268 1307.9,307.368 1307.9,308.768C1308.3,308.668 1308.7,308.568 1309.1,308.568C1311.3,308.568 1313.2,310.368 1313.2,312.568C1313.2,314.168 1312.3,315.468 1311,316.268C1311.9,316.73 1312.4,317.499 1312.4,318.422C1312.4,319.268 1311.9,320.037 1311,320.499C1312.6,320.883 1313.8,322.037 1313.8,323.345C1313.8,324.73 1312.6,325.883 1311,326.268C1312.2,326.73 1313,327.653 1313,328.653C1313,329.191 1312.8,329.653 1312.5,330.037C1312.7,330.268 1312.8,330.499 1312.8,330.73C1312.8,331.191 1312.5,331.576 1312,331.806C1312.8,332.268 1313.4,332.96 1313.4,333.806C1313.4,334.96 1312.4,335.883 1311,336.268C1312.6,336.868 1313.7,338.368 1313.7,340.168C1313.7,342.368 1312,344.068 1309.9,344.268C1309.6,345.968 1308.2,347.168 1306.5,347.168C1304.8,347.168 1303.3,345.968 1303,344.268C1301.47,345.968 1299.38,347.068 1296.89,347.068C1294.61,347.068 1292.6,346.068 1291.17,344.568C1290.5,346.268 1288.88,347.368 1287.07,347.368C1286.02,347.368 1285.07,346.968 1284.3,346.368C1283.25,348.568 1281.15,350.068 1278.67,350.068C1275.91,350.068 1273.52,348.168 1272.66,345.468C1272,345.668 1271.42,345.768 1270.66,345.768C1269.13,345.768 1267.8,345.168 1266.75,344.268C1265.99,347.068 1263.51,349.068 1260.55,349.068C1258.74,349.068 1257.12,348.268 1255.97,347.068C1254.73,347.768 1253.3,348.168 1251.77,348.168C1249.48,348.168 1247.38,347.268 1245.86,345.668C1245.57,346.768 1244.62,347.568 1243.38,347.568C1242.23,347.568 1241.28,346.768 1240.9,345.668C1239.66,346.868 1238.04,347.568 1236.22,347.568C1233.84,347.568 1231.64,346.268 1230.5,344.268C1229.07,345.768 1227.07,346.668 1224.87,346.568C1222.68,346.568 1220.77,345.668 1219.15,344.268C1218.29,345.868 1216.76,346.868 1215.05,346.868C1213.62,346.868 1212.28,346.168 1211.42,344.968C1210.47,347.268 1208.27,348.868 1205.7,348.868C1203.12,348.868 1200.93,347.268 1199.88,344.968C1199.21,345.268 1198.45,345.368 1197.68,345.368C1196.44,345.368 1195.3,344.968 1194.25,344.268C1194.25,344.268 1194.25,344.368 1194.25,344.268C1192.91,347.068 1190.24,348.868 1187.1,348.868C1185.38,348.868 1183.85,348.368 1182.61,347.368C1181.85,348.168 1180.7,348.568 1179.56,348.568C1177.94,348.568 1176.51,347.668 1175.65,346.268C1174.98,346.668 1174.12,346.968 1173.36,346.968C1172.02,346.968 1170.78,346.368 1170.02,345.368C1168.59,346.768 1166.59,347.568 1164.49,347.568C1161.82,347.568 1159.53,346.268 1158,344.268C1157,345.968 1155.1,347.068 1153,347.068C1149.8,347.068 1147.2,344.468 1147.2,341.268C1147.2,339.168 1148.3,337.268 1150,336.268C1149.4,335.883 1149,335.191 1149,334.499C1149,334.114 1149.1,333.806 1149.3,333.499C1147.9,332.73 1146.9,331.499 1146.9,330.037C1146.9,328.345 1148.2,326.96 1150,326.268C1148.6,325.806 1147.6,324.73 1147.6,323.422C1147.6,322.653 1147.9,322.037 1148.5,321.499C1147.5,320.96 1146.8,320.114 1146.8,319.114C1146.8,317.653 1148.2,316.499 1150,316.268" style="fill:white;fill-rule:nonzero;"/>
    </g>
    <g transform="matrix(1,0,0,-1,873,692.564)">
        <path d="M277,98.732C276.2,99.332 275.6,100.332 275.6,101.432C275.6,103.332 277.1,104.832 279,104.832L279.5,104.832C279.4,105.132 279.3,105.432 279.3,105.832C279.3,107.432 280.6,108.732 282.2,108.732C283.5,108.732 284.6,107.932 285,106.732C286.145,109.332 288.72,111.132 291.678,111.132C292.727,111.132 293.681,110.932 294.539,110.532C295.78,111.732 297.497,112.432 299.405,112.432C301.599,112.432 303.602,111.432 304.937,109.832C305.701,110.432 306.655,110.832 307.704,110.832C309.135,110.832 310.375,110.232 311.234,109.132C312.283,110.432 313.905,111.332 315.622,111.332C318.293,111.332 320.582,109.432 321.25,106.732C322.776,111.032 326.783,114.132 331.457,114.132C333.747,114.132 335.75,113.432 337.467,112.232C338.707,114.832 341.283,116.632 344.24,116.632C347.96,116.632 351.109,113.832 351.776,110.132C352.158,110.332 356.355,110.332 357.5,106.732C358.359,109.032 360.553,110.632 363.033,110.632C365.036,110.632 366.753,109.632 367.898,108.032C368.661,109.532 370.188,110.532 371.905,110.532C373.049,110.532 374.194,110.032 374.957,109.232C376.007,110.232 377.437,110.832 379.059,110.832C381.349,110.832 383.352,109.532 384.401,107.632C385.451,108.932 386.977,109.732 388.789,109.732C390.888,109.732 392.796,108.532 393.75,106.732C393.845,109.232 395.849,111.232 398.234,111.232C399.378,111.232 400.428,110.732 401.286,110.032C402.813,111.832 405.007,112.932 407.391,112.932C410.158,112.932 412.543,111.432 413.974,109.332C415.118,110.532 416.645,111.232 418.362,111.232C420.27,111.232 421.987,110.332 423.132,108.932C423.799,109.232 424.563,109.432 425.326,109.432C427.234,109.432 428.951,108.432 430,106.732C430.2,107.832 431.2,108.732 432.4,108.732C433.8,108.732 434.9,107.632 434.9,106.232C435.3,106.332 435.7,106.432 436.1,106.432C438.3,106.432 440.2,104.632 440.2,102.432C440.2,100.832 439.3,99.532 438,98.732C438.9,98.27 439.4,97.501 439.4,96.578C439.4,95.732 438.9,94.963 438,94.501C439.6,94.117 440.8,92.963 440.8,91.655C440.8,90.27 439.6,89.117 438,88.732C439.2,88.27 440,87.347 440,86.347C440,85.809 439.8,85.347 439.5,84.963C439.7,84.732 439.8,84.501 439.8,84.27C439.8,83.809 439.5,83.424 439,83.194C439.8,82.732 440.4,82.04 440.4,81.194C440.4,80.04 439.4,79.117 438,78.732C439.6,78.132 440.7,76.632 440.7,74.832C440.7,72.632 439,70.932 436.9,70.732C436.6,69.032 435.2,67.832 433.5,67.832C431.8,67.832 430.3,69.032 430,70.732C428.474,69.032 426.375,67.932 423.895,67.932C421.605,67.932 419.602,68.932 418.171,70.432C417.503,68.732 415.882,67.632 414.069,67.632C413.02,67.632 412.066,68.032 411.303,68.632C410.253,66.432 408.155,64.932 405.674,64.932C402.908,64.932 400.523,66.832 399.665,69.532C398.997,69.332 398.424,69.232 397.661,69.232C396.135,69.232 394.799,69.832 393.75,70.732C392.987,67.932 390.507,65.932 387.549,65.932C385.737,65.932 384.115,66.732 382.97,67.932C381.73,67.232 380.299,66.832 378.773,66.832C376.484,66.832 374.385,67.732 372.859,69.332C372.572,68.232 371.618,67.432 370.378,67.432C369.234,67.432 368.28,68.232 367.898,69.332C366.658,68.132 365.036,67.432 363.224,67.432C360.839,67.432 358.645,68.732 357.5,70.732C356.069,69.232 354.066,68.332 351.872,68.432C349.678,68.432 347.77,69.332 346.148,70.732C345.289,69.132 343.763,68.132 342.046,68.132C340.615,68.132 339.28,68.832 338.421,70.032C337.467,67.732 335.273,66.132 332.697,66.132C330.122,66.132 327.928,67.732 326.878,70.032C326.21,69.732 325.447,69.632 324.684,69.632C323.444,69.632 322.299,70.032 321.25,70.732C321.25,70.732 321.25,70.632 321.25,70.732C319.914,67.932 317.243,66.132 314.095,66.132C312.378,66.132 310.852,66.632 309.612,67.632C308.849,66.832 307.704,66.432 306.559,66.432C304.937,66.432 303.507,67.332 302.648,68.732C301.98,68.332 301.122,68.032 300.359,68.032C299.023,68.032 297.783,68.632 297.02,69.632C295.589,68.232 293.585,67.432 291.487,67.432C288.816,67.432 286.526,68.732 285,70.732C284,69.032 282.1,67.932 280,67.932C276.8,67.932 274.2,70.532 274.2,73.732C274.2,75.832 275.3,77.732 277,78.732C276.4,79.117 276,79.809 276,80.501C276,80.886 276.1,81.194 276.3,81.501C274.9,82.27 273.9,83.501 273.9,84.963C273.9,86.655 275.2,88.04 277,88.732C275.6,89.194 274.6,90.27 274.6,91.578C274.6,92.347 274.9,92.963 275.5,93.501C274.5,94.04 273.8,94.886 273.8,95.886C273.8,97.347 275.2,98.501 277,98.732" style="fill:none;fill-rule:nonzero;stroke:white;stroke-width:6px;stroke-linejoin:round;stroke-miterlimit:4;"/>
    </g>
    <g transform="matrix(1,0,0,1,0,-214.336)">
        <path d="M485,532.168L705,532.168C713,532.168 725,543.568 725,570.168C725,596.768 713,608.168 705,608.168L485,608.168C477,608.168 465,596.768 465,570.168C465,543.568 477,532.168 485,532.168Z" style="fill:rgb(115,253,255);fill-rule:nonzero;stroke:rgb(115,253,255);stroke-width:6px;stroke-linejoin:round;stroke-miterlimit:4;"/>
    </g>
    <g transform="matrix(1,0,0,1,0,-394.336)">
        <path d="M260,598.168L385,598.168C393,598.168 405,616.768 405,660.168C405,703.568 393,722.168 385,722.168L260,722.168C252,722.168 240,703.568 240,660.168C240,616.768 252,598.168 260,598.168Z" style="fill:rgb(115,253,255);fill-rule:nonzero;stroke:rgb(115,253,255);stroke-width:6px;stroke-linejoin:round;stroke-miterlimit:4;"/>
    </g>
    <g>
        <text x="807.141px" y="542.832px" style="font-family:'Helvetica-Bold', 'Helvetica';font-weight:700;font-size:20px;fill:rgb(22,67,85);">Information/Cyber Security</text>
        <text x="866.008px" y="566.832px" style="font-family:'Helvetica-Bold', 'Helvetica';font-weight:700;font-size:20px;fill:rgb(22,67,85);">ISO 27k Series</text>
    </g>
    <g>
        <text x="1165px" y="355.832px" style="font-family:'Helvetica-Bold', 'Helvetica';font-weight:700;font-size:20px;fill:rgb(52,72,83);">Schutzziele mit Fokus Schutz</text>
        <text x="1165px" y="379.832px" style="font-family:'Helvetica-Bold', 'Helvetica';font-weight:700;font-size:20px;fill:rgb(52,72,83);">von Daten/Know/Information,</text>
        <text x="1165px" y="403.832px" style="font-family:'Helvetica-Bold', 'Helvetica';font-weight:700;font-size:20px;fill:rgb(52,72,83);">Business Continuity</text>
    </g>
    <g>
        <text x="1536px" y="307.832px" style="font-family:'Helvetica';font-size:20px;">Conﬁdentiality</text>
        <text x="1536px" y="343.832px" style="font-family:'Helvetica';font-size:20px;">Integrity</text>
        <text x="1536px" y="379.832px" style="font-family:'Helvetica';font-size:20px;">A</text>
        <text x="1548.99px" y="379.832px" style="font-family:'Helvetica';font-size:20px;">vailability</text>
        <text x="1536px" y="415.832px" style="font-family:'Helvetica';font-size:20px;">Nichtabstreitbarkeit</text>
        <text x="1536px" y="451.832px" style="font-family:'Helvetica';font-size:20px;">Resilienz</text>
    </g>
    <g>
        <text x="1152px" y="487.832px" style="font-family:'Helvetica';font-size:20px;fill:rgb(52,72,83);">BCM</text>
        <text x="1152px" y="523.832px" style="font-family:'Helvetica';font-size:20px;fill:rgb(52,72,83);">I</text>
        <text x="1157.56px" y="523.832px" style="font-family:'Helvetica';font-size:20px;fill:rgb(52,72,83);">T</text>
        <text x="1174.63px" y="523.832px" style="font-family:'Helvetica';font-size:20px;fill:rgb(52,72,83);">Security</text>
    </g>
    <text x="1320px" y="523.832px" style="font-family:'Helvetica';font-size:20px;fill:rgb(52,72,83);">Computer Security</text>
    <g>
        <text x="1152px" y="559.832px" style="font-family:'Helvetica';font-size:20px;fill:rgb(52,72,83);">Data Center</text>
        <text x="1165px" y="608.832px" style="font-family:'Helvetica';font-size:20px;fill:rgb(52,72,82);">Cloud Security</text>
        <text x="1152px" y="657.832px" style="font-family:'Helvetica';font-size:20px;fill:rgb(52,72,83);">Mobile Security</text>
        <text x="1152px" y="693.832px" style="font-family:'Helvetica';font-size:20px;fill:rgb(52,72,83);">IO</text>
        <text x="1173.11px" y="693.832px" style="font-family:'Helvetica';font-size:20px;fill:rgb(52,72,83);">T</text>
        <text x="1190.18px" y="693.832px" style="font-family:'Helvetica';font-size:20px;fill:rgb(52,72,83);">Security</text>
        <text x="1152px" y="765.832px" style="font-family:'Helvetica';font-size:20px;fill:rgb(52,72,83);">ISMS</text>
    </g>
    <g>
        <text x="1273px" y="729.832px" style="font-family:'Helvetica';font-size:20px;fill:rgb(52,72,83);">ASIT</text>
        <text x="1273px" y="765.832px" style="font-family:'Helvetica';font-size:20px;fill:rgb(52,72,83);">BSI Grundschutzhandbuch</text>
        <text x="1273px" y="801.832px" style="font-family:'Helvetica';font-size:20px;fill:rgb(52,72,83);">ISIS</text>
    </g>
    <text x="564px" y="819.832px" style="font-family:'Helvetica';font-size:20px;fill:rgb(52,72,82);">Defense in Depth</text>
    <g>
        <text x="250px" y="753.832px" style="font-family:'Helvetica';font-size:20px;fill:rgb(52,72,82);">Security	<tspan x="333.36px " y="753.832px ">b</tspan>y Design/Default</text>
        <text x="414.754px" y="789.832px" style="font-family:'Helvetica';font-size:20px;fill:rgb(52,72,82);">Lifecycle</text>
        <text x="390px" y="825.832px" style="font-family:'Helvetica';font-size:20px;fill:rgb(52,72,82);">Risk Based</text>
        <text x="310px" y="861.832px" style="font-family:'Helvetica';font-size:20px;fill:rgb(52,72,82);">Business Continuity</text>
        <text x="310px" y="885.832px" style="font-family:'Helvetica';font-size:20px;fill:rgb(52,72,82);">Management</text>
    </g>
    <g>
        <text x="550px" y="627.832px" style="font-family:'Helvetica';font-size:20px;fill:rgb(52,72,83);">Holistischer</text>
        <text x="657.826px" y="627.832px" style="font-family:'Helvetica';font-size:20px;fill:rgb(52,72,83);">Ansatz</text>
    </g>
    <g>
        <text x="303px" y="537.832px" style="font-family:'Helvetica';font-size:20px;fill:rgb(52,72,83);">People/Stakeholder</text>
        <text x="204px" y="573.832px" style="font-family:'Helvetica';font-size:20px;fill:rgb(52,72,83);">Data, Information &amp; Know How</text>
        <text x="280px" y="609.832px" style="font-family:'Helvetica';font-size:20px;fill:rgb(52,72,83);">Things &amp; Components</text>
        <text x="370px" y="645.832px" style="font-family:'Helvetica';font-size:20px;fill:rgb(52,72,83);">Applications</text>
        <text x="384px" y="681.832px" style="font-family:'Helvetica';font-size:20px;fill:rgb(52,72,83);">Processes</text>
        <text x="401px" y="717.832px" style="font-family:'Helvetica';font-size:20px;fill:rgb(52,72,83);">Systems</text>
    </g>
    <g>
        <text x="484px" y="350.832px" style="font-family:'Helvetica-Bold', 'Helvetica';font-weight:700;font-size:20px;fill:rgb(52,72,83);">Industrial (Cyber)</text>
        <text x="484px" y="374.832px" style="font-family:'Helvetica-Bold', 'Helvetica';font-weight:700;font-size:20px;fill:rgb(52,72,83);">Security IEC 62443</text>
    </g>
    <g>
        <text x="259px" y="236.832px" style="font-family:'Helvetica-Bold', 'Helvetica';font-weight:700;font-size:20px;fill:rgb(52,72,83);">Schutzziele</text>
        <text x="259px" y="260.832px" style="font-family:'Helvetica-Bold', 'Helvetica';font-weight:700;font-size:20px;fill:rgb(52,72,83);">Fokus</text>
        <text x="259px" y="284.832px" style="font-family:'Helvetica-Bold', 'Helvetica';font-weight:700;font-size:20px;fill:rgb(52,72,83);">Produktivität</text>
        <text x="259px" y="308.832px" style="font-family:'Helvetica-Bold', 'Helvetica';font-weight:700;font-size:20px;fill:rgb(52,72,83);">und Safety</text>
    </g>
    <g>
        <text x="113px" y="236.832px" style="font-family:'Helvetica-Bold', 'Helvetica';font-weight:700;font-size:20px;fill:rgb(52,72,83);">Safety</text>
        <text x="40px" y="272.832px" style="font-family:'Helvetica';font-size:20px;fill:rgb(52,72,83);">Zuverlässigkeit</text>
        <text x="123px" y="308.832px" style="font-family:'Helvetica';font-size:20px;fill:rgb(52,72,83);">+ CIA</text>
    </g>
    <g>
        <text x="261px" y="357.832px" style="font-family:'Helvetica';font-size:20px;fill:rgb(52,72,83);">I(A)CS Security</text>
        <text x="294px" y="393.832px" style="font-family:'Helvetica';font-size:20px;fill:rgb(52,72,83);">Industrial IT</text>
        <text x="330px" y="429.832px" style="font-family:'Helvetica';font-size:20px;fill:rgb(52,72,83);">SCADA</text>
        <text x="361px" y="465.832px" style="font-family:'Helvetica';font-size:20px;fill:rgb(52,72,83);">OT</text>
        <text x="360px" y="501.832px" style="font-family:'Helvetica';font-size:20px;fill:rgb(52,72,83);">IIOT</text>
    </g>
    <g transform="matrix(1,0,0,-1,873,-156.446)">
        <path d="M329.764,-473.278C156.296,-296.619 -15.002,-205.466 -184.129,-199.817C-353.256,-194.168 -520.213,-274.024 -685,-439.385" style="fill:none;fill-rule:nonzero;stroke:rgb(18,135,222);stroke-width:2px;stroke-linejoin:round;stroke-miterlimit:4;"/>
    </g>
    <g transform="matrix(1,0,0,-1,873,47.823)">
        <path d="M-683.998,-226.177L-686.878,-237L-676.064,-234.083" style="fill:none;fill-rule:nonzero;stroke:rgb(18,135,222);stroke-width:2px;stroke-linejoin:round;stroke-miterlimit:4;"/>
    </g>
</svg>
