<?xml version="1.0" encoding="UTF-8" standalone="no"?><!DOCTYPE svg PUBLIC "-//W3C//DTD SVG 1.1//EN" "http://www.w3.org/Graphics/SVG/1.1/DTD/svg11.dtd"><svg width="100%" height="100%" viewBox="0 0 1920 1080" version="1.1" xmlns="http://www.w3.org/2000/svg" xmlns:xlink="http://www.w3.org/1999/xlink" xml:space="preserve" xmlns:serif="http://www.serif.com/" style="fill-rule:evenodd;clip-rule:evenodd;stroke-miterlimit:10;"><g><g><rect x="391.376" y="357.823" width="507.068" height="24.602" style="fill:#e5e499;fill-opacity:0.501961;fill-rule:nonzero;"/><rect x="391.376" y="382.425" width="1016.87" height="139.41" style="fill:#fffeab;fill-opacity:0.501961;fill-rule:nonzero;"/></g><g><rect x="391.376" y="357.823" width="507.068" height="24.602" style="fill:none;stroke:#b2b177;stroke-opacity:0.501961;stroke-width:1.37px;"/><rect x="391.376" y="382.425" width="1016.87" height="139.41" style="fill:none;stroke:#b2b177;stroke-opacity:0.501961;stroke-width:1.37px;"/><text x="398.21px" y="376.957px" style="font-family:'LucidaGrande', 'Lucida Grande', sans-serif;font-weight:500;font-size:16.401px;">Business</text><rect x="424.178" y="423.427" width="164.011" height="50.57" style="fill:#ffffb5;"/><rect x="424.178" y="423.427" width="162.645" height="49.203" style="fill:none;stroke:#b2b27e;stroke-width:1.37px;"/><circle cx="574.522" cy="432.995" r="4.1" style="fill:none;stroke:#000;stroke-width:1.37px;"/><path d="M574.522,437.095l0,8.201" style="fill:none;stroke:#000;stroke-width:1.37px;"/><path d="M574.522,445.296l-5.467,6.833" style="fill:none;stroke:#000;stroke-width:1.37px;"/><path d="M574.522,445.296l5.467,6.833" style="fill:none;stroke:#000;stroke-width:1.37px;"/><path d="M569.055,441.195l10.934,0" style="fill:none;stroke:#000;stroke-width:1.37px;"/><text x="447.413px" y="446.662px" style="font-family:'LucidaGrande', 'Lucida Grande', sans-serif;font-weight:500;font-size:16.401px;">Business Actor</text><rect x="620.992" y="423.427" width="164.011" height="50.57" style="fill:#ffffb5;"/><rect x="620.992" y="423.427" width="162.645" height="49.203" style="fill:none;stroke:#b2b27e;stroke-width:1.37px;"/><path d="M763.818,432.995c-1.887,0 -3.417,2.448 -3.417,5.467c0,3.019 1.53,5.467 3.417,5.467l12.985,0m-13.668,-10.934l13.668,0" style="fill:none;stroke:#000;stroke-width:1.37px;"/><ellipse cx="777.486" cy="438.462" rx="3.417" ry="5.467" style="fill:none;stroke:#000;stroke-width:1.37px;"/><text x="648.327px" y="446.662px" style="font-family:'LucidaGrande', 'Lucida Grande', sans-serif;font-weight:500;font-size:16.401px;">Business Role</text><path d="M966.782,437.095c0,-7.543 -6.124,-13.668 -13.667,-13.668l-105.241,0c-7.543,0 -13.668,6.125 -13.668,13.668l0,23.235c0,7.543 6.125,13.667 13.668,13.667l105.241,0c7.543,0 13.667,-6.124 13.667,-13.667l0,-23.235Z" style="fill:#ffffb5;"/><path d="M965.416,437.095c0,-7.543 -6.125,-13.668 -13.668,-13.668l-103.874,0c-7.543,0 -13.668,6.125 -13.668,13.668l0,21.868c0,7.543 6.125,13.668 13.668,13.668l103.874,0c7.543,0 13.668,-6.125 13.668,-13.668l0,-21.868Z" style="fill:none;stroke:#b2b27e;stroke-width:1.37px;"/><path d="M942.181,438.462l10.934,0l0,-4.101l8.2,6.834l-8.2,6.834l0,-4.1l-10.934,0l0,-5.467Z" style="fill:none;stroke:#000;stroke-width:1.37px;"/><text x="862.908px" y="446.662px" style="font-family:'LucidaGrande-Bold', 'Lucida Grande', sans-serif;font-weight:600;font-size:16.401px;">Business</text><text x="867.009px" y="467.164px" style="font-family:'LucidaGrande-Bold', 'Lucida Grande', sans-serif;font-weight:600;font-size:16.401px;">Process</text><rect x="392.743" y="177.41" width="507.068" height="24.602" style="fill:#d7c69c;fill-opacity:0.501961;fill-rule:nonzero;"/><rect x="392.743" y="202.012" width="1015.5" height="139.41" style="fill:#efdcae;fill-opacity:0.501961;fill-rule:nonzero;"/><rect x="392.743" y="177.41" width="507.068" height="24.602" style="fill:none;stroke:#a79a79;stroke-opacity:0.501961;stroke-width:1.37px;"/><rect x="392.743" y="202.012" width="1015.5" height="139.41" style="fill:none;stroke:#a79a79;stroke-opacity:0.501961;stroke-width:1.37px;"/><text x="399.577px" y="196.545px" style="font-family:'LucidaGrande', 'Lucida Grande', sans-serif;font-weight:500;font-size:16.401px;">Strategy</text><path d="M918.946,256.682c0,-7.543 -6.125,-13.667 -13.668,-13.667l-138.043,0c-7.543,0 -13.667,6.124 -13.667,13.667l0,31.436c0,7.543 6.124,13.668 13.667,13.668l138.043,0c7.543,0 13.668,-6.125 13.668,-13.668l0,-31.436Z" style="fill:#f5deaa;"/><path d="M917.579,256.682c0,-7.543 -6.125,-13.667 -13.668,-13.667l-136.676,0c-7.543,0 -13.667,6.124 -13.667,13.667l0,30.069c0,7.543 6.124,13.668 13.667,13.668l136.676,0c7.543,0 13.668,-6.125 13.668,-13.668l0,-30.069Z" style="fill:none;stroke:#ab9b77;stroke-width:1.37px;"/><path d="M888.33,259.416l8.201,1.367l-4.1,7.107"/></g><g><path d="M892.294,263.516c-3.316,0 -6.155,2.381 -6.73,5.648" style="fill:none;stroke:#000;stroke-width:2.73px;"/><path d="M913.479,255.999c0,-4.907 -3.978,-8.884 -8.884,-8.884c-4.907,0 -8.884,3.977 -8.884,8.884c0,4.907 3.977,8.884 8.884,8.884c4.906,0 8.884,-3.977 8.884,-8.884Zm-3.417,0c0,-3.019 -2.448,-5.467 -5.467,-5.467c-3.02,0 -5.467,2.448 -5.467,5.467c0,3.019 2.447,5.467 5.467,5.467c3.019,0 5.467,-2.448 5.467,-5.467Z" style="fill:none;stroke:#000;stroke-width:1.64px;"/><circle cx="904.595" cy="255.999" r="2.05"/><text x="800.037px" y="266.25px" style="font-family:'LucidaGrande-Bold', 'Lucida Grande', sans-serif;font-weight:600;font-size:16.401px;">Strategy</text><path d="M964.049,243.015l136.676,0l13.667,13.667l0,30.069l-13.667,13.668l-136.676,0l-13.668,-13.668l0,-30.069l13.668,-13.667Z" style="fill:#f0deaf;fill-rule:nonzero;"/><path d="M964.049,243.015l136.676,0l13.667,13.667l0,30.069l-13.667,13.668l-136.676,0l-13.668,-13.668l0,-30.069l13.668,-13.667Z" style="fill:none;stroke:#a89b7a;stroke-width:1.37px;"/><path d="M1106.19,260.099c0,-4.906 -3.977,-8.884 -8.884,-8.884c-4.907,0 -8.884,3.978 -8.884,8.884c0,4.907 3.977,8.884 8.884,8.884c4.907,0 8.884,-3.977 8.884,-8.884Zm-3.417,0c0,-3.019 -2.448,-5.467 -5.467,-5.467c-3.019,0 -5.467,2.448 -5.467,5.467c0,3.02 2.448,5.467 5.467,5.467c3.019,0 5.467,-2.447 5.467,-5.467Z" style="fill:none;stroke:#000;stroke-width:1.64px;"/><circle cx="1097.31" cy="260.099" r="2.05"/><text x="1013.25px" y="266.25px" style="font-family:'LucidaGrande-Bold', 'Lucida Grande', sans-serif;font-weight:600;font-size:16.401px;">Goal</text></g><g><rect x="396.843" y="538.235" width="504.335" height="24.602" style="fill:#ace2e4;fill-opacity:0.501961;fill-rule:nonzero;"/><rect x="396.843" y="562.837" width="1011.4" height="139.41" style="fill:#c0fcfe;fill-opacity:0.501961;fill-rule:nonzero;"/><rect x="396.843" y="538.235" width="504.335" height="24.602" style="fill:none;stroke:#86b0b1;stroke-opacity:0.501961;stroke-width:1.37px;"/><rect x="396.843" y="562.837" width="1011.4" height="139.41" style="fill:none;stroke:#86b0b1;stroke-opacity:0.501961;stroke-width:1.37px;"/><text x="403.677px" y="557.37px" style="font-family:'LucidaGrande', 'Lucida Grande', sans-serif;font-weight:500;font-size:16.401px;">Application</text></g><g><path d="M1021.45,584.705c0,-7.543 -6.125,-13.667 -13.668,-13.667l-138.043,0c-7.543,0 -13.667,6.124 -13.667,13.667l0,23.235c0,7.543 6.124,13.668 13.667,13.668l138.043,0c7.543,0 13.668,-6.125 13.668,-13.668l0,-23.235Z" style="fill:#b5ffff;"/><path d="M1020.09,584.705c0,-7.543 -6.124,-13.667 -13.668,-13.667l-136.676,0c-7.543,0 -13.667,6.124 -13.667,13.667l0,21.868c0,7.543 6.124,13.668 13.667,13.668l136.676,0c7.544,0 13.668,-6.125 13.668,-13.668l0,-21.868Z" style="fill:none;stroke:#7eb2b2;stroke-width:1.37px;"/><path d="M1014.62,586.072c0,-3.018 -2.449,-5.467 -5.467,-5.467l-10.934,0c-3.018,0 -5.467,2.449 -5.467,5.467l0,1.367c0,3.017 2.449,5.467 5.467,5.467l10.934,0c3.018,0 5.467,-2.45 5.467,-5.467l0,-1.367Z" style="fill:none;stroke:#000;stroke-width:1.37px;"/><text x="890.244px" y="594.272px" style="font-family:'LucidaGrande-Bold', 'Lucida Grande', sans-serif;font-weight:600;font-size:16.401px;">Application</text><text x="897.077px" y="614.774px" style="font-family:'LucidaGrande-Bold', 'Lucida Grande', sans-serif;font-weight:600;font-size:16.401px;">(Services)</text><rect x="1085.69" y="632.542" width="164.011" height="42.37" style="fill:#b5ffff;"/><rect x="1085.69" y="632.542" width="162.645" height="41.003" style="fill:none;stroke:#7eb2b2;stroke-width:1.37px;"/><circle cx="1237.4" cy="650.31" r="6.834" style="fill:none;stroke:#000;stroke-width:1.37px;"/><path d="M1230.57,650.31l-9.567,0" style="fill:none;stroke:#000;stroke-width:1.37px;"/><text x="1121.23px" y="655.777px" style="font-family:'LucidaGrande', 'Lucida Grande', sans-serif;font-weight:500;font-size:16.401px;">Connectors</text><rect x="672.929" y="607.94" width="150.344" height="66.971" style="fill:#b5ffff;"/><path d="M672.929,621.608l0,-13.668" style="fill:none;stroke:#7eb2b2;stroke-width:1.37px;"/><path d="M672.929,607.94l148.977,0" style="fill:none;stroke:#7eb2b2;stroke-width:1.37px;"/><path d="M821.906,607.94l0,65.605" style="fill:none;stroke:#7eb2b2;stroke-width:1.37px;"/><path d="M821.906,673.545l-148.977,0" style="fill:none;stroke:#7eb2b2;stroke-width:1.37px;"/><path d="M672.929,673.545l0,-8.201" style="fill:none;stroke:#7eb2b2;stroke-width:1.37px;"/><path d="M672.929,638.009l0,10.934" style="fill:none;stroke:#7eb2b2;stroke-width:1.37px;"/><rect x="659.261" y="621.608" width="28.702" height="17.768" style="fill:#a2e5e5;"/><rect x="659.261" y="648.943" width="28.702" height="17.768" style="fill:#a2e5e5;"/><rect x="659.261" y="621.608" width="27.335" height="16.401" style="fill:none;stroke:#7eb2b2;stroke-width:1.37px;"/><rect x="659.261" y="648.943" width="27.335" height="16.401" style="fill:none;stroke:#7eb2b2;stroke-width:1.37px;"/><text x="708.464px" y="631.175px" style="font-family:'LucidaGrande', 'Lucida Grande', sans-serif;font-weight:500;font-size:16.401px;">Application</text><rect x="462.448" y="603.84" width="164.011" height="75.172" style="fill:#b5ffff;"/><path d="M462.448,620.241l162.644,0" style="fill:none;stroke:#7eb2b2;stroke-width:1.37px;"/><rect x="462.448" y="603.84" width="162.645" height="73.805" style="fill:none;stroke:#7eb2b2;stroke-width:1.37px;"/><text x="525.319px" y="638.009px" style="font-family:'LucidaGrande', 'Lucida Grande', sans-serif;font-weight:500;font-size:16.401px;">Data</text><rect x="392.743" y="718.648" width="507.068" height="24.602" style="fill:#b1c899;fill-opacity:0.501961;fill-rule:nonzero;"/><rect x="392.743" y="743.249" width="1015.5" height="155.811" style="fill:#c5dfaa;fill-opacity:0.501961;fill-rule:nonzero;"/><rect x="392.743" y="718.648" width="507.068" height="24.602" style="fill:none;stroke:#899c77;stroke-opacity:0.501961;stroke-width:1.37px;"/><rect x="392.743" y="743.249" width="1015.5" height="155.811" style="fill:none;stroke:#899c77;stroke-opacity:0.501961;stroke-width:1.37px;"/><text x="399.577px" y="737.782px" style="font-family:'LucidaGrande', 'Lucida Grande', sans-serif;font-weight:500;font-size:16.401px;">Technology</text><path d="M1197.77,765.118c0,-7.544 -6.125,-13.668 -13.668,-13.668l-744.884,0c-7.544,0 -13.668,6.124 -13.668,13.668l0,105.24c0,7.543 6.124,13.668 13.668,13.668l744.884,0c7.543,0 13.668,-6.125 13.668,-13.668l0,-105.24Z" style="fill:#c9e7b7;"/><path d="M1196.4,765.118c0,-7.544 -6.124,-13.668 -13.667,-13.668l-743.518,0c-7.544,0 -13.668,6.124 -13.668,13.668l0,103.873c0,7.544 6.124,13.668 13.668,13.668l743.518,0c7.543,0 13.667,-6.124 13.667,-13.668l0,-103.873Z" style="fill:none;stroke:#8ca180;stroke-width:1.37px;"/><path d="M1190.93,766.484c0,-3.017 -2.449,-5.467 -5.467,-5.467l-10.934,0c-3.018,0 -5.467,2.45 -5.467,5.467l0,1.367c0,3.018 2.449,5.467 5.467,5.467l10.934,0c3.018,0 5.467,-2.449 5.467,-5.467l0,-1.367Z" style="fill:none;stroke:#000;stroke-width:1.37px;"/><text x="718.032px" y="774.685px" style="font-family:'LucidaGrande-Bold', 'Lucida Grande', sans-serif;font-weight:600;font-size:16.401px;">Technology (Services)</text><rect x="622.359" y="784.252" width="131.209" height="83.372" style="fill:#c9e7b7;"/><rect x="622.359" y="784.252" width="129.842" height="82.006" style="fill:none;stroke:#8ca180;stroke-width:1.37px;"/><path d="M736.483,795.186c-4.152,0 -7.517,3.365 -7.517,7.517c0,4.153 3.365,7.518 7.517,7.518c4.152,0 7.517,-3.365 7.517,-7.518c0,-4.152 -3.365,-7.517 -7.517,-7.517Zm6.492,11.294c3.596,-2.076 4.828,-6.673 2.751,-10.269c-2.076,-3.596 -6.672,-4.827 -10.268,-2.751c-1.143,0.66 -2.091,1.609 -2.751,2.751" style="fill:none;stroke:#000;stroke-width:1.37px;"/><text x="659.261px" y="807.487px" style="font-family:'LucidaGrande', 'Lucida Grande', sans-serif;font-weight:500;font-size:16.401px;">System</text><text x="652.427px" y="827.989px" style="font-family:'LucidaGrande', 'Lucida Grande', sans-serif;font-weight:500;font-size:16.401px;">Software</text><path d="M590.923,796.553c0,-7.543 -6.124,-13.668 -13.668,-13.668l-121.641,0c-7.543,0 -13.668,6.125 -13.668,13.668l0,57.404c0,7.543 6.125,13.668 13.668,13.668l121.641,0c7.544,0 13.668,-6.125 13.668,-13.668l0,-57.404Z" style="fill:#c9e7b7;"/><path d="M589.556,796.553c0,-7.543 -6.124,-13.668 -13.667,-13.668l-120.275,0c-7.543,0 -13.668,6.125 -13.668,13.668l0,56.037c0,7.543 6.125,13.668 13.668,13.668l120.275,0c7.543,0 13.667,-6.125 13.667,-13.668l0,-56.037Z" style="fill:none;stroke:#8ca180;stroke-width:1.37px;"/><path d="M584.089,797.92c0,-3.018 -2.449,-5.467 -5.467,-5.467l-10.934,0c-3.018,0 -5.467,2.449 -5.467,5.467l0,1.367c0,3.017 2.449,5.467 5.467,5.467l10.934,0c3.018,0 5.467,-2.45 5.467,-5.467l0,-1.367Z" style="fill:none;stroke:#000;stroke-width:1.37px;"/><text x="482.949px" y="806.12px" style="font-family:'LucidaGrande', 'Lucida Grande', sans-serif;font-weight:500;font-size:16.401px;">Storage</text><text x="478.849px" y="826.622px" style="font-family:'LucidaGrande', 'Lucida Grande', sans-serif;font-weight:500;font-size:16.401px;">Database</text><text x="484.316px" y="847.123px" style="font-family:'LucidaGrande', 'Lucida Grande', sans-serif;font-weight:500;font-size:16.401px;">Services</text><path d="M951.748,797.92c0,-7.543 -6.125,-13.668 -13.668,-13.668l-138.043,0c-7.543,0 -13.667,6.125 -13.667,13.668l0,56.037c0,7.543 6.124,13.668 13.667,13.668l138.043,0c7.543,0 13.668,-6.125 13.668,-13.668l0,-56.037Z" style="fill:#c9e7b7;"/><path d="M950.381,797.92c0,-7.543 -6.124,-13.668 -13.667,-13.668l-136.677,0c-7.543,0 -13.667,6.125 -13.667,13.668l0,54.67c0,7.543 6.124,13.668 13.667,13.668l136.677,0c7.543,0 13.667,-6.125 13.667,-13.668l0,-54.67Z" style="fill:none;stroke:#8ca180;stroke-width:1.37px;"/><path d="M944.914,799.287c0,-3.018 -2.449,-5.467 -5.467,-5.467l-10.934,0c-3.018,0 -5.467,2.449 -5.467,5.467l0,1.366c0,3.018 2.449,5.467 5.467,5.467l10.934,0c3.018,0 5.467,-2.449 5.467,-5.467l0,-1.366Z" style="fill:none;stroke:#000;stroke-width:1.37px;"/><text x="831.473px" y="807.487px" style="font-family:'LucidaGrande', 'Lucida Grande', sans-serif;font-weight:500;font-size:16.401px;">Compute</text><text x="836.94px" y="827.989px" style="font-family:'LucidaGrande', 'Lucida Grande', sans-serif;font-weight:500;font-size:16.401px;">Services</text><rect x="999.585" y="782.885" width="132.576" height="83.372" style="fill:#c9e7b7;"/><rect x="999.585" y="782.885" width="131.209" height="82.006" style="fill:none;stroke:#8ca180;stroke-width:1.37px;"/><path d="M1111.66,805.437c0,-1.887 -1.529,-3.417 -3.417,-3.417c-1.887,0 -3.417,1.53 -3.417,3.417c0,1.888 1.53,3.417 3.417,3.417c1.888,0 3.417,-1.529 3.417,-3.417Zm2.733,-10.934c0,-1.888 -1.529,-3.417 -3.416,-3.417c-1.888,0 -3.417,1.529 -3.417,3.417c0,1.887 1.529,3.417 3.417,3.417c1.887,0 3.416,-1.53 3.416,-3.417Zm10.935,0c0,-1.888 -1.53,-3.417 -3.417,-3.417c-1.888,0 -3.417,1.529 -3.417,3.417c0,1.887 1.529,3.417 3.417,3.417c1.887,0 3.417,-1.53 3.417,-3.417Zm-2.734,10.934c0,-1.887 -1.529,-3.417 -3.417,-3.417c-1.887,0 -3.417,1.53 -3.417,3.417c0,1.888 1.53,3.417 3.417,3.417c1.888,0 3.417,-1.529 3.417,-3.417Zm-13.668,-3.417l1.367,-4.1m9.568,4.1l1.366,-4.1m-9.567,7.517l4.1,0m-1.367,-10.934l4.101,0" style="fill:none;stroke:#000;stroke-width:1.37px;"/><text x="1032.39px" y="806.12px" style="font-family:'LucidaGrande', 'Lucida Grande', sans-serif;font-weight:500;font-size:16.401px;">Network</text><text x="1033.75px" y="826.622px" style="font-family:'LucidaGrande', 'Lucida Grande', sans-serif;font-weight:500;font-size:16.401px;">Services</text><path d="M1212.8,870.358l0,-86.106l19.135,-19.134l161.278,0l0,86.106l-19.135,19.134l-161.278,0Z" style="fill:#b4cfa4;fill-rule:nonzero;"/><rect x="1212.8" y="784.252" width="162.645" height="87.473" style="fill:#c9e7b7;"/><path d="M1212.8,870.358l0,-86.106l19.135,-19.134l161.278,0l0,86.106l-19.135,19.134l-161.278,0Z" style="fill:none;stroke:#8ca180;stroke-width:1.37px;"/><path d="M1212.8,784.252l161.278,0" style="fill:none;stroke:#8ca180;stroke-width:1.37px;"/><path d="M1374.08,784.252l19.135,-19.134" style="fill:none;stroke:#8ca180;stroke-width:1.37px;"/><path d="M1374.08,784.252l0,86.106" style="fill:none;stroke:#8ca180;stroke-width:1.37px;"/><path d="M1367.24,794.503c0,-1.132 -0.918,-2.05 -2.05,-2.05l-10.934,0c-1.132,0 -2.05,0.918 -2.05,2.05l0,6.834c0,1.131 0.918,2.05 2.05,2.05l10.934,0c1.132,0 2.05,-0.919 2.05,-2.05l0,-6.834Z" style="fill:none;stroke:#000;stroke-width:1.37px;"/><path d="M1350.84,808.854l4.1,-5.467l9.568,0l4.1,5.467l-17.768,0Z" style="fill:none;stroke:#000;stroke-width:1.37px;"/><text x="1267.47px" y="807.487px" style="font-family:'LucidaGrande', 'Lucida Grande', sans-serif;font-weight:500;font-size:16.401px;">Nodes</text><text x="1266.1px" y="827.989px" style="font-family:'LucidaGrande', 'Lucida Grande', sans-serif;font-weight:500;font-size:16.401px;">Clients</text><text x="1262px" y="848.49px" style="font-family:'LucidaGrande', 'Lucida Grande', sans-serif;font-weight:500;font-size:16.401px;">Mobiles</text><text x="1266.1px" y="868.991px" style="font-family:'LucidaGrande', 'Lucida Grande', sans-serif;font-weight:500;font-size:16.401px;">Things</text></g><g><path d="M586.823,448.029l34.169,0" style="fill:none;stroke:#000;stroke-width:1.37px;"/><circle cx="590.923" cy="448.029" r="4.1"/><path d="M620.992,448.029l-9.568,4.1l0,-8.2l9.568,4.1Z" style="fill-rule:nonzero;"/><path d="M620.992,448.029l-9.568,4.1l0,-8.2l9.568,4.1Z" style="fill:none;stroke:#000;stroke-width:1.37px;"/><path d="M783.636,448.029l50.57,0" style="fill:none;stroke:#000;stroke-width:1.37px;"/><circle cx="787.737" cy="448.029" r="4.1"/><path d="M834.206,448.029l-9.567,4.1l0,-8.2l9.567,4.1Z" style="fill-rule:nonzero;"/><path d="M834.206,448.029l-9.567,4.1l0,-8.2l9.567,4.1Z" style="fill:none;stroke:#000;stroke-width:1.37px;"/><path d="M958.582,426.161l0,-125.742" style="fill:none;stroke:#000;stroke-width:1.37px;stroke-dasharray:2.73,2.73;"/><path d="M958.582,300.419l9.567,13.667l-19.135,0l9.568,-13.667Z" style="fill:#fff;fill-rule:nonzero;"/><path d="M958.582,300.419l9.567,13.667l-19.135,0l9.568,-13.667Z" style="fill:none;stroke:#000;stroke-width:1.37px;"/><path d="M910.745,571.038l0,-98.407" style="fill:none;stroke:#000;stroke-width:1.37px;"/><path d="M914.845,482.198l-4.1,-9.567" style="fill:none;stroke:#000;stroke-width:1.37px;"/><path d="M910.745,472.631l-4.1,9.567" style="fill:none;stroke:#000;stroke-width:1.37px;"/><path d="M917.579,271.717l32.802,0" style="fill:none;stroke:#000;stroke-width:1.37px;stroke-dasharray:8.2,4.1;"/><path d="M940.814,275.817l9.567,-4.1" style="fill:none;stroke:#000;stroke-width:1.37px;"/><path d="M950.381,271.717l-9.567,-4.1" style="fill:none;stroke:#000;stroke-width:1.37px;"/><path d="M985.917,571.038l0,-270.619" style="fill:none;stroke:#000;stroke-width:1.37px;stroke-dasharray:2.73,2.73;"/><path d="M985.917,300.419l9.567,13.667l-19.134,0l9.567,-13.667Z" style="fill:#fff;fill-rule:nonzero;"/><path d="M985.917,300.419l9.567,13.667l-19.134,0l9.567,-13.667Z" style="fill:none;stroke:#000;stroke-width:1.37px;"/><path d="M1032.39,751.45l0,-91.573" style="fill:none;stroke:#000;stroke-width:1.37px;stroke-dasharray:2.73,2.73;"/><path d="M1032.39,659.877l1.367,0" style="fill:none;stroke:#000;stroke-width:1.37px;stroke-dasharray:2.73,2.73;"/><path d="M1033.75,659.877l1.366,0" style="fill:none;stroke:#000;stroke-width:1.37px;stroke-dasharray:2.73,2.73;"/><path d="M1035.12,659.877l1.367,-1.367" style="fill:none;stroke:#000;stroke-width:1.37px;stroke-dasharray:2.73,2.73;"/><path d="M1036.49,658.51l1.367,-1.367" style="fill:none;stroke:#000;stroke-width:1.37px;stroke-dasharray:2.73,2.73;"/><path d="M1037.85,657.143l1.367,-1.366" style="fill:none;stroke:#000;stroke-width:1.37px;stroke-dasharray:2.73,2.73;"/><path d="M1039.22,655.777l0,-1.367" style="fill:none;stroke:#000;stroke-width:1.37px;stroke-dasharray:2.73,2.73;"/><path d="M1039.22,654.41l0,-2.734" style="fill:none;stroke:#000;stroke-width:1.37px;stroke-dasharray:2.73,2.73;"/><path d="M1039.22,651.676l0,-1.366" style="fill:none;stroke:#000;stroke-width:1.37px;stroke-dasharray:2.73,2.73;"/><path d="M1039.22,650.31l-1.367,0" style="fill:none;stroke:#000;stroke-width:1.37px;stroke-dasharray:2.73,2.73;"/><path d="M1037.85,650.31l0,-1.367" style="fill:none;stroke:#000;stroke-width:1.37px;stroke-dasharray:2.73,2.73;"/><path d="M1037.85,648.943l-1.367,-1.367" style="fill:none;stroke:#000;stroke-width:1.37px;stroke-dasharray:2.73,2.73;"/><path d="M1036.49,647.576l-1.367,-1.367" style="fill:none;stroke:#000;stroke-width:1.37px;stroke-dasharray:2.73,2.73;"/><path d="M1035.12,646.209l-1.366,0" style="fill:none;stroke:#000;stroke-width:1.37px;stroke-dasharray:2.73,2.73;"/><path d="M1033.75,646.209l-1.367,0" style="fill:none;stroke:#000;stroke-width:1.37px;stroke-dasharray:2.73,2.73;"/><path d="M1032.39,646.209l0,-345.79" style="fill:none;stroke:#000;stroke-width:1.37px;stroke-dasharray:2.73,2.73;"/><path d="M1032.39,300.419l9.567,13.667l-19.135,0l9.568,-13.667Z" style="fill:#fff;fill-rule:nonzero;"/><path d="M1032.39,300.419l9.567,13.667l-19.135,0l9.568,-13.667Z" style="fill:none;stroke:#000;stroke-width:1.37px;"/><path d="M821.906,614.774l36.902,0" style="fill:none;stroke:#000;stroke-width:1.37px;stroke-dasharray:2.73,2.73;"/><path d="M858.808,614.774l-13.667,9.567l0,-19.134l13.667,9.567Z" style="fill:#fff;fill-rule:nonzero;"/><path d="M858.808,614.774l-13.667,9.567l0,-19.134l13.667,9.567Z" style="fill:none;stroke:#000;stroke-width:1.37px;"/><path d="M1085.69,653.043l-263.784,0" style="fill:none;stroke:#000;stroke-width:1.37px;"/><path d="M1230.57,765.118l0,-91.573" style="fill:none;stroke:#000;stroke-width:1.37px;"/><path d="M659.261,640.742l-34.169,0" style="fill:none;stroke:#000;stroke-width:1.37px;"/><path d="M741.267,751.45l0,-77.905" style="fill:none;stroke:#000;stroke-width:1.37px;"/><path d="M585.456,786.986l73.805,-113.441" style="fill:none;stroke:#000;stroke-width:1.37px;"/><path d="M526.685,677.645l0,105.24" style="fill:none;stroke:#000;stroke-width:1.37px;"/><path d="M1130.79,823.888l82.005,0" style="fill:none;stroke:#000;stroke-width:1.37px;"/></g></g></svg>