<?xml version="1.0" encoding="UTF-8" standalone="no"?><!DOCTYPE svg PUBLIC "-//W3C//DTD SVG 1.1//EN" "http://www.w3.org/Graphics/SVG/1.1/DTD/svg11.dtd"><svg width="100%" height="100%" viewBox="0 0 114 114" version="1.1" xmlns="http://www.w3.org/2000/svg" xmlns:xlink="http://www.w3.org/1999/xlink" xml:space="preserve" xmlns:serif="http://www.serif.com/" style="fill-rule:evenodd;clip-rule:evenodd;stroke-linejoin:round;stroke-miterlimit:1.41421;"><g><rect x="0" y="0.614" width="113.386" height="113.386" style="fill:#005a9a;fill-rule:nonzero;"/><path d="M24.17,72.684l-2.601,0l0,-3.49l2.601,0c0,-4.724 1.649,-6.183 6.248,-6.183c0.856,0 1.745,0.063 2.602,0.095l0,3.805c-0.508,-0.063 -0.984,-0.094 -1.459,-0.094c-1.237,0 -1.998,0.159 -1.998,1.648l0,0.729l3.233,0l0,3.49l-3.233,0l0,12.97l-5.393,0l0,-12.97Z" style="fill:#fff;fill-rule:nonzero;"/><path d="M37.11,63.011l5.392,0l0,8.435l0.063,0c0.824,-1.68 3.045,-2.727 5.011,-2.727c5.486,0 5.93,3.997 5.93,6.375l0,10.56l-5.391,0l0,-7.96c0,-2.251 0.254,-4.536 -2.696,-4.536c-2.03,0 -2.917,1.713 -2.917,3.522l0,8.974l-5.392,0l0,-22.643Z" style="fill:#fff;fill-rule:nonzero;"/><path d="M64.316,62.977l5.159,0l-4.789,22.663l-5.159,0l4.789,-22.663Z" style="fill:#fff;fill-rule:nonzero;"/><path d="M75.655,62.977l5.158,0l-4.789,22.663l-5.158,0l4.789,-22.663Z" style="fill:#fff;fill-rule:nonzero;"/><path d="M86.994,62.977l5.158,0l-4.788,22.663l-5.159,0l4.789,-22.663Z" style="fill:#fff;fill-rule:nonzero;"/><path d="M13.292,62.977l5.159,0l-4.789,22.663l-5.159,0l4.789,-22.663Z" style="fill:#fff;fill-rule:nonzero;"/><path d="M38.743,100.109c0.015,0.929 0.795,1.304 1.635,1.304c0.615,0 1.395,-0.24 1.395,-0.99c0,-0.645 -0.885,-0.87 -2.415,-1.2c-1.23,-0.27 -2.46,-0.704 -2.46,-2.07c0,-1.98 1.71,-2.49 3.375,-2.49c1.695,0 3.255,0.571 3.42,2.475l-2.025,0c-0.06,-0.824 -0.69,-1.05 -1.455,-1.05c-0.48,0 -1.185,0.09 -1.185,0.721c0,0.764 1.2,0.869 2.415,1.154c1.245,0.285 2.46,0.735 2.46,2.175c0,2.039 -1.77,2.7 -3.54,2.7c-1.8,0 -3.555,-0.675 -3.645,-2.729l2.025,0Z" style="fill:#fff;fill-rule:nonzero;"/><path d="M48.193,94.873l1.56,0l0,1.425l-1.56,0l0,3.84c0,0.72 0.18,0.9 0.9,0.9c0.225,0 0.435,-0.015 0.66,-0.061l0,1.665c-0.36,0.061 -0.825,0.075 -1.245,0.075c-1.305,0 -2.445,-0.299 -2.445,-1.844l0,-4.575l-1.29,0l0,-1.425l1.29,0l0,-2.325l2.13,0l0,2.325Z" style="fill:#fff;fill-rule:nonzero;"/><rect x="51.463" y="100.319" width="2.355" height="2.309" style="fill:#fff;fill-rule:nonzero;"/><path d="M63.012,98.774c0,-1.231 -0.494,-2.505 -1.859,-2.505c-1.396,0 -1.845,1.244 -1.845,2.505c0,1.259 0.48,2.459 1.86,2.459c1.395,0 1.844,-1.2 1.844,-2.459Zm-5.759,-3.901l2.025,0l0,0.99l0.03,0c0.51,-0.825 1.35,-1.2 2.31,-1.2c2.429,0 3.524,1.965 3.524,4.17c0,2.07 -1.14,4.005 -3.404,4.005c-0.93,0 -1.816,-0.406 -2.325,-1.17l-0.031,0l0,3.689l-2.129,0l0,-10.484Z" style="fill:#fff;fill-rule:nonzero;"/><path d="M71.023,91.918l2.024,0l0,1.755l-2.024,0l0,-1.755Zm-0.54,9.315c1.454,0 1.89,-1.245 1.89,-2.475c0,-1.245 -0.436,-2.489 -1.89,-2.489c-1.44,0 -1.875,1.244 -1.875,2.489c0,1.23 0.435,2.475 1.875,2.475Zm-2.55,-9.315l2.025,0l0,1.755l-2.025,0l0,-1.755Zm2.55,2.745c2.444,0 4.019,1.62 4.019,4.095c0,2.459 -1.575,4.08 -4.019,4.08c-2.431,0 -4.005,-1.621 -4.005,-4.08c0,-2.475 1.574,-4.095 4.005,-4.095Z" style="fill:#fff;fill-rule:nonzero;"/><rect x="76.183" y="91.918" width="2.13" height="10.71" style="fill:#fff;fill-rule:nonzero;"/><path d="M82.977,94.873l1.56,0l0,1.425l-1.56,0l0,3.84c0,0.72 0.18,0.9 0.9,0.9c0.225,0 0.435,-0.015 0.66,-0.061l0,1.665c-0.36,0.061 -0.825,0.075 -1.244,0.075c-1.306,0 -2.446,-0.299 -2.446,-1.844l0,-4.575l-1.29,0l0,-1.425l1.29,0l0,-2.325l2.13,0l0,2.325Z" style="fill:#fff;fill-rule:nonzero;"/><path d="M91.032,97.918c-0.195,-1.08 -0.659,-1.649 -1.695,-1.649c-1.349,0 -1.74,1.05 -1.77,1.649l3.465,0Zm-3.465,1.351c0.06,1.349 0.721,1.964 1.905,1.964c0.856,0 1.545,-0.525 1.68,-1.005l1.875,0c-0.6,1.829 -1.875,2.61 -3.63,2.61c-2.444,0 -3.96,-1.68 -3.96,-4.08c0,-2.324 1.606,-4.095 3.96,-4.095c2.641,0 3.915,2.22 3.765,4.606l-5.595,0Z" style="fill:#fff;fill-rule:nonzero;"/><path d="M94.737,94.873l2.025,0l0,1.08l0.045,0c0.54,-0.87 1.47,-1.29 2.37,-1.29c2.265,0 2.836,1.276 2.836,3.196l0,4.769l-2.131,0l0,-4.38c0,-1.274 -0.375,-1.905 -1.365,-1.905c-1.155,0 -1.65,0.645 -1.65,2.221l0,4.064l-2.13,0l0,-7.755Z" style="fill:#fff;fill-rule:nonzero;"/></g></svg>