<svg version="1.1" xmlns="http://www.w3.org/2000/svg" viewBox="0 0 1749 868.5">
  <!-- svg-source:excalidraw -->
  <defs>
    <style>
      @font-face {
        font-family: "Virgil";
        src: url("https://excalidraw.com/FG_Virgil.woff2");
      }
      @font-face {
        font-family: "Cascadia";
        src: url("https://excalidraw.com/Cascadia.woff2");
      }
    </style>
  </defs>
  <rect x="0" y="0" width="1749" height="868.5" fill="#ffffff"></rect><g transform="translate(55.5 81.5) rotate(0 19.5 17.5)"><path d="M14.901066763470928 0.4398055446729501 C18.608626097147912 -0.7053754179529355, 24.419091167704348 0.9709835537493676, 28.039608807021438 2.3741933155592143 C31.660126446338527 3.777403077369061, 34.980239385321504 5.708578810387319, 36.624172599373466 8.85906411553203 C38.26810581342543 12.009549420676741, 38.71406598791978 17.401754094876036, 37.90320809133323 21.27710514642748 C37.09235019474667 25.152456197978925, 35.18705162881464 29.951122955151664, 31.759025219854156 32.1111704248407 C28.33099881089367 34.27121789452974, 21.674358093098224 34.62420963296314, 17.335049637570314 34.2373899645617 C12.995741182042405 33.850570296160264, 8.700410570659464 32.233026402819995, 5.723174486686707 29.790252414432096 C2.7459384027139504 27.3474784260442, -0.27878930724420636 23.091507607335533, -0.5283668662662251 19.580746034234323 C-0.7779444252882438 16.069984461133114, 1.5613446337707875 11.887030286837511, 4.225709132554595 8.725682975824839 C6.890073631338403 5.564335664812166, 13.308943616945113 2.092623155462003, 15.45782012643662 0.6126621681582911 C17.606696635928124 -0.867298819145421, 17.087130930078533 -0.25081034119349016, 17.118968189503633 -0.15408294799743416 M16.7719392635772 0.5608303881880055 C20.262058957256013 -0.08550213260994222, 24.84944428135183 1.0329913753208415, 28.34876645512196 3.1810975972100177 C31.848088628892093 5.3292038190991935, 36.338581897490776 10.128846868812465, 37.767872306198 13.449467719523062 C39.197162714905225 16.77008857023366, 38.658653349118964 19.7701616947992, 36.924508907365315 23.1048227014736 C35.190364465611665 26.439483708148003, 30.981241457901923 31.56202752193906, 27.363005655676098 33.45743375956948 C23.744769853450272 35.35283999719991, 19.061641069166857 35.350868263030215, 15.21509409401037 34.47726012725614 C11.368547118853883 33.60365199148206, 6.788973583842825 31.02074201628646, 4.28372380473718 28.215784944925 C1.7784740256315357 25.410827873563544, -0.0842855049642755 21.390690489617818, 0.18359541937650192 17.6475176990874 C0.45147634371727935 13.90434490855698, 3.277591007551504 8.778633917062391, 5.891009350781845 5.7567482017424965 C8.504427694012186 2.734862486422602, 13.986032553526314 0.5062547093047982, 15.864105478758546 -0.4837965928319683 C17.742178403990778 -1.4738478949687348, 17.134096244354076 -0.4471526586409711, 17.159446902175237 -0.1835596110781026" stroke="#000000" stroke-width="1" fill="none"></path></g><g><g transform="translate(53.5 98.5) rotate(0 -10.764318083361701 57.13606187030673)"><path d="M1.15197249725461 -1.1355850227177142 C-2.5414720805982745 18.234530774007244, -18.05092198376854 96.11158817534645, -21.82463160678744 115.40770876333117 M0.29761932897381493 0.8826288950163872 C-3.567904941063995 19.953923233222838, -18.966274894199646 94.35124875562576, -22.680608663978056 113.49918111530133" stroke="#000000" stroke-width="1" fill="none"></path></g></g><g><g transform="translate(30.5 213.5) rotate(0 46.454008924216026 0.6661401122854897)"><path d="M-1.0227092273533345 0.80288642719388 C14.579099582880735 0.9826319026450315, 78.30354823991657 0.11042234574755032, 93.9307270757854 0.12667523697018623 M0.6412296989466997 0.17879785613156862 C16.138466845741497 0.5697774543954681, 78.27179219692015 0.8744708654874314, 93.47131332694553 1.2056049876008181" stroke="#000000" stroke-width="1" fill="none"></path></g></g><g><g transform="translate(121.5 214.5) rotate(0 -13.888920762618085 -61.9041323369695)"><path d="M-0.0504595287144185 0.2680894263088702 C-4.488796592503785 -20.10031675025821, -22.520753575116395 -101.89582444354892, -26.855302644520997 -122.31395367309452 M-1.5360895106289536 -0.6367675702180713 C-6.1000748217199 -21.34171924128197, -23.59526807100512 -103.48505548818967, -27.727381996521725 -124.07635410024784" stroke="#000000" stroke-width="1" fill="none"></path></g></g><g transform="translate(10 212) rotate(0 63.5 17.5)"><text x="0" y="25" font-family="Virgil" font-size="28px" fill="#000000" text-anchor="start" style="white-space: pre;">Betreiber</text></g><g transform="translate(173.75 83.75) rotate(0 19.5 17.5)"><path d="M16.016282893196273 0.059445661878783085 C19.755102976069548 -0.7000720532220104, 24.968114346354014 1.1348119513325603, 28.659871527660677 3.0079434758677213 C32.35162870896734 4.881075000402882, 36.62967915278119 8.003652510989852, 38.166825981036254 11.298234809089749 C39.703972809291315 14.592817107189646, 39.31574907475071 19.08605515739965, 37.88275249719106 22.7754372644671 C36.449755919631414 26.464819371534553, 33.197019799366274 31.50482933505141, 29.568846515678377 33.43452745149445 C25.94067323199048 35.364225567937495, 20.314793721639003 35.25468646059227, 16.113712795063677 34.35362596312535 C11.91263186848835 33.45256546565844, 6.892647866086735 30.893773059097782, 4.362360956226425 28.028164466692985 C1.8320740463661154 25.162555874288188, 0.9326718094165303 20.884952456180347, 0.9319913359018202 17.15997440869656 C0.93131086238711 13.434996361212772, 1.3485417524742807 8.480760874113827, 4.358278115138164 5.678296181790257 C7.368014477802047 2.875831489466687, 16.248312948663305 1.2991946935321126, 18.990409511885122 0.34518625475513787 C21.73250607510694 -0.6088221840218369, 20.814704867649752 -0.2744096783812209, 20.810857494469065 -0.045754450871591246 M13.069907439752509 0.6289658829031204 C17.018185992011652 -0.5503884642006482, 24.94178775924876 -0.9710539905529372, 28.88556889079637 0.4777025703825135 C32.82935002234398 1.9264591313179642, 35.224197922342114 5.582123639861031, 36.73259422903817 9.321505248515825 C38.24099053573423 13.060886857170619, 38.891144061422466 19.064648614441854, 37.935946730972724 22.913992222311283 C36.98074940052298 26.76333583018071, 34.262904635133765 30.56269221280012, 31.001410246339724 32.41756689573239 C27.739915857545682 34.27244157866467, 22.663924990578437 34.57230008724216, 18.366980398208465 34.043240319904925 C14.070035805838494 33.51418055256769, 8.25571163339974 31.50960267288483, 5.219742692119889 29.24320829170896 C2.183773750840038 26.97681391053309, 0.3599132169939425 23.98582853106427, 0.15116675052936301 20.4448740328497 C-0.05757971593521649 16.90391953463513, 1.5095261843358219 11.265149934768056, 3.9672638933324116 7.997481302421523 C6.425001602329001 4.72981267007499, 13.292387884558588 1.7721310332115832, 14.8975930045089 0.8388622387705063 C16.50279812445921 -0.09440655567057077, 13.469811742319532 2.132465290375388, 13.598494613034287 2.3978685357750606" stroke="#000000" stroke-width="1" fill="none"></path></g><g><g transform="translate(171.75 100.75) rotate(0 -10.561559903183962 57.49191340745426)"><path d="M-0.563925314694643 -0.4388656251132488 C-4.094646208236615 18.56621554369728, -18.122356161226826 95.91240808640917, -21.682589841634034 115.10575448349118 M1.340875165751204 -1.7148740236368032 C-2.2764954857124637 18.019742507000142, -18.46521201482353 97.0974991199964, -22.463994972119107 116.69870083854534" stroke="#000000" stroke-width="1" fill="none"></path></g></g><g><g transform="translate(148.75 215.75) rotate(0 46.33344442918897 1.0448737583775198)"><path d="M-0.4388656251132488 0.317410158365965 C14.899548877030613 0.5905098112920921, 77.57907475307584 1.050739057113727, 93.10575448349118 1.0746726028621196 M1.5315911923628303 -0.5615534538310021 C16.627152019320057 -0.028208734917764766, 77.16697012948804 2.308453850320851, 92.21323012369685 2.651300970586017" stroke="#000000" stroke-width="1" fill="none"></path></g></g><g><g transform="translate(239.75 216.75) rotate(0 -13.758379792948233 -61.586516379565)"><path d="M0.317410158365965 0.10575448349118233 C-4.076156855374574 -20.367565786093472, -22.282594276219605 -102.9083073966205, -26.92532739713788 -123.27878724262118 M-0.9750882378313691 -0.8843283580150456 C-5.470799222597853 -21.139274020930753, -23.232075140187515 -101.36909199162386, -27.83416974426247 -121.88772529377601" stroke="#000000" stroke-width="1" fill="none"></path></g></g><g transform="translate(149.75 220.25) rotate(0 71 35.5)"><text x="0" y="24.5" font-family="Virgil" font-size="28px" fill="#000000" text-anchor="start" style="white-space: pre;">System-</text><text x="0" y="60" font-family="Virgil" font-size="28px" fill="#000000" text-anchor="start" style="white-space: pre;">integrator</text></g><g transform="translate(356 67.75) rotate(0 19.5 17.5)"><path d="M18.01300204417865 0.3284145284527966 C21.85266933682897 -0.35210605682635665, 27.018564809307343 0.9726526860408229, 30.28615401968704 3.149444205891129 C33.553743230066736 5.3262357257414354, 36.391634447353226 9.903825635527674, 37.61853730645684 13.389163647554632 C38.84544016556045 16.87450165958159, 39.12958726006601 20.77766237596379, 37.64757117430868 24.06147227805288 C36.16555508855135 27.345282180141968, 32.660815583832964 31.332146306973986, 28.726440791912875 33.092023060089176 C24.79206599999279 34.85189981320437, 18.178846621442062 35.539428325605336, 14.041322422788163 34.62073279674402 C9.903798224134263 33.70203726788271, 6.383627070202817 30.572811708067995, 3.901295599989469 27.57984988692129 C1.4189641297761217 24.586888065774588, -1.0422765654700825 20.334066476008772, -0.8526663984919196 16.662961869863803 C-0.6630562315137567 12.991857263718833, 1.5632509558096337 8.159881156221292, 5.038956601858446 5.553222250051469 C8.514662247907259 2.946563343881646, 16.790732647629362 1.7152837428479617, 20.001567477800958 1.0230084328448648 C23.212402307972553 0.3307331228417679, 24.194649288565493 1.332048606116147, 24.30396558288801 1.3995703900328884 M22.674174469492453 0.10587138095651838 C26.51960407909973 0.26125711556752196, 30.512446571066388 2.9303257447772944, 33.33495561504694 5.872642158937181 C36.15746465902748 8.814958573097067, 39.43321567019747 14.04447184587684, 39.609228733375744 17.759769865915835 C39.78524179655402 21.475067885954832, 36.7905173404484 25.495128935824354, 34.391033994116576 28.164430279171157 C31.991550647784752 30.83373162251796, 29.208280688840997 33.045040290857244, 25.212328655384802 33.77557792599664 C21.216376621928607 34.50611556113604, 14.32877960167779 33.91145523413175, 10.415321793379398 32.54765609000753 C6.501863985081007 31.183856945883306, 3.231585202089085 29.129830244758686, 1.7315818055944554 25.592783061251303 C0.23157840909982563 22.05573587774392, -0.010554877724016976 15.255694337962305, 1.4153014144116192 11.325372988963242 C2.8411577065472553 7.395051639964178, 6.753298621529044 3.7956014391971626, 10.286719558408272 2.010854967256922 C13.8201404952875 0.2261084953166812, 20.498074292529434 0.9378288027464279, 22.615827035686983 0.6168941573217985 C24.733579778844533 0.29595951189716924, 23.343489137132185 -0.3125738297508465, 22.993236017353567 0.08524709470914615" stroke="#000000" stroke-width="1" fill="none"></path></g><g><g transform="translate(354 84.75) rotate(0 -10.919554273025142 57.164596002609485)"><path d="M0.3625974543392658 -0.25828158929944034 C-3.4106147321561973 19.049597421536845, -17.904995818187793 96.51352692370612, -21.51059707328677 115.76867537423968 M-0.9061776114720852 -1.4394833690207451 C-4.893347484689826 17.53689987070548, -18.743737491689004 94.35420534687427, -22.20170600038953 114.0496551969368" stroke="#000000" stroke-width="1" fill="none"></path></g></g><g><g transform="translate(331 199.75) rotate(0 46.75519689247011 0.6744452981244535)"><path d="M-0.25828158929944034 0.48940292671322827 C15.382930754870177 0.7171350049475829, 78.1801935903728 1.6581342188020547, 93.76867537423968 1.7289899237453936 M1.8069818469788879 -0.29926448210142564 C17.364309383025393 -0.4451053145931414, 78.08367635636591 -0.42526852810444943, 93.22418448208832 -0.010865115066990283" stroke="#000000" stroke-width="1" fill="none"></path></g></g><g><g transform="translate(422 200.75) rotate(0 -13.173466451601143 -61.96908523791937)"><path d="M0.48940292671322827 0.768675374239683 C-3.9495316617190834 -19.642842841893433, -21.675199114531278 -102.1364575393498, -26.271010076254605 -122.72739088609815 M-0.7127992661017926 0.12662600037641814 C-5.277695802273229 -20.64407153102569, -22.30579751861282 -104.46202095928602, -26.83633582991548 -124.7068458500784" stroke="#000000" stroke-width="1" fill="none"></path></g></g><g transform="translate(289 217.25) rotate(0 66.5 17.5)"><text x="0" y="25" font-family="Virgil" font-size="28px" fill="#000000" text-anchor="start" style="white-space: pre;">Hersteller</text></g><g transform="translate(477 76.75) rotate(0 19.5 17.5)"><path d="M22.033568830468802 0.8939179358152636 C25.99453199447668 1.1452182746919444, 31.463057734972388 3.645803536139769, 34.15890823611984 6.074244060798623 C36.8547587372673 8.502684585457477, 37.83015503731443 11.74399068839276, 38.208671837353535 15.46456108376839 C38.58718863739264 19.18513147914402, 38.68515714301482 25.40232224529238, 36.43000903635449 28.3976664330524 C34.17486092969416 31.393010620812422, 29.026494027033426 32.63343768929162, 24.67778319739155 33.43662621032853 C20.32907236774967 34.239814731365435, 14.01458278569503 34.747044479158234, 10.33774405850322 33.21679755927386 C6.660905331311412 31.686550639389477, 4.286081758581236 27.62019899875761, 2.6167508342406975 24.255144691022252 C0.9474199099001586 20.890090383286896, -0.6568652204037893 16.666141778791918, 0.32175851245998643 13.026471712861728 C1.3003822453237621 9.386801646931538, 4.950829122910006 4.672028231250163, 8.488493231423352 2.4171242954411163 C12.026157339936697 0.16222035963206993, 19.06552880761943 -0.22583119942824287, 21.54774316354006 -0.5029519019925495 C24.029957519460687 -0.780072604556856, 23.250337989059968 0.47076143728612835, 23.381779366947114 0.7544000800552766 M27.689530815535953 2.915570508133852 C31.054805381457015 4.58474829264992, 34.82997988550687 7.668301944364096, 36.42624495874577 10.829744793865164 C38.022510031984666 13.991187643366231, 38.111992470775064 18.513427280829617, 37.267121254969325 21.88422760514026 C36.422250039163586 25.255027929450904, 34.677338725325676 28.71727437623268, 31.35701766391133 31.05454673972902 C28.036696602496985 33.39181910322536, 21.72233077927973 35.96265831172419, 17.34519488648326 35.9078617861183 C12.968058993686789 35.853065260512416, 7.767997999952936 33.856649421548866, 5.094202307132498 30.72576758609368 C2.420406614312061 27.594885750638497, 1.4227821279396373 21.096138179922058, 1.3024207295606374 17.122570773387196 C1.1820593311816374 13.149003366852334, 1.9658770248083228 9.807004180509834, 4.3720339168584985 6.884363146884509 C6.778190808908674 3.961722113259183, 11.60132855722485 0.3807216096373519, 15.739362081861692 -0.4132754283647593 C19.877395606498535 -1.2072724663668706, 27.22931796190563 1.7438410402900477, 29.200235064679553 2.1203809188718417 C31.171152167453478 2.4969207974536354, 27.81668780458084 1.6920101147420417, 27.56486469850524 1.845963843126004" stroke="#000000" stroke-width="1" fill="none"></path></g><g><g transform="translate(475 93.75) rotate(0 -10.425526782432541 57.90668519736269)"><path d="M-1.1675039537250995 0.21664973571896562 C-4.686163537452618 19.43321695799629, -17.583660325159627 95.69911088620623, -20.90060710981488 114.99420212581754 M0.4204177412297576 -0.7152130983676761 C-3.1785594127668686 18.731919663806135, -17.64370086482105 97.38222088968692, -21.2714713060949 116.52858349309302" stroke="#000000" stroke-width="1" fill="none"></path></g></g><g><g transform="translate(452 208.75) rotate(0 45.932727121724724 1.1138669902691731)"><path d="M0.21664973571896562 1.0993928901851178 C15.766550291329622 1.615779438863198, 77.3657775528729 1.7815880609055361, 92.99420212581754 1.930815338343382 M-1.1287478823680432 0.6309702121932061 C14.289329176126046 0.9253274471281719, 76.23169189917854 0.37299858110335976, 92.04311277824453 0.2969186421949417" stroke="#000000" stroke-width="1" fill="none"></path></g></g><g><g transform="translate(543 209.75) rotate(0 -12.714579591234212 -61.81144846677314)"><path d="M1.0993928901851178 -0.005797874182462692 C-3.050887227803469 -20.37737330123782, -21.551745272427794 -101.6960453622043, -26.069184661656617 -122.01280282661318 M0.217435428192839 -1.0544457034673542 C-3.9072630405519155 -21.764230481525885, -22.117530409405006 -103.18039238913916, -26.528552072653547 -123.61709905936382" stroke="#000000" stroke-width="1" fill="none"></path></g></g><g transform="translate(436 219.25) rotate(0 90 17.5)"><text x="0" y="25" font-family="Virgil" font-size="28px" fill="#000000" text-anchor="start" style="white-space: pre;">Dienstleister</text></g><g transform="translate(111.5 10) rotate(0 170 17.5)"><text x="0" y="25" font-family="Virgil" font-size="28px" fill="#c92a2a" text-anchor="start" style="white-space: pre;">Rollen und Verantwortung</text></g><g transform="translate(200.5 773.5) rotate(0 116 29)"><path d="M0.09574842952741831 -0.7623022819904968 C51.43503873563337 2.615676021156294, 101.20576316355786 1.5995507167805982, 230.51311424651726 0.985240035107024 M0.6846578133799948 -0.18120073427198305 C87.59592417725136 0.7200101051399567, 174.31541808217878 1.9439458126687623, 231.46285176486927 0.40392840484275444 M233.27172227576375 -0.6940266080200672 C231.19330277998 18.222796617820862, 233.8502521808818 33.17072869986296, 233.61110075190663 59.444395285099745 M231.06740354560316 0.6365498099476099 C232.44379497606306 13.603423038870098, 231.5022383435443 26.497155169770124, 232.4188200738281 58.863783756271005 M230.31260242431873 58.82639548967174 C170.04384372661778 59.251804675385024, 105.840443254544 60.06760154178264, -0.03682403023987561 58.403676290964206 M231.60682679709166 57.337864811838884 C167.14455569933867 59.392930482706156, 101.7868076446437 59.96852778036099, -0.17911370741728172 57.85314606039424 M-1.3080866746604443 59.34812746569514 C-0.44505519319325687 46.652877282723786, -1.2071197693422437 32.7482574403286, 0.4539373703300953 0.010803204029798508 M0.2796312477439642 58.07995984889567 C-0.1533865812793374 35.9195148140192, 0.1568611380085349 14.190933563932774, 0.8591170813888311 0.4406357202678919" stroke="#000000" stroke-width="1" fill="none"></path></g><g transform="translate(122.5 783) rotate(0 11 17.5)"><text x="0" y="25" font-family="Virgil" font-size="28px" fill="#000000" text-anchor="start" style="white-space: pre;">L1</text></g><g transform="translate(219 787) rotate(0 87.5 17.5)"><text x="0" y="25" font-family="Virgil" font-size="28px" fill="#000000" text-anchor="start" style="white-space: pre;">Sensor/Aktor</text></g><g transform="translate(200.75 698.5) rotate(0 116 29)"><path d="M-0.7316797412741824 -0.6287286460633829 C63.07397598341898 0.2423006407143451, 124.84539384823208 -0.13137655091139305, 231.38997666427397 -0.4224468316339567 M-0.06472970174889937 -0.4791171211215101 C47.75803674658869 -1.9534386287150496, 97.39084279379941 -2.169673906828343, 231.82989618099452 -0.40164001300533636 M230.99677942320704 1.5395376272499561 C231.13464001517744 21.47574921362102, 233.46577540736646 39.910698135197165, 232.23298345133662 56.34417947009206 M231.78844503499568 0.030284276232123375 C231.58273722033948 17.349680300801992, 231.04384703736753 33.6545404214412, 232.11189899779856 57.47652273438871 M230.74565262279222 57.44653720361685 C180.54484327386 57.372087598540084, 129.52166843155163 55.823272210994546, -0.543736348890464 57.03110270841188 M232.5254692490632 57.699577529823436 C181.71308830493882 57.429544436650005, 132.11307871002936 56.27074212121829, 0.3976845102413855 57.99526026192185 M0.2553107552230358 58.1054653711617 C-0.543406443707645 41.70562027134001, 1.7571579645946622 24.2207722723484, 1.3451143316924572 -1.9860948733985424 M-0.5944121684879065 57.13021492026746 C0.9901671085134148 36.85420988500118, -0.5063990082964301 15.189523437991738, 0.5708577428013086 -0.1258972380310297" stroke="#000000" stroke-width="1" fill="none"></path></g><g transform="translate(114.75 708) rotate(0 19 17.5)"><text x="0" y="25" font-family="Virgil" font-size="28px" fill="#000000" text-anchor="start" style="white-space: pre;">L2</text></g><g transform="translate(278.75 712) rotate(0 28 17.5)"><text x="0" y="25" font-family="Virgil" font-size="28px" fill="#000000" text-anchor="start" style="white-space: pre;">PLC</text></g><g transform="translate(199.5 622.5) rotate(0 116 29)"><path d="M1.1360267578800127 -1.1852711739073916 C59.60163405883002 2.9253805893091647, 115.92105697090521 1.2088418120651214, 231.21182033861652 1.6193813573975875 M0.3075676264372028 -0.019014649781659988 C81.99276596888599 -1.1928000596938797, 163.4715679448469 0.14077135398345508, 232.64837680468352 -0.6576963211275852 M231.31980403140187 -1.7396002002060413 C231.43814146954566 15.999484657123686, 233.00923347909003 28.242944972217085, 231.6086415834725 58.737875800579786 M232.7622814681381 0.08874849416315556 C231.89167245347053 10.762251273542644, 231.21322884280235 23.21875309161842, 231.7682714369148 58.23053131438792 M232.17341502794292 57.376090633469566 C162.75280680471863 60.182676906340625, 95.11018217455309 58.6657635101238, -1.1775845983182505 57.98175057973121 M232.4460303833285 58.36898165007829 C167.6751431158192 59.27066806144435, 105.04006171976148 58.557896843714516, 0.2736431100199617 57.80545097357337 M1.428647119551897 56.22510788962245 C0.07567796897143131 40.56315714083612, 1.3237032670900226 23.86041583418846, -1.322027962654829 0.38821468874812126 M-0.8997851107269526 58.472920099273324 C0.5891133531555532 41.7708464294672, 0.7609848364815115 26.196620431169865, -0.9951936099678278 -0.9907467570155859" stroke="#000000" stroke-width="1" fill="none"></path></g><g transform="translate(113.5 632) rotate(0 19 17.5)"><text x="0" y="25" font-family="Virgil" font-size="28px" fill="#000000" text-anchor="start" style="white-space: pre;">L3</text></g><g transform="translate(219.5 636) rotate(0 86 17.5)"><text x="0" y="25" font-family="Virgil" font-size="28px" fill="#000000" text-anchor="start" style="white-space: pre;">SCADA/HMI</text></g><g transform="translate(199.5 546.5) rotate(0 116 29)"><path d="M1.1443544591364219 1.188815374225323 C77.7573135946618 0.1271538562280401, 154.2952250845161 -2.278067657536675, 233.24573181974895 1.2169975019253179 M-0.761511268802575 0.34875883090111387 C60.15295275665217 -2.433125688401301, 118.6361614711412 -1.8582957381477425, 232.81738150268063 -0.8202697032259069 M233.3352705053985 -1.157433908432722 C233.22180517654866 18.434043378755447, 230.08194371204823 37.309780462086195, 233.73270271345973 57.29268141463399 M232.6844985280186 -0.5715540144592524 C232.75269245129078 20.318575569242242, 232.03258316736668 40.29457208104432, 232.95843581296504 58.655127635225654 M231.5036619623111 59.076702719514074 C170.34859498535002 57.95104875221134, 107.58539877609674 58.20390975492917, 0.03462952567327767 56.648307374786704 M231.30062186863213 58.79130714231817 C148.77266216739028 58.11612906189041, 65.59363660708699 58.58831067878063, 0.26046926059112174 58.561137994038624 M-1.0731827206909657 58.39688952639699 C-1.4100528348609807 43.36266419328749, 1.9427080761268734 31.14614592194557, -1.5025708861649036 1.4007539339363575 M-0.4945661034435034 58.79962067864835 C0.8075267646089196 41.32365997731685, -0.6689645078405738 24.813326946273442, -0.6499310340732336 -0.8209457490593195" stroke="#000000" stroke-width="1" fill="none"></path></g><g transform="translate(121 556) rotate(0 16.5 17.5)"><text x="0" y="25" font-family="Virgil" font-size="28px" fill="#000000" text-anchor="start" style="white-space: pre;">L4</text></g><g transform="translate(283 560) rotate(0 27.5 17.5)"><text x="0" y="25" font-family="Virgil" font-size="28px" fill="#000000" text-anchor="start" style="white-space: pre;">MES</text></g><g transform="translate(195.75 469.5) rotate(0 116 29)"><path d="M-0.8523606061011388 -1.1563227080753489 C65.63170358937097 0.649593466953528, 131.47662099176904 -0.9476093156463501, 232.1170999239548 0.3858228227871254 M-0.19225267713206634 0.5992389580257378 C89.00371232635341 -1.5473995678169665, 179.14634765216937 -1.9592761366423783, 231.5300149487934 -0.17943239364092722 M231.62667997553945 -0.5309007354080677 C232.68674359995873 13.615036104992035, 231.04254172522576 29.75485035628081, 232.05869837477803 59.42924891039729 M232.7673537041992 0.9306553993374109 C231.28325157362968 14.500785581022503, 231.87255011994392 29.825960699841385, 232.61953889392316 57.76194856502116 M230.3628786667511 57.55769874192246 C183.61440817719682 58.88795814965503, 137.70365053275214 58.30683919046518, -1.042372596714075 58.926908814890034 M232.45639971640168 57.698309625881905 C164.73369030681627 58.770757020533544, 98.66610977937579 58.831157091297065, -0.5451547175284944 57.98921498204453 M1.9861181564629078 57.909530621021986 C1.0265072007104754 45.17663029395044, 1.055820645801723 32.03306636214256, 1.8683700151741505 0.08900247141718864 M0.2227874305099249 58.1720581445843 C-0.25421048555523157 39.84286085665226, 0.7925808891281485 21.418244638666508, -0.45489264465868473 -0.1228503193706274" stroke="#000000" stroke-width="1" fill="none"></path></g><g transform="translate(113.75 479) rotate(0 19 17.5)"><text x="0" y="25" font-family="Virgil" font-size="28px" fill="#000000" text-anchor="start" style="white-space: pre;">L5</text></g><g transform="translate(273 483) rotate(0 27.5 17.5)"><text x="0" y="25" font-family="Virgil" font-size="28px" fill="#000000" text-anchor="start" style="white-space: pre;">ERP</text></g><g transform="translate(175 414) rotate(0 113.5 17.5)"><text x="0" y="25" font-family="Virgil" font-size="28px" fill="#000000" text-anchor="start" style="white-space: pre;">Connected World</text></g><g transform="translate(160 360) rotate(0 125.5 17.5)"><text x="0" y="25" font-family="Virgil" font-size="28px" fill="#c92a2a" text-anchor="start" style="white-space: pre;">Anwendungsgebiete</text></g><g><g transform="translate(70.5 531.5) rotate(0 243.6168887879094 1.380543893785216)"><path d="M-0.29000052139163013 0.5848319046199322 C80.59400342777371 0.8727953982849916, 404.2683985359967 2.532397762189309, 485.220867908746 2.914823078364134 M1.7586104755382985 -0.15373529079370196 C83.03369520920329 0.314776785246407, 407.0906888984423 1.080483375561113, 487.5237780972104 1.2725304457265882" stroke="#c92a2a" stroke-width="1" fill="none"></path></g></g><g transform="translate(446.5 553) rotate(0 80 17.5)"><text x="0" y="25" font-family="Virgil" font-size="28px" fill="#c92a2a" text-anchor="start" style="white-space: pre;">IEC 62443</text></g><g transform="translate(842.5 139.5) rotate(0 297 38.5)"><path d="M0.5178186818957329 0.4255937889218331 C161.96797342635693 1.2791256531327964, 324.3127006195486 0.48215046964585784, 593.6632417604327 0.34301784783601763 M-0.014180096238851548 0.31257445439696313 C135.01055545695127 1.669834469124675, 269.4735638678074 1.9430721981972459, 593.8738494075835 0.18475346192717554 M592.14726017043 -1.604313176125288 C591.4762366054766 20.16473633442074, 591.9895466802828 38.06680052392185, 593.9768632464111 76.16576750949025 M594.9530995283276 -0.9326680991798639 C592.6099639160373 18.48274312261492, 594.3072568995692 36.85163601860404, 594.0866654906422 76.4298987891525 M593.6871034070849 77.16856339722872 C378.24334750734266 79.06520947815478, 161.6792226500809 79.18842167259753, -0.5841391637921334 76.81842458993196 M593.9755954183638 77.36643983945251 C417.39398022554815 78.13787723626196, 241.56201484352346 78.38747147168219, 0.17237278595566752 76.80675086602568 M1.4512321762740612 77.42838092520833 C-1.324169376026839 58.78595274444669, -0.07678184760734436 42.66154900826513, 0.4283801130950451 -1.663560789078474 M0.08731690980494022 77.87455319426954 C-0.021807925645262016 60.170243015699086, 0.31204740529879926 43.31089400351048, -0.6545863356441259 0.46299212239682674" stroke="#000000" stroke-width="1" fill="none"></path></g><g transform="translate(866.5 166) rotate(0 166 17.5)"><text x="0" y="25" font-family="Virgil" font-size="28px" fill="#000000" text-anchor="start" style="white-space: pre;">2.1 Security Management</text></g><g transform="translate(844 301) rotate(0 297 38.5)"><path d="M-0.04189725667238236 -0.02247683256864548 C221.15663621760905 -0.44882741369307066, 442.86312104687096 -0.9418200532346966, 593.7437754556537 -0.21498014181852343 M-0.10467506274580957 0.030046197026968004 C199.9578668344766 -1.8925839411765344, 400.31058588624 -1.9464595543891199, 593.6850802101195 0.10682267770171167 M593.9115216545761 1.0617880411446095 C595.1318352041952 15.37252831850201, 592.7627523957007 33.49767975918949, 592.2736335806549 75.56657179072499 M593.3740293178707 -0.2307970616966486 C593.6326902694441 18.72641738895327, 595.2548833079077 38.80618089661002, 593.0049516949803 77.02326839230955 M594.3458261892199 77.57597983628511 C463.9219059761613 77.7178696296364, 334.0722457118332 77.60072843052447, -0.04903393536806107 76.4829058483243 M593.9988791383803 77.29488875493408 C464.3709081020206 78.38002410496772, 334.053866173327 78.88561046685278, 0.02150336876511574 77.38911366090178 M0.8636412434279919 77.82646151259542 C-1.5223247946612537 59.4601015066728, 1.2738221942074597 42.84003742970526, -0.833244938403368 -1.5664216689765453 M-0.8716132249683142 77.35801755450666 C-0.5058258687891066 56.19908447545022, -0.5524904047884047 37.40574244558811, -0.7824198212474585 -0.18719143606722355" stroke="#000000" stroke-width="1" fill="none"></path></g><g transform="translate(868.5 316.5) rotate(0 264.5 17.5)"><text x="0" y="25" font-family="Virgil" font-size="28px" fill="#000000" text-anchor="start" style="white-space: pre;">2.4 Requirements for Solution Provider</text></g><g transform="translate(646 185) rotate(0 93.5 35.5)"><text x="0" y="24.5" font-family="Virgil" font-size="28px" fill="#c92a2a" text-anchor="start" style="white-space: pre;">Richtlinien und</text><text x="0" y="60" font-family="Virgil" font-size="28px" fill="#c92a2a" text-anchor="start" style="white-space: pre;">Prozesse</text></g><g transform="translate(845 389.25) rotate(0 297 38.5)"><path d="M-0.027009598910808563 0.2196509763598442 C187.6002026703209 1.9046721290498974, 376.2119684673846 2.189776737585664, 593.240681488812 -0.263853557407856 M-0.23268108740448953 0.2512298978865147 C142.8444805096835 0.8021259383708237, 285.82720469832424 0.6916289166957139, 593.7733121596277 -0.04874261245131493 M592.7762289829552 -0.6507637687027454 C592.5979601805099 24.00843806769699, 594.4714127247222 43.484271221235396, 594.3393356390297 77.07063160464168 M594.1148242261261 0.6802193317562342 C594.9352986564301 29.203299707733095, 593.9687729229591 56.753641817718744, 593.8854740764946 76.71914646960795 M594.6523094967008 76.63171524256468 C361.32394778765735 78.41529737947882, 128.165393512696 79.77694312570989, -0.2277380630373955 77.45595912188291 M593.9836003743112 77.37366837635636 C415.34034363962706 78.46352443300187, 237.3936162933707 78.4435410221666, 0.38609478101134304 77.38117419853806 M1.6544354744255543 78.25478599593043 C1.7840826831571759 60.28222214523703, -1.238285390306264 43.002998596057296, -0.04023222252726555 1.9503863863646984 M0.9683445002883673 77.95737341977656 C-0.911988069768995 57.87558400649577, -0.42541550612077117 37.57996746003627, 0.6959454920142889 -0.015154978260397911" stroke="#000000" stroke-width="1" fill="none"></path></g><g transform="translate(863 416.75) rotate(0 247 17.5)"><text x="0" y="25" font-family="Virgil" font-size="28px" fill="#000000" text-anchor="start" style="white-space: pre;">3.3 Security Requirements &amp; Levels</text></g><g transform="translate(846.5 487.75) rotate(0 297 38.5)"><path d="M-0.42772013396024705 -0.07858639508485794 C128.77465975545348 -0.44584518633782866, 256.4777552820742 -0.9162169571965934, 593.5249303653836 0.7136674329638482 M-0.08159912005066872 0.3288760341703892 C166.34379783384503 -1.2739265809506175, 332.51081694960595 -1.5410482058972117, 593.9453543625772 -0.19956403598189354 M592.982120949775 1.9603665880858898 C594.3844216524251 15.643196283839643, 593.8681837974675 32.58076764829457, 595.4581876583397 77.17645571753383 M594.8673632051796 0.48927722312510014 C593.9892521258257 28.947269988618796, 593.9738887306116 58.96249274984003, 594.9192344453186 77.36590997315943 M594.126473839581 76.41871041506529 C365.65577150620516 76.68655043171346, 137.54291371628636 76.3621533923, 0.0027724102139472964 76.42701343744993 M593.7461950980127 76.78357617035508 C374.006612643972 78.98318291507661, 153.9886816486716 79.60076435409486, -0.34026236906647683 76.99518279209732 M1.7748095579445362 76.83217154070735 C-1.8845161731727422 47.83316878024489, -0.677189880181104 22.410929172858594, -0.8987437896430492 0.7385301403701305 M-0.6276539657264948 77.51542041637003 C-0.8867066673003137 47.64427792448551, -0.04967977320775385 18.554120311141013, 0.45404439233243465 -0.8231377210468054" stroke="#000000" stroke-width="1" fill="none"></path></g><g transform="translate(861.5 502.25) rotate(0 232 17.5)"><text x="0" y="25" font-family="Virgil" font-size="28px" fill="#000000" text-anchor="start" style="white-space: pre;">4.2 Requirements for Components</text></g><g transform="translate(666 417.75) rotate(0 47 17.5)"><text x="0" y="25" font-family="Virgil" font-size="28px" fill="#c92a2a" text-anchor="start" style="white-space: pre;">System</text></g><g transform="translate(631.5 503) rotate(0 84 17.5)"><text x="0" y="25" font-family="Virgil" font-size="28px" fill="#c92a2a" text-anchor="start" style="white-space: pre;">Komponenten</text></g><g transform="translate(839.5 219) rotate(0 297 38.5)"><path d="M-0.7569009944796563 -0.36790452748537067 C223.62902885936202 0.7456471332460644, 449.1657231785357 0.4753013023287058, 594.2051687553525 -0.29901037961244586 M-0.0009247817099094391 0.15986208096146584 C183.29746536724272 -0.26471827892959116, 367.0323751389981 0.07873062224686152, 593.6643732748926 -0.23764766082167627 M595.870674688369 -0.66211773827672 C592.2237014882453 18.855579262040557, 594.5851453654655 33.625942735746506, 595.100880343467 77.59505949541926 M594.257699182257 -0.6027732696384192 C593.1631388821266 22.648551673255863, 594.0530813493393 46.611464522033934, 594.3711911346763 76.76726196147501 M593.6817808941007 76.24553913325072 C445.99224493540817 79.13979059122504, 297.0262273482978 78.78934527300298, 0.734783871471882 76.95225981920957 M593.7556948147715 76.94440383091569 C450.73764202333984 76.44822078500688, 307.053325651586 76.75112860952318, 0.2762830935418606 76.66120835915208 M-0.37321965023875237 77.31426332518458 C2.2646712933294477 57.67358364406973, -0.08122888462617994 39.69352942071855, 1.1646413393318653 -1.5979091115295887 M-0.14486880041658878 76.03813509084284 C-0.0067073199711740195 55.98676657695323, 1.1405326631106436 35.890272101759905, -0.1618280503898859 0.398179629817605" stroke="#000000" stroke-width="1" fill="none"></path></g><g transform="translate(861 241.5) rotate(0 142.5 17.5)"><text x="0" y="25" font-family="Virgil" font-size="28px" fill="#000000" text-anchor="start" style="white-space: pre;">2.3 Patchmanagment</text></g><g><g transform="translate(882.5 196.5) rotate(0 149.34787757471202 -16.4088605406275)"><path d="M-0.8663415066897868 0.8291305772960185 C49.03480238591631 -4.587362767010927, 249.57898636336128 -26.41592085435986, 299.56209665611385 -32.03231272771954 M0.8796904729586097 0.21882018503732992 C50.65841362037075 -5.559464416829869, 249.34183533517333 -28.363202514676377, 298.90915193694644 -33.64685165855102" stroke="#c92a2a" stroke-width="1" fill="none"></path></g></g><g transform="translate(1208.5 163) rotate(0 84 17.5)"><text x="0" y="25" font-family="Virgil" font-size="28px" fill="#c92a2a" text-anchor="start" style="white-space: pre;">ISO 270001</text></g><g transform="translate(1024 16) rotate(0 47.5 17.5)"><text x="0" y="25" font-family="Virgil" font-size="28px" fill="#c92a2a" text-anchor="start" style="white-space: pre;">Aufbau</text></g><g transform="translate(839.5 63) rotate(0 297 38.5)"><path d="M-0.4843038633465767 -0.23178760260343553 C207.4586356792599 -2.207926709786058, 413.79141134247186 -1.9777305675894026, 594.6333894178272 -0.0594120666384697 M0.09900771751999855 0.0015324078500270845 C128.09060794003307 -1.878982643321157, 255.64042730927468 -2.1334296981841328, 594.1871447958052 0.06643831357359886 M593.7469762377441 -1.7100278548896313 C593.5066192643158 19.599604294635355, 594.2480825678817 38.86854506842792, 592.5149452500045 75.92216296866536 M593.2827094588429 -0.3317121956497431 C593.2154271925427 21.520950230397286, 593.6351608956792 44.5418770454824, 594.050394454971 77.59073590300977 M593.3365281030535 77.74806249886751 C450.00609626136725 78.00451215006412, 307.43493413403627 78.58409488894046, -0.4891044214367867 77.04047282487154 M594.1942840255797 76.88419875726103 C410.82630571983753 74.75099340380729, 227.76073601394893 74.67158449591696, 0.07715529575943947 77.36328160390258 M-0.0333184190094471 76.68659599497914 C0.13160987423732878 55.68247731085866, 1.655246334541589 32.68673951663076, 1.2764825634658337 1.089821059256792 M0.07826183177530766 76.77688162587583 C0.3327933472953737 59.06363254468888, 0.9880884212814272 40.51559609472751, -0.8575253095477819 0.3957828190177679" stroke="#000000" stroke-width="1" fill="none"></path></g><g transform="translate(872.5 82.5) rotate(0 240 17.5)"><text x="0" y="25" font-family="Virgil" font-size="28px" fill="#000000" text-anchor="start" style="white-space: pre;">1.1.Terminology, concepts and models</text></g><g transform="translate(678.5 87) rotate(0 58 17.5)"><text x="0" y="25" font-family="Virgil" font-size="28px" fill="#c92a2a" text-anchor="start" style="white-space: pre;">Allgemein</text></g><g transform="translate(935.5 589) rotate(0 128 17.5)"><text x="0" y="25" font-family="Virgil" font-size="28px" fill="#c92a2a" text-anchor="start" style="white-space: pre;">Defense in Depth</text></g><g transform="translate(573 641) rotate(0 63.5 17.5)"><text x="0" y="25" font-family="Virgil" font-size="28px" fill="#c92a2a" text-anchor="start" style="white-space: pre;">Betreiber</text></g><g transform="translate(462.5 682.5) rotate(0 217 88)"><text x="0" y="25.200000000000003" font-family="Virgil" font-size="28px" fill="#000000" text-anchor="start" style="white-space: pre;">Sicherheitsrichtlinien</text><text x="0" y="60.400000000000006" font-family="Virgil" font-size="28px" fill="#000000" text-anchor="start" style="white-space: pre;">Awareness</text><text x="0" y="95.60000000000001" font-family="Virgil" font-size="28px" fill="#000000" text-anchor="start" style="white-space: pre;">Physikalische Zugangskontrollen</text><text x="0" y="130.8" font-family="Virgil" font-size="28px" fill="#000000" text-anchor="start" style="white-space: pre;">Notfallplan</text><text x="0" y="166" font-family="Virgil" font-size="28px" fill="#000000" text-anchor="start" style="white-space: pre;">Installation Patches</text></g><g transform="translate(911.5 648.75) rotate(0 118 17.5)"><text x="0" y="25" font-family="Virgil" font-size="28px" fill="#c92a2a" text-anchor="start" style="white-space: pre;">Systemintegrator</text></g><g transform="translate(906.5 704.75) rotate(0 247 70.5)"><text x="0" y="24.25" font-family="Virgil" font-size="28px" fill="#000000" text-anchor="start" style="white-space: pre;">Segmentierung (Zonen und Conduits)</text><text x="0" y="59.5" font-family="Virgil" font-size="28px" fill="#000000" text-anchor="start" style="white-space: pre;">Schutz mit Firewalls</text><text x="0" y="94.75" font-family="Virgil" font-size="28px" fill="#000000" text-anchor="start" style="white-space: pre;">Zugriffskontrolle und Beschränkung</text><text x="0" y="130" font-family="Virgil" font-size="28px" fill="#000000" text-anchor="start" style="white-space: pre;">der Aktion auf das Notwendige</text></g><g transform="translate(1420 660) rotate(0 66.5 17.5)"><text x="0" y="25" font-family="Virgil" font-size="28px" fill="#c92a2a" text-anchor="start" style="white-space: pre;">Hersteller</text></g><g transform="translate(1426 708.5) rotate(0 156.5 53)"><text x="0" y="24.333333333333336" font-family="Virgil" font-size="28px" fill="#000000" text-anchor="start" style="white-space: pre;">Sichere SW Entwicklung</text><text x="0" y="59.66666666666667" font-family="Virgil" font-size="28px" fill="#000000" text-anchor="start" style="white-space: pre;">Bereitstellung Patches</text><text x="0" y="95" font-family="Virgil" font-size="28px" fill="#000000" text-anchor="start" style="white-space: pre;">Erfüllung Requirements</text></g><g><g transform="translate(714.5 647.5) rotate(0 126.83209314766339 -14.378740847855795)"><path d="M0.6069691546261311 -0.19193704202771178 C42.433847503612434 -4.780486457298199, 209.8425354686876 -23.737057646860677, 252.0070442803204 -28.5655446536839 M-0.5335107685346157 -1.3383079344313593 C41.56695742485734 -5.681478044517959, 211.918747720796 -22.805436123240117, 254.19769706386143 -27.325030345646663" stroke="#c92a2a" stroke-width="1" fill="none"></path></g></g><g><g transform="translate(1066.5 650.5) rotate(0 0.4464576088589638 -15.40507941423914)"><path d="M0.6635422222316265 -0.5533906571567059 C0.4597235910594464 -5.615869302799305, -0.7470411308109759 -25.889092043290535, -0.7204116113483905 -30.98889139816165 M-0.447236840436235 1.770475302496925 C-0.30608154178597025 -3.5554368839071446, 1.4571434065606446 -26.77728857779565, 1.6133268290665002 -32.580634130975234" stroke="#c92a2a" stroke-width="1" fill="none"></path></g></g><g><g transform="translate(1504.5 651.5) rotate(0 -163.04616584972484 -16.354191946238302)"><path d="M-0.31574816778302195 0.9201929457485674 C-54.68662815963228 -4.5945602767169476, -272.4801808046798 -27.8409560315311, -326.5663157708943 -33.62857683822513 M1.719345314791426 0.3576902969274669 C-52.829267961590865 -4.96044061913155, -273.36089459608934 -26.876381159862504, -327.811677014241 -32.42115442707203" stroke="#c92a2a" stroke-width="1" fill="none"></path></g></g></svg>