<?xml version="1.0" encoding="UTF-8" standalone="no"?><!DOCTYPE svg PUBLIC "-//W3C//DTD SVG 1.1//EN" "http://www.w3.org/Graphics/SVG/1.1/DTD/svg11.dtd"><svg width="100%" height="100%" viewBox="0 0 1920 1080" version="1.1" xmlns="http://www.w3.org/2000/svg" xmlns:xlink="http://www.w3.org/1999/xlink" xml:space="preserve" xmlns:serif="http://www.serif.com/" style="fill-rule:evenodd;clip-rule:evenodd;stroke-miterlimit:10;"><g><g><rect x="293.021" y="160.428" width="663.65" height="39.167" style="fill:#e4e5e5;"/><rect x="293.021" y="199.595" width="1331.65" height="718.047" style="fill:#feffff;"/></g><g><rect x="293.021" y="160.428" width="663.65" height="39.167" style="fill:none;stroke:#b1b2b2;stroke-width:2.17px;"/><rect x="293.021" y="199.595" width="1331.65" height="718.047" style="fill:none;stroke:#b1b2b2;stroke-width:2.17px;"/><text x="303.899px" y="190.891px" style="font-family:'LucidaGrande', 'Lucida Grande', sans-serif;font-weight:500;font-size:26.111px;">Information System / Informationssysteme</text><rect x="319.132" y="395.427" width="637.539" height="39.166" style="fill:#e4e5e5;"/><rect x="319.132" y="434.593" width="1279.42" height="456.94" style="fill:#feffff;"/><rect x="319.132" y="395.427" width="637.539" height="39.166" style="fill:none;stroke:#b1b2b2;stroke-width:2.17px;"/><rect x="319.132" y="434.593" width="1279.42" height="456.94" style="fill:none;stroke:#b1b2b2;stroke-width:2.17px;"/><text x="330.011px" y="425.889px" style="font-family:'LucidaGrande', 'Lucida Grande', sans-serif;font-weight:500;font-size:26.111px;">Application System / Anwendungssysteme</text><path d="M843.524,495.518c0,-12.01 -9.75,-21.76 -21.759,-21.76l-271.987,0c-12.01,0 -21.76,9.75 -21.76,21.76l0,36.99c0,12.009 9.75,21.759 21.76,21.759l271.987,0c12.009,0 21.759,-9.75 21.759,-21.759l0,-36.99Z" style="fill:#ffffb5;fill-opacity:0.392157;"/><path d="M841.347,495.518c0,-12.01 -9.748,-21.76 -21.758,-21.76l-269.811,0c-12.01,0 -21.76,9.75 -21.76,21.76l0,34.814c0,12.009 9.75,21.759 21.76,21.759l269.811,0c12.01,0 21.758,-9.75 21.758,-21.759l0,-34.814Z" style="fill:none;stroke:#b2b27e;stroke-opacity:0.392157;stroke-width:2.17px;stroke-dasharray:6.53,6.53;"/><path d="M804.357,497.693l17.408,0l0,-6.527l13.055,10.88l-13.055,10.879l0,-6.528l-17.408,0l0,-8.704Z" style="fill:none;stroke:#808080;stroke-width:2.17px;"/><text x="580.24px" y="512.925px" style="font-family:'LucidaGrande', 'Lucida Grande', sans-serif;font-weight:500;font-size:26.111px;fill:#fff;">Business Process</text><text x="578.064px" y="510.749px" style="font-family:'LucidaGrande', 'Lucida Grande', sans-serif;font-weight:500;font-size:26.111px;">Business Process</text><path d="M1130.75,599.961c0,-12.009 -9.75,-21.759 -21.759,-21.759l-219.765,0c-12.01,0 -21.76,9.75 -21.76,21.759l0,36.99c0,12.009 9.75,21.759 21.76,21.759l219.765,0c12.009,0 21.759,-9.75 21.759,-21.759l0,-36.99Z" style="fill:#b5ffff;fill-opacity:0.392157;"/><path d="M1128.56,599.961c0,-12.009 -9.75,-21.759 -21.759,-21.759l-217.59,0c-12.009,0 -21.759,9.75 -21.759,21.759l0,34.815c0,12.009 9.75,21.759 21.759,21.759l217.59,0c12.009,0 21.759,-9.75 21.759,-21.759l0,-34.815Z" style="fill:none;stroke:#7eb2b2;stroke-opacity:0.392157;stroke-width:2.17px;stroke-dasharray:6.53,6.53;"/><path d="M1119.87,602.137c0,-4.803 -3.9,-8.703 -8.703,-8.703l-17.408,0c-4.803,0 -8.704,3.9 -8.704,8.703l0,2.175c0,4.805 3.901,8.704 8.704,8.704l17.408,0c4.803,0 8.703,-3.899 8.703,-8.704l0,-2.175Z" style="fill:none;stroke:#808080;stroke-width:2.17px;"/><text x="928.384px" y="617.369px" style="font-family:'LucidaGrande', 'Lucida Grande', sans-serif;font-weight:500;font-size:26.111px;fill:#fff;">Application</text><text x="926.209px" y="615.192px" style="font-family:'LucidaGrande', 'Lucida Grande', sans-serif;font-weight:500;font-size:26.111px;">Application</text><text x="941.439px" y="650.007px" style="font-family:'LucidaGrande', 'Lucida Grande', sans-serif;font-weight:500;font-size:26.111px;fill:#fff;">(Services)</text><text x="939.264px" y="647.831px" style="font-family:'LucidaGrande', 'Lucida Grande', sans-serif;font-weight:500;font-size:26.111px;">(Services)</text><path d="M843.524,704.404c0,-12.009 -9.75,-21.759 -21.759,-21.759l-271.987,0c-12.01,0 -21.76,9.75 -21.76,21.759l0,36.991c0,12.009 9.75,21.759 21.76,21.759l271.987,0c12.009,0 21.759,-9.75 21.759,-21.759l0,-36.991Z" style="fill:#c9e7b7;fill-opacity:0.392157;"/><path d="M841.347,704.404c0,-12.009 -9.748,-21.759 -21.758,-21.759l-269.811,0c-12.01,0 -21.76,9.75 -21.76,21.759l0,34.815c0,12.009 9.75,21.759 21.76,21.759l269.811,0c12.01,0 21.758,-9.75 21.758,-21.759l0,-34.815Z" style="fill:none;stroke:#8ca180;stroke-opacity:0.392157;stroke-width:2.17px;stroke-dasharray:6.53,6.53;"/><path d="M832.645,706.58c0,-4.803 -3.901,-8.704 -8.704,-8.704l-17.407,0c-4.804,0 -8.704,3.901 -8.704,8.704l0,2.176c0,4.804 3.9,8.704 8.704,8.704l17.407,0c4.803,0 8.704,-3.9 8.704,-8.704l0,-2.176Z" style="fill:none;stroke:#808080;stroke-width:2.17px;"/><text x="612.878px" y="721.811px" style="font-family:'LucidaGrande', 'Lucida Grande', sans-serif;font-weight:500;font-size:26.111px;fill:#fff;">Technology</text><text x="610.703px" y="719.635px" style="font-family:'LucidaGrande', 'Lucida Grande', sans-serif;font-weight:500;font-size:26.111px;">Technology</text><text x="628.109px" y="754.45px" style="font-family:'LucidaGrande', 'Lucida Grande', sans-serif;font-weight:500;font-size:26.111px;fill:#fff;">(Services)</text><text x="625.934px" y="752.274px" style="font-family:'LucidaGrande', 'Lucida Grande', sans-serif;font-weight:500;font-size:26.111px;">(Services)</text><path d="M1154.68,473.758l443.884,0l0,365.553l-26.111,26.111l-417.773,0l0,-391.664Z" style="fill:#fff;fill-rule:nonzero;"/><path d="M1154.68,473.758l443.884,0l0,365.553l-26.111,26.111l-417.773,0l0,-391.664Z" style="fill:none;stroke:#b2b2b2;stroke-width:2.17px;"/><text x="1165.56px" y="510.749px" style="font-family:'LucidaGrande', 'Lucida Grande', sans-serif;font-weight:500;font-size:26.111px;">Def.: Ein System, das alle</text><text x="1165.56px" y="543.387px" style="font-family:'LucidaGrande', 'Lucida Grande', sans-serif;font-weight:500;font-size:26.111px;">Programme beinhaltet, die für</text><text x="1165.56px" y="576.026px" style="font-family:'LucidaGrande', 'Lucida Grande', sans-serif;font-weight:500;font-size:26.111px;">ein bestimmtes betriebliches</text><text x="1165.56px" y="608.665px" style="font-family:'LucidaGrande', 'Lucida Grande', sans-serif;font-weight:500;font-size:26.111px;">Aufgabengebiet entwickelt</text><text x="1165.56px" y="641.304px" style="font-family:'LucidaGrande', 'Lucida Grande', sans-serif;font-weight:500;font-size:26.111px;">wurden und eingesetzt werden,</text><text x="1165.56px" y="673.941px" style="font-family:'LucidaGrande', 'Lucida Grande', sans-serif;font-weight:500;font-size:26.111px;">inklusive der Technik (IT-</text><text x="1165.56px" y="706.58px" style="font-family:'LucidaGrande', 'Lucida Grande', sans-serif;font-weight:500;font-size:26.111px;">Infrastruktur), auf der das</text><text x="1165.56px" y="739.219px" style="font-family:'LucidaGrande', 'Lucida Grande', sans-serif;font-weight:500;font-size:26.111px;">Anwendungssystem läuft, und</text><text x="1165.56px" y="771.858px" style="font-family:'LucidaGrande', 'Lucida Grande', sans-serif;font-weight:500;font-size:26.111px;">der Daten, die vom</text><text x="1165.56px" y="804.496px" style="font-family:'LucidaGrande', 'Lucida Grande', sans-serif;font-weight:500;font-size:26.111px;">Anwendungssystem genutzt</text><text x="1165.56px" y="837.134px" style="font-family:'LucidaGrande', 'Lucida Grande', sans-serif;font-weight:500;font-size:26.111px;">werden.</text><rect x="345.242" y="578.202" width="158.841" height="80.509" style="fill:#b5ffff;"/><path d="M345.242,604.312l156.665,0" style="fill:none;stroke:#7eb2b2;stroke-width:2.17px;"/><rect x="345.242" y="578.202" width="156.665" height="78.333" style="fill:none;stroke:#7eb2b2;stroke-width:2.17px;"/><text x="395.288px" y="632.6px" style="font-family:'LucidaGrande', 'Lucida Grande', sans-serif;font-weight:500;font-size:26.111px;">Data</text><rect x="319.132" y="212.651" width="263.285" height="158.841" style="fill:#ffffb5;"/><path d="M319.132,238.761l261.108,0" style="fill:none;stroke:#b2b27e;stroke-width:2.17px;"/><rect x="319.132" y="212.651" width="261.108" height="156.665" style="fill:none;stroke:#b2b27e;stroke-width:2.17px;"/><text x="397.463px" y="267.048px" style="font-family:'LucidaGrande', 'Lucida Grande', sans-serif;font-weight:500;font-size:26.111px;">Strategy</text><path d="M367.001,290.983l165.369,0l21.759,21.758l0,8.704l-21.759,21.76l-165.369,0l-21.759,-21.76l0,-8.704l21.759,-21.758Z" style="fill:#f9f3df;fill-opacity:0.392157;fill-rule:nonzero;"/><path d="M367.001,290.983l165.369,0l21.759,21.758l0,8.704l-21.759,21.76l-165.369,0l-21.759,-21.76l0,-8.704l21.759,-21.758Z" style="fill:none;stroke:#aeaa9c;stroke-opacity:0.392157;stroke-width:2.17px;stroke-dasharray:6.53,6.53;"/><path d="M541.074,318.182c0,-7.811 -6.333,-14.143 -14.144,-14.143c-7.811,0 -14.144,6.332 -14.144,14.143c0,7.811 6.333,14.143 14.144,14.143c7.811,0 14.144,-6.332 14.144,-14.143Zm-5.441,0c0,-4.807 -3.896,-8.704 -8.703,-8.704c-4.807,0 -8.703,3.897 -8.703,8.704c0,4.806 3.896,8.704 8.703,8.704c4.807,0 8.703,-3.898 8.703,-8.704Z" style="fill:none;stroke:#808080;stroke-width:2.61px;"/><circle cx="526.93" cy="318.182" r="3.264" style="fill:#808080;"/><text x="414.871px" y="330.149px" style="font-family:'LucidaGrande', 'Lucida Grande', sans-serif;font-weight:500;font-size:26.111px;fill:#fff;">Goal</text><text x="412.695px" y="327.974px" style="font-family:'LucidaGrande', 'Lucida Grande', sans-serif;font-weight:500;font-size:26.111px;">Goal</text><rect x="606.35" y="212.651" width="263.285" height="158.841" style="fill:#ffffb5;fill-opacity:0.392157;"/><rect x="606.35" y="212.651" width="261.108" height="156.665" style="fill:none;stroke:#b2b27e;stroke-opacity:0.392157;stroke-width:2.17px;stroke-dasharray:6.53,6.53;"/><path d="M835.908,227.882c-3.004,0 -5.439,3.897 -5.439,8.703c0,4.807 2.435,8.704 5.439,8.704l20.672,0m-21.76,-17.407l21.76,0" style="fill:none;stroke:#808080;stroke-width:2.17px;"/><ellipse cx="857.667" cy="236.585" rx="5.439" ry="8.704" style="fill:none;stroke:#808080;stroke-width:2.17px;"/><text x="693.387px" y="251.816px" style="font-family:'LucidaGrande', 'Lucida Grande', sans-serif;font-weight:500;font-size:26.111px;fill:#fff;">Human</text><text x="691.211px" y="249.641px" style="font-family:'LucidaGrande', 'Lucida Grande', sans-serif;font-weight:500;font-size:26.111px;">Human</text><rect x="606.35" y="264.872" width="261.108" height="80.509" style="fill:#ffffb5;fill-opacity:0.392157;"/><rect x="606.35" y="264.872" width="258.932" height="78.333" style="fill:none;stroke:#b2b27e;stroke-opacity:0.392157;stroke-width:2.17px;stroke-dasharray:6.53,6.53;"/><circle cx="845.7" cy="280.104" r="6.528" style="fill:none;stroke:#808080;stroke-width:2.17px;"/><path d="M845.7,286.631l0,13.055" style="fill:none;stroke:#808080;stroke-width:2.17px;"/><path d="M845.7,299.686l-8.704,10.88" style="fill:none;stroke:#808080;stroke-width:2.17px;"/><path d="M845.7,299.686l8.704,10.88" style="fill:none;stroke:#808080;stroke-width:2.17px;"/><path d="M836.996,293.159l17.408,0" style="fill:none;stroke:#808080;stroke-width:2.17px;"/><text x="645.517px" y="304.039px" style="font-family:'LucidaGrande', 'Lucida Grande', sans-serif;font-weight:500;font-size:26.111px;fill:#fff;">Business Actor</text><text x="643.341px" y="301.863px" style="font-family:'LucidaGrande', 'Lucida Grande', sans-serif;font-weight:500;font-size:26.111px;">Business Actor</text><path d="M893.57,225.706l574.438,0l0,104.443l-26.111,26.111l-548.327,0l0,-130.554Z" style="fill:#fff;fill-rule:nonzero;"/><path d="M893.57,225.706l574.438,0l0,104.443l-26.111,26.111l-548.327,0l0,-130.554Z" style="fill:none;stroke:#b2b2b2;stroke-width:2.17px;"/><text x="904.449px" y="262.696px" style="font-family:'LucidaGrande', 'Lucida Grande', sans-serif;font-weight:500;font-size:26.111px;">Def: Informationssysteme sind</text><text x="904.449px" y="295.335px" style="font-family:'LucidaGrande', 'Lucida Grande', sans-serif;font-weight:500;font-size:26.111px;">soziotechnische Systeme mit menschlichen</text><text x="904.449px" y="327.974px" style="font-family:'LucidaGrande', 'Lucida Grande', sans-serif;font-weight:500;font-size:26.111px;">und maschinellen Komponenten.</text></g><g><path d="M536.721,547.74l-32.638,32.638" style="fill:none;stroke:#fff;stroke-width:2.17px;"/><path d="M534.545,545.563l-32.638,32.639" style="fill:none;stroke:#000;stroke-width:2.17px;"/><path d="M836.996,547.74l39.166,39.166" style="fill:none;stroke:#fff;stroke-width:2.17px;"/><path d="M834.82,545.563l39.166,39.167" style="fill:none;stroke:#000;stroke-width:2.17px;"/><path d="M686.859,684.821l0,-54.397" style="fill:none;stroke:#fff;stroke-width:2.17px;"/><path d="M686.859,630.424l2.175,0" style="fill:none;stroke:#fff;stroke-width:2.17px;"/><path d="M689.034,630.424l2.177,0" style="fill:none;stroke:#fff;stroke-width:2.17px;"/><path d="M691.211,630.424l2.176,-2.177" style="fill:none;stroke:#fff;stroke-width:2.17px;"/><path d="M693.387,628.247l2.176,-2.175" style="fill:none;stroke:#fff;stroke-width:2.17px;"/><path d="M695.563,626.072l2.175,-2.176" style="fill:none;stroke:#fff;stroke-width:2.17px;"/><path d="M697.738,623.896l0,-2.176" style="fill:none;stroke:#fff;stroke-width:2.17px;"/><path d="M697.738,621.72l0,-4.351" style="fill:none;stroke:#fff;stroke-width:2.17px;"/><path d="M697.738,617.369l0,-2.177" style="fill:none;stroke:#fff;stroke-width:2.17px;"/><path d="M697.738,615.192l-2.175,0" style="fill:none;stroke:#fff;stroke-width:2.17px;"/><path d="M695.563,615.192l0,-2.176" style="fill:none;stroke:#fff;stroke-width:2.17px;"/><path d="M695.563,613.016l-2.176,-2.175" style="fill:none;stroke:#fff;stroke-width:2.17px;"/><path d="M693.387,610.841l-2.176,-2.176" style="fill:none;stroke:#fff;stroke-width:2.17px;"/><path d="M691.211,608.665l-2.177,0" style="fill:none;stroke:#fff;stroke-width:2.17px;"/><path d="M689.034,608.665l-2.175,0" style="fill:none;stroke:#fff;stroke-width:2.17px;"/><path d="M686.859,608.665l0,-54.398" style="fill:none;stroke:#fff;stroke-width:2.17px;"/><path d="M684.683,682.645l0,-54.398" style="fill:none;stroke:#000;stroke-width:2.17px;"/><path d="M684.683,628.247l2.176,0" style="fill:none;stroke:#000;stroke-width:2.17px;"/><path d="M686.859,628.247l2.175,0" style="fill:none;stroke:#000;stroke-width:2.17px;"/><path d="M689.034,628.247l2.177,-2.175" style="fill:none;stroke:#000;stroke-width:2.17px;"/><path d="M691.211,626.072l2.176,-2.176" style="fill:none;stroke:#000;stroke-width:2.17px;"/><path d="M693.387,623.896l2.176,-2.176" style="fill:none;stroke:#000;stroke-width:2.17px;"/><path d="M695.563,621.72l0,-2.175" style="fill:none;stroke:#000;stroke-width:2.17px;"/><path d="M695.563,619.545l0,-4.353" style="fill:none;stroke:#000;stroke-width:2.17px;"/><path d="M695.563,615.192l0,-2.176" style="fill:none;stroke:#000;stroke-width:2.17px;"/><path d="M695.563,613.016l-2.176,0" style="fill:none;stroke:#000;stroke-width:2.17px;"/><path d="M693.387,613.016l0,-2.175" style="fill:none;stroke:#000;stroke-width:2.17px;"/><path d="M693.387,610.841l-2.176,-2.176" style="fill:none;stroke:#000;stroke-width:2.17px;"/><path d="M691.211,608.665l-2.177,-2.176" style="fill:none;stroke:#000;stroke-width:2.17px;"/><path d="M689.034,606.489l-2.175,0" style="fill:none;stroke:#000;stroke-width:2.17px;"/><path d="M686.859,606.489l-2.176,0" style="fill:none;stroke:#000;stroke-width:2.17px;"/><path d="M684.683,606.489l0,-54.398" style="fill:none;stroke:#000;stroke-width:2.17px;"/><path d="M876.162,652.183l-39.166,39.166" style="fill:none;stroke:#fff;stroke-width:2.17px;"/><path d="M873.986,650.007l-39.166,39.166" style="fill:none;stroke:#000;stroke-width:2.17px;"/><path d="M504.083,619.545l365.552,0" style="fill:none;stroke:#fff;stroke-width:2.17px;"/><path d="M501.907,617.369l365.552,0" style="fill:none;stroke:#000;stroke-width:2.17px;"/><path d="M504.083,658.71l32.638,32.639" style="fill:none;stroke:#fff;stroke-width:2.17px;"/><path d="M501.907,656.535l32.638,32.638" style="fill:none;stroke:#000;stroke-width:2.17px;"/><path d="M449.686,369.315l0,26.112" style="fill:none;stroke:#000;stroke-width:2.17px;"/><path d="M736.905,369.315l0,26.112" style="fill:none;stroke:#000;stroke-width:2.17px;"/><path d="M582.415,293.159l26.112,0" style="fill:none;stroke:#fff;stroke-width:2.17px;"/><path d="M580.24,290.983l26.11,0" style="fill:none;stroke:#000;stroke-width:2.17px;"/></g></g></svg>