<?xml version="1.0" encoding="UTF-8" standalone="no"?><!DOCTYPE svg PUBLIC "-//W3C//DTD SVG 1.1//EN" "http://www.w3.org/Graphics/SVG/1.1/DTD/svg11.dtd"><svg width="100%" height="100%" viewBox="0 0 1920 1080" version="1.1" xmlns="http://www.w3.org/2000/svg" xmlns:xlink="http://www.w3.org/1999/xlink" xml:space="preserve" xmlns:serif="http://www.serif.com/" style="fill-rule:evenodd;clip-rule:evenodd;stroke-miterlimit:10;"><g><g><path d="M541.565,172.603l356.657,0l0,25.577l-356.657,0l0,-25.577Z" style="fill:#e4e5e5;fill-rule:nonzero;"/><path d="M541.565,198.18l716.157,0l0,707.631l-716.157,0l0,-707.631Z" style="fill:#feffff;fill-rule:nonzero;"/></g><g><clipPath id="_clip1"><rect x="540.144" y="171.182" width="720.42" height="737.472"/></clipPath><g clip-path="url(#_clip1)"><path d="M541.565,172.603l356.657,0l0,25.577l-356.657,0l0,-25.577Z" style="fill:none;stroke:#b1b2b2;stroke-width:1.42px;"/></g><clipPath id="_clip2"><rect x="540.144" y="171.182" width="720.42" height="737.472"/></clipPath><g clip-path="url(#_clip2)"><path d="M541.565,198.18l716.157,0l0,707.631l-716.157,0l0,-707.631Z" style="fill:none;stroke:#b1b2b2;stroke-width:1.42px;"/></g><text x="548.669px" y="192.496px" style="font-family:'LucidaGrande', 'Lucida Grande', sans-serif;font-weight:500;font-size:17.051px;">Information System</text><path d="M575.667,377.219l314.03,0l0,25.577l-314.03,0l0,-25.577Z" style="fill:#e4e5e5;fill-rule:nonzero;"/><path d="M575.667,402.796l630.901,0l0,485.964l-630.901,0l0,-485.964Z" style="fill:#feffff;fill-rule:nonzero;"/><clipPath id="_clip3"><rect x="574.246" y="375.798" width="635.163" height="515.804"/></clipPath><g clip-path="url(#_clip3)"><path d="M575.667,377.219l314.03,0l0,25.577l-314.03,0l0,-25.577Z" style="fill:none;stroke:#b1b2b2;stroke-width:1.42px;"/></g><clipPath id="_clip4"><rect x="574.246" y="375.798" width="635.163" height="515.804"/></clipPath><g clip-path="url(#_clip4)"><path d="M575.667,402.796l630.901,0l0,485.964l-630.901,0l0,-485.964Z" style="fill:none;stroke:#b1b2b2;stroke-width:1.42px;"/></g><text x="582.772px" y="397.112px" style="font-family:'LucidaGrande', 'Lucida Grande', sans-serif;font-weight:500;font-size:17.051px;">Application System</text><path d="M1173.89,442.583c0,-7.843 -6.367,-14.21 -14.209,-14.21l-552.749,0c-7.842,0 -14.209,6.367 -14.209,14.21l0,75.31c0,7.842 6.367,14.209 14.209,14.209l552.749,0c7.842,0 14.209,-6.367 14.209,-14.209l0,-75.31Z" style="fill:#ffffb5;fill-opacity:0.3922;"/></g><g><clipPath id="_clip5"><rect x="591.298" y="426.952" width="584.009" height="106.571"/></clipPath><g clip-path="url(#_clip5)"><path d="M1172.46,442.583c0,-7.843 -6.367,-14.21 -14.209,-14.21l-551.328,0c-7.842,0 -14.209,6.367 -14.209,14.21l0,73.889c0,7.842 6.367,14.209 14.209,14.209l551.328,0c7.842,0 14.209,-6.367 14.209,-14.209l0,-73.889Z" style="fill:none;stroke:#b2b27e;stroke-opacity:0.3922;stroke-width:1.42px;stroke-dasharray:4.26,4.26;"/></g><clipPath id="_clip6"><rect x="591.298" y="426.952" width="584.009" height="106.571"/></clipPath><g clip-path="url(#_clip6)"><path d="M1148.31,444.004l11.368,0l0,-4.263l8.525,7.104l-8.525,7.105l0,-4.263l-11.368,0l0,-5.683Z" style="fill:none;stroke:#808080;stroke-width:1.42px;"/></g><text x="808.703px" y="453.95px" style="font-family:'LucidaGrande-Bold', 'Lucida Grande', sans-serif;font-weight:600;font-size:17.051px;fill:#fff;">Business Process</text><text x="807.282px" y="452.529px" style="font-family:'LucidaGrande-Bold', 'Lucida Grande', sans-serif;font-weight:600;font-size:17.051px;">Business Process</text></g><g><path d="M764.653,468.16c0,-7.843 -6.367,-14.21 -14.209,-14.21l-109.413,0c-7.843,0 -14.21,6.367 -14.21,14.21l0,32.681c0,7.843 6.367,14.21 14.21,14.21l109.413,0c7.842,0 14.209,-6.367 14.209,-14.21l0,-32.681Z" style="fill:#ffffb5;fill-opacity:0.3922;"/><clipPath id="_clip7"><rect x="625.4" y="452.529" width="140.674" height="63.943"/></clipPath><g clip-path="url(#_clip7)"><path d="M763.232,468.16c0,-7.843 -6.367,-14.21 -14.209,-14.21l-107.992,0c-7.843,0 -14.21,6.367 -14.21,14.21l0,31.26c0,7.843 6.367,14.21 14.21,14.21l107.992,0c7.842,0 14.209,-6.367 14.209,-14.21l0,-31.26Z" style="fill:none;stroke:#b2b27e;stroke-opacity:0.3922;stroke-width:1.42px;stroke-dasharray:4.26,4.26;"/></g><path d="M736.234,476.685c3.139,0 5.684,-2.862 5.684,-6.394c0,-3.531 -2.545,-6.394 -5.684,-6.394" style="fill:none;stroke:#808080;stroke-width:1.42px;"/><clipPath id="_clip8"><rect x="625.4" y="452.529" width="140.674" height="63.943"/></clipPath><g clip-path="url(#_clip8)"><path d="M753.286,476.685c3.139,0 5.683,-2.862 5.683,-6.394c0,-3.531 -2.544,-6.394 -5.683,-6.394m-17.052,0l17.052,0m-17.052,12.788l17.052,0" style="fill:none;stroke:#808080;stroke-width:1.42px;"/></g><text x="660.924px" y="479.527px" style="font-family:'LucidaGrande', 'Lucida Grande', sans-serif;font-weight:500;font-size:17.051px;fill:#fff;">Business</text><text x="659.503px" y="478.106px" style="font-family:'LucidaGrande', 'Lucida Grande', sans-serif;font-weight:500;font-size:17.051px;">Business</text><text x="673.713px" y="500.841px" style="font-family:'LucidaGrande', 'Lucida Grande', sans-serif;font-weight:500;font-size:17.051px;fill:#fff;">Event</text><text x="672.292px" y="499.42px" style="font-family:'LucidaGrande', 'Lucida Grande', sans-serif;font-weight:500;font-size:17.051px;">Event</text><path d="M935.167,472.422c0,-7.842 -6.367,-14.209 -14.21,-14.209l-109.412,0c-7.843,0 -14.21,6.367 -14.21,14.209l0,24.157c0,7.842 6.367,14.209 14.21,14.209l109.412,0c7.843,0 14.21,-6.367 14.21,-14.209l0,-24.157Z" style="fill:#ffffb5;fill-opacity:0.3922;"/><clipPath id="_clip9"><rect x="795.914" y="456.792" width="140.674" height="55.417"/></clipPath><g clip-path="url(#_clip9)"><path d="M933.746,472.422c0,-7.842 -6.367,-14.209 -14.209,-14.209l-107.992,0c-7.843,0 -14.21,6.367 -14.21,14.209l0,22.736c0,7.842 6.367,14.209 14.21,14.209l107.992,0c7.842,0 14.209,-6.367 14.209,-14.209l0,-22.736Z" style="fill:none;stroke:#b2b27e;stroke-opacity:0.3922;stroke-width:1.42px;stroke-dasharray:4.26,4.26;"/></g><clipPath id="_clip10"><rect x="795.914" y="456.792" width="140.674" height="55.417"/></clipPath><g clip-path="url(#_clip10)"><path d="M909.59,473.843l11.367,0l0,-4.262l8.526,7.104l-8.526,7.105l0,-4.263l-11.367,0l0,-5.684Z" style="fill:none;stroke:#808080;stroke-width:1.42px;"/></g><text x="831.438px" y="483.79px" style="font-family:'LucidaGrande', 'Lucida Grande', sans-serif;font-weight:500;font-size:17.051px;fill:#fff;">Business</text><text x="830.017px" y="482.369px" style="font-family:'LucidaGrande', 'Lucida Grande', sans-serif;font-weight:500;font-size:17.051px;">Business</text><clipPath id="_clip11"><rect x="828.596" y="463.897" width="75.31" height="41.207"/></clipPath><g clip-path="url(#_clip11)"><text x="834.28px" y="505.104px" style="font-family:'LucidaGrande', 'Lucida Grande', sans-serif;font-weight:500;font-size:17.051px;fill:#fff;">Process&apos;</text></g><text x="832.859px" y="503.683px" style="font-family:'LucidaGrande', 'Lucida Grande', sans-serif;font-weight:500;font-size:17.051px;">Process&apos;</text><path d="M1088.63,472.422c0,-7.842 -6.367,-14.209 -14.209,-14.209l-109.413,0c-7.843,0 -14.21,6.367 -14.21,14.209l0,24.157c0,7.842 6.367,14.209 14.21,14.209l109.413,0c7.842,0 14.209,-6.367 14.209,-14.209l0,-24.157Z" style="fill:#ffffb5;fill-opacity:0.3922;"/><clipPath id="_clip12"><rect x="949.376" y="456.792" width="140.674" height="55.417"/></clipPath><g clip-path="url(#_clip12)"><path d="M1087.21,472.422c0,-7.842 -6.367,-14.209 -14.209,-14.209l-107.992,0c-7.843,0 -14.21,6.367 -14.21,14.209l0,22.736c0,7.842 6.367,14.209 14.21,14.209l107.992,0c7.842,0 14.209,-6.367 14.209,-14.209l0,-22.736Z" style="fill:none;stroke:#b2b27e;stroke-opacity:0.3922;stroke-width:1.42px;stroke-dasharray:4.26,4.26;"/></g><clipPath id="_clip13"><rect x="949.376" y="456.792" width="140.674" height="55.417"/></clipPath><g clip-path="url(#_clip13)"><path d="M1063.05,473.843l11.368,0l0,-4.262l8.525,7.104l-8.525,7.105l0,-4.263l-11.368,0l0,-5.684Z" style="fill:none;stroke:#808080;stroke-width:1.42px;"/></g><text x="984.9px" y="483.79px" style="font-family:'LucidaGrande', 'Lucida Grande', sans-serif;font-weight:500;font-size:17.051px;fill:#fff;">Business</text><text x="983.479px" y="482.369px" style="font-family:'LucidaGrande', 'Lucida Grande', sans-serif;font-weight:500;font-size:17.051px;">Business</text><clipPath id="_clip14"><rect x="982.058" y="463.897" width="75.31" height="41.207"/></clipPath><g clip-path="url(#_clip14)"><text x="984.9px" y="505.104px" style="font-family:'LucidaGrande', 'Lucida Grande', sans-serif;font-weight:500;font-size:17.051px;fill:#fff;">Process&apos;&apos;</text></g><text x="983.479px" y="503.683px" style="font-family:'LucidaGrande', 'Lucida Grande', sans-serif;font-weight:500;font-size:17.051px;">Process&apos;&apos;</text><path d="M1173.89,578.993c0,-7.842 -6.367,-14.209 -14.209,-14.209l-552.749,0c-7.842,0 -14.209,6.367 -14.209,14.209l0,109.413c0,7.843 6.367,14.21 14.209,14.21l552.749,0c7.842,0 14.209,-6.367 14.209,-14.21l0,-109.413Z" style="fill:#b5ffff;fill-opacity:0.3922;"/></g><g><clipPath id="_clip15"><rect x="591.298" y="563.363" width="584.009" height="140.674"/></clipPath><g clip-path="url(#_clip15)"><path d="M1172.46,578.993c0,-7.842 -6.367,-14.209 -14.209,-14.209l-551.328,0c-7.842,0 -14.209,6.367 -14.209,14.209l0,107.992c0,7.843 6.367,14.21 14.209,14.21l551.328,0c7.842,0 14.209,-6.367 14.209,-14.21l0,-107.992Z" style="fill:none;stroke:#7eb2b2;stroke-opacity:0.3922;stroke-width:1.42px;stroke-dasharray:4.26,4.26;"/></g><path d="M1166.78,580.414c0,-3.137 -2.546,-5.683 -5.683,-5.683l-11.368,0c-3.137,0 -5.684,2.546 -5.684,5.683l0,1.421c0,3.137 2.547,5.684 5.684,5.684l11.368,0c3.137,0 5.683,-2.547 5.683,-5.684l0,-1.421Z" style="fill:none;stroke:#808080;stroke-width:1.42px;"/><text x="788.809px" y="590.361px" style="font-family:'LucidaGrande-Bold', 'Lucida Grande', sans-serif;font-weight:600;font-size:17.051px;fill:#fff;">Application (Services)</text><text x="787.388px" y="588.94px" style="font-family:'LucidaGrande-Bold', 'Lucida Grande', sans-serif;font-weight:600;font-size:17.051px;">Application (Services)</text></g><g><rect x="609.77" y="598.887" width="170.514" height="78.152" style="fill:#b5ffff;"/><clipPath id="_clip16"><rect x="608.349" y="597.466" width="173.356" height="80.994"/></clipPath><g clip-path="url(#_clip16)"><path d="M609.77,615.938l169.093,0" style="fill:none;stroke:#7eb2b2;stroke-width:1.42px;"/></g><clipPath id="_clip17"><rect x="608.349" y="597.466" width="173.356" height="80.994"/></clipPath><g clip-path="url(#_clip17)"><rect x="609.77" y="598.887" width="169.093" height="76.731" style="fill:none;stroke:#7eb2b2;stroke-width:1.42px;"/></g><text x="675.134px" y="634.41px" style="font-family:'LucidaGrande', 'Lucida Grande', sans-serif;font-weight:500;font-size:17.051px;">Data</text><rect x="811.545" y="598.887" width="156.304" height="78.152" style="fill:#b5ffff;"/><clipPath id="_clip18"><rect x="795.914" y="597.466" width="173.356" height="80.994"/></clipPath><g clip-path="url(#_clip18)"><path d="M811.545,613.096l0,-14.209" style="fill:none;stroke:#7eb2b2;stroke-width:1.42px;stroke-dasharray:4.26,4.26;"/></g><clipPath id="_clip19"><rect x="795.914" y="597.466" width="173.356" height="80.994"/></clipPath><g clip-path="url(#_clip19)"><path d="M811.545,598.887l154.883,0" style="fill:none;stroke:#7eb2b2;stroke-width:1.42px;stroke-dasharray:4.26,4.26;"/></g><clipPath id="_clip20"><rect x="795.914" y="597.466" width="173.356" height="80.994"/></clipPath><g clip-path="url(#_clip20)"><path d="M966.428,598.887l0,76.731" style="fill:none;stroke:#7eb2b2;stroke-width:1.42px;stroke-dasharray:4.26,4.26;"/></g><clipPath id="_clip21"><rect x="795.914" y="597.466" width="173.356" height="80.994"/></clipPath><g clip-path="url(#_clip21)"><path d="M966.428,675.618l-154.883,0" style="fill:none;stroke:#7eb2b2;stroke-width:1.42px;stroke-dasharray:4.26,4.26;"/></g><clipPath id="_clip22"><rect x="795.914" y="597.466" width="173.356" height="80.994"/></clipPath><g clip-path="url(#_clip22)"><path d="M811.545,675.618l0,-17.051" style="fill:none;stroke:#7eb2b2;stroke-width:1.42px;stroke-dasharray:4.26,4.26;"/></g><path d="M811.545,630.148l0,11.367" style="fill:none;stroke:#7eb2b2;stroke-width:1.42px;stroke-dasharray:4.26,4.26;"/><rect x="797.335" y="613.096" width="29.84" height="18.472" style="fill:#a2e5e5;"/><rect x="797.335" y="641.515" width="29.84" height="18.472" style="fill:#a2e5e5;"/><clipPath id="_clip23"><rect x="795.914" y="597.466" width="173.356" height="80.994"/></clipPath><g clip-path="url(#_clip23)"><rect x="797.335" y="613.096" width="28.419" height="17.051" style="fill:none;stroke:#7eb2b2;stroke-width:1.42px;stroke-dasharray:4.26,4.26;"/></g><clipPath id="_clip24"><rect x="795.914" y="597.466" width="173.356" height="80.994"/></clipPath><g clip-path="url(#_clip24)"><rect x="797.335" y="641.515" width="28.419" height="17.051" style="fill:none;stroke:#7eb2b2;stroke-width:1.42px;stroke-dasharray:4.26,4.26;"/></g><text x="849.91px" y="624.464px" style="font-family:'LucidaGrande', 'Lucida Grande', sans-serif;font-weight:500;font-size:17.051px;fill:#fff;">Application</text><text x="848.489px" y="623.043px" style="font-family:'LucidaGrande', 'Lucida Grande', sans-serif;font-weight:500;font-size:17.051px;">Application</text><rect x="984.9" y="598.887" width="170.514" height="78.152" style="fill:#b5ffff;fill-opacity:0.3922;"/><clipPath id="_clip25"><rect x="983.479" y="597.466" width="173.356" height="80.994"/></clipPath><g clip-path="url(#_clip25)"><rect x="984.9" y="598.887" width="169.093" height="76.731" style="fill:none;stroke:#7eb2b2;stroke-opacity:0.3922;stroke-width:1.42px;stroke-dasharray:4.26,4.26;"/></g><clipPath id="_clip26"><rect x="983.479" y="597.466" width="173.356" height="80.994"/></clipPath><g clip-path="url(#_clip26)"><circle cx="1142.62" cy="617.359" r="7.105" style="fill:none;stroke:#808080;stroke-width:1.42px;"/></g><path d="M1135.52,617.359l-9.946,0" style="fill:none;stroke:#808080;stroke-width:1.42px;"/><text x="1024.69px" y="624.464px" style="font-family:'LucidaGrande', 'Lucida Grande', sans-serif;font-weight:500;font-size:17.051px;fill:#fff;">Application</text><text x="1023.27px" y="623.043px" style="font-family:'LucidaGrande', 'Lucida Grande', sans-serif;font-weight:500;font-size:17.051px;">Application</text><text x="1034.63px" y="645.778px" style="font-family:'LucidaGrande', 'Lucida Grande', sans-serif;font-weight:500;font-size:17.051px;fill:#fff;">Interface</text><text x="1033.21px" y="644.357px" style="font-family:'LucidaGrande', 'Lucida Grande', sans-serif;font-weight:500;font-size:17.051px;">Interface</text><path d="M1173.89,749.507c0,-7.842 -6.367,-14.209 -14.209,-14.209l-552.749,0c-7.842,0 -14.209,6.367 -14.209,14.209l0,109.413c0,7.843 6.367,14.21 14.209,14.21l552.749,0c7.842,0 14.209,-6.367 14.209,-14.21l0,-109.413Z" style="fill:#c9e7b7;fill-opacity:0.3922;"/></g><g><clipPath id="_clip27"><rect x="591.298" y="733.877" width="584.009" height="140.674"/></clipPath><g clip-path="url(#_clip27)"><path d="M1172.46,749.507c0,-7.842 -6.367,-14.209 -14.209,-14.209l-551.328,0c-7.842,0 -14.209,6.367 -14.209,14.209l0,107.992c0,7.843 6.367,14.21 14.209,14.21l551.328,0c7.842,0 14.209,-6.367 14.209,-14.21l0,-107.992Z" style="fill:none;stroke:#8ca180;stroke-opacity:0.3922;stroke-width:1.42px;stroke-dasharray:4.26,4.26;"/></g><path d="M1166.78,750.928c0,-3.137 -2.546,-5.684 -5.683,-5.684l-11.368,0c-3.137,0 -5.684,2.547 -5.684,5.684l0,1.421c0,3.137 2.547,5.684 5.684,5.684l11.368,0c3.137,0 5.683,-2.547 5.683,-5.684l0,-1.421Z" style="fill:none;stroke:#808080;stroke-width:1.42px;"/><text x="787.388px" y="760.875px" style="font-family:'LucidaGrande-Bold', 'Lucida Grande', sans-serif;font-weight:600;font-size:17.051px;fill:#fff;">Technology (Services)</text><text x="785.967px" y="759.454px" style="font-family:'LucidaGrande-Bold', 'Lucida Grande', sans-serif;font-weight:600;font-size:17.051px;">Technology (Services)</text></g><g><rect x="609.77" y="769.4" width="170.514" height="78.152" style="fill:#c9e7b7;fill-opacity:0.3922;"/><clipPath id="_clip28"><rect x="608.349" y="767.979" width="173.356" height="80.994"/></clipPath><g clip-path="url(#_clip28)"><rect x="609.77" y="769.4" width="169.093" height="76.731" style="fill:none;stroke:#8ca180;stroke-opacity:0.3922;stroke-width:1.42px;stroke-dasharray:4.26,4.26;"/></g><path d="M758.969,792.846c0,-1.962 -1.59,-3.552 -3.552,-3.552c-1.962,0 -3.552,1.59 -3.552,3.552c0,1.962 1.59,3.552 3.552,3.552c1.962,0 3.552,-1.59 3.552,-3.552Zm2.842,-11.368c0,-1.961 -1.59,-3.552 -3.552,-3.552c-1.962,0 -3.552,1.591 -3.552,3.552c0,1.962 1.59,3.553 3.552,3.553c1.962,0 3.552,-1.591 3.552,-3.553Zm11.368,0c0,-1.961 -1.591,-3.552 -3.552,-3.552c-1.962,0 -3.553,1.591 -3.553,3.552c0,1.962 1.591,3.553 3.553,3.553c1.961,0 3.552,-1.591 3.552,-3.553Zm-2.842,11.368c0,-1.962 -1.59,-3.552 -3.552,-3.552c-1.962,0 -3.553,1.59 -3.553,3.552c0,1.962 1.591,3.552 3.553,3.552c1.962,0 3.552,-1.59 3.552,-3.552Zm-14.209,-3.552l1.421,-4.263m9.946,4.263l1.421,-4.263m-9.947,7.815l4.263,0m-1.421,-11.368l4.263,0" style="fill:none;stroke:#808080;stroke-width:1.42px;"/><text x="643.873px" y="794.977px" style="font-family:'LucidaGrande', 'Lucida Grande', sans-serif;font-weight:500;font-size:17.051px;fill:#fff;">Communicat</text><text x="642.452px" y="793.557px" style="font-family:'LucidaGrande', 'Lucida Grande', sans-serif;font-weight:500;font-size:17.051px;">Communicat</text><text x="645.294px" y="816.292px" style="font-family:'LucidaGrande', 'Lucida Grande', sans-serif;font-weight:500;font-size:17.051px;fill:#fff;">ion Network</text><text x="643.873px" y="814.871px" style="font-family:'LucidaGrande', 'Lucida Grande', sans-serif;font-weight:500;font-size:17.051px;">ion Network</text><path d="M797.335,846.132l0,-56.838l19.893,-19.894l149.2,0l0,56.838l-19.893,19.894l-149.2,0Z" style="fill:#b4cfa4;fill-opacity:0.3922;fill-rule:nonzero;"/><rect x="797.335" y="789.294" width="150.62" height="58.259" style="fill:#c9e7b7;fill-opacity:0.3922;"/><clipPath id="_clip29"><rect x="795.914" y="767.979" width="173.356" height="80.994"/></clipPath><g clip-path="url(#_clip29)"><path d="M797.335,846.132l0,-56.838l19.893,-19.894l149.2,0l0,56.838l-19.893,19.894l-149.2,0Z" style="fill:none;stroke:#8ca180;stroke-opacity:0.3922;stroke-width:1.42px;stroke-dasharray:4.26,4.26;"/></g><clipPath id="_clip30"><rect x="795.914" y="767.979" width="173.356" height="80.994"/></clipPath><g clip-path="url(#_clip30)"><path d="M797.335,789.294l149.2,0" style="fill:none;stroke:#8ca180;stroke-opacity:0.3922;stroke-width:1.42px;stroke-dasharray:4.26,4.26;"/></g><clipPath id="_clip31"><rect x="795.914" y="767.979" width="173.356" height="80.994"/></clipPath><g clip-path="url(#_clip31)"><path d="M946.535,789.294l19.893,-19.894" style="fill:none;stroke:#8ca180;stroke-opacity:0.3922;stroke-width:1.42px;stroke-dasharray:4.26,4.26;"/></g><clipPath id="_clip32"><rect x="795.914" y="767.979" width="173.356" height="80.994"/></clipPath><g clip-path="url(#_clip32)"><path d="M946.535,789.294l0,56.838" style="fill:none;stroke:#8ca180;stroke-opacity:0.3922;stroke-width:1.42px;stroke-dasharray:4.26,4.26;"/></g><path d="M939.43,799.951c0,-1.177 -0.955,-2.132 -2.132,-2.132l-11.367,0c-1.177,0 -2.132,0.955 -2.132,2.132l0,7.105c0,1.176 0.955,2.131 2.132,2.131l11.367,0c1.177,0 2.132,-0.955 2.132,-2.131l0,-7.105Z" style="fill:none;stroke:#808080;stroke-width:1.42px;"/><path d="M922.378,814.871l4.263,-5.684l9.947,0l4.263,5.684l-18.473,0Z" style="fill:none;stroke:#808080;stroke-width:1.42px;"/><text x="845.647px" y="814.871px" style="font-family:'LucidaGrande', 'Lucida Grande', sans-serif;font-weight:500;font-size:17.051px;fill:#fff;">Device</text><text x="844.226px" y="813.45px" style="font-family:'LucidaGrande', 'Lucida Grande', sans-serif;font-weight:500;font-size:17.051px;">Device</text><rect x="984.9" y="769.4" width="170.514" height="78.152" style="fill:#c9e7b7;fill-opacity:0.3922;"/><clipPath id="_clip33"><rect x="983.479" y="767.979" width="173.356" height="80.994"/></clipPath><g clip-path="url(#_clip33)"><rect x="984.9" y="769.4" width="169.093" height="76.731" style="fill:none;stroke:#8ca180;stroke-opacity:0.3922;stroke-width:1.42px;stroke-dasharray:4.26,4.26;"/></g><path d="M1137.65,780.768c-4.316,0 -7.815,3.499 -7.815,7.815c0,4.316 3.499,7.815 7.815,7.815c4.316,0 7.815,-3.499 7.815,-7.815c0,-4.316 -3.499,-7.815 -7.815,-7.815Zm6.749,11.741c3.738,-2.158 5.019,-6.937 2.861,-10.675c-2.158,-3.738 -6.938,-5.019 -10.676,-2.861c-1.188,0.686 -2.174,1.673 -2.86,2.861" style="fill:none;stroke:#808080;stroke-width:1.42px;"/><text x="1041.74px" y="794.977px" style="font-family:'LucidaGrande', 'Lucida Grande', sans-serif;font-weight:500;font-size:17.051px;fill:#fff;">System</text><text x="1040.32px" y="793.557px" style="font-family:'LucidaGrande', 'Lucida Grande', sans-serif;font-weight:500;font-size:17.051px;">System</text><text x="1034.63px" y="816.292px" style="font-family:'LucidaGrande', 'Lucida Grande', sans-serif;font-weight:500;font-size:17.051px;fill:#fff;">Software</text><text x="1033.21px" y="814.871px" style="font-family:'LucidaGrande', 'Lucida Grande', sans-serif;font-weight:500;font-size:17.051px;">Software</text><rect x="558.616" y="206.705" width="478.859" height="154.883" style="fill:#f8f2df;"/><clipPath id="_clip34"><rect x="557.195" y="205.284" width="481.701" height="157.725"/></clipPath><g clip-path="url(#_clip34)"><path d="M558.616,223.757l477.438,0" style="fill:none;stroke:#ada99c;stroke-width:1.42px;"/></g><clipPath id="_clip35"><rect x="557.195" y="205.284" width="481.701" height="157.725"/></clipPath><g clip-path="url(#_clip35)"><rect x="558.616" y="206.705" width="477.438" height="153.462" style="fill:none;stroke:#ada99c;stroke-width:1.42px;"/></g><text x="763.232px" y="242.229px" style="font-family:'LucidaGrande', 'Lucida Grande', sans-serif;font-weight:500;font-size:17.051px;">Strategy</text><path d="M747.602,297.646c0,-7.842 -6.367,-14.21 -14.21,-14.21l-143.515,0c-7.843,0 -14.21,6.368 -14.21,14.21l0,32.682c0,7.842 6.367,14.209 14.21,14.209l143.515,0c7.843,0 14.21,-6.367 14.21,-14.209l0,-32.682Z" style="fill:#f5deaa;fill-opacity:0.3922;"/></g><g><clipPath id="_clip36"><rect x="574.246" y="282.016" width="174.777" height="63.943"/></clipPath><g clip-path="url(#_clip36)"><path d="M746.181,297.646c0,-7.842 -6.367,-14.21 -14.21,-14.21l-142.094,0c-7.843,0 -14.21,6.368 -14.21,14.21l0,31.261c0,7.842 6.367,14.209 14.21,14.209l142.094,0c7.843,0 14.21,-6.367 14.21,-14.209l0,-31.261Z" style="fill:none;stroke:#ab9b77;stroke-opacity:0.3922;stroke-width:1.42px;stroke-dasharray:4.26,4.26;"/></g><path d="M715.773,300.488l8.525,1.421l-4.262,7.389" style="fill:#808080;"/></g><g><path d="M719.893,304.751c-3.448,0 -6.398,2.475 -6.996,5.871" style="fill:none;stroke:#808080;stroke-width:2.84px;"/><clipPath id="_clip37"><rect x="574.246" y="282.016" width="174.777" height="63.943"/></clipPath><g clip-path="url(#_clip37)"><path d="M741.918,296.935c0,-5.101 -4.135,-9.236 -9.236,-9.236c-5.101,0 -9.236,4.135 -9.236,9.236c0,5.102 4.135,9.237 9.236,9.237c5.101,0 9.236,-4.135 9.236,-9.237Zm-3.552,0c0,-3.139 -2.545,-5.683 -5.684,-5.683c-3.139,0 -5.684,2.544 -5.684,5.683c0,3.139 2.545,5.684 5.684,5.684c3.139,0 5.684,-2.545 5.684,-5.684Z" style="fill:none;stroke:#808080;stroke-width:1.71px;"/></g><circle cx="732.682" cy="296.935" r="2.131" style="fill:#808080;"/><text x="625.4px" y="309.014px" style="font-family:'LucidaGrande-Bold', 'Lucida Grande', sans-serif;font-weight:600;font-size:17.051px;fill:#fff;">Strategy</text><text x="623.979px" y="307.593px" style="font-family:'LucidaGrande-Bold', 'Lucida Grande', sans-serif;font-weight:600;font-size:17.051px;">Strategy</text><path d="M794.493,283.436l142.095,0l14.209,14.21l0,31.261l-14.209,14.209l-142.095,0l-14.209,-14.209l0,-31.261l14.209,-14.21Z" style="fill:#ebdcb2;fill-opacity:0.3922;fill-rule:nonzero;"/></g><clipPath id="_clip38"><rect x="778.863" y="282.016" width="174.777" height="63.943"/></clipPath><g clip-path="url(#_clip38)"><path d="M794.493,283.436l142.095,0l14.209,14.21l0,31.261l-14.209,14.209l-142.095,0l-14.209,-14.209l0,-31.261l14.209,-14.21Z" style="fill:none;stroke:#a49a7c;stroke-opacity:0.3922;stroke-width:1.42px;stroke-dasharray:4.26,4.26;"/></g><g><path d="M942.272,301.198c0,-5.101 -4.136,-9.236 -9.236,-9.236c-5.101,0 -9.237,4.135 -9.237,9.236c0,5.101 4.136,9.236 9.237,9.236c5.1,0 9.236,-4.135 9.236,-9.236Zm-3.553,0c0,-3.139 -2.544,-5.683 -5.683,-5.683c-3.14,0 -5.684,2.544 -5.684,5.683c0,3.139 2.544,5.684 5.684,5.684c3.139,0 5.683,-2.545 5.683,-5.684Z" style="fill:none;stroke:#808080;stroke-width:1.71px;"/><circle cx="933.036" cy="301.198" r="2.131" style="fill:#808080;"/><text x="847.068px" y="309.014px" style="font-family:'LucidaGrande-Bold', 'Lucida Grande', sans-serif;font-weight:600;font-size:17.051px;fill:#fff;">Goal</text><text x="845.647px" y="307.593px" style="font-family:'LucidaGrande-Bold', 'Lucida Grande', sans-serif;font-weight:600;font-size:17.051px;">Goal</text><rect x="1053.11" y="206.705" width="188.986" height="154.883" style="fill:#ffffb5;fill-opacity:0.3922;"/></g><g><clipPath id="_clip39"><rect x="1051.68" y="205.284" width="191.828" height="157.725"/></clipPath><g clip-path="url(#_clip39)"><rect x="1053.11" y="206.705" width="187.565" height="153.462" style="fill:none;stroke:#b2b27e;stroke-opacity:0.3922;stroke-width:1.42px;stroke-dasharray:4.26,4.26;"/></g><path d="M1220.07,216.652c-1.962,0 -3.553,2.545 -3.553,5.684c0,3.139 1.591,5.684 3.553,5.684l13.499,0m-14.21,-11.368l14.21,0" style="fill:none;stroke:#808080;stroke-width:1.42px;"/><clipPath id="_clip40"><rect x="1051.68" y="205.284" width="191.828" height="157.725"/></clipPath><g clip-path="url(#_clip40)"><ellipse cx="1234.28" cy="222.336" rx="3.552" ry="5.684" style="fill:none;stroke:#808080;stroke-width:1.42px;"/></g><text x="1118.47px" y="232.282px" style="font-family:'LucidaGrande', 'Lucida Grande', sans-serif;font-weight:500;font-size:17.051px;fill:#fff;">Human</text><text x="1117.05px" y="230.861px" style="font-family:'LucidaGrande', 'Lucida Grande', sans-serif;font-weight:500;font-size:17.051px;">Human</text><rect x="1087.21" y="257.859" width="137.832" height="52.575" style="fill:#ffffb5;fill-opacity:0.3922;"/><clipPath id="_clip41"><rect x="1085.79" y="256.438" width="140.674" height="55.417"/></clipPath><g clip-path="url(#_clip41)"><rect x="1087.21" y="257.859" width="136.411" height="51.154" style="fill:none;stroke:#b2b27e;stroke-opacity:0.3922;stroke-width:1.42px;stroke-dasharray:4.26,4.26;"/></g><clipPath id="_clip42"><rect x="1085.79" y="256.438" width="140.674" height="55.417"/></clipPath><g clip-path="url(#_clip42)"><circle cx="1210.83" cy="267.806" r="4.263" style="fill:none;stroke:#808080;stroke-width:1.42px;"/></g><path d="M1210.83,272.069l0,8.526" style="fill:none;stroke:#808080;stroke-width:1.42px;"/><path d="M1210.83,280.595l-5.684,7.104" style="fill:none;stroke:#808080;stroke-width:1.42px;"/><path d="M1210.83,280.595l5.683,7.104" style="fill:none;stroke:#808080;stroke-width:1.42px;"/><path d="M1205.15,276.332l11.367,0" style="fill:none;stroke:#808080;stroke-width:1.42px;"/><text x="1121.31px" y="283.436px" style="font-family:'LucidaGrande', 'Lucida Grande', sans-serif;font-weight:500;font-size:17.051px;fill:#fff;">Business</text><text x="1119.89px" y="282.016px" style="font-family:'LucidaGrande', 'Lucida Grande', sans-serif;font-weight:500;font-size:17.051px;">Business</text><clipPath id="_clip43"><rect x="1118.47" y="263.543" width="75.31" height="41.207"/></clipPath><g clip-path="url(#_clip43)"><text x="1134.1px" y="304.751px" style="font-family:'LucidaGrande', 'Lucida Grande', sans-serif;font-weight:500;font-size:17.051px;fill:#fff;">Actor</text></g><text x="1132.68px" y="303.33px" style="font-family:'LucidaGrande', 'Lucida Grande', sans-serif;font-weight:500;font-size:17.051px;">Actor</text></g><g><clipPath id="_clip44"><path d="M838.543,516.472l89.519,0l0,63.942l-89.519,0l0,-63.942Zm12.788,19.893l63.943,0l0,24.156l-63.943,0l0,-24.156Z"/></clipPath><g clip-path="url(#_clip44)"><path d="M884.013,566.205l0,-34.103" style="fill:none;stroke:#fff;stroke-width:1.42px;"/></g><clipPath id="_clip45"><path d="M838.543,516.472l89.519,0l0,63.942l-89.519,0l0,-63.942Zm12.788,19.893l63.943,0l0,24.156l-63.943,0l0,-24.156Z"/></clipPath><g clip-path="url(#_clip45)"><path d="M882.592,564.784l0,-34.103" style="fill:none;stroke:#000;stroke-width:1.42px;"/></g><clipPath id="_clip46"><rect x="876.908" y="529.26" width="12.789" height="14.209"/></clipPath><g clip-path="url(#_clip46)"><path d="M888.276,542.049l-4.263,-9.947" style="fill:none;stroke:#fff;stroke-width:1.42px;"/></g><clipPath id="_clip47"><rect x="876.908" y="529.26" width="12.789" height="14.209"/></clipPath><g clip-path="url(#_clip47)"><path d="M884.013,532.102l-4.263,9.947" style="fill:none;stroke:#fff;stroke-width:1.42px;"/></g><clipPath id="_clip48"><rect x="876.908" y="529.26" width="12.789" height="14.209"/></clipPath><g clip-path="url(#_clip48)"><path d="M886.855,540.628l-4.263,-9.947" style="fill:none;stroke:#000;stroke-width:1.42px;"/></g><clipPath id="_clip49"><rect x="876.908" y="529.26" width="12.789" height="14.209"/></clipPath><g clip-path="url(#_clip49)"><path d="M882.592,530.681l-4.263,9.947" style="fill:none;stroke:#000;stroke-width:1.42px;"/></g><text x="854.173px" y="556.258px" style="font-family:'LucidaGrande', 'Lucida Grande', sans-serif;font-weight:500;font-size:17.051px;fill:#fff;">serving</text></g><text x="852.752px" y="554.837px" style="font-family:'LucidaGrande', 'Lucida Grande', sans-serif;font-weight:500;font-size:17.051px;">serving</text><g><path d="M884.013,736.719l0,-34.103" style="fill:none;stroke:#fff;stroke-width:1.42px;stroke-dasharray:2.84,2.84;"/><path d="M882.592,735.298l0,-34.103" style="fill:none;stroke:#000;stroke-width:1.42px;stroke-dasharray:2.84,2.84;"/><path d="M884.013,702.616l9.946,14.209l-19.893,0l9.947,-14.209Z" style="fill:#fff;fill-rule:nonzero;"/><clipPath id="_clip50"><rect x="871.224" y="699.774" width="24.156" height="18.472"/></clipPath><g clip-path="url(#_clip50)"><path d="M884.013,702.616l9.946,14.209l-19.893,0l9.947,-14.209Z" style="fill:none;stroke:#fff;stroke-width:1.42px;"/></g><path d="M882.592,701.195l9.947,14.209l-19.894,0l9.947,-14.209Z" style="fill:#fff;fill-rule:nonzero;"/><clipPath id="_clip51"><rect x="871.224" y="699.774" width="24.156" height="18.472"/></clipPath><g clip-path="url(#_clip51)"><path d="M882.592,701.195l9.947,14.209l-19.894,0l9.947,-14.209Z" style="fill:none;stroke:#000;stroke-width:1.42px;"/></g><path d="M805.861,360.168l0,17.051" style="fill:none;stroke:#000;stroke-width:1.42px;"/><path d="M1129.84,360.168l0,17.051" style="fill:none;stroke:#000;stroke-width:1.42px;"/><path d="M1037.47,284.857l17.051,0" style="fill:none;stroke:#fff;stroke-width:1.42px;"/><path d="M1036.05,283.436l17.052,0" style="fill:none;stroke:#000;stroke-width:1.42px;"/></g></g></svg>