<?xml version="1.0" encoding="UTF-8" standalone="no"?><!DOCTYPE svg PUBLIC "-//W3C//DTD SVG 1.1//EN" "http://www.w3.org/Graphics/SVG/1.1/DTD/svg11.dtd"><svg width="100%" height="100%" viewBox="0 0 1920 1080" version="1.1" xmlns="http://www.w3.org/2000/svg" xmlns:xlink="http://www.w3.org/1999/xlink" xml:space="preserve" xmlns:serif="http://www.serif.com/" style="fill-rule:evenodd;clip-rule:evenodd;stroke-miterlimit:10;"><g><path d="M645.385,200.094l583.598,0l29.775,29.776l0,47.64l-29.775,29.776l-583.598,0l-29.775,-29.776l0,-47.64l29.775,-29.776Z" style="fill:#f9f2df;fill-rule:nonzero;"/><g><path d="M645.385,200.094l583.598,0l29.775,29.776l0,47.64l-29.775,29.776l-583.598,0l-29.775,-29.776l0,-47.64l29.775,-29.776Z" style="fill:none;stroke:#aea99c;stroke-width:2.98px;"/><path d="M1240.89,237.313c0,-10.689 -8.665,-19.354 -19.354,-19.354c-10.689,0 -19.354,8.665 -19.354,19.354c0,10.689 8.665,19.354 19.354,19.354c10.689,0 19.354,-8.665 19.354,-19.354Zm-7.444,0c0,-6.577 -5.332,-11.91 -11.91,-11.91c-6.578,0 -11.91,5.333 -11.91,11.91c0,6.578 5.332,11.911 11.91,11.911c6.578,0 11.91,-5.333 11.91,-11.911Z" style="fill:none;stroke:#000;stroke-width:3.57px;"/><circle cx="1221.54" cy="237.313" r="4.466"/><text x="847.858px" y="256.667px" style="font-family:'LucidaGrande-Bold', 'Lucida Grande', sans-serif;font-weight:600;font-size:41.686px;">Strategy</text><path d="M645.385,414.477l583.598,0l29.775,29.775l0,47.641l-29.775,29.775l-583.598,0l-29.775,-29.775l0,-47.641l29.775,-29.775Z" style="fill:#f9f2df;fill-rule:nonzero;"/><path d="M645.385,414.477l583.598,0l29.775,29.775l0,47.641l-29.775,29.775l-583.598,0l-29.775,-29.775l0,-47.641l29.775,-29.775Z" style="fill:none;stroke:#aea99c;stroke-width:2.98px;"/><path d="M1240.89,451.696c0,-10.689 -8.665,-19.354 -19.354,-19.354c-10.689,0 -19.354,8.665 -19.354,19.354c0,10.689 8.665,19.354 19.354,19.354c10.689,0 19.354,-8.665 19.354,-19.354Zm-7.444,0c0,-6.578 -5.332,-11.91 -11.91,-11.91c-6.578,0 -11.91,5.332 -11.91,11.91c0,6.578 5.332,11.91 11.91,11.91c6.578,0 11.91,-5.332 11.91,-11.91Z" style="fill:none;stroke:#000;stroke-width:3.57px;"/><circle cx="1221.54" cy="451.696" r="4.466"/><text x="874.656px" y="471.05px" style="font-family:'LucidaGrande-Bold', 'Lucida Grande', sans-serif;font-weight:600;font-size:41.686px;">Goal</text><path d="M1761.96,664.59c0,-16.433 -13.342,-29.775 -29.775,-29.775l-372.192,0c-16.434,0 -29.776,13.342 -29.776,29.775l0,80.394c0,16.433 13.342,29.775 29.776,29.775l372.192,0c16.433,0 29.775,-13.342 29.775,-29.775l0,-80.394Z" style="fill:#ffffb5;fill-opacity:0.392157;"/><path d="M1758.99,664.59c0,-16.433 -13.342,-29.775 -29.776,-29.775l-369.214,0c-16.434,0 -29.776,13.342 -29.776,29.775l0,77.416c0,16.434 13.342,29.776 29.776,29.776l369.214,0c16.434,0 29.776,-13.342 29.776,-29.776l0,-77.416Z" style="fill:none;stroke:#b2b27e;stroke-opacity:0.392157;stroke-width:2.98px;stroke-dasharray:8.93,8.93;"/><path d="M1708.37,667.568l23.82,0l0,-8.933l17.865,14.888l-17.865,14.888l0,-8.933l-23.82,0l0,-11.91Z" style="fill:none;stroke:#808080;stroke-width:2.98px;"/><text x="1452.3px" y="694.366px" style="font-family:'LucidaGrande-Bold', 'Lucida Grande', sans-serif;font-weight:600;font-size:41.686px;fill:#fff;">Business</text><text x="1449.32px" y="691.388px" style="font-family:'LucidaGrande-Bold', 'Lucida Grande', sans-serif;font-weight:600;font-size:41.686px;">Business</text><text x="1464.21px" y="744.984px" style="font-family:'LucidaGrande-Bold', 'Lucida Grande', sans-serif;font-weight:600;font-size:41.686px;fill:#fff;">Process</text><text x="1461.23px" y="742.006px" style="font-family:'LucidaGrande-Bold', 'Lucida Grande', sans-serif;font-weight:600;font-size:41.686px;">Process</text></g><g><path d="M1118.81,664.59c0,-16.433 -13.342,-29.775 -29.775,-29.775l-300.732,0c-16.433,0 -29.775,13.342 -29.775,29.775l0,50.618c0,16.434 13.342,29.776 29.775,29.776l300.732,0c16.433,0 29.775,-13.342 29.775,-29.776l0,-50.618Z" style="fill:#b5ffff;fill-opacity:0.392157;"/><path d="M1115.84,664.59c0,-16.433 -13.342,-29.775 -29.775,-29.775l-297.754,0c-16.433,0 -29.775,13.342 -29.775,29.775l0,47.641c0,16.433 13.342,29.775 29.775,29.775l297.754,0c16.433,0 29.775,-13.342 29.775,-29.775l0,-47.641Z" style="fill:none;stroke:#7eb2b2;stroke-opacity:0.392157;stroke-width:2.98px;stroke-dasharray:8.93,8.93;"/><path d="M1103.93,667.568c0,-6.574 -5.337,-11.91 -11.91,-11.91l-23.82,0c-6.574,0 -11.91,5.336 -11.91,11.91l0,2.977c0,6.574 5.336,11.91 11.91,11.91l23.82,0c6.573,0 11.91,-5.336 11.91,-11.91l0,-2.977Z" style="fill:none;stroke:#808080;stroke-width:2.98px;"/><text x="841.903px" y="688.411px" style="font-family:'LucidaGrande', 'Lucida Grande', sans-serif;font-weight:500;font-size:35.73px;fill:#fff;">Application</text><text x="838.925px" y="685.433px" style="font-family:'LucidaGrande', 'Lucida Grande', sans-serif;font-weight:500;font-size:35.73px;">Application</text><text x="859.768px" y="733.074px" style="font-family:'LucidaGrande', 'Lucida Grande', sans-serif;font-weight:500;font-size:35.73px;fill:#fff;">(Services)</text><text x="856.79px" y="730.096px" style="font-family:'LucidaGrande', 'Lucida Grande', sans-serif;font-weight:500;font-size:35.73px;">(Services)</text><path d="M547.126,664.59c0,-16.433 -13.341,-29.775 -29.775,-29.775l-300.731,0c-16.434,0 -29.776,13.342 -29.776,29.775l0,50.618c0,16.434 13.342,29.776 29.776,29.776l300.731,0c16.434,0 29.775,-13.342 29.775,-29.776l0,-50.618Z" style="fill:#c9e7b7;fill-opacity:0.392157;"/><path d="M544.149,664.59c0,-16.433 -13.342,-29.775 -29.776,-29.775l-297.753,0c-16.434,0 -29.776,13.342 -29.776,29.775l0,47.641c0,16.433 13.342,29.775 29.776,29.775l297.753,0c16.434,0 29.776,-13.342 29.776,-29.775l0,-47.641Z" style="fill:none;stroke:#8ca180;stroke-opacity:0.392157;stroke-width:2.98px;stroke-dasharray:8.93,8.93;"/><path d="M532.239,667.568c0,-6.574 -5.337,-11.91 -11.91,-11.91l-23.821,0c-6.573,0 -11.91,5.336 -11.91,11.91l0,2.977c0,6.574 5.337,11.91 11.91,11.91l23.821,0c6.573,0 11.91,-5.336 11.91,-11.91l0,-2.977Z" style="fill:none;stroke:#808080;stroke-width:2.98px;"/><text x="267.238px" y="688.411px" style="font-family:'LucidaGrande', 'Lucida Grande', sans-serif;font-weight:500;font-size:35.73px;fill:#fff;">Technology</text><text x="264.26px" y="685.433px" style="font-family:'LucidaGrande', 'Lucida Grande', sans-serif;font-weight:500;font-size:35.73px;">Technology</text><text x="288.081px" y="733.074px" style="font-family:'LucidaGrande', 'Lucida Grande', sans-serif;font-weight:500;font-size:35.73px;fill:#fff;">(Services)</text><text x="285.103px" y="730.096px" style="font-family:'LucidaGrande', 'Lucida Grande', sans-serif;font-weight:500;font-size:35.73px;">(Services)</text><rect x="454.823" y="807.512" width="967.7" height="110.169" style="fill:#b5ffff;fill-opacity:0.392157;"/><path d="M454.823,843.243l964.722,0" style="fill:none;stroke:#7eb2b2;stroke-opacity:0.392157;stroke-width:2.98px;stroke-dasharray:8.93,8.93;"/><rect x="454.823" y="807.512" width="964.723" height="107.191" style="fill:none;stroke:#7eb2b2;stroke-opacity:0.392157;stroke-width:2.98px;stroke-dasharray:8.93,8.93;"/><text x="901.454px" y="884.928px" style="font-family:'LucidaGrande', 'Lucida Grande', sans-serif;font-weight:500;font-size:35.73px;fill:#fff;">Data</text><text x="898.476px" y="881.951px" style="font-family:'LucidaGrande', 'Lucida Grande', sans-serif;font-weight:500;font-size:35.73px;">Data</text><rect x="1473.14" y="676.5" width="5.955" height="53.596" style="fill:#bdc1c1;fill-rule:nonzero;"/><rect x="1473.14" y="700.321" width="17.865" height="29.775" style="fill:#d2d7d7;fill-rule:nonzero;"/><rect x="1473.14" y="676.5" width="5.955" height="53.596" style="fill:none;stroke:#939696;stroke-width:2.98px;"/><rect x="1473.14" y="700.321" width="17.865" height="29.775" style="fill:none;stroke:#939696;stroke-width:2.98px;"/></g><g><clipPath id="_clip1"><path d="M853.813,277.51l169.72,0l0,169.72l-169.72,0l0,-169.72Zm26.798,59.551l116.124,0l0,50.618l-116.124,0l0,-50.618Z"/></clipPath><g clip-path="url(#_clip1)"><path d="M937.184,307.286l0,107.191" style="fill:none;stroke:#000;stroke-width:2.98px;stroke-dasharray:17.87,8.93;"/></g><path d="M928.251,393.634l8.933,20.843" style="fill:none;stroke:#000;stroke-width:2.98px;"/><path d="M937.184,414.477l8.933,-20.843" style="fill:none;stroke:#000;stroke-width:2.98px;"/><text x="883.588px" y="375.769px" style="font-family:'LucidaGrande', 'Lucida Grande', sans-serif;font-weight:500;font-size:35.73px;">deﬁne</text><clipPath id="_clip2"><path d="M1214.1,491.893l175.675,0l0,184.607l-175.675,0l0,-184.607Zm26.798,68.483l122.079,0l0,50.619l-122.079,0l0,-50.619Z"/></clipPath><g clip-path="url(#_clip2)"><path d="M1342.13,646.725l-80.393,-122.079" style="fill:none;stroke:#fff;stroke-width:2.98px;stroke-dasharray:5.96,5.96;"/></g><clipPath id="_clip3"><path d="M1214.1,491.893l175.675,0l0,184.607l-175.675,0l0,-184.607Zm26.798,68.483l122.079,0l0,50.619l-122.079,0l0,-50.619Z"/></clipPath><g clip-path="url(#_clip3)"><path d="M1339.15,643.747l-80.394,-122.079" style="fill:none;stroke:#000;stroke-width:2.98px;stroke-dasharray:5.96,5.96;"/></g><path d="M1261.74,524.646l32.753,14.888l-32.753,20.842l0,-35.73Z" style="fill:#fff;fill-rule:nonzero;"/><path d="M1261.74,524.646l32.753,14.888l-32.753,20.842l0,-35.73Z" style="fill:none;stroke:#fff;stroke-width:2.98px;"/><path d="M1258.76,521.668l32.753,14.888l-32.753,20.843l0,-35.731Z" style="fill:#fff;fill-rule:nonzero;"/><path d="M1258.76,521.668l32.753,14.888l-32.753,20.843l0,-35.731Z" style="fill:none;stroke:#000;stroke-width:2.98px;"/></g><g><text x="1246.85px" y="602.062px" style="font-family:'LucidaGrande', 'Lucida Grande', sans-serif;font-weight:500;font-size:35.73px;fill:#fff;">realize</text><text x="1243.87px" y="599.084px" style="font-family:'LucidaGrande', 'Lucida Grande', sans-serif;font-weight:500;font-size:35.73px;">realize</text><clipPath id="_clip4"><path d="M850.835,491.893l175.675,0l0,175.675l-175.675,0l0,-175.675Zm26.798,62.528l122.079,0l0,50.618l-122.079,0l0,-50.618Z"/></clipPath><g clip-path="url(#_clip4)"><path d="M940.162,637.792l0,-113.146" style="fill:none;stroke:#fff;stroke-width:2.98px;stroke-dasharray:5.96,5.96;"/></g></g><g><clipPath id="_clip5"><path d="M850.835,491.893l175.675,0l0,175.675l-175.675,0l0,-175.675Zm26.798,62.528l122.079,0l0,50.618l-122.079,0l0,-50.618Z"/></clipPath><g clip-path="url(#_clip5)"><path d="M937.184,634.815l0,-113.147" style="fill:none;stroke:#000;stroke-width:2.98px;stroke-dasharray:5.96,5.96;"/></g><path d="M940.162,524.646l20.842,29.775l-41.685,0l20.843,-29.775Z" style="fill:#fff;fill-rule:nonzero;"/><path d="M940.162,524.646l20.842,29.775l-41.685,0l20.843,-29.775Z" style="fill:none;stroke:#fff;stroke-width:2.98px;"/><path d="M937.184,521.668l20.843,29.776l-41.686,0l20.843,-29.776Z" style="fill:#fff;fill-rule:nonzero;"/><path d="M937.184,521.668l20.843,29.776l-41.686,0l20.843,-29.776Z" style="fill:none;stroke:#000;stroke-width:2.98px;"/></g><g><text x="883.588px" y="596.107px" style="font-family:'LucidaGrande', 'Lucida Grande', sans-serif;font-weight:500;font-size:35.73px;fill:#fff;">realize</text><text x="880.611px" y="593.129px" style="font-family:'LucidaGrande', 'Lucida Grande', sans-serif;font-weight:500;font-size:35.73px;">realize</text><clipPath id="_clip6"><path d="M487.576,491.893l175.674,0l0,184.607l-175.674,0l0,-184.607Zm26.797,68.483l122.08,0l0,50.619l-122.08,0l0,-50.619Z"/></clipPath><g clip-path="url(#_clip6)"><path d="M538.194,646.725l80.393,-122.079" style="fill:none;stroke:#fff;stroke-width:2.98px;stroke-dasharray:5.96,5.96;"/></g></g><g><clipPath id="_clip7"><path d="M487.576,491.893l175.674,0l0,184.607l-175.674,0l0,-184.607Zm26.797,68.483l122.08,0l0,50.619l-122.08,0l0,-50.619Z"/></clipPath><g clip-path="url(#_clip7)"><path d="M535.216,643.747l80.394,-122.079" style="fill:none;stroke:#000;stroke-width:2.98px;stroke-dasharray:5.96,5.96;"/></g><path d="M618.587,524.646l0,35.73l-32.753,-20.842l32.753,-14.888Z" style="fill:#fff;fill-rule:nonzero;"/><path d="M618.587,524.646l0,35.73l-32.753,-20.842l32.753,-14.888Z" style="fill:none;stroke:#fff;stroke-width:2.98px;"/><path d="M615.61,521.668l0,35.731l-32.753,-20.843l32.753,-14.888Z" style="fill:#fff;fill-rule:nonzero;"/><path d="M615.61,521.668l0,35.731l-32.753,-20.843l32.753,-14.888Z" style="fill:none;stroke:#000;stroke-width:2.98px;"/></g><g><text x="520.329px" y="602.062px" style="font-family:'LucidaGrande', 'Lucida Grande', sans-serif;font-weight:500;font-size:35.73px;fill:#fff;">realize</text><text x="517.351px" y="599.084px" style="font-family:'LucidaGrande', 'Lucida Grande', sans-serif;font-weight:500;font-size:35.73px;">realize</text><path d="M1377.86,774.759l0,35.731" style="fill:none;stroke:#fff;stroke-width:2.98px;"/></g><g><path d="M1374.88,771.782l0,35.73" style="fill:none;stroke:#000;stroke-width:2.98px;"/><clipPath id="_clip8"><path d="M1086.06,637.792l276.911,0l0,104.214l-276.911,0l0,-104.214Zm71.461,26.798l133.989,0l0,50.618l-133.989,0l0,-50.618Z"/></clipPath><g clip-path="url(#_clip8)"><path d="M1118.81,691.388l214.383,0" style="fill:none;stroke:#fff;stroke-width:2.98px;"/></g><clipPath id="_clip9"><path d="M1086.06,637.792l276.911,0l0,104.214l-276.911,0l0,-104.214Zm71.461,26.798l133.989,0l0,50.618l-133.989,0l0,-50.618Z"/></clipPath><g clip-path="url(#_clip9)"><path d="M1115.84,688.411l214.383,0" style="fill:none;stroke:#000;stroke-width:2.98px;"/></g><path d="M1312.35,700.321l20.843,-8.933" style="fill:none;stroke:#fff;stroke-width:2.98px;"/><path d="M1333.2,691.388l-20.843,-8.933" style="fill:none;stroke:#fff;stroke-width:2.98px;"/><path d="M1309.38,697.343l20.843,-8.932" style="fill:none;stroke:#000;stroke-width:2.98px;"/><path d="M1330.22,688.411l-20.843,-8.933" style="fill:none;stroke:#000;stroke-width:2.98px;"/></g><g><text x="1163.48px" y="706.276px" style="font-family:'LucidaGrande', 'Lucida Grande', sans-serif;font-weight:500;font-size:35.73px;fill:#fff;">serving</text><text x="1160.5px" y="703.298px" style="font-family:'LucidaGrande', 'Lucida Grande', sans-serif;font-weight:500;font-size:35.73px;">serving</text><path d="M940.162,744.984l0,65.506" style="fill:none;stroke:#fff;stroke-width:2.98px;"/></g><g><path d="M937.184,742.006l0,65.506" style="fill:none;stroke:#000;stroke-width:2.98px;"/><clipPath id="_clip10"><path d="M514.373,637.792l276.912,0l0,104.214l-276.912,0l0,-104.214Zm71.461,26.798l133.99,0l0,50.618l-133.99,0l0,-50.618Z"/></clipPath><g clip-path="url(#_clip10)"><path d="M547.126,691.388l214.383,0" style="fill:none;stroke:#fff;stroke-width:2.98px;"/></g><clipPath id="_clip11"><path d="M514.373,637.792l276.912,0l0,104.214l-276.912,0l0,-104.214Zm71.461,26.798l133.99,0l0,50.618l-133.99,0l0,-50.618Z"/></clipPath><g clip-path="url(#_clip11)"><path d="M544.149,688.411l214.383,0" style="fill:none;stroke:#000;stroke-width:2.98px;"/></g></g><g><text x="591.79px" y="706.276px" style="font-family:'LucidaGrande', 'Lucida Grande', sans-serif;font-weight:500;font-size:35.73px;fill:#fff;">serving</text><text x="588.812px" y="703.298px" style="font-family:'LucidaGrande', 'Lucida Grande', sans-serif;font-weight:500;font-size:35.73px;">serving</text><path d="M502.463,810.49l0,-65.506" style="fill:none;stroke:#fff;stroke-width:2.98px;"/></g><path d="M499.486,807.512l0,-65.506" style="fill:none;stroke:#000;stroke-width:2.98px;"/></g></svg>