<?xml version="1.0" encoding="UTF-8" standalone="no"?>
<!DOCTYPE svg PUBLIC "-//W3C//DTD SVG 1.1//EN" "http://www.w3.org/Graphics/SVG/1.1/DTD/svg11.dtd">
<svg width="100%" height="100%" viewBox="0 0 842 595" version="1.1" xmlns="http://www.w3.org/2000/svg" xmlns:xlink="http://www.w3.org/1999/xlink" xml:space="preserve" xmlns:serif="http://www.serif.com/" style="fill-rule:evenodd;clip-rule:evenodd;stroke-linejoin:round;stroke-miterlimit:10;">
    <g>
        <clipPath id="_clip1">
            <rect x="223.953" y="50.335" width="394.094" height="494.33" clip-rule="nonzero"/>
        </clipPath>
        <g clip-path="url(#_clip1)">
            <g transform="matrix(1,0,0,1,0,-57.6893)">
                <rect x="178.881" y="28.845" width="793.333" height="595" style="fill:white;"/>
            </g>
            <g>
                <clipPath id="_clip2">
                    <rect x="223.953" y="50.335" width="394.094" height="494.33" clip-rule="nonzero"/>
                </clipPath>
                <g clip-path="url(#_clip2)">
                    <g transform="matrix(1.10185,0,0,1.10185,178.881,-316.632)">
                        <rect x="178.62" y="367.15" width="51.344" height="66.885" style="fill:none;stroke:black;stroke-width:0.75px;stroke-dasharray:3,2.25;"/>
                    </g>
                    <g transform="matrix(1.10185,0,0,1.10185,178.881,-316.632)">
                        <rect x="178.62" y="367.15" width="51.344" height="66.885" style="fill:none;stroke:black;stroke-width:0.75px;stroke-dasharray:3,2.25;"/>
                    </g>
                    <g transform="matrix(1.10185,0,0,1.10185,178.881,-316.632)">
                        <rect x="178.62" y="367.15" width="51.344" height="66.885" style="fill:none;stroke:black;stroke-width:0.75px;stroke-dasharray:3,2.25;"/>
                    </g>
                    <g transform="matrix(1.10185,0,0,1.10185,178.881,-316.632)">
                        <rect x="178.62" y="367.15" width="51.344" height="66.885" style="fill:none;stroke:black;stroke-width:0.75px;stroke-dasharray:3,2.25;"/>
                    </g>
                    <g transform="matrix(1.10185,0,0,1.10185,178.881,-316.632)">
                        <rect x="231.34" y="367.15" width="51.344" height="66.885" style="fill:none;stroke:black;stroke-width:0.75px;stroke-dasharray:3,2.25;"/>
                    </g>
                    <g transform="matrix(1.10185,0,0,1.10185,178.881,-316.632)">
                        <rect x="231.34" y="367.15" width="51.344" height="66.885" style="fill:none;stroke:black;stroke-width:0.75px;stroke-dasharray:3,2.25;"/>
                    </g>
                    <g transform="matrix(1.10185,0,0,1.10185,178.881,-316.632)">
                        <rect x="231.34" y="367.15" width="51.344" height="66.885" style="fill:none;stroke:black;stroke-width:0.75px;stroke-dasharray:3,2.25;"/>
                    </g>
                    <g transform="matrix(1.10185,0,0,1.10185,178.881,-316.632)">
                        <rect x="231.34" y="367.15" width="51.344" height="66.885" style="fill:none;stroke:black;stroke-width:0.75px;stroke-dasharray:3,2.25;"/>
                    </g>
                    <g transform="matrix(1.10185,0,0,1.10185,178.881,-316.632)">
                        <rect x="283.67" y="367.15" width="51.344" height="66.885" style="fill:none;stroke:black;stroke-width:0.75px;stroke-dasharray:3,2.25;"/>
                    </g>
                    <g transform="matrix(1.10185,0,0,1.10185,178.881,-316.632)">
                        <rect x="283.67" y="367.15" width="51.344" height="66.885" style="fill:none;stroke:black;stroke-width:0.75px;stroke-dasharray:3,2.25;"/>
                    </g>
                    <g transform="matrix(1.10185,0,0,1.10185,178.881,-316.632)">
                        <rect x="283.67" y="367.15" width="51.344" height="66.885" style="fill:none;stroke:black;stroke-width:0.75px;stroke-dasharray:3,2.25;"/>
                    </g>
                    <g transform="matrix(1.10185,0,0,1.10185,178.881,-316.632)">
                        <rect x="283.67" y="367.15" width="51.344" height="66.885" style="fill:none;stroke:black;stroke-width:0.75px;stroke-dasharray:3,2.25;"/>
                    </g>
                    <g transform="matrix(1.10185,0,0,1.10185,178.881,-316.632)">
                        <rect x="336.2" y="367.15" width="51.344" height="66.885" style="fill:none;stroke:black;stroke-width:0.75px;stroke-dasharray:3,2.25;"/>
                    </g>
                    <g transform="matrix(1.10185,0,0,1.10185,178.881,-316.632)">
                        <rect x="336.2" y="367.15" width="51.344" height="66.885" style="fill:none;stroke:black;stroke-width:0.75px;stroke-dasharray:3,2.25;"/>
                    </g>
                    <g transform="matrix(1.10185,0,0,1.10185,178.881,-316.632)">
                        <rect x="336.2" y="367.15" width="51.344" height="66.885" style="fill:none;stroke:black;stroke-width:0.75px;stroke-dasharray:3,2.25;"/>
                    </g>
                    <g transform="matrix(1.10185,0,0,1.10185,178.881,-316.632)">
                        <rect x="336.2" y="367.15" width="51.344" height="66.885" style="fill:none;stroke:black;stroke-width:0.75px;stroke-dasharray:3,2.25;"/>
                    </g>
                    <g transform="matrix(1.10185,0,0,1.10185,178.881,-165.193)">
                        <rect x="178.62" y="298.43" width="51.344" height="66.885" style="fill:none;stroke:black;stroke-width:0.75px;stroke-dasharray:3,2.25;"/>
                    </g>
                    <g transform="matrix(1.10185,0,0,1.10185,178.881,-165.193)">
                        <rect x="178.62" y="298.43" width="51.344" height="66.885" style="fill:none;stroke:black;stroke-width:0.75px;stroke-dasharray:3,2.25;"/>
                    </g>
                    <g transform="matrix(1.10185,0,0,1.10185,178.881,-165.193)">
                        <rect x="178.62" y="298.43" width="51.344" height="66.885" style="fill:none;stroke:black;stroke-width:0.75px;stroke-dasharray:3,2.25;"/>
                    </g>
                    <g transform="matrix(1.10185,0,0,1.10185,178.881,-165.193)">
                        <rect x="178.62" y="298.43" width="51.344" height="66.885" style="fill:none;stroke:black;stroke-width:0.75px;stroke-dasharray:3,2.25;"/>
                    </g>
                    <g transform="matrix(1.10185,0,0,1.10185,178.881,-165.193)">
                        <rect x="231.34" y="298.43" width="51.344" height="66.885" style="fill:none;stroke:black;stroke-width:0.75px;stroke-dasharray:3,2.25;"/>
                    </g>
                    <g transform="matrix(1.10185,0,0,1.10185,178.881,-165.193)">
                        <rect x="231.34" y="298.43" width="51.344" height="66.885" style="fill:none;stroke:black;stroke-width:0.75px;stroke-dasharray:3,2.25;"/>
                    </g>
                    <g transform="matrix(1.10185,0,0,1.10185,178.881,-165.193)">
                        <rect x="231.34" y="298.43" width="51.344" height="66.885" style="fill:none;stroke:black;stroke-width:0.75px;stroke-dasharray:3,2.25;"/>
                    </g>
                    <g transform="matrix(1.10185,0,0,1.10185,178.881,-165.193)">
                        <rect x="231.34" y="298.43" width="51.344" height="66.885" style="fill:none;stroke:black;stroke-width:0.75px;stroke-dasharray:3,2.25;"/>
                    </g>
                    <g transform="matrix(1.10185,0,0,1.10185,178.881,-165.193)">
                        <rect x="283.67" y="298.43" width="51.344" height="66.885" style="fill:none;stroke:black;stroke-width:0.75px;stroke-dasharray:3,2.25;"/>
                    </g>
                    <g transform="matrix(1.10185,0,0,1.10185,178.881,-165.193)">
                        <rect x="283.67" y="298.43" width="51.344" height="66.885" style="fill:none;stroke:black;stroke-width:0.75px;stroke-dasharray:3,2.25;"/>
                    </g>
                    <g transform="matrix(1.10185,0,0,1.10185,178.881,-165.193)">
                        <rect x="283.67" y="298.43" width="51.344" height="66.885" style="fill:none;stroke:black;stroke-width:0.75px;stroke-dasharray:3,2.25;"/>
                    </g>
                    <g transform="matrix(1.10185,0,0,1.10185,178.881,-165.193)">
                        <rect x="283.67" y="298.43" width="51.344" height="66.885" style="fill:none;stroke:black;stroke-width:0.75px;stroke-dasharray:3,2.25;"/>
                    </g>
                    <g transform="matrix(1.10185,0,0,1.10185,178.881,-165.193)">
                        <rect x="336.2" y="298.43" width="51.344" height="66.885" style="fill:none;stroke:black;stroke-width:0.75px;stroke-dasharray:3,2.25;"/>
                    </g>
                    <g transform="matrix(1.10185,0,0,1.10185,178.881,-165.193)">
                        <rect x="336.2" y="298.43" width="51.344" height="66.885" style="fill:none;stroke:black;stroke-width:0.75px;stroke-dasharray:3,2.25;"/>
                    </g>
                    <g transform="matrix(1.10185,0,0,1.10185,178.881,-165.193)">
                        <rect x="336.2" y="298.43" width="51.344" height="66.885" style="fill:none;stroke:black;stroke-width:0.75px;stroke-dasharray:3,2.25;"/>
                    </g>
                    <g transform="matrix(1.10185,0,0,1.10185,178.881,-165.193)">
                        <rect x="336.2" y="298.43" width="51.344" height="66.885" style="fill:none;stroke:black;stroke-width:0.75px;stroke-dasharray:3,2.25;"/>
                    </g>
                    <g transform="matrix(1.10185,0,0,1.10185,178.881,-14.3278)">
                        <rect x="178.62" y="229.97" width="51.344" height="66.885" style="fill:none;stroke:black;stroke-width:0.75px;stroke-dasharray:3,2.25;"/>
                    </g>
                    <g transform="matrix(1.10185,0,0,1.10185,178.881,-14.3278)">
                        <rect x="178.62" y="229.97" width="51.344" height="66.885" style="fill:none;stroke:black;stroke-width:0.75px;stroke-dasharray:3,2.25;"/>
                    </g>
                    <g transform="matrix(1.10185,0,0,1.10185,178.881,-14.3278)">
                        <rect x="178.62" y="229.97" width="51.344" height="66.885" style="fill:none;stroke:black;stroke-width:0.75px;stroke-dasharray:3,2.25;"/>
                    </g>
                    <g transform="matrix(1.10185,0,0,1.10185,178.881,-14.3278)">
                        <rect x="178.62" y="229.97" width="51.344" height="66.885" style="fill:none;stroke:black;stroke-width:0.75px;stroke-dasharray:3,2.25;"/>
                    </g>
                    <g transform="matrix(1.10185,0,0,1.10185,178.881,-14.3278)">
                        <rect x="231.34" y="229.97" width="51.344" height="66.885" style="fill:none;stroke:black;stroke-width:0.75px;stroke-dasharray:3,2.25;"/>
                    </g>
                    <g transform="matrix(1.10185,0,0,1.10185,178.881,-14.3278)">
                        <rect x="231.34" y="229.97" width="51.344" height="66.885" style="fill:none;stroke:black;stroke-width:0.75px;stroke-dasharray:3,2.25;"/>
                    </g>
                    <g transform="matrix(1.10185,0,0,1.10185,178.881,-14.3278)">
                        <rect x="231.34" y="229.97" width="51.344" height="66.885" style="fill:none;stroke:black;stroke-width:0.75px;stroke-dasharray:3,2.25;"/>
                    </g>
                    <g transform="matrix(1.10185,0,0,1.10185,178.881,-14.3278)">
                        <rect x="231.34" y="229.97" width="51.344" height="66.885" style="fill:none;stroke:black;stroke-width:0.75px;stroke-dasharray:3,2.25;"/>
                    </g>
                    <g transform="matrix(1.10185,0,0,1.10185,178.881,-14.3278)">
                        <rect x="283.67" y="229.97" width="51.344" height="66.885" style="fill:none;stroke:black;stroke-width:0.75px;stroke-dasharray:3,2.25;"/>
                    </g>
                    <g transform="matrix(1.10185,0,0,1.10185,178.881,-14.3278)">
                        <rect x="283.67" y="229.97" width="51.344" height="66.885" style="fill:none;stroke:black;stroke-width:0.75px;stroke-dasharray:3,2.25;"/>
                    </g>
                    <g transform="matrix(1.10185,0,0,1.10185,178.881,-14.3278)">
                        <rect x="283.67" y="229.97" width="51.344" height="66.885" style="fill:none;stroke:black;stroke-width:0.75px;stroke-dasharray:3,2.25;"/>
                    </g>
                    <g transform="matrix(1.10185,0,0,1.10185,178.881,-14.3278)">
                        <rect x="283.67" y="229.97" width="51.344" height="66.885" style="fill:none;stroke:black;stroke-width:0.75px;stroke-dasharray:3,2.25;"/>
                    </g>
                    <g transform="matrix(1.10185,0,0,1.10185,178.881,-14.3278)">
                        <rect x="336.2" y="229.97" width="51.344" height="66.885" style="fill:none;stroke:black;stroke-width:0.75px;stroke-dasharray:3,2.25;"/>
                    </g>
                    <g transform="matrix(1.10185,0,0,1.10185,178.881,-14.3278)">
                        <rect x="336.2" y="229.97" width="51.344" height="66.885" style="fill:none;stroke:black;stroke-width:0.75px;stroke-dasharray:3,2.25;"/>
                    </g>
                    <g transform="matrix(1.10185,0,0,1.10185,178.881,-14.3278)">
                        <rect x="336.2" y="229.97" width="51.344" height="66.885" style="fill:none;stroke:black;stroke-width:0.75px;stroke-dasharray:3,2.25;"/>
                    </g>
                    <g transform="matrix(1.10185,0,0,1.10185,178.881,-14.3278)">
                        <rect x="336.2" y="229.97" width="51.344" height="66.885" style="fill:none;stroke:black;stroke-width:0.75px;stroke-dasharray:3,2.25;"/>
                    </g>
                    <g transform="matrix(1.10185,0,0,1.10185,178.881,137.111)">
                        <rect x="178.62" y="161.25" width="51.344" height="66.885" style="fill:none;stroke:black;stroke-width:0.75px;stroke-dasharray:3,2.25;"/>
                    </g>
                    <g transform="matrix(1.10185,0,0,1.10185,178.881,137.111)">
                        <rect x="178.62" y="161.25" width="51.344" height="66.885" style="fill:none;stroke:black;stroke-width:0.75px;stroke-dasharray:3,2.25;"/>
                    </g>
                    <g transform="matrix(1.10185,0,0,1.10185,178.881,137.111)">
                        <rect x="178.62" y="161.25" width="51.344" height="66.885" style="fill:none;stroke:black;stroke-width:0.75px;stroke-dasharray:3,2.25;"/>
                    </g>
                    <g transform="matrix(1.10185,0,0,1.10185,178.881,137.111)">
                        <rect x="178.62" y="161.25" width="51.344" height="66.885" style="fill:none;stroke:black;stroke-width:0.75px;stroke-dasharray:3,2.25;"/>
                    </g>
                    <g transform="matrix(1.10185,0,0,1.10185,178.881,137.111)">
                        <rect x="231.34" y="161.25" width="51.344" height="66.885" style="fill:none;stroke:black;stroke-width:0.75px;stroke-dasharray:3,2.25;"/>
                    </g>
                    <g transform="matrix(1.10185,0,0,1.10185,178.881,137.111)">
                        <rect x="231.34" y="161.25" width="51.344" height="66.885" style="fill:none;stroke:black;stroke-width:0.75px;stroke-dasharray:3,2.25;"/>
                    </g>
                    <g transform="matrix(1.10185,0,0,1.10185,178.881,137.111)">
                        <rect x="231.34" y="161.25" width="51.344" height="66.885" style="fill:none;stroke:black;stroke-width:0.75px;stroke-dasharray:3,2.25;"/>
                    </g>
                    <g transform="matrix(1.10185,0,0,1.10185,178.881,137.111)">
                        <rect x="231.34" y="161.25" width="51.344" height="66.885" style="fill:none;stroke:black;stroke-width:0.75px;stroke-dasharray:3,2.25;"/>
                    </g>
                    <g transform="matrix(1.10185,0,0,1.10185,178.881,137.111)">
                        <rect x="283.67" y="161.25" width="51.344" height="66.885" style="fill:none;stroke:black;stroke-width:0.75px;stroke-dasharray:3,2.25;"/>
                    </g>
                    <g transform="matrix(1.10185,0,0,1.10185,178.881,137.111)">
                        <rect x="283.67" y="161.25" width="51.344" height="66.885" style="fill:none;stroke:black;stroke-width:0.75px;stroke-dasharray:3,2.25;"/>
                    </g>
                    <g transform="matrix(1.10185,0,0,1.10185,178.881,137.111)">
                        <rect x="283.67" y="161.25" width="51.344" height="66.885" style="fill:none;stroke:black;stroke-width:0.75px;stroke-dasharray:3,2.25;"/>
                    </g>
                    <g transform="matrix(1.10185,0,0,1.10185,178.881,137.111)">
                        <rect x="283.67" y="161.25" width="51.344" height="66.885" style="fill:none;stroke:black;stroke-width:0.75px;stroke-dasharray:3,2.25;"/>
                    </g>
                    <g transform="matrix(1.10185,0,0,1.10185,178.881,137.111)">
                        <rect x="336.2" y="161.25" width="51.344" height="66.885" style="fill:none;stroke:black;stroke-width:0.75px;stroke-dasharray:3,2.25;"/>
                    </g>
                    <g transform="matrix(1.10185,0,0,1.10185,178.881,137.111)">
                        <rect x="336.2" y="161.25" width="51.344" height="66.885" style="fill:none;stroke:black;stroke-width:0.75px;stroke-dasharray:3,2.25;"/>
                    </g>
                    <g transform="matrix(1.10185,0,0,1.10185,178.881,137.111)">
                        <rect x="336.2" y="161.25" width="51.344" height="66.885" style="fill:none;stroke:black;stroke-width:0.75px;stroke-dasharray:3,2.25;"/>
                    </g>
                    <g transform="matrix(1.10185,0,0,1.10185,178.881,137.111)">
                        <rect x="336.2" y="161.25" width="51.344" height="66.885" style="fill:none;stroke:black;stroke-width:0.75px;stroke-dasharray:3,2.25;"/>
                    </g>
                    <g transform="matrix(1,0,0,1,0,-140.35)">
                        <path d="M372.565,208.92L372.565,531.939L371.463,531.939L371.463,208.92L372.565,208.92ZM368.708,210.022L372.014,203.411L375.32,210.022L368.708,210.022Z" style="fill-rule:nonzero;"/>
                    </g>
                    <g transform="matrix(1,0,0,1,0,188.266)">
                        <path d="M372.014,204.579L615.556,202.816L615.567,203.918L372.014,205.681L372.014,204.579ZM614.432,200.061L621.066,203.323L614.476,206.672L614.432,200.061Z" style="fill-rule:nonzero;"/>
                    </g>
                    <g transform="matrix(1.10185,0,0,1.10185,178.881,-314.318)">
                        <rect x="71.41" y="366.1" width="99.934" height="66.885" style="fill:none;stroke:black;stroke-width:0.75px;stroke-dasharray:3,2.25;"/>
                    </g>
                    <g transform="matrix(1.10185,0,0,1.10185,178.881,-161.139)">
                        <rect x="83.804" y="296.59" width="87.541" height="66.885" style="fill:none;stroke:black;stroke-width:0.75px;stroke-dasharray:3,2.25;"/>
                    </g>
                    <g transform="matrix(1.10185,0,0,1.10185,178.881,-9.70003)">
                        <rect x="95.607" y="227.87" width="75.738" height="66.885" style="fill:none;stroke:black;stroke-width:0.75px;stroke-dasharray:3,2.25;"/>
                    </g>
                    <g transform="matrix(1.10185,0,0,1.10185,178.881,143.479)">
                        <rect x="107.41" y="158.36" width="63.934" height="66.885" style="fill:none;stroke:black;stroke-width:0.75px;stroke-dasharray:3,2.25;"/>
                    </g>
                    <g transform="matrix(1.10185,0,0,1.10185,178.881,320.929)">
                        <rect x="178.62" y="68.656" width="50.951" height="85.246" style="fill:none;stroke:black;stroke-width:0.75px;stroke-dasharray:3,2.25;"/>
                    </g>
                    <g transform="matrix(1.10185,0,0,1.10185,178.881,334.223)">
                        <rect x="231.34" y="56.853" width="50.754" height="96.787" style="fill:none;stroke:black;stroke-width:0.75px;stroke-dasharray:3,2.25;"/>
                    </g>
                    <g transform="matrix(1.10185,0,0,1.10185,178.881,351.856)">
                        <rect x="284.26" y="41.115" width="50.951" height="112.26" style="fill:none;stroke:black;stroke-width:0.75px;stroke-dasharray:3,2.25;"/>
                    </g>
                    <g transform="matrix(1.10185,0,0,1.10185,178.881,368.622)">
                        <rect x="336.2" y="25.377" width="51.934" height="128.52" style="fill:none;stroke:black;stroke-width:0.75px;stroke-dasharray:3,2.25;"/>
                    </g>
                    <g transform="matrix(1,0,0,1,0,-270.038)">
                        <path d="M496.865,381.294C496.865,371.598 504.721,363.73 514.417,363.73L584.649,363.73C594.346,363.73 602.213,371.598 602.213,381.294L602.213,483.744C602.213,493.44 594.346,501.308 584.649,501.308L514.417,501.308C504.721,501.308 496.865,493.44 496.865,483.744L496.865,381.294Z" style="fill:rgb(162,162,162);fill-opacity:0.29;stroke:black;stroke-width:0.83px;"/>
                    </g>
                    <g>
                        <text x="307.82px" y="122.924px" style="font-family:'Arial-BoldMT', 'Arial', sans-serif;font-weight:700;font-size:13.222px;">Securit<tspan x="352.749px " y="122.924px ">y</tspan></text>
                        <text x="319.456px" y="138.787px" style="font-family:'Arial-BoldMT', 'Arial', sans-serif;font-weight:700;font-size:13.222px;">le</text>
                        <text x="330.549px" y="138.787px" style="font-family:'Arial-BoldMT', 'Arial', sans-serif;font-weight:700;font-size:13.222px;">v</text>
                        <text x="337.689px" y="138.787px" style="font-family:'Arial-BoldMT', 'Arial', sans-serif;font-weight:700;font-size:13.222px;">el 4</text>
                        <text x="307.875px" y="199.499px" style="font-family:'Arial-BoldMT', 'Arial', sans-serif;font-weight:700;font-size:13.222px;">Securit<tspan x="352.804px " y="199.499px ">y</tspan></text>
                        <text x="319.511px" y="215.361px" style="font-family:'Arial-BoldMT', 'Arial', sans-serif;font-weight:700;font-size:13.222px;">le</text>
                        <text x="330.604px" y="215.361px" style="font-family:'Arial-BoldMT', 'Arial', sans-serif;font-weight:700;font-size:13.222px;">v</text>
                        <text x="337.744px" y="215.361px" style="font-family:'Arial-BoldMT', 'Arial', sans-serif;font-weight:700;font-size:13.222px;">el 3</text>
                        <text x="307.644px" y="275.233px" style="font-family:'Arial-BoldMT', 'Arial', sans-serif;font-weight:700;font-size:13.222px;">Securit<tspan x="352.573px " y="275.233px ">y</tspan></text>
                        <text x="319.279px" y="291.096px" style="font-family:'Arial-BoldMT', 'Arial', sans-serif;font-weight:700;font-size:13.222px;">le</text>
                        <text x="330.373px" y="291.096px" style="font-family:'Arial-BoldMT', 'Arial', sans-serif;font-weight:700;font-size:13.222px;">v</text>
                        <text x="337.513px" y="291.096px" style="font-family:'Arial-BoldMT', 'Arial', sans-serif;font-weight:700;font-size:13.222px;">el 2</text>
                        <text x="307.82px" y="351.828px" style="font-family:'Arial-BoldMT', 'Arial', sans-serif;font-weight:700;font-size:13.222px;">Securit<tspan x="352.749px " y="351.828px ">y</tspan></text>
                        <text x="319.456px" y="367.69px" style="font-family:'Arial-BoldMT', 'Arial', sans-serif;font-weight:700;font-size:13.222px;">le</text>
                        <text x="330.549px" y="367.69px" style="font-family:'Arial-BoldMT', 'Arial', sans-serif;font-weight:700;font-size:13.222px;">v</text>
                        <text x="337.689px" y="367.69px" style="font-family:'Arial-BoldMT', 'Arial', sans-serif;font-weight:700;font-size:13.222px;">el 1</text>
                    </g>
                    <g transform="matrix(8.54864e-19,-1,1,-8.66967e-19,12.1635,0.111767)">
                        <g id="ML-0" serif:id="ML 0">
                            <text x="-455.695px" y="400.75px" style="font-family:'Arial-BoldMT', 'Arial', sans-serif;font-weight:700;font-size:13.222px;">ML<tspan x="-436.803px -433.109px " y="400.75px 400.75px "> 1</tspan></text>
                            <text x="-455.882px" y="442.872px" style="font-family:'Arial-BoldMT', 'Arial', sans-serif;font-weight:700;font-size:13.222px;">ML<tspan x="-436.99px -433.297px " y="442.872px 442.872px "> 2</tspan></text>
                            <text x="-455.882px" y="498.217px" style="font-family:'Arial-BoldMT', 'Arial', sans-serif;font-weight:700;font-size:13.222px;">ML<tspan x="-436.99px -433.297px " y="498.217px 498.217px "> 3</tspan></text>
                            <text x="-455.882px" y="582.461px" style="font-family:'Arial-BoldMT', 'Arial', sans-serif;font-weight:700;font-size:13.222px;">ML<tspan x="-436.99px -433.297px " y="582.461px 582.461px "> 4</tspan></text>
                        </g>
                    </g>
                    <g>
                        <text x="530.967px" y="159.991px" style="font-family:'Arial-BoldMT', 'Arial', sans-serif;font-weight:700;font-size:10.974px;">Critical</text>
                        <text x="513.91px" y="173.242px" style="font-family:'Arial-BoldMT', 'Arial', sans-serif;font-weight:700;font-size:11.001px;">infrastructur<tspan x="579.212px " y="173.242px ">e</tspan></text>
                    </g>
                    <g transform="matrix(1,0,0,1,0,-120.33)">
                        <path d="M438.345,306.721C438.345,297.024 446.202,289.168 455.898,289.168L526.13,289.168C535.826,289.168 543.683,297.024 543.683,306.721L543.683,408.598C543.683,418.294 535.826,426.161 526.13,426.161L455.898,426.161C446.202,426.161 438.345,418.294 438.345,408.598L438.345,306.721Z" style="fill:rgb(0,112,192);fill-opacity:0.29;stroke:black;stroke-width:0.83px;"/>
                    </g>
                    <text x="460.779px" y="234.884px" style="font-family:'Arial-BoldMT', 'Arial', sans-serif;font-weight:700;font-size:10.974px;">Industr<tspan x="498.083px " y="234.884px ">i</tspan>al</text>
                    <g transform="matrix(1,0,0,1,0,33.7755)">
                        <path d="M380.256,229.679C380.256,219.983 388.112,212.116 397.808,212.116L468.04,212.116C477.737,212.116 485.593,219.983 485.593,229.679L485.593,331.556C485.593,341.253 477.737,349.109 468.04,349.109L397.808,349.109C388.112,349.109 380.256,341.253 380.256,331.556L380.256,229.679Z" style="fill:rgb(255,0,0);fill-opacity:0.29;stroke:black;stroke-width:0.83px;"/>
                    </g>
                    <g>
                        <text x="397.522px" y="311.947px" style="font-family:'Arial-BoldMT', 'Arial', sans-serif;font-weight:700;font-size:10.974px;">Wh</text>
                        <text x="414.686px" y="311.947px" style="font-family:'Arial-BoldMT', 'Arial', sans-serif;font-weight:700;font-size:10.974px;">e</text>
                        <text x="420.788px" y="311.947px" style="font-family:'Arial-BoldMT', 'Arial', sans-serif;font-weight:700;font-size:10.974px;">r</text>
                        <text x="425.002px" y="311.947px" style="font-family:'Arial-BoldMT', 'Arial', sans-serif;font-weight:700;font-size:10.974px;">e a</text>
                        <text x="440.255px" y="311.947px" style="font-family:'Arial-BoldMT', 'Arial', sans-serif;font-weight:700;font-size:10.974px;">r</text>
                        <text x="444.469px" y="311.947px" style="font-family:'Arial-BoldMT', 'Arial', sans-serif;font-weight:700;font-size:10.974px;">e</text>
                        <text x="453.62px" y="311.947px" style="font-family:'Arial-BoldMT', 'Arial', sans-serif;font-weight:700;font-size:10.974px;">w<tspan x="462.312px " y="311.947px ">e</tspan></text>
                        <text x="414.975px" y="325.172px" style="font-family:'Arial-BoldMT', 'Arial', sans-serif;font-weight:700;font-size:10.974px;">toda</text>
                        <text x="438.219px" y="325.172px" style="font-family:'Arial-BoldMT', 'Arial', sans-serif;font-weight:700;font-size:10.974px;">y<tspan x="444.145px " y="325.172px ">?</tspan></text>
                    </g>
                </g>
            </g>
        </g>
    </g>
</svg>
