<?xml version="1.0" encoding="UTF-8" standalone="no"?><!DOCTYPE svg PUBLIC "-//W3C//DTD SVG 1.1//EN" "http://www.w3.org/Graphics/SVG/1.1/DTD/svg11.dtd"><svg width="100%" height="100%" viewBox="0 0 720 540" version="1.1" xmlns="http://www.w3.org/2000/svg" xmlns:xlink="http://www.w3.org/1999/xlink" xml:space="preserve" xmlns:serif="http://www.serif.com/" style="fill-rule:evenodd;clip-rule:evenodd;stroke-linejoin:round;stroke-miterlimit:10;"><rect x="0" y="0" width="720" height="540" style="fill:#fff;"/><rect x="178.62" y="105.965" width="51.344" height="66.885" style="fill:none;stroke:#000;stroke-width:0.75px;stroke-dasharray:3,2.25;"/><rect x="178.62" y="105.965" width="51.344" height="66.885" style="fill:none;stroke:#000;stroke-width:0.75px;stroke-dasharray:3,2.25;"/><rect x="178.62" y="105.965" width="51.344" height="66.885" style="fill:none;stroke:#000;stroke-width:0.75px;stroke-dasharray:3,2.25;"/><rect x="178.62" y="105.965" width="51.344" height="66.885" style="fill:none;stroke:#000;stroke-width:0.75px;stroke-dasharray:3,2.25;"/><rect x="231.34" y="105.965" width="51.344" height="66.885" style="fill:none;stroke:#000;stroke-width:0.75px;stroke-dasharray:3,2.25;"/><rect x="231.34" y="105.965" width="51.344" height="66.885" style="fill:none;stroke:#000;stroke-width:0.75px;stroke-dasharray:3,2.25;"/><rect x="231.34" y="105.965" width="51.344" height="66.885" style="fill:none;stroke:#000;stroke-width:0.75px;stroke-dasharray:3,2.25;"/><rect x="231.34" y="105.965" width="51.344" height="66.885" style="fill:none;stroke:#000;stroke-width:0.75px;stroke-dasharray:3,2.25;"/><rect x="283.67" y="105.965" width="51.344" height="66.885" style="fill:none;stroke:#000;stroke-width:0.75px;stroke-dasharray:3,2.25;"/><rect x="283.67" y="105.965" width="51.344" height="66.885" style="fill:none;stroke:#000;stroke-width:0.75px;stroke-dasharray:3,2.25;"/><rect x="283.67" y="105.965" width="51.344" height="66.885" style="fill:none;stroke:#000;stroke-width:0.75px;stroke-dasharray:3,2.25;"/><rect x="283.67" y="105.965" width="51.344" height="66.885" style="fill:none;stroke:#000;stroke-width:0.75px;stroke-dasharray:3,2.25;"/><rect x="336.2" y="105.965" width="51.344" height="66.885" style="fill:none;stroke:#000;stroke-width:0.75px;stroke-dasharray:3,2.25;"/><rect x="336.2" y="105.965" width="51.344" height="66.885" style="fill:none;stroke:#000;stroke-width:0.75px;stroke-dasharray:3,2.25;"/><rect x="336.2" y="105.965" width="51.344" height="66.885" style="fill:none;stroke:#000;stroke-width:0.75px;stroke-dasharray:3,2.25;"/><rect x="336.2" y="105.965" width="51.344" height="66.885" style="fill:none;stroke:#000;stroke-width:0.75px;stroke-dasharray:3,2.25;"/><rect x="178.62" y="174.685" width="51.344" height="66.885" style="fill:none;stroke:#000;stroke-width:0.75px;stroke-dasharray:3,2.25;"/><rect x="178.62" y="174.685" width="51.344" height="66.885" style="fill:none;stroke:#000;stroke-width:0.75px;stroke-dasharray:3,2.25;"/><rect x="178.62" y="174.685" width="51.344" height="66.885" style="fill:none;stroke:#000;stroke-width:0.75px;stroke-dasharray:3,2.25;"/><rect x="178.62" y="174.685" width="51.344" height="66.885" style="fill:none;stroke:#000;stroke-width:0.75px;stroke-dasharray:3,2.25;"/><rect x="231.34" y="174.685" width="51.344" height="66.885" style="fill:none;stroke:#000;stroke-width:0.75px;stroke-dasharray:3,2.25;"/><rect x="231.34" y="174.685" width="51.344" height="66.885" style="fill:none;stroke:#000;stroke-width:0.75px;stroke-dasharray:3,2.25;"/><rect x="231.34" y="174.685" width="51.344" height="66.885" style="fill:none;stroke:#000;stroke-width:0.75px;stroke-dasharray:3,2.25;"/><rect x="231.34" y="174.685" width="51.344" height="66.885" style="fill:none;stroke:#000;stroke-width:0.75px;stroke-dasharray:3,2.25;"/><rect x="283.67" y="174.685" width="51.344" height="66.885" style="fill:none;stroke:#000;stroke-width:0.75px;stroke-dasharray:3,2.25;"/><rect x="283.67" y="174.685" width="51.344" height="66.885" style="fill:none;stroke:#000;stroke-width:0.75px;stroke-dasharray:3,2.25;"/><rect x="283.67" y="174.685" width="51.344" height="66.885" style="fill:none;stroke:#000;stroke-width:0.75px;stroke-dasharray:3,2.25;"/><rect x="283.67" y="174.685" width="51.344" height="66.885" style="fill:none;stroke:#000;stroke-width:0.75px;stroke-dasharray:3,2.25;"/><rect x="336.2" y="174.685" width="51.344" height="66.885" style="fill:none;stroke:#000;stroke-width:0.75px;stroke-dasharray:3,2.25;"/><rect x="336.2" y="174.685" width="51.344" height="66.885" style="fill:none;stroke:#000;stroke-width:0.75px;stroke-dasharray:3,2.25;"/><rect x="336.2" y="174.685" width="51.344" height="66.885" style="fill:none;stroke:#000;stroke-width:0.75px;stroke-dasharray:3,2.25;"/><rect x="336.2" y="174.685" width="51.344" height="66.885" style="fill:none;stroke:#000;stroke-width:0.75px;stroke-dasharray:3,2.25;"/><rect x="178.62" y="243.145" width="51.344" height="66.885" style="fill:none;stroke:#000;stroke-width:0.75px;stroke-dasharray:3,2.25;"/><rect x="178.62" y="243.145" width="51.344" height="66.885" style="fill:none;stroke:#000;stroke-width:0.75px;stroke-dasharray:3,2.25;"/><rect x="178.62" y="243.145" width="51.344" height="66.885" style="fill:none;stroke:#000;stroke-width:0.75px;stroke-dasharray:3,2.25;"/><rect x="178.62" y="243.145" width="51.344" height="66.885" style="fill:none;stroke:#000;stroke-width:0.75px;stroke-dasharray:3,2.25;"/><rect x="231.34" y="243.145" width="51.344" height="66.885" style="fill:none;stroke:#000;stroke-width:0.75px;stroke-dasharray:3,2.25;"/><rect x="231.34" y="243.145" width="51.344" height="66.885" style="fill:none;stroke:#000;stroke-width:0.75px;stroke-dasharray:3,2.25;"/><rect x="231.34" y="243.145" width="51.344" height="66.885" style="fill:none;stroke:#000;stroke-width:0.75px;stroke-dasharray:3,2.25;"/><rect x="231.34" y="243.145" width="51.344" height="66.885" style="fill:none;stroke:#000;stroke-width:0.75px;stroke-dasharray:3,2.25;"/><rect x="283.67" y="243.145" width="51.344" height="66.885" style="fill:none;stroke:#000;stroke-width:0.75px;stroke-dasharray:3,2.25;"/><rect x="283.67" y="243.145" width="51.344" height="66.885" style="fill:none;stroke:#000;stroke-width:0.75px;stroke-dasharray:3,2.25;"/><rect x="283.67" y="243.145" width="51.344" height="66.885" style="fill:none;stroke:#000;stroke-width:0.75px;stroke-dasharray:3,2.25;"/><rect x="283.67" y="243.145" width="51.344" height="66.885" style="fill:none;stroke:#000;stroke-width:0.75px;stroke-dasharray:3,2.25;"/><rect x="336.2" y="243.145" width="51.344" height="66.885" style="fill:none;stroke:#000;stroke-width:0.75px;stroke-dasharray:3,2.25;"/><rect x="336.2" y="243.145" width="51.344" height="66.885" style="fill:none;stroke:#000;stroke-width:0.75px;stroke-dasharray:3,2.25;"/><rect x="336.2" y="243.145" width="51.344" height="66.885" style="fill:none;stroke:#000;stroke-width:0.75px;stroke-dasharray:3,2.25;"/><rect x="336.2" y="243.145" width="51.344" height="66.885" style="fill:none;stroke:#000;stroke-width:0.75px;stroke-dasharray:3,2.25;"/><rect x="178.62" y="311.865" width="51.344" height="66.885" style="fill:none;stroke:#000;stroke-width:0.75px;stroke-dasharray:3,2.25;"/><rect x="178.62" y="311.865" width="51.344" height="66.885" style="fill:none;stroke:#000;stroke-width:0.75px;stroke-dasharray:3,2.25;"/><rect x="178.62" y="311.865" width="51.344" height="66.885" style="fill:none;stroke:#000;stroke-width:0.75px;stroke-dasharray:3,2.25;"/><rect x="178.62" y="311.865" width="51.344" height="66.885" style="fill:none;stroke:#000;stroke-width:0.75px;stroke-dasharray:3,2.25;"/><rect x="231.34" y="311.865" width="51.344" height="66.885" style="fill:none;stroke:#000;stroke-width:0.75px;stroke-dasharray:3,2.25;"/><rect x="231.34" y="311.865" width="51.344" height="66.885" style="fill:none;stroke:#000;stroke-width:0.75px;stroke-dasharray:3,2.25;"/><rect x="231.34" y="311.865" width="51.344" height="66.885" style="fill:none;stroke:#000;stroke-width:0.75px;stroke-dasharray:3,2.25;"/><rect x="231.34" y="311.865" width="51.344" height="66.885" style="fill:none;stroke:#000;stroke-width:0.75px;stroke-dasharray:3,2.25;"/><rect x="283.67" y="311.865" width="51.344" height="66.885" style="fill:none;stroke:#000;stroke-width:0.75px;stroke-dasharray:3,2.25;"/><rect x="283.67" y="311.865" width="51.344" height="66.885" style="fill:none;stroke:#000;stroke-width:0.75px;stroke-dasharray:3,2.25;"/><rect x="283.67" y="311.865" width="51.344" height="66.885" style="fill:none;stroke:#000;stroke-width:0.75px;stroke-dasharray:3,2.25;"/><rect x="283.67" y="311.865" width="51.344" height="66.885" style="fill:none;stroke:#000;stroke-width:0.75px;stroke-dasharray:3,2.25;"/><rect x="336.2" y="311.865" width="51.344" height="66.885" style="fill:none;stroke:#000;stroke-width:0.75px;stroke-dasharray:3,2.25;"/><rect x="336.2" y="311.865" width="51.344" height="66.885" style="fill:none;stroke:#000;stroke-width:0.75px;stroke-dasharray:3,2.25;"/><rect x="336.2" y="311.865" width="51.344" height="66.885" style="fill:none;stroke:#000;stroke-width:0.75px;stroke-dasharray:3,2.25;"/><rect x="336.2" y="311.865" width="51.344" height="66.885" style="fill:none;stroke:#000;stroke-width:0.75px;stroke-dasharray:3,2.25;"/><path d="M175.78,88.41l0,293.16l-1,0l0,-293.16l1,0Zm-3.5,1l3,-6l3,6l-6,0Z" style="fill-rule:nonzero;"/><path d="M175.28,382.71l221.03,-1.6l0.01,1l-221.04,1.6l0,-1Zm220.01,-4.1l6.02,2.96l-5.98,3.04l-0.04,-6Z" style="fill-rule:nonzero;"/><rect x="71.41" y="107.015" width="99.934" height="66.885" style="fill:none;stroke:#000;stroke-width:0.75px;stroke-dasharray:3,2.25;"/><rect x="83.804" y="176.525" width="87.541" height="66.885" style="fill:none;stroke:#000;stroke-width:0.75px;stroke-dasharray:3,2.25;"/><rect x="95.607" y="245.245" width="75.738" height="66.885" style="fill:none;stroke:#000;stroke-width:0.75px;stroke-dasharray:3,2.25;"/><rect x="107.41" y="314.755" width="63.934" height="66.885" style="fill:none;stroke:#000;stroke-width:0.75px;stroke-dasharray:3,2.25;"/><rect x="178.62" y="386.098" width="50.951" height="85.246" style="fill:none;stroke:#000;stroke-width:0.75px;stroke-dasharray:3,2.25;"/><rect x="231.34" y="386.36" width="50.754" height="96.787" style="fill:none;stroke:#000;stroke-width:0.75px;stroke-dasharray:3,2.25;"/><rect x="284.26" y="386.625" width="50.951" height="112.26" style="fill:none;stroke:#000;stroke-width:0.75px;stroke-dasharray:3,2.25;"/><rect x="336.2" y="386.103" width="51.934" height="128.52" style="fill:none;stroke:#000;stroke-width:0.75px;stroke-dasharray:3,2.25;"/><path d="M288.59,127.15c0,-8.8 7.13,-15.94 15.93,-15.94l63.74,0c8.8,0 15.94,7.14 15.94,15.94l0,92.98c0,8.8 -7.14,15.94 -15.94,15.94l-63.74,0c-8.8,0 -15.93,-7.14 -15.93,-15.94l0,-92.98Z" style="fill:#a3a3a3;fill-opacity:0.29;stroke:#000;stroke-width:0.75px;"/><g><text x="274.7px" y="532.728px" style="font-family:'ArialMT', 'Arial', sans-serif;font-size:9px;fill:#a7a7a7;">©</text><text x="283.763px" y="532.728px" style="font-family:'ArialMT', 'Arial', sans-serif;font-size:9px;fill:#a7a7a7;">2015 <tspan x="306.391px " y="532.728px ">H</tspan>one</text><text x="327.991px" y="532.728px" style="font-family:'ArialMT', 'Arial', sans-serif;font-size:9px;fill:#a7a7a7;">y</text><text x="332.428px" y="532.728px" style="font-family:'ArialMT', 'Arial', sans-serif;font-size:9px;fill:#a7a7a7;">w</text><text x="338.791px" y="532.728px" style="font-family:'ArialMT', 'Arial', sans-serif;font-size:9px;fill:#a7a7a7;">ell I<tspan x="352.908px " y="532.728px ">n</tspan>tern<tspan x="373.534px " y="532.728px ">a</tspan>tion<tspan x="393.162px " y="532.728px ">a</tspan>l <tspan x="402.238px 408.264px " y="532.728px 532.728px ">Al</tspan>l Ri<tspan x="423.374px " y="532.728px ">g</tspan>ht</text><text x="435.953px" y="532.728px" style="font-family:'ArialMT', 'Arial', sans-serif;font-size:9px;fill:#a7a7a7;">s</text><text x="442.514px" y="532.728px" style="font-family:'ArialMT', 'Arial', sans-serif;font-size:9px;fill:#a7a7a7;">Re</text><text x="454.016px" y="532.728px" style="font-family:'ArialMT', 'Arial', sans-serif;font-size:9px;fill:#a7a7a7;">s</text><text x="458.588px" y="532.728px" style="font-family:'ArialMT', 'Arial', sans-serif;font-size:9px;fill:#a7a7a7;">er</text><text x="466.616px" y="532.728px" style="font-family:'ArialMT', 'Arial', sans-serif;font-size:9px;fill:#a7a7a7;">v</text><text x="471.062px" y="532.728px" style="font-family:'ArialMT', 'Arial', sans-serif;font-size:9px;fill:#a7a7a7;">ed</text></g><g><text x="117.02px" y="137.74px" style="font-family:'LucidaGrande-Bold', 'Lucida Grande', sans-serif;font-weight:600;font-size:12px;">S<tspan x="123.647px 130.45px 136.608px 144.261px 149.487px 153.161px 157.796px " y="137.74px 137.74px 137.74px 137.74px 137.74px 137.74px 137.74px ">ecurity</tspan></text><text x="127.58px" y="152.14px" style="font-family:'LucidaGrande-Bold', 'Lucida Grande', sans-serif;font-weight:600;font-size:12px;">l<tspan x="131.003px 137.556px 144.196px 150.749px 154.172px 157.648px " y="152.14px 152.14px 152.14px 152.14px 152.14px 152.14px ">evel 4</tspan></text><text x="117.07px" y="207.24px" style="font-family:'LucidaGrande-Bold', 'Lucida Grande', sans-serif;font-weight:600;font-size:12px;">S<tspan x="123.697px 130.5px 136.658px 144.311px 149.537px 153.211px 157.846px " y="207.24px 207.24px 207.24px 207.24px 207.24px 207.24px 207.24px ">ecurity</tspan></text><text x="127.63px" y="221.64px" style="font-family:'LucidaGrande-Bold', 'Lucida Grande', sans-serif;font-weight:600;font-size:12px;">l<tspan x="131.053px 137.606px 144.246px 150.799px 154.222px 157.698px " y="221.64px 221.64px 221.64px 221.64px 221.64px 221.64px ">evel 3</tspan></text><text x="116.86px" y="275.98px" style="font-family:'LucidaGrande-Bold', 'Lucida Grande', sans-serif;font-weight:600;font-size:12px;">S<tspan x="123.487px 130.29px 136.448px 144.101px 149.327px 153.001px 157.636px " y="275.98px 275.98px 275.98px 275.98px 275.98px 275.98px 275.98px ">ecurity</tspan></text><text x="127.42px" y="290.38px" style="font-family:'LucidaGrande-Bold', 'Lucida Grande', sans-serif;font-weight:600;font-size:12px;">l<tspan x="130.843px 137.396px 144.036px 150.589px 154.012px 157.488px " y="290.38px 290.38px 290.38px 290.38px 290.38px 290.38px ">evel 2</tspan></text><text x="117.02px" y="345.5px" style="font-family:'LucidaGrande-Bold', 'Lucida Grande', sans-serif;font-weight:600;font-size:12px;">S<tspan x="123.647px 130.45px 136.608px 144.261px 149.487px 153.161px 157.796px " y="345.5px 345.5px 345.5px 345.5px 345.5px 345.5px 345.5px ">ecurity</tspan></text><text x="127.58px" y="359.9px" style="font-family:'LucidaGrande-Bold', 'Lucida Grande', sans-serif;font-weight:600;font-size:12px;">l<tspan x="131.003px 137.556px 144.196px 150.749px 154.172px 157.648px " y="359.9px 359.9px 359.9px 359.9px 359.9px 359.9px ">evel 1</tspan></text></g><g transform="matrix(-4e-09,-1,1,-4e-09,0,0)"><text x="-439.75px" y="201.36px" style="font-family:'LucidaGrande-Bold', 'Lucida Grande', sans-serif;font-weight:600;font-size:12px;">M<tspan x="-429.567px -423.221px -419.067px -411.895px -407.149px -403.956px -399.802px " y="201.36px 201.36px 201.36px 201.36px 201.36px 201.36px 201.36px ">aturity</tspan></text><text x="-430.03px" y="215.76px" style="font-family:'LucidaGrande-Bold', 'Lucida Grande', sans-serif;font-weight:600;font-size:12px;">l<tspan x="-426.607px -420.054px -413.414px -406.861px -403.438px -399.962px " y="215.76px 215.76px 215.76px 215.76px 215.76px 215.76px ">evel 0</tspan></text><text x="-439.92px" y="253.99px" style="font-family:'LucidaGrande-Bold', 'Lucida Grande', sans-serif;font-weight:600;font-size:12px;">M<tspan x="-429.737px -423.391px -419.237px -412.065px -407.319px -404.126px -399.972px " y="253.99px 253.99px 253.99px 253.99px 253.99px 253.99px 253.99px ">aturity</tspan></text><text x="-434.16px" y="268.39px" style="font-family:'LucidaGrande-Bold', 'Lucida Grande', sans-serif;font-weight:600;font-size:12px;">L<tspan x="-427.481px -420.75px -413.93px -407.199px -403.596px -399.941px " y="268.39px 268.39px 268.39px 268.39px 268.39px 268.39px ">evel 1</tspan></text><text x="-440.304px" y="307.03px" style="font-family:'LucidaGrande-Bold', 'Lucida Grande', sans-serif;font-weight:600;font-size:12px;">M<tspan x="-430.121px -423.775px -419.621px -412.449px -407.703px -404.51px -400.356px " y="307.03px 307.03px 307.03px 307.03px 307.03px 307.03px 307.03px ">aturity</tspan></text><text x="-434.54px" y="321.43px" style="font-family:'LucidaGrande-Bold', 'Lucida Grande', sans-serif;font-weight:600;font-size:12px;">L<tspan x="-427.861px -421.13px -414.31px -407.579px -403.976px -400.321px " y="321.43px 321.43px 321.43px 321.43px 321.43px 321.43px ">evel 2</tspan></text><text x="-439.82px" y="359.45px" style="font-family:'LucidaGrande-Bold', 'Lucida Grande', sans-serif;font-weight:600;font-size:12px;">M<tspan x="-429.637px -423.291px -419.137px -411.965px -407.219px -404.026px -399.872px " y="359.45px 359.45px 359.45px 359.45px 359.45px 359.45px 359.45px ">aturity</tspan></text><text x="-440.784px" y="373.874px" style="font-family:'LucidaGrande-Bold', 'Lucida Grande', sans-serif;font-weight:600;font-size:12.024px;">L<tspan x="-434.256px -427.674px -421.005px -414.424px " y="373.874px 373.874px 373.874px 373.874px ">evel</tspan></text><text x="-406.96px" y="373.874px" style="font-family:'LucidaGrande-Bold', 'Lucida Grande', sans-serif;font-weight:600;font-size:12.024px;">4<tspan x="-399.493px " y="373.874px ">3</tspan></text></g><g><text x="319.54px" y="171.38px" style="font-family:'LucidaGrande-Bold', 'Lucida Grande', sans-serif;font-weight:600;font-size:9.96px;">C<tspan x="326.301px 330.495px 333.4px 337.103px 340.007px 344.974px 350.496px " y="171.38px 171.38px 171.38px 171.38px 171.38px 171.38px 171.38px ">ritical</tspan></text><text x="304.06px" y="183.414px" style="font-family:'LucidaGrande-Bold', 'Lucida Grande', sans-serif;font-weight:600;font-size:9.984px;">i<tspan x="306.82px 312.89px 316.542px 320.594px 325.977px 331.135px 334.695px 338.747px 344.817px 349.644px 353.203px 359.273px 363.325px " y="183.414px 183.414px 183.414px 183.414px 183.414px 183.414px 183.414px 183.414px 183.414px 183.414px 183.414px 183.414px 183.414px ">nfrastructure</tspan></text></g><g><text x="405.62px" y="125.93px" style="font-family:'LucidaGrande-Bold', 'Lucida Grande', sans-serif;font-weight:600;font-size:12px;fill:#a3a3a3;">T<tspan x="413.381px 419.86px 427.293px 430.677px 436.546px 443.083px " y="125.93px 125.93px 125.93px 125.93px 125.93px 125.93px ">ypical</tspan></text><text x="449.264px" y="125.93px" style="font-family:'LucidaGrande-Bold', 'Lucida Grande', sans-serif;font-weight:600;font-size:12px;fill:#a3a3a3;">c<tspan x="455.133px 460.07px 463.454px 467.8px 471.184px 477.053px 483.59px " y="125.93px 125.93px 125.93px 125.93px 125.93px 125.93px 125.93px ">ritical</tspan></text><text x="491.228px" y="125.93px" style="font-family:'LucidaGrande-Bold', 'Lucida Grande', sans-serif;font-weight:600;font-size:12px;fill:#a3a3a3;">i<tspan x="494.612px 501.975px 506.432px 511.369px 517.906px 524.173px 528.519px 533.456px 540.819px 546.688px 551.033px 558.396px 563.333px 569.846px " y="125.93px 125.93px 125.93px 125.93px 125.93px 125.93px 125.93px 125.93px 125.93px 125.93px 125.93px 125.93px 125.93px 125.93px ">nfrastructure:</tspan></text><text x="405.62px" y="144.41px" style="font-family:'LucidaGrande-Bold', 'Lucida Grande', sans-serif;font-weight:600;font-size:12px;">O<tspan x="415.056px 418.516px " y="144.41px 144.41px ">il</tspan></text><text x="424.928px" y="144.41px" style="font-family:'LucidaGrande-Bold', 'Lucida Grande', sans-serif;font-weight:600;font-size:12px;">&amp;<tspan x="433.421px 437.118px 444.591px 451.203px 457.546px " y="144.41px 144.41px 144.41px 144.41px 144.41px "> gas,</tspan></text><text x="464.372px" y="144.41px" style="font-family:'LucidaGrande-Bold', 'Lucida Grande', sans-serif;font-weight:600;font-size:12px;">p<tspan x="471.881px 479.102px 489.013px 495.602px 500.614px " y="144.41px 144.41px 144.41px 144.41px 144.41px ">ower,</tspan></text><text x="505.748px" y="144.41px" style="font-family:'LucidaGrande-Bold', 'Lucida Grande', sans-serif;font-weight:600;font-size:12px;">w<tspan x="515.659px 522.271px 526.692px 533.28px " y="144.41px 144.41px 144.41px 144.41px ">ater</tspan></text></g><path d="M235.48,195.34c0,-8.8 7.13,-15.93 15.93,-15.93l63.74,0c8.8,0 15.93,7.13 15.93,15.93l0,92.46c0,8.8 -7.13,15.94 -15.93,15.94l-63.74,0c-8.8,0 -15.93,-7.14 -15.93,-15.94l0,-92.46Z" style="fill:#0070c0;fill-opacity:0.29;stroke:#000;stroke-width:0.75px;"/><g><text x="255.84px" y="239.35px" style="font-family:'LucidaGrande-Bold', 'Lucida Grande', sans-serif;font-weight:600;font-size:9.96px;">N<tspan x="262.918px 268.702px 274.667px 280.451px 285.175px 289.126px 291.788px 295.248px 297.91px 302.634px 307.912px " y="239.35px 239.35px 239.35px 239.35px 239.35px 239.35px 239.35px 239.35px 239.35px 239.35px 239.35px ">on-critical</tspan></text><text x="250.92px" y="251.35px" style="font-family:'LucidaGrande-Bold', 'Lucida Grande', sans-serif;font-weight:600;font-size:9.96px;">i<tspan x="253.683px 259.747px 263.4px 267.451px 272.83px 277.985px 281.545px 285.597px 291.661px 296.486px 300.046px 306.111px 310.162px " y="251.35px 251.35px 251.35px 251.35px 251.35px 251.35px 251.35px 251.35px 251.35px 251.35px 251.35px 251.35px 251.35px ">nfrastructure</tspan></text></g><g><text x="405.62px" y="208.82px" style="font-family:'LucidaGrande-Bold', 'Lucida Grande', sans-serif;font-weight:600;font-size:12px;fill:#0070c0;">T<tspan x="413.289px 419.674px 427.014px 430.306px 436.082px 442.526px 445.818px 449.162px 456.432px 463.486px 470.756px 477.809px 483.585px 488.43px 491.721px 495.974px 499.265px 505.041px 511.485px " y="208.82px 208.82px 208.82px 208.82px 208.82px 208.82px 208.82px 208.82px 208.82px 208.82px 208.82px 208.82px 208.82px 208.82px 208.82px 208.82px 208.82px 208.82px 208.82px ">ypical non-critical</tspan></text><text x="517.412px" y="208.82px" style="font-family:'LucidaGrande-Bold', 'Lucida Grande', sans-serif;font-weight:600;font-size:12px;fill:#0070c0;">i<tspan x="520.704px 527.974px 532.338px 537.182px 543.626px 549.801px 554.053px 558.897px 566.168px 571.944px 576.196px 583.466px 588.311px 594.731px " y="208.82px 208.82px 208.82px 208.82px 208.82px 208.82px 208.82px 208.82px 208.82px 208.82px 208.82px 208.82px 208.82px 208.82px ">nfrastructure:</tspan></text><text x="405.62px" y="227.334px" style="font-family:'LucidaGrande-Bold', 'Lucida Grande', sans-serif;font-weight:600;font-size:12.024px;">P<tspan x="412.65px 416.215px 422.94px 429.394px 433.923px 437.489px 443.544px 449.998px " y="227.334px 227.334px 227.334px 227.334px 227.334px 227.334px 227.334px 227.334px ">lastics,</tspan></text><text x="457.407px" y="227.334px" style="font-family:'LucidaGrande-Bold', 'Lucida Grande', sans-serif;font-weight:600;font-size:12.024px;">s<tspan x="463.862px 468.39px 475.091px 481.792px 485.358px 487.984px 491.623px 496.745px 503.446px 509.9px 513.466px 521.018px 527.472px 530.099px 533.737px 538.377px 545.712px 553.047px 560.67px " y="227.334px 227.334px 227.334px 227.334px 227.334px 227.334px 227.334px 227.334px 227.334px 227.334px 227.334px 227.334px 227.334px 227.334px 227.334px 227.334px 227.334px 227.334px 227.334px ">teel, resins, food,</tspan></text><text x="566.321px" y="227.334px" style="font-family:'LucidaGrande-Bold', 'Lucida Grande', sans-serif;font-weight:600;font-size:12.024px;">p<tspan x="573.943px 580.668px 588.291px 594.991px 600.113px " y="227.334px 227.334px 227.334px 227.334px 227.334px ">aper,</tspan></text><text x="604.966px" y="227.334px" style="font-family:'LucidaGrande-Bold', 'Lucida Grande', sans-serif;font-weight:600;font-size:12.024px;">b<tspan x="612.589px 619.29px 626.079px 632.779px 637.901px 644.625px 652.213px 658.914px " y="227.334px 227.334px 227.334px 227.334px 227.334px 227.334px 227.334px 227.334px ">everages</tspan></text></g><path d="M182.76,265.28c0,-8.8 7.13,-15.94 15.93,-15.94l63.74,0c8.8,0 15.93,7.14 15.93,15.94l0,92.46c0,8.8 -7.13,15.93 -15.93,15.93l-63.74,0c-8.8,0 -15.93,-7.13 -15.93,-15.93l0,-92.46Z" style="fill:#f00;fill-opacity:0.29;stroke:#000;stroke-width:0.75px;"/><g><text x="198.43px" y="309.29px" style="font-family:'LucidaGrande-Bold', 'Lucida Grande', sans-serif;font-weight:600;font-size:9.96px;">W<tspan x="207.066px 213.242px 218.713px 222.875px 228.345px 231.263px 236.753px 240.915px 246.385px 249.303px 257.531px " y="309.29px 309.29px 309.29px 309.29px 309.29px 309.29px 309.29px 309.29px 309.29px 309.29px 309.29px ">here are we</tspan></text><text x="214.27px" y="321.29px" style="font-family:'LucidaGrande-Bold', 'Lucida Grande', sans-serif;font-weight:600;font-size:9.96px;">t<tspan x="217.869px 223.793px 229.956px 235.374px 240.744px " y="321.29px 321.29px 321.29px 321.29px 321.29px ">oday?</tspan></text></g><g><text x="408.72px" y="327.34px" style="font-family:'LucidaGrande-Bold', 'Lucida Grande', sans-serif;font-weight:600;font-size:12px;">I<tspan x="412.254px 419.69px 423.2px 430.419px 437.855px " y="327.34px 327.34px 327.34px 327.34px 327.34px ">n our</tspan></text><text x="445.428px" y="327.34px" style="font-family:'LucidaGrande-Bold', 'Lucida Grande', sans-serif;font-weight:600;font-size:12px;">s<tspan x="451.768px 458.355px 464.297px 471.733px 476.743px 480.201px 484.619px 491.17px 494.681px 501.29px 507.631px 513.971px 520.558px 526.898px 533.238px 544.43px 551.017px 558.453px 562.871px 569.212px 572.722px 583.914px 591.133px 597.473px 601.892px 605.402px 611.344px 618.563px 629.755px 637.262px 643.871px 651.307px 654.765px 661.351px " y="327.34px 327.34px 327.34px 327.34px 327.34px 327.34px 327.34px 327.34px 327.34px 327.34px 327.34px 327.34px 327.34px 327.34px 327.34px 327.34px 327.34px 327.34px 327.34px 327.34px 327.34px 327.34px 327.34px 327.34px 327.34px 327.34px 327.34px 327.34px 327.34px 327.34px 327.34px 327.34px 327.34px 327.34px ">ecurity assessments most companies</tspan></text><text x="408.72px" y="343.18px" style="font-family:'LucidaGrande-Bold', 'Lucida Grande', sans-serif;font-weight:600;font-size:12px;">s<tspan x="415.124px 421.13px 428.413px 433.487px 440.137px 443.711px 451.282px 457.932px 462.414px 472.387px 479.037px 485.687px " y="343.18px 343.18px 343.18px 343.18px 343.18px 343.18px 343.18px 343.18px 343.18px 343.18px 343.18px 343.18px ">core between</tspan></text><text x="495.168px" y="343.18px" style="font-family:'LucidaGrande-Bold', 'Lucida Grande', sans-serif;font-weight:600;font-size:12px;">S<tspan x="501.642px " y="343.18px ">L</tspan></text><text x="513.612px" y="343.18px" style="font-family:'LucidaGrande-Bold', 'Lucida Grande', sans-serif;font-weight:600;font-size:12px;">1</text><text x="523.68px" y="343.18px" style="font-family:'LucidaGrande-Bold', 'Lucida Grande', sans-serif;font-weight:600;font-size:12px;">a<tspan x="530.354px 537.854px " y="343.18px 343.18px ">nd</tspan></text><text x="548.412px" y="343.18px" style="font-family:'LucidaGrande-Bold', 'Lucida Grande', sans-serif;font-weight:600;font-size:12px;">S<tspan x="554.886px " y="343.18px ">L</tspan></text><text x="566.856px" y="343.18px" style="font-family:'LucidaGrande-Bold', 'Lucida Grande', sans-serif;font-weight:600;font-size:12px;">2</text><text x="576.924px" y="343.18px" style="font-family:'LucidaGrande-Bold', 'Lucida Grande', sans-serif;font-weight:600;font-size:12px;">a<tspan x="583.598px 591.098px " y="343.18px 343.18px ">nd</tspan></text><text x="601.656px" y="343.18px" style="font-family:'LucidaGrande-Bold', 'Lucida Grande', sans-serif;font-weight:600;font-size:12px;">M<tspan x="612.168px 618.765px 622.339px " y="343.18px 343.18px 343.18px ">L 0</tspan></text><text x="632.112px" y="343.18px" style="font-family:'LucidaGrande-Bold', 'Lucida Grande', sans-serif;font-weight:600;font-size:12px;">a<tspan x="638.786px 646.286px " y="343.18px 343.18px ">nd</tspan></text><text x="656.928px" y="343.18px" style="font-family:'LucidaGrande-Bold', 'Lucida Grande', sans-serif;font-weight:600;font-size:12px;">M<tspan x="667.44px 674.037px 677.611px " y="343.18px 343.18px 343.18px ">L 1</tspan></text></g></svg>