<?xml version="1.0" encoding="UTF-8" standalone="no"?><!DOCTYPE svg PUBLIC "-//W3C//DTD SVG 1.1//EN" "http://www.w3.org/Graphics/SVG/1.1/DTD/svg11.dtd"><svg width="100%" height="100%" viewBox="0 0 1920 1080" version="1.1" xmlns="http://www.w3.org/2000/svg" xmlns:xlink="http://www.w3.org/1999/xlink" xml:space="preserve" xmlns:serif="http://www.serif.com/" style="fill-rule:evenodd;clip-rule:evenodd;stroke-miterlimit:10;"><g><g><path d="M236.334,448.387l720.732,0l0,39.432l-720.732,0l0,-39.432Z" style="fill:#e5e499;fill-rule:nonzero;"/><path d="M236.334,487.819l1445.85,0l0,433.754l-1445.85,0l0,-433.754Z" style="fill:#fffeab;fill-rule:nonzero;"/></g><g><clipPath id="_clip1"><rect x="234.144" y="446.197" width="1452.42" height="479.758"/></clipPath><g clip-path="url(#_clip1)"><path d="M236.334,448.387l720.732,0l0,39.432l-720.732,0l0,-39.432Z" style="fill:none;stroke:#b2b177;stroke-width:2.19px;"/></g><clipPath id="_clip2"><rect x="234.144" y="446.197" width="1452.42" height="479.758"/></clipPath><g clip-path="url(#_clip2)"><path d="M236.334,487.819l1445.85,0l0,433.754l-1445.85,0l0,-433.754Z" style="fill:none;stroke:#b2b177;stroke-width:2.19px;"/></g><text x="247.288px" y="479.057px" style="font-family:'LucidaGrande', 'Lucida Grande', sans-serif;font-weight:500;font-size:26.288px;">Geschäftsprozess</text><path d="M1261.57,500.964l394.321,0l0,52.576l-26.288,26.288l-368.033,0l0,-78.864Z" style="fill:#fff;fill-rule:nonzero;"/><clipPath id="_clip3"><rect x="1259.38" y="498.773" width="400.893" height="85.436"/></clipPath><g clip-path="url(#_clip3)"><path d="M1261.57,500.964l394.321,0l0,52.576l-26.288,26.288l-368.033,0l0,-78.864Z" style="fill:none;stroke:#b2b2b2;stroke-width:2.19px;"/></g><text x="1272.52px" y="538.205px" style="font-family:'LucidaGrande', 'Lucida Grande', sans-serif;font-weight:500;font-size:26.288px;">präventive Fehlervermeidung</text><path d="M1261.57,606.116l394.321,0l0,52.576l-26.288,26.288l-368.033,0l0,-78.864Z" style="fill:#fff;fill-rule:nonzero;"/><clipPath id="_clip4"><rect x="1259.38" y="603.925" width="400.893" height="85.436"/></clipPath><g clip-path="url(#_clip4)"><path d="M1261.57,606.116l394.321,0l0,52.576l-26.288,26.288l-368.033,0l0,-78.864Z" style="fill:none;stroke:#b2b2b2;stroke-width:2.19px;"/></g><text x="1272.52px" y="643.357px" style="font-family:'LucidaGrande', 'Lucida Grande', sans-serif;font-weight:500;font-size:26.288px;fill:#ff2600;">Produktivitätssteigerung</text><path d="M762.096,606.116l473.186,0l0,52.576l-26.288,26.288l-446.898,0l0,-78.864Z" style="fill:#fff;fill-rule:nonzero;"/><clipPath id="_clip5"><rect x="759.905" y="603.925" width="479.758" height="85.436"/></clipPath><g clip-path="url(#_clip5)"><path d="M762.096,606.116l473.186,0l0,52.576l-26.288,26.288l-446.898,0l0,-78.864Z" style="fill:none;stroke:#b2b2b2;stroke-width:2.19px;"/></g><text x="773.05px" y="643.357px" style="font-family:'LucidaGrande', 'Lucida Grande', sans-serif;font-weight:500;font-size:26.288px;">eﬃziente betriebliche Prozesse</text><path d="M762.096,500.964l473.186,0l0,52.576l-26.288,26.288l-446.898,0l0,-78.864Z" style="fill:#fff;fill-rule:nonzero;"/><clipPath id="_clip6"><rect x="759.905" y="498.773" width="479.758" height="85.436"/></clipPath><g clip-path="url(#_clip6)"><path d="M762.096,500.964l473.186,0l0,52.576l-26.288,26.288l-446.898,0l0,-78.864Z" style="fill:none;stroke:#b2b2b2;stroke-width:2.19px;"/></g><text x="773.05px" y="538.205px" style="font-family:'LucidaGrande', 'Lucida Grande', sans-serif;font-weight:500;font-size:26.288px;">Bessere u. aktuelle Entscheidungen</text><text x="773.05px" y="571.065px" style="font-family:'LucidaGrande', 'Lucida Grande', sans-serif;font-weight:500;font-size:26.288px;">durch Echtzeitdaten</text><path d="M1261.57,709.078l394.321,0l0,52.576l-26.288,26.288l-368.033,0l0,-78.864Z" style="fill:#fff;fill-rule:nonzero;"/><clipPath id="_clip7"><rect x="1259.38" y="706.887" width="400.893" height="85.436"/></clipPath><g clip-path="url(#_clip7)"><path d="M1261.57,709.078l394.321,0l0,52.576l-26.288,26.288l-368.033,0l0,-78.864Z" style="fill:none;stroke:#b2b2b2;stroke-width:2.19px;"/></g><text x="1272.52px" y="746.319px" style="font-family:'LucidaGrande', 'Lucida Grande', sans-serif;font-weight:500;font-size:26.288px;">Erhöhung der Transparenz</text><path d="M762.096,709.078l473.186,0l0,52.576l-26.288,26.288l-446.898,0l0,-78.864Z" style="fill:#fff;fill-rule:nonzero;"/><clipPath id="_clip8"><rect x="759.905" y="706.887" width="479.758" height="85.436"/></clipPath><g clip-path="url(#_clip8)"><path d="M762.096,709.078l473.186,0l0,52.576l-26.288,26.288l-446.898,0l0,-78.864Z" style="fill:none;stroke:#b2b2b2;stroke-width:2.19px;"/></g><text x="773.05px" y="746.319px" style="font-family:'LucidaGrande', 'Lucida Grande', sans-serif;font-weight:500;font-size:26.288px;">Verbesserung der</text><text x="773.05px" y="779.179px" style="font-family:'LucidaGrande', 'Lucida Grande', sans-serif;font-weight:500;font-size:26.288px;">Prozessdokumentation</text><path d="M262.622,500.964l473.186,0l0,105.152l-26.288,26.288l-446.898,0l0,-131.44Z" style="fill:#fff;fill-rule:nonzero;"/><clipPath id="_clip9"><rect x="260.432" y="498.773" width="479.758" height="138.012"/></clipPath><g clip-path="url(#_clip9)"><path d="M262.622,500.964l473.186,0l0,105.152l-26.288,26.288l-446.898,0l0,-131.44Z" style="fill:none;stroke:#b2b2b2;stroke-width:2.19px;"/></g><text x="273.576px" y="538.205px" style="font-family:'LucidaGrande', 'Lucida Grande', sans-serif;font-weight:500;font-size:26.288px;fill:#ff2600;">Verschlankung durch Vermeidung</text><text x="273.576px" y="571.065px" style="font-family:'LucidaGrande', 'Lucida Grande', sans-serif;font-weight:500;font-size:26.288px;fill:#ff2600;">von Verschwendung  (inkl.</text><text x="273.576px" y="603.925px" style="font-family:'LucidaGrande', 'Lucida Grande', sans-serif;font-weight:500;font-size:26.288px;fill:#ff2600;">Schnittstellen)</text><path d="M262.622,658.692l473.186,0l0,52.576l-26.288,26.288l-446.898,0l0,-78.864Z" style="fill:#fff;fill-rule:nonzero;"/><clipPath id="_clip10"><rect x="260.432" y="656.501" width="479.758" height="85.436"/></clipPath><g clip-path="url(#_clip10)"><path d="M262.622,658.692l473.186,0l0,52.576l-26.288,26.288l-446.898,0l0,-78.864Z" style="fill:none;stroke:#b2b2b2;stroke-width:2.19px;"/></g><text x="273.576px" y="695.934px" style="font-family:'LucidaGrande-Bold', 'Lucida Grande', sans-serif;font-weight:600;font-size:26.288px;fill:#ff2600;">Prozessautomation ermöglichen</text><path d="M762.096,816.421l473.186,0l0,52.576l-26.288,26.288l-446.898,0l0,-78.864Z" style="fill:#fff;fill-rule:nonzero;"/><clipPath id="_clip11"><rect x="759.905" y="814.23" width="479.758" height="85.436"/></clipPath><g clip-path="url(#_clip11)"><path d="M762.096,816.421l473.186,0l0,52.576l-26.288,26.288l-446.898,0l0,-78.864Z" style="fill:none;stroke:#b2b2b2;stroke-width:2.19px;"/></g><text x="773.05px" y="853.662px" style="font-family:'LucidaGrande', 'Lucida Grande', sans-serif;font-weight:500;font-size:26.288px;fill:#ff2600;">Verkürzung Durchlaufzeiten</text><path d="M262.622,763.844l473.186,0l0,52.577l-26.288,26.288l-446.898,0l0,-78.865Z" style="fill:#fff;fill-rule:nonzero;"/><clipPath id="_clip12"><rect x="260.432" y="761.654" width="479.758" height="85.436"/></clipPath><g clip-path="url(#_clip12)"><path d="M262.622,763.844l473.186,0l0,52.577l-26.288,26.288l-446.898,0l0,-78.865Z" style="fill:none;stroke:#b2b2b2;stroke-width:2.19px;"/></g><text x="273.576px" y="801.086px" style="font-family:'LucidaGrande', 'Lucida Grande', sans-serif;font-weight:500;font-size:26.288px;">Erfüllung Rückverfolgbarkeit</text><path d="M236.334,159.218l720.732,0l0,39.432l-720.732,0l0,-39.432Z" style="fill:#d7c69c;fill-rule:nonzero;"/><path d="M236.334,198.65l1445.85,0l0,223.449l-1445.85,0l0,-223.449Z" style="fill:#efdcae;fill-rule:nonzero;"/><clipPath id="_clip13"><rect x="234.144" y="157.028" width="1452.42" height="269.453"/></clipPath><g clip-path="url(#_clip13)"><path d="M236.334,159.218l720.732,0l0,39.432l-720.732,0l0,-39.432Z" style="fill:none;stroke:#a79a79;stroke-width:2.19px;"/></g><clipPath id="_clip14"><rect x="234.144" y="157.028" width="1452.42" height="269.453"/></clipPath><g clip-path="url(#_clip14)"><path d="M236.334,198.65l1445.85,0l0,223.449l-1445.85,0l0,-223.449Z" style="fill:none;stroke:#a79a79;stroke-width:2.19px;"/></g><text x="247.288px" y="189.888px" style="font-family:'LucidaGrande', 'Lucida Grande', sans-serif;font-weight:500;font-size:26.288px;">Strategie</text><path d="M262.622,316.947l473.186,0l0,52.576l-26.288,26.288l-446.898,0l0,-78.864Z" style="fill:#fff;fill-rule:nonzero;"/><clipPath id="_clip15"><rect x="260.432" y="314.756" width="479.758" height="85.436"/></clipPath><g clip-path="url(#_clip15)"><path d="M262.622,316.947l473.186,0l0,52.576l-26.288,26.288l-446.898,0l0,-78.864Z" style="fill:none;stroke:#b2b2b2;stroke-width:2.19px;"/></g><text x="273.576px" y="354.188px" style="font-family:'LucidaGrande', 'Lucida Grande', sans-serif;font-weight:500;font-size:26.288px;">Steigerung Kundenzufriedenheit</text><path d="M1261.57,316.947l394.321,0l0,52.576l-26.288,26.288l-368.033,0l0,-78.864Z" style="fill:#fff;fill-rule:nonzero;"/><clipPath id="_clip16"><rect x="1259.38" y="314.756" width="400.893" height="85.436"/></clipPath><g clip-path="url(#_clip16)"><path d="M1261.57,316.947l394.321,0l0,52.576l-26.288,26.288l-368.033,0l0,-78.864Z" style="fill:none;stroke:#b2b2b2;stroke-width:2.19px;"/></g><text x="1272.52px" y="354.188px" style="font-family:'LucidaGrande', 'Lucida Grande', sans-serif;font-weight:500;font-size:26.288px;">Verbesserte Qualität</text><path d="M762.096,316.947l473.186,0l0,52.576l-26.288,26.288l-446.898,0l0,-78.864Z" style="fill:#fff;fill-rule:nonzero;"/><clipPath id="_clip17"><rect x="759.905" y="314.756" width="479.758" height="85.436"/></clipPath><g clip-path="url(#_clip17)"><path d="M762.096,316.947l473.186,0l0,52.576l-26.288,26.288l-446.898,0l0,-78.864Z" style="fill:none;stroke:#b2b2b2;stroke-width:2.19px;"/></g><text x="773.05px" y="354.188px" style="font-family:'LucidaGrande', 'Lucida Grande', sans-serif;font-weight:500;font-size:26.288px;">Steigerung Flexibilität</text><path d="M762.096,211.795l473.186,0l0,52.576l-26.288,26.288l-446.898,0l0,-78.864Z" style="fill:#fff;fill-rule:nonzero;"/><clipPath id="_clip18"><rect x="759.905" y="209.604" width="479.758" height="85.436"/></clipPath><g clip-path="url(#_clip18)"><path d="M762.096,211.795l473.186,0l0,52.576l-26.288,26.288l-446.898,0l0,-78.864Z" style="fill:none;stroke:#b2b2b2;stroke-width:2.19px;"/></g><text x="773.05px" y="249.036px" style="font-family:'LucidaGrande', 'Lucida Grande', sans-serif;font-weight:500;font-size:26.288px;fill:#ff2600;">Individuelle Wettbewerbsfähigkeit</text><clipPath id="_clip19"><rect x="770.859" y="220.557" width="435.944" height="63.53"/></clipPath><g clip-path="url(#_clip19)"><text x="773.05px" y="281.896px" style="font-family:'LucidaGrande', 'Lucida Grande', sans-serif;font-weight:500;font-size:26.288px;fill:#ff2600;">steigern</text></g></g></g></svg>