<?xml version="1.0" standalone="no"?>
<!DOCTYPE svg PUBLIC "-//W3C//DTD SVG 1.1//EN"
  "http://www.w3.org/Graphics/SVG/1.1/DTD/svg11.dtd">
<svg version="1.1" xmlns="http://www.w3.org/2000/svg" xmlns:xlink="http://www.w3.org/1999/xlink" width="2560" height="1440" viewBox="-1040.8888888888887 -32 1889.7777777777776 1063" id="ccdiagram"><filter id="grayscale"><feColorMatrix type="matrix" values="0.3333 0.3333 0.3333 0 0 0.3333 0.3333 0.3333 0 0 0.3333 0.3333 0.3333 0 0 0 0 0 1 0"></feColorMatrix></filter><defs><style type="text/css">@import url('https://fonts.googleapis.com/css?family=Open+Sans:400,700|Inconsolata:400');</style></defs><g><g pointer-events="auto"><g opacity="1"><g><g><polygon points="-608 500, -416 611, -416 648, -544 722, -608 722, -800 611, -800 574, -672 500" fill="#ffeb3b" stroke-width="2" stroke="#818181"></polygon><polygon points="-640 518, -448 629, -576 703, -768 592" fill="#e6e7e8" stroke-width="0" stroke="#818181"></polygon></g></g></g><g opacity="1"><g><g><polygon points="-384 666, -320 703, -320 740, -384 777, -448 777, -512 740, -512 703, -448 666" fill="#ffffff" stroke-width="2" stroke="#818181"></polygon><polygon points="-416 685, -352 722, -416 759, -480 722" fill="#e6e7e8" stroke-width="0" stroke="#818181"></polygon></g></g></g><g opacity="1"><g><g><polygon points="-240 749, -176 786, -176 823, -240 860, -304 860, -368 823, -368 786, -304 749" fill="#ffffff" stroke-width="2" stroke="#818181"></polygon><polygon points="-272 768, -208 805, -272 842, -336 805" fill="#e6e7e8" stroke-width="0" stroke="#818181"></polygon></g></g></g><g opacity="1"><g><g><polygon points="-112 823, -48 860, -48 897, -112 934, -176 934, -240 897, -240 860, -176 823" fill="#ffffff" stroke-width="2" stroke="#818181"></polygon><polygon points="-144 842, -80 879, -144 916, -208 879" fill="#e6e7e8" stroke-width="0" stroke="#818181"></polygon></g></g></g><g opacity="1"><g><g><polygon points="32 130, 608 463, 608 500, 256 703, 192 703, -384 370, -384 333, -32 130" fill="#e8ebef" stroke-width="2" stroke="#818181"></polygon><polygon points="0 148, 576 481, 224 685, -352 352" fill="#e6e7e8" stroke-width="0" stroke="#818181"></polygon></g></g></g><g opacity="1"><g><g><polygon points="-416 389, 160 722, 160 759, 32 833, -32 833, -608 500, -608 463, -480 389" fill="#ffeb3b" stroke-width="2" stroke="#818181"></polygon><polygon points="-448 407, 128 740, 0 814, -576 481" fill="#e6e7e8" stroke-width="0" stroke="#818181"></polygon></g></g></g></g><g pointer-events="auto"></g><g></g><g pointer-events="auto"></g><g></g><g pointer-events="auto"></g><g pointer-events="none"></g><g pointer-events="auto"><g><g cursor="cell"><line x1="-144" y1="472" x2="-352" y2="333" stroke="red" stroke-width="11" opacity="0"></line><line x1="-144" y1="472" x2="-352" y2="333" stroke="#03a9f4" stroke-width="5" stroke-linecap="round"></line></g></g><g><g cursor="cell"><line x1="-240" y1="786" x2="-144" y2="731" stroke="red" stroke-width="11" opacity="0"></line><line x1="-240" y1="786" x2="-144" y2="731" stroke="#4caf50" stroke-width="5" stroke-linecap="round"></line></g></g><g><g cursor="cell"><line x1="-320" y1="370" x2="-352" y2="333" stroke="red" stroke-width="11" opacity="0"></line><line x1="-320" y1="370" x2="-352" y2="333" stroke="#03a9f4" stroke-width="5" stroke-linecap="round"></line></g></g><g><g cursor="cell"><line x1="-576" y1="518" x2="-464" y2="453" stroke="red" stroke-width="11" opacity="0"></line><line x1="-576" y1="518" x2="-464" y2="453" stroke="#03a9f4" stroke-width="5" stroke-linecap="round"></line></g></g><g><g cursor="cell"><line x1="-112" y1="860" x2="192" y2="666" stroke="red" stroke-width="11" opacity="0"></line><line x1="-112" y1="860" x2="192" y2="666" stroke="#03a9f4" stroke-width="5" stroke-linecap="round"></line></g></g><g><g cursor="cell"><line x1="-256" y1="500" x2="-163" y2="475" stroke="red" stroke-width="11" opacity="0"></line><line x1="-256" y1="500" x2="-163" y2="475" stroke="#03a9f4" stroke-width="5" stroke-linecap="round"></line></g></g><g><g cursor="cell"><line x1="-288" y1="574" x2="-256" y2="592" stroke="red" stroke-width="11" opacity="0"></line><line x1="-288" y1="574" x2="-256" y2="592" stroke="#000000" stroke-width="5" stroke-linecap="round"></line></g></g><g><g cursor="cell"><line x1="-163" y1="475" x2="-144" y2="472" stroke="red" stroke-width="11" opacity="0"></line><line x1="-163" y1="475" x2="-144" y2="472" stroke="#03a9f4" stroke-width="5" stroke-linecap="round"></line></g></g><g><g cursor="cell"><line x1="-256" y1="592" x2="-208" y2="620" stroke="red" stroke-width="11" opacity="0"></line><line x1="-256" y1="592" x2="-208" y2="620" stroke="#000000" stroke-width="5" stroke-linecap="round"></line></g></g><g><g cursor="cell"><line x1="-608" y1="648" x2="-624" y2="583" stroke="red" stroke-width="11" opacity="0"></line><line x1="-608" y1="648" x2="-624" y2="583" stroke="#000000" stroke-width="5" stroke-linecap="round"></line></g></g><g><g cursor="cell"><line x1="16" y1="638" x2="80" y2="601" stroke="red" stroke-width="11" opacity="0"></line><line x1="16" y1="638" x2="80" y2="601" stroke="#03a9f4" stroke-width="5" stroke-linecap="round"></line></g></g><g><g cursor="cell"><line x1="-416" y1="500" x2="-592" y2="564" stroke="red" stroke-width="11" opacity="0"></line><line x1="-416" y1="500" x2="-592" y2="564" stroke="#03a9f4" stroke-width="5" stroke-linecap="round"></line></g></g><g><g cursor="cell"><line x1="-384" y1="703" x2="-144" y2="731" stroke="red" stroke-width="11" opacity="0"></line><line x1="-384" y1="703" x2="-144" y2="731" stroke="#03a9f4" stroke-width="5" stroke-linecap="round"></line></g></g><g><g cursor="cell"><line x1="-464" y1="453" x2="-320" y2="370" stroke="red" stroke-width="11" opacity="0"></line><line x1="-464" y1="453" x2="-320" y2="370" stroke="#03a9f4" stroke-width="5" stroke-linecap="round"></line></g></g><g><g cursor="cell"><line x1="-192" y1="592" x2="-208" y2="620" stroke="red" stroke-width="11" opacity="0"></line><line x1="-192" y1="592" x2="-208" y2="620" stroke="#000000" stroke-width="5" stroke-linecap="round"></line></g></g><g><g cursor="cell"><line x1="-672" y1="574" x2="-640" y2="555" stroke="red" stroke-width="11" opacity="0"></line><line x1="-672" y1="574" x2="-640" y2="555" stroke="#000000" stroke-width="5" stroke-linecap="round"></line></g></g><g><g cursor="cell"><line x1="-144" y1="731" x2="-144" y2="731" stroke="red" stroke-width="11" opacity="0"></line><line x1="-144" y1="731" x2="-144" y2="731" stroke="#4caf50" stroke-width="5" stroke-linecap="round"></line></g></g><g><g cursor="cell"><line x1="-624" y1="583" x2="-640" y2="555" stroke="red" stroke-width="11" opacity="0"></line><line x1="-624" y1="583" x2="-640" y2="555" stroke="#000000" stroke-width="5" stroke-linecap="round"></line></g></g><g><g cursor="cell"><line x1="-608" y1="611" x2="-640" y2="555" stroke="red" stroke-width="12" opacity="0"></line><line x1="-608" y1="611" x2="-640" y2="555" stroke="#000000" stroke-width="6" stroke-linecap="round"></line></g></g></g><g pointer-events="auto"><g opacity="1"><g id="9e1d8c53-c72c-4fdd-bc42-cc4afb74fe9a" transform="translate(0 0)"><svg x="312" y="127" height="95.068" width="63" viewBox="0 0 16.669 25.153"><path d="M16.668 22.903q0 1.64-.864 2.091-.865.451-2.297-.376L3.161 18.645q-1.433-.827-2.297-2.276Q.001 14.921 0 13.28q0-.723.042-1.39.042-.666.166-1.394.124-.727.313-1.302.19-.575.51-1.039.319-.464.733-.683.414-.22 1.012-.147.598.073 1.32.49.107.06.497.58.391.52.882 1.165.491.646 1.279 1.394.788.75 1.58 1.207.793.458 1.58.618.788.161 1.28.083.49-.079.881-.147.39-.069.497-.007.722.416 1.32 1.035.598.619 1.013 1.315.414.697.734 1.531t.509 1.627q.19.793.313 1.664.124.872.166 1.586.042.713.042 1.438zM12.88 8.51q0 2.173-1.332 2.942-1.332.769-3.214-.318-1.882-1.086-3.214-3.393Q3.79 5.434 3.79 3.26q0-2.173 1.331-2.942 1.332-.77 3.214.317t3.214 3.394q1.332 2.306 1.332 4.48z" fill="#000" stroke="#000000" stroke-width=".268"></path></svg></g></g><g opacity="1"><g id="4cad6a5c-168a-4d31-bb31-915e5514ab64" transform="translate(0 0)"><g><polygon points="128 222, 320 333, 256 370, 64 259" fill="#ececed"></polygon><polygon points="64 296, 256 407, 256 370, 64 259" fill="#d2d2d4" stroke="#83838a"></polygon><polygon points="256 407, 320 370, 320 333, 256 370" fill="#b8b8bb" stroke="#83838a"></polygon><polygon points="128 222, 64 259, 64 296, 256 407, 320 370, 320 333" fill="none" stroke="#000000" stroke-width="2"></polygon></g></g></g><g opacity="1"><g id="a7f2ea7f-7421-4f74-90ac-35520b81f519" transform="translate(0 0)"><g><polygon points="320 333, 544 463, 480 500, 256 370" fill="#ececed"></polygon><polygon points="256 407, 480 537, 480 500, 256 370" fill="#d2d2d4" stroke="#83838a"></polygon><polygon points="480 537, 544 500, 544 463, 480 500" fill="#b8b8bb" stroke="#83838a"></polygon><polygon points="320 333, 256 370, 256 407, 480 537, 544 500, 544 463" fill="none" stroke="#000000" stroke-width="2"></polygon></g></g></g><g opacity="1"><g id="a6a40c46-7197-4bb8-bbde-e59db446ba62" transform="translate(0 0)"><g><polygon points="160 315, 480 500, 384 555, 64 370" fill="#ececed"></polygon><polygon points="64 407, 384 592, 384 555, 64 370" fill="#d2d2d4" stroke="#83838a"></polygon><polygon points="384 592, 480 537, 480 500, 384 555" fill="#b8b8bb" stroke="#83838a"></polygon><polygon points="160 315, 64 370, 64 407, 384 592, 480 537, 480 500" fill="none" stroke="#000000" stroke-width="2"></polygon></g></g></g><g opacity="1"><g id="55013121-78d0-4afc-82ee-2dddadcad546" transform="translate(0 0)"><g><polygon points="64 370, 128 407, 0 481, -64 444" fill="#ececed"></polygon><polygon points="-64 481, 0 518, 0 481, -64 444" fill="#d2d2d4" stroke="#83838a"></polygon><polygon points="0 518, 128 444, 128 407, 0 481" fill="#b8b8bb" stroke="#83838a"></polygon><polygon points="64 370, -64 444, -64 481, 0 518, 128 444, 128 407" fill="none" stroke="#000000" stroke-width="2"></polygon></g></g></g><g opacity="1"><g id="f7ccc667-3f78-432b-a411-8aba618bb72b" transform="translate(0 0)"><g><polygon points="320 518, 384 555, 256 629, 192 592" fill="#ececed"></polygon><polygon points="192 629, 256 666, 256 629, 192 592" fill="#d2d2d4" stroke="#83838a"></polygon><polygon points="256 666, 384 592, 384 555, 256 629" fill="#b8b8bb" stroke="#83838a"></polygon><polygon points="320 518, 192 592, 192 629, 256 666, 384 592, 384 555" fill="none" stroke="#000000" stroke-width="2"></polygon></g></g></g><g opacity="1"><g id="2932d020-2feb-43a8-a3a1-21209bb7c849" transform="translate(0 0)"><svg x="-584" y="71" height="95.068" width="63" viewBox="0 0 16.669 25.153"><path d="M16.668 22.903q0 1.64-.864 2.091-.865.451-2.297-.376L3.161 18.645q-1.433-.827-2.297-2.276Q.001 14.921 0 13.28q0-.723.042-1.39.042-.666.166-1.394.124-.727.313-1.302.19-.575.51-1.039.319-.464.733-.683.414-.22 1.012-.147.598.073 1.32.49.107.06.497.58.391.52.882 1.165.491.646 1.279 1.394.788.75 1.58 1.207.793.458 1.58.618.788.161 1.28.083.49-.079.881-.147.39-.069.497-.007.722.416 1.32 1.035.598.619 1.013 1.315.414.697.734 1.531t.509 1.627q.19.793.313 1.664.124.872.166 1.586.042.713.042 1.438zM12.88 8.51q0 2.173-1.332 2.942-1.332.769-3.214-.318-1.882-1.086-3.214-3.393Q3.79 5.434 3.79 3.26q0-2.173 1.331-2.942 1.332-.77 3.214.317t3.214 3.394q1.332 2.306 1.332 4.48z" fill="#000" stroke="#000000" stroke-width=".268"></path></svg></g></g><g opacity="1"><g id="56d58817-3d39-4b83-ac8c-68b4f88aad5c" transform="translate(0 0)"><g><polygon points="-320 296, 256 629, 224 648, -352 315" fill="#ececed"></polygon><polygon points="-352 352, 224 685, 224 648, -352 315" fill="#d2d2d4" stroke="#83838a"></polygon><polygon points="224 685, 256 666, 256 629, 224 648" fill="#b8b8bb" stroke="#83838a"></polygon><polygon points="-320 296, -352 315, -352 352, 224 685, 256 666, 256 629" fill="none" stroke="#000000" stroke-width="2"></polygon></g></g></g><g opacity="1"><g id="265f075d-ca66-4978-a282-48f8e7b1886f" transform="translate(0 0)"><g><polygon points="-432 268, -368 305, -432 342, -496 305" fill="#ececed"></polygon><polygon points="-496 379, -432 416, -432 342, -496 305" fill="#d2d2d4" stroke="#83838a"></polygon><polygon points="-432 416, -368 379, -368 305, -432 342" fill="#b8b8bb" stroke="#83838a"></polygon><polygon points="-432 268, -496 305, -496 379, -432 416, -368 379, -368 305" fill="none" stroke="#000000" stroke-width="2"></polygon></g></g></g><g opacity="1"><g id="ed3d4d52-2de6-4d9c-a0fa-409c0ffa037e" transform="translate(0 0)"><svg x="168" y="728" height="95.068" width="63" viewBox="0 0 16.669 25.153"><path d="M16.668 22.903q0 1.64-.864 2.091-.865.451-2.297-.376L3.161 18.645q-1.433-.827-2.297-2.276Q.001 14.921 0 13.28q0-.723.042-1.39.042-.666.166-1.394.124-.727.313-1.302.19-.575.51-1.039.319-.464.733-.683.414-.22 1.012-.147.598.073 1.32.49.107.06.497.58.391.52.882 1.165.491.646 1.279 1.394.788.75 1.58 1.207.793.458 1.58.618.788.161 1.28.083.49-.079.881-.147.39-.069.497-.007.722.416 1.32 1.035.598.619 1.013 1.315.414.697.734 1.531t.509 1.627q.19.793.313 1.664.124.872.166 1.586.042.713.042 1.438zM12.88 8.51q0 2.173-1.332 2.942-1.332.769-3.214-.318-1.882-1.086-3.214-3.393Q3.79 5.434 3.79 3.26q0-2.173 1.331-2.942 1.332-.77 3.214.317t3.214 3.394q1.332 2.306 1.332 4.48z" fill="#000" stroke="#000000" stroke-width=".268"></path></svg></g></g><g opacity="1"><g id="d3b55fff-c151-4a85-a836-46833d2b3a72" transform="translate(0 0)"><g><polygon points="-128 555, 96 685, 32 722, -192 592" fill="#ececed"></polygon><polygon points="-192 629, 32 759, 32 722, -192 592" fill="#d2d2d4" stroke="#83838a"></polygon><polygon points="32 759, 96 722, 96 685, 32 722" fill="#b8b8bb" stroke="#83838a"></polygon><polygon points="-128 555, -192 592, -192 629, 32 759, 96 722, 96 685" fill="none" stroke="#000000" stroke-width="2"></polygon></g></g></g><g opacity="1"><g id="d32b1f50-a311-45ec-8f34-e3f9f295e2da" transform="translate(0 0)"><g><polygon points="-336 453, -240 509, -336 564, -432 509" fill="#ececed"></polygon><polygon points="-432 546, -336 601, -336 564, -432 509" fill="#d2d2d4" stroke="#83838a"></polygon><polygon points="-336 601, -240 546, -240 509, -336 564" fill="#b8b8bb" stroke="#83838a"></polygon><polygon points="-336 453, -432 509, -432 546, -336 601, -240 546, -240 509" fill="none" stroke="#000000" stroke-width="2"></polygon></g></g></g><g opacity="1"><g id="685776f9-76db-4240-856f-067e3cf8a934" transform="translate(0 0)"><g><polygon points="-192 592, 32 722, -32 759, -256 629" fill="#ececed"></polygon><polygon points="-256 666, -32 796, -32 759, -256 629" fill="#d2d2d4" stroke="#83838a"></polygon><polygon points="-32 796, 32 759, 32 722, -32 759" fill="#b8b8bb" stroke="#83838a"></polygon><polygon points="-192 592, -256 629, -256 666, -32 796, 32 759, 32 722" fill="none" stroke="#000000" stroke-width="2"></polygon></g></g></g><g opacity="1"><g id="075af8d0-e830-4908-93a8-0a3baff5b401" transform="translate(0 0)"><g><polygon points="-640 481, -576 518, -608 537, -672 500" fill="#ececed"></polygon><polygon points="-672 537, -608 574, -608 537, -672 500" fill="#d2d2d4" stroke="#83838a"></polygon><polygon points="-608 574, -576 555, -576 518, -608 537" fill="#b8b8bb" stroke="#83838a"></polygon><polygon points="-640 481, -672 500, -672 537, -608 574, -576 555, -576 518" fill="none" stroke="#000000" stroke-width="2"></polygon></g></g></g><g opacity="1"><g id="d0b51983-0380-4d22-a284-01cb6dfbcbdd" transform="translate(0 0)"><svg x="-56" y="876" height="95.068" width="63" viewBox="0 0 16.669 25.153"><path d="M16.668 22.903q0 1.64-.864 2.091-.865.451-2.297-.376L3.161 18.645q-1.433-.827-2.297-2.276Q.001 14.921 0 13.28q0-.723.042-1.39.042-.666.166-1.394.124-.727.313-1.302.19-.575.51-1.039.319-.464.733-.683.414-.22 1.012-.147.598.073 1.32.49.107.06.497.58.391.52.882 1.165.491.646 1.279 1.394.788.75 1.58 1.207.793.458 1.58.618.788.161 1.28.083.49-.079.881-.147.39-.069.497-.007.722.416 1.32 1.035.598.619 1.013 1.315.414.697.734 1.531t.509 1.627q.19.793.313 1.664.124.872.166 1.586.042.713.042 1.438zM12.88 8.51q0 2.173-1.332 2.942-1.332.769-3.214-.318-1.882-1.086-3.214-3.393Q3.79 5.434 3.79 3.26q0-2.173 1.331-2.942 1.332-.77 3.214.317t3.214 3.394q1.332 2.306 1.332 4.48z" fill="#000" stroke="#000000" stroke-width=".268"></path></svg></g></g><g opacity="1"><g id="8989daf5-0ad4-422e-bc61-94e5bdec720f" transform="translate(0 0)"><g><polygon points="-416 666, -384 685, -416 703, -448 685" fill="#ececed"></polygon><polygon points="-448 722, -416 740, -416 703, -448 685" fill="#d2d2d4" stroke="#83838a"></polygon><polygon points="-416 740, -384 722, -384 685, -416 703" fill="#b8b8bb" stroke="#83838a"></polygon><polygon points="-416 666, -448 685, -448 722, -416 740, -384 722, -384 685" fill="none" stroke="#000000" stroke-width="2"></polygon></g></g></g><g opacity="1"><g id="466f7188-7aee-45ec-b89a-3d1368b10cee" transform="translate(0 0)"><g><polygon points="-272 749, -240 768, -272 786, -304 768" fill="#ececed"></polygon><polygon points="-304 805, -272 823, -272 786, -304 768" fill="#d2d2d4" stroke="#83838a"></polygon><polygon points="-272 823, -240 805, -240 768, -272 786" fill="#b8b8bb" stroke="#83838a"></polygon><polygon points="-272 749, -304 768, -304 805, -272 823, -240 805, -240 768" fill="none" stroke="#000000" stroke-width="2"></polygon></g></g></g><g opacity="1"><g id="365ea955-b826-4d0c-b251-619b170d1f34" transform="translate(0 0)"><g><polygon points="-144 823, -112 842, -144 860, -176 842" fill="#ececed"></polygon><polygon points="-176 879, -144 897, -144 860, -176 842" fill="#d2d2d4" stroke="#83838a"></polygon><polygon points="-144 897, -112 879, -112 842, -144 860" fill="#b8b8bb" stroke="#83838a"></polygon><polygon points="-144 823, -176 842, -176 879, -144 897, -112 879, -112 842" fill="none" stroke="#000000" stroke-width="2"></polygon></g></g></g><g opacity="1"><g id="50d6b982-f269-422c-b5cd-e8042352657b" transform="translate(0 0)"><g><polygon points="-704 537, -672 555, -704 574, -736 555" fill="#ececed"></polygon><polygon points="-736 592, -704 611, -704 574, -736 555" fill="#d2d2d4" stroke="#83838a"></polygon><polygon points="-704 611, -672 592, -672 555, -704 574" fill="#b8b8bb" stroke="#83838a"></polygon><polygon points="-704 537, -736 555, -736 592, -704 611, -672 592, -672 555" fill="none" stroke="#000000" stroke-width="2"></polygon></g></g></g><g opacity="1"><g id="113eb897-af91-40de-aaaf-5d98e286dab4" transform="translate(0 0)"><g><polygon points="-640 574, -608 592, -640 611, -672 592" fill="#ececed"></polygon><polygon points="-672 629, -640 648, -640 611, -672 592" fill="#d2d2d4" stroke="#83838a"></polygon><polygon points="-640 648, -608 629, -608 592, -640 611" fill="#b8b8bb" stroke="#83838a"></polygon><polygon points="-640 574, -672 592, -672 629, -640 648, -608 629, -608 592" fill="none" stroke="#000000" stroke-width="2"></polygon></g></g></g><g opacity="1"><g id="c7020b9c-6dc7-48eb-9157-68dd7a282db7" transform="translate(0 0)"><g><polygon points="-576 611, -544 629, -576 648, -608 629" fill="#ececed"></polygon><polygon points="-608 666, -576 685, -576 648, -608 629" fill="#d2d2d4" stroke="#83838a"></polygon><polygon points="-576 685, -544 666, -544 629, -576 648" fill="#b8b8bb" stroke="#83838a"></polygon><polygon points="-576 611, -608 629, -608 666, -576 685, -544 666, -544 629" fill="none" stroke="#000000" stroke-width="2"></polygon></g></g></g></g><g pointer-events="auto"></g><g pointer-events="auto"><g opacity="1"><g id="05db7475-6d34-4179-a058-877777350f5f" transform="translate(0 0)"><svg x="384" y="389" overflow="visible"><g transform="scale(0.8944271909999159) matrix(0.707 0.409 -0.707 0.409 0 0)"><circle cx="0" cy="0" fill="#000000" r="25.5"></circle><svg width="37" height="32" x="-18.5" y="-16" style="fill: rgb(255, 255, 255);"><svg xmlns="http://www.w3.org/2000/svg" width="37" height="32" viewBox="0 0 37 32"><path d="M18.286 27.196c-.464 0-2.964-2.5-2.964-2.982 0-.875 2.286-1.357 2.964-1.357s2.964.482 2.964 1.357c0 .482-2.5 2.982-2.964 2.982zm4.821-4.839c-.25 0-2.196-1.786-4.821-1.786-2.643 0-4.554 1.786-4.821 1.786-.429 0-3.018-2.571-3.018-3 0-.161.071-.304.179-.411C12.537 17.053 15.644 16 18.287 16s5.75 1.054 7.661 2.946c.107.107.179.25.179.411 0 .429-2.589 3-3.018 3zm4.875-4.857a.805.805 0 0 1-.411-.143c-2.946-2.286-5.429-3.643-9.286-3.643-5.393 0-9.5 3.786-9.696 3.786-.411 0-2.982-2.571-2.982-3a.57.57 0 0 1 .179-.393c3.196-3.196 8.018-4.964 12.5-4.964s9.304 1.768 12.5 4.964c.107.107.179.25.179.393 0 .429-2.571 3-2.982 3zm4.839-4.839a.638.638 0 0 1-.393-.161c-4.125-3.625-8.571-5.643-14.143-5.643S8.267 8.875 4.142 12.5a.644.644 0 0 1-.393.161c-.411 0-3-2.571-3-3 0-.161.071-.304.179-.411 4.518-4.482 11.036-6.964 17.357-6.964S31.124 4.768 35.642 9.25c.107.107.179.25.179.411 0 .429-2.589 3-3 3z"></path></svg></svg></g></svg></g></g><g opacity="1"><g id="57be4c4f-b3b0-4af6-a7ed-22425f2f9c63" transform="translate(0 0)"><svg x="-256" y="611" overflow="visible"><g transform="scale(0.8944271909999159) matrix(0.707 0.409 -0.707 0.409 0 0)"><circle cx="0" cy="0" fill="#000000" r="23"></circle><svg width="27" height="32" x="-13.5" y="-16" style="fill: rgb(255, 255, 255);"><svg xmlns="http://www.w3.org/2000/svg" width="27" height="32" viewBox="0 0 27 32"><path d="M26.214 6.786c.661.661 1.214 1.982 1.214 2.929v20.571c0 .946-.768 1.714-1.714 1.714h-24A1.715 1.715 0 0 1 0 30.286V1.715C0 .769.768.001 1.714.001h16c.946 0 2.268.554 2.929 1.214zm-7.928-4.357v6.714H25c-.107-.304-.268-.607-.393-.732l-5.589-5.589c-.125-.125-.429-.286-.732-.393zm6.857 27.285V11.428h-7.429A1.715 1.715 0 0 1 16 9.714V2.285H2.286v27.429h22.857zm-16.572-16a.571.571 0 0 1 .804-.107l.911.679c.25.196.304.554.107.804l-3.25 4.339 3.25 4.339a.572.572 0 0 1-.107.804l-.911.679a.572.572 0 0 1-.804-.107l-4.036-5.375a.591.591 0 0 1 0-.679zm14.322 5.375a.591.591 0 0 1 0 .679l-4.036 5.375a.571.571 0 0 1-.804.107l-.911-.679a.571.571 0 0 1-.107-.804l3.25-4.339-3.25-4.339a.572.572 0 0 1 .107-.804l.911-.679a.572.572 0 0 1 .804.107zm-11.072 8.232a.567.567 0 0 1-.464-.661l2.464-14.839a.567.567 0 0 1 .661-.464l1.125.179a.567.567 0 0 1 .464.661l-2.464 14.839a.567.567 0 0 1-.661.464z"></path></svg></svg></g></svg></g></g><g opacity="1"><g id="095447ae-cb83-45a2-bb59-d20d99c3b4e1" transform="translate(0 0)"><svg x="-224" y="592" overflow="visible"><g transform="scale(0.8944271909999159) matrix(0.707 0.409 -0.707 0.409 0 0)"><circle cx="0" cy="0" fill="#000000" r="23"></circle><svg width="27" height="32" x="-13.5" y="-16" style="fill: rgb(255, 255, 255);"><svg xmlns="http://www.w3.org/2000/svg" width="27" height="32" viewBox="0 0 27 32"><path d="M26.214 6.786c.661.661 1.214 1.982 1.214 2.929v20.571c0 .946-.768 1.714-1.714 1.714h-24A1.715 1.715 0 0 1 0 30.286V1.715C0 .769.768.001 1.714.001h16c.946 0 2.268.554 2.929 1.214zm-7.928-4.357v6.714H25c-.107-.304-.268-.607-.393-.732l-5.589-5.589c-.125-.125-.429-.286-.732-.393zm6.857 27.285V11.428h-7.429A1.715 1.715 0 0 1 16 9.714V2.285H2.286v27.429h22.857zM6.857 14.286c0-.321.25-.571.571-.571h12.571c.321 0 .571.25.571.571v1.143c0 .321-.25.571-.571.571H7.428a.564.564 0 0 1-.571-.571v-1.143zm13.143 4c.321 0 .571.25.571.571V20c0 .321-.25.571-.571.571H7.429A.564.564 0 0 1 6.858 20v-1.143c0-.321.25-.571.571-.571H20zm0 4.571c.321 0 .571.25.571.571v1.143c0 .321-.25.571-.571.571H7.429a.564.564 0 0 1-.571-.571v-1.143c0-.321.25-.571.571-.571H20z"></path></svg></svg></g></svg></g></g><g opacity="1"><g id="06515e51-4631-40d9-8c2c-be6e07a719bd" transform="translate(0 0)"><svg x="-736" y="611" overflow="visible"><g transform="scale(0.8944271909999159) matrix(0.707 0.409 -0.707 0.409 0 0)"><circle cx="0" cy="0" fill="#000000" r="23"></circle><svg width="27" height="32" x="-13.5" y="-16" style="fill: rgb(255, 255, 255);"><svg xmlns="http://www.w3.org/2000/svg" width="27" height="32" viewBox="0 0 27 32"><path d="M27.429 16c0 7.554-6.161 13.714-13.714 13.714S.001 23.553.001 16c0-4.339 2-8.339 5.482-10.946a2.262 2.262 0 0 1 3.196.446c.768 1 .554 2.446-.446 3.196-2.321 1.75-3.661 4.411-3.661 7.304 0 5.036 4.107 9.143 9.143 9.143s9.143-4.107 9.143-9.143c0-2.893-1.339-5.554-3.661-7.304-1-.75-1.214-2.196-.446-3.196a2.263 2.263 0 0 1 3.196-.446A13.575 13.575 0 0 1 27.429 16zM16 2.286v11.429c0 1.25-1.036 2.286-2.286 2.286s-2.286-1.036-2.286-2.286V2.286c0-1.25 1.036-2.286 2.286-2.286S16 1.036 16 2.286z"></path></svg></svg></g></svg></g></g><g opacity="1"><g id="30fae8fb-c5fa-4c21-8ca7-e90f1589874b" transform="translate(0 0)"><svg x="-672" y="648" overflow="visible"><g transform="scale(0.8944271909999159) matrix(0.707 0.409 -0.707 0.409 0 0)"><circle cx="0" cy="0" fill="#000000" r="23"></circle><svg width="27" height="32" x="-13.5" y="-16" style="fill: rgb(255, 255, 255);"><svg xmlns="http://www.w3.org/2000/svg" width="27" height="32" viewBox="0 0 27 32"><path d="M27.429 16c0 7.554-6.161 13.714-13.714 13.714S.001 23.553.001 16c0-4.339 2-8.339 5.482-10.946a2.262 2.262 0 0 1 3.196.446c.768 1 .554 2.446-.446 3.196-2.321 1.75-3.661 4.411-3.661 7.304 0 5.036 4.107 9.143 9.143 9.143s9.143-4.107 9.143-9.143c0-2.893-1.339-5.554-3.661-7.304-1-.75-1.214-2.196-.446-3.196a2.263 2.263 0 0 1 3.196-.446A13.575 13.575 0 0 1 27.429 16zM16 2.286v11.429c0 1.25-1.036 2.286-2.286 2.286s-2.286-1.036-2.286-2.286V2.286c0-1.25 1.036-2.286 2.286-2.286S16 1.036 16 2.286z"></path></svg></svg></g></svg></g></g><g opacity="1"><g id="3f235507-3826-4256-ab04-55c0531df399" transform="translate(0 0)"><svg x="-608" y="685" overflow="visible"><g transform="scale(0.8944271909999159) matrix(0.707 0.409 -0.707 0.409 0 0)"><circle cx="0" cy="0" fill="#000000" r="23"></circle><svg width="27" height="32" x="-13.5" y="-16" style="fill: rgb(255, 255, 255);"><svg xmlns="http://www.w3.org/2000/svg" width="27" height="32" viewBox="0 0 27 32"><path d="M27.429 16c0 7.554-6.161 13.714-13.714 13.714S.001 23.553.001 16c0-4.339 2-8.339 5.482-10.946a2.262 2.262 0 0 1 3.196.446c.768 1 .554 2.446-.446 3.196-2.321 1.75-3.661 4.411-3.661 7.304 0 5.036 4.107 9.143 9.143 9.143s9.143-4.107 9.143-9.143c0-2.893-1.339-5.554-3.661-7.304-1-.75-1.214-2.196-.446-3.196a2.263 2.263 0 0 1 3.196-.446A13.575 13.575 0 0 1 27.429 16zM16 2.286v11.429c0 1.25-1.036 2.286-2.286 2.286s-2.286-1.036-2.286-2.286V2.286c0-1.25 1.036-2.286 2.286-2.286S16 1.036 16 2.286z"></path></svg></svg></g></svg></g></g><g opacity="1"><g id="c2ce32ea-b65e-4626-be52-ae5ea0e643f3" transform="translate(0 0)"><svg x="-304" y="823" overflow="visible"><g transform="scale(0.8944271909999159) matrix(0.707 0.409 -0.707 0.409 0 0)"><circle cx="0" cy="0" fill="#000000" r="23"></circle><svg width="27" height="32" x="-13.5" y="-16" style="fill: rgb(255, 255, 255);"><svg xmlns="http://www.w3.org/2000/svg" width="27" height="32" viewBox="0 0 27 32"><path d="M27.429 16c0 7.554-6.161 13.714-13.714 13.714S.001 23.553.001 16c0-4.339 2-8.339 5.482-10.946a2.262 2.262 0 0 1 3.196.446c.768 1 .554 2.446-.446 3.196-2.321 1.75-3.661 4.411-3.661 7.304 0 5.036 4.107 9.143 9.143 9.143s9.143-4.107 9.143-9.143c0-2.893-1.339-5.554-3.661-7.304-1-.75-1.214-2.196-.446-3.196a2.263 2.263 0 0 1 3.196-.446A13.575 13.575 0 0 1 27.429 16zM16 2.286v11.429c0 1.25-1.036 2.286-2.286 2.286s-2.286-1.036-2.286-2.286V2.286c0-1.25 1.036-2.286 2.286-2.286S16 1.036 16 2.286z"></path></svg></svg></g></svg></g></g><g opacity="1"><g id="d75b910e-76f1-4a94-9bf1-c6785f788175" transform="translate(0 0)"><svg x="-448" y="740" overflow="visible"><g transform="scale(0.8944271909999159) matrix(0.707 0.409 -0.707 0.409 0 0)"><circle cx="0" cy="0" fill="#000000" r="23"></circle><svg width="27" height="32" x="-13.5" y="-16" style="fill: rgb(255, 255, 255);"><svg xmlns="http://www.w3.org/2000/svg" width="27" height="32" viewBox="0 0 27 32"><path d="M27.429 16c0 7.554-6.161 13.714-13.714 13.714S.001 23.553.001 16c0-4.339 2-8.339 5.482-10.946a2.262 2.262 0 0 1 3.196.446c.768 1 .554 2.446-.446 3.196-2.321 1.75-3.661 4.411-3.661 7.304 0 5.036 4.107 9.143 9.143 9.143s9.143-4.107 9.143-9.143c0-2.893-1.339-5.554-3.661-7.304-1-.75-1.214-2.196-.446-3.196a2.263 2.263 0 0 1 3.196-.446A13.575 13.575 0 0 1 27.429 16zM16 2.286v11.429c0 1.25-1.036 2.286-2.286 2.286s-2.286-1.036-2.286-2.286V2.286c0-1.25 1.036-2.286 2.286-2.286S16 1.036 16 2.286z"></path></svg></svg></g></svg></g></g><g opacity="1"><g id="e7f5e01c-7c09-40a3-b9df-f4ebee65e2e0" transform="translate(0 0)"><svg x="-176" y="897" overflow="visible"><g transform="scale(0.8944271909999159) matrix(0.707 0.409 -0.707 0.409 0 0)"><circle cx="0" cy="0" fill="#000000" r="23"></circle><svg width="27" height="32" x="-13.5" y="-16" style="fill: rgb(255, 255, 255);"><svg xmlns="http://www.w3.org/2000/svg" width="27" height="32" viewBox="0 0 27 32"><path d="M27.429 16c0 7.554-6.161 13.714-13.714 13.714S.001 23.553.001 16c0-4.339 2-8.339 5.482-10.946a2.262 2.262 0 0 1 3.196.446c.768 1 .554 2.446-.446 3.196-2.321 1.75-3.661 4.411-3.661 7.304 0 5.036 4.107 9.143 9.143 9.143s9.143-4.107 9.143-9.143c0-2.893-1.339-5.554-3.661-7.304-1-.75-1.214-2.196-.446-3.196a2.263 2.263 0 0 1 3.196-.446A13.575 13.575 0 0 1 27.429 16zM16 2.286v11.429c0 1.25-1.036 2.286-2.286 2.286s-2.286-1.036-2.286-2.286V2.286c0-1.25 1.036-2.286 2.286-2.286S16 1.036 16 2.286z"></path></svg></svg></g></svg></g></g><g opacity="1"><g id="dc4877b2-a3b2-454b-9940-5d479d154489" transform="translate(0 0)"><svg x="288" y="241" overflow="visible"><g transform="scale(0.8944271909999159) matrix(0.707 0.409 -0.707 0.409 0 0)"><circle cx="0" cy="0" fill="#000000" r="23"></circle><svg width="14" height="32" x="-7" y="-16" style="fill: rgb(255, 255, 255);"><svg xmlns="http://www.w3.org/2000/svg" width="14" height="32" viewBox="0 0 14 32"><path d="M8.286 25.143c0-.786-.643-1.429-1.429-1.429s-1.429.643-1.429 1.429.643 1.429 1.429 1.429 1.429-.643 1.429-1.429zM12 22.286V9.715a.587.587 0 0 0-.571-.571H2.286a.587.587 0 0 0-.571.571v12.571c0 .304.268.571.571.571h9.143a.587.587 0 0 0 .571-.571zM8.571 7.143a.282.282 0 0 0-.286-.286H5.428c-.161 0-.286.125-.286.286s.125.286.286.286h2.857a.282.282 0 0 0 .286-.286zm5.143-.286v18.286a2.302 2.302 0 0 1-2.286 2.286H2.285a2.302 2.302 0 0 1-2.286-2.286V6.857a2.302 2.302 0 0 1 2.286-2.286h9.143a2.302 2.302 0 0 1 2.286 2.286z"></path></svg></svg></g></svg></g></g></g><g pointer-events="auto"><g opacity="1"><g id="1c93651b-eff1-4304-9ff6-4d523b590c17" transform="translate(0 0)"><svg x="-880" y="564" overflow="visible"><text stroke="#ffffff" stroke-width="4" font-family="Open Sans" y="36.5" font-size="25pt" fill="#9c27b0" font-weight="bold" transform="matrix(0.707 -0.409 0.707 0.409 0 0)" xml:space="preserve"><tspan x="8" dy="0">Industrial Devices</tspan><tspan x="8" dy="1.1em">@Edge</tspan><tspan x="8" dy="1.1em"> </tspan><tspan x="8" dy="1.1em"> </tspan></text><text font-family="Open Sans" y="36.5" font-size="25pt" fill="#9c27b0" font-weight="bold" transform="matrix(0.707 -0.409 0.707 0.409 0 0)" xml:space="preserve"><tspan x="8" dy="0">Industrial Devices</tspan><tspan x="8" dy="1.1em">@Edge</tspan><tspan x="8" dy="1.1em"> </tspan><tspan x="8" dy="1.1em"> </tspan></text></svg></g></g><g opacity="1"><g id="14c47767-0138-4e4e-bed0-634f482257fb" transform="translate(0 0)"><svg x="-640" y="426" overflow="visible"><text stroke="#ffffff" stroke-width="4" font-family="Open Sans" y="36.5" font-size="25pt" fill="#4caf50" font-weight="bold" transform="matrix(0.707 -0.409 0.707 0.409 0 0)" xml:space="preserve"><tspan x="8" dy="0">Data Center</tspan></text><text font-family="Open Sans" y="36.5" font-size="25pt" fill="#4caf50" font-weight="bold" transform="matrix(0.707 -0.409 0.707 0.409 0 0)" xml:space="preserve"><tspan x="8" dy="0">Data Center</tspan></text></svg></g></g><g opacity="1"><g id="c21545ca-69f9-478e-8be8-1f4ff247e7ac" transform="translate(0 0)"><svg x="-768" y="463" overflow="visible"><text stroke="#ffffff" stroke-width="4" font-family="Open Sans" y="36.5" font-size="25pt" fill="#4caf50" font-weight="bold" transform="matrix(0.707 -0.409 0.707 0.409 0 0)" xml:space="preserve"><tspan x="8" dy="0">On Premises</tspan></text><text font-family="Open Sans" y="36.5" font-size="25pt" fill="#4caf50" font-weight="bold" transform="matrix(0.707 -0.409 0.707 0.409 0 0)" xml:space="preserve"><tspan x="8" dy="0">On Premises</tspan></text></svg></g></g><g opacity="1"><g id="4ca7ca57-d507-4f60-86c8-fb2f6011586b" transform="translate(0 0)"><svg x="-240" y="213" overflow="visible"><text stroke="#ffffff" stroke-width="4" font-family="Open Sans" y="36.5" font-size="25pt" fill="#4caf50" font-weight="bold" transform="matrix(0.707 -0.409 0.707 0.409 0 0)" xml:space="preserve"><tspan x="8" dy="0">Cloud</tspan><tspan x="8" dy="1.1em"> </tspan></text><text font-family="Open Sans" y="36.5" font-size="25pt" fill="#4caf50" font-weight="bold" transform="matrix(0.707 -0.409 0.707 0.409 0 0)" xml:space="preserve"><tspan x="8" dy="0">Cloud</tspan><tspan x="8" dy="1.1em"> </tspan></text></svg></g></g><g opacity="1"><g id="d2dabe9c-f886-488a-bfa7-7b88fc26b23a"><svg x="-112" y="416" overflow="visible"><text stroke="#ffffff" stroke-width="4" font-family="Open Sans" y="36.5" font-size="25pt" fill="#000000" font-weight="bold" transform="matrix(0.707 0.409 -0.707 0.409 0 0)" xml:space="preserve"><tspan x="8" dy="0">IoT Hub</tspan></text><text font-family="Open Sans" y="36.5" font-size="25pt" fill="#000000" font-weight="bold" transform="matrix(0.707 0.409 -0.707 0.409 0 0)" xml:space="preserve"><tspan x="8" dy="0">IoT Hub</tspan></text></svg></g></g><g opacity="1"><g id="f2a988fe-7456-49f1-805d-b6518e2e7035"><svg x="-128" y="555" overflow="visible"><text stroke="#ffffff" stroke-width="4" font-family="Open Sans" y="36.5" font-size="25pt" fill="#4caf50" font-weight="bold" transform="matrix(0.707 0.409 -0.707 0.409 0 0)" xml:space="preserve"><tspan x="8" dy="0">IOT Gateway </tspan><tspan x="8" dy="1.1em">Fog Computing</tspan></text><text font-family="Open Sans" y="36.5" font-size="25pt" fill="#4caf50" font-weight="bold" transform="matrix(0.707 0.409 -0.707 0.409 0 0)" xml:space="preserve"><tspan x="8" dy="0">IOT Gateway </tspan><tspan x="8" dy="1.1em">Fog Computing</tspan></text></svg></g></g><g opacity="1"><g id="3563c845-835d-4cf8-a381-a08ceeff149b"><svg x="-208" y="601" overflow="visible"><text stroke="#ffffff" stroke-width="4" font-family="Open Sans" y="36.5" font-size="25pt" fill="#9c27b0" font-weight="bold" transform="matrix(0.707 0.409 -0.707 0.409 0 0)" xml:space="preserve"><tspan x="8" dy="0">Secure Integration</tspan></text><text font-family="Open Sans" y="36.5" font-size="25pt" fill="#9c27b0" font-weight="bold" transform="matrix(0.707 0.409 -0.707 0.409 0 0)" xml:space="preserve"><tspan x="8" dy="0">Secure Integration</tspan></text></svg></g></g><g opacity="1"><g id="5483feac-eab8-492c-97b1-fefe6d1092f5"><svg x="-416" y="500" overflow="visible"><text stroke="#ffffff" stroke-width="4" font-family="Open Sans" y="36.5" font-size="25pt" fill="#4caf50" font-weight="bold" transform="matrix(0.707 -0.409 0.707 0.409 0 0)" xml:space="preserve"><tspan x="8" dy="0">ERP</tspan><tspan x="8" dy="1.1em">MES</tspan><tspan x="8" dy="1.1em">PLM</tspan></text><text font-family="Open Sans" y="36.5" font-size="25pt" fill="#4caf50" font-weight="bold" transform="matrix(0.707 -0.409 0.707 0.409 0 0)" xml:space="preserve"><tspan x="8" dy="0">ERP</tspan><tspan x="8" dy="1.1em">MES</tspan><tspan x="8" dy="1.1em">PLM</tspan></text></svg></g></g><g opacity="1"><g id="e710b4f6-734b-4403-acff-ffbb41fece1b"><svg x="-240" y="953" overflow="visible"><text stroke="#ffffff" stroke-width="4" font-family="Open Sans" y="36.5" font-size="25pt" fill="#9c27b0" font-weight="bold" transform="matrix(0.707 -0.409 0.707 0.409 0 0)" xml:space="preserve"><tspan x="8" dy="0">IoT Controller</tspan></text><text font-family="Open Sans" y="36.5" font-size="25pt" fill="#9c27b0" font-weight="bold" transform="matrix(0.707 -0.409 0.707 0.409 0 0)" xml:space="preserve"><tspan x="8" dy="0">IoT Controller</tspan></text></svg></g></g><g opacity="1"><g id="c481db17-4f9e-43e8-a65e-c1aef0a946a6"><svg x="-368" y="897" overflow="visible"><text stroke="#ffffff" stroke-width="4" font-family="Open Sans" y="36.5" font-size="25pt" fill="#9c27b0" font-weight="bold" transform="matrix(0.707 -0.409 0.707 0.409 0 0)" xml:space="preserve"><tspan x="8" dy="0">PLC (IIoT), HMI, SCADA</tspan></text><text font-family="Open Sans" y="36.5" font-size="25pt" fill="#9c27b0" font-weight="bold" transform="matrix(0.707 -0.409 0.707 0.409 0 0)" xml:space="preserve"><tspan x="8" dy="0">PLC (IIoT), HMI, SCADA</tspan></text></svg></g></g><g opacity="1"><g id="d5d436be-0110-4749-9316-352ec37f223f"><svg x="-448" y="777" overflow="visible"><text stroke="#ffffff" stroke-width="4" font-family="Open Sans" y="36.5" font-size="25pt" fill="#9c27b0" font-weight="bold" transform="matrix(0.707 -0.409 0.707 0.409 0 0)" xml:space="preserve"><tspan x="8" dy="0">ROBOTS/CNC</tspan></text><text font-family="Open Sans" y="36.5" font-size="25pt" fill="#9c27b0" font-weight="bold" transform="matrix(0.707 -0.409 0.707 0.409 0 0)" xml:space="preserve"><tspan x="8" dy="0">ROBOTS/CNC</tspan></text></svg></g></g><g opacity="1"><g id="e8a2779f-88b3-42ba-bb04-5b2cc95630ea"><svg x="-608" y="592" overflow="visible"><text stroke="#ffffff" stroke-width="4" font-family="Open Sans" y="30.799999999999997" font-size="20pt" fill="#9c27b0" font-weight="bold" transform="matrix(0.707 -0.409 0.707 0.409 0 0)" xml:space="preserve"><tspan x="8" dy="0">Field </tspan><tspan x="8" dy="1.1em">IoT</tspan><tspan x="8" dy="1.1em">Gateway</tspan></text><text font-family="Open Sans" y="30.799999999999997" font-size="20pt" fill="#9c27b0" font-weight="bold" transform="matrix(0.707 -0.409 0.707 0.409 0 0)" xml:space="preserve"><tspan x="8" dy="0">Field </tspan><tspan x="8" dy="1.1em">IoT</tspan><tspan x="8" dy="1.1em">Gateway</tspan></text></svg></g></g><g opacity="1"><g id="7a175425-0c99-42dd-a88f-e744831fb972"><svg x="304" y="361" overflow="visible"><text stroke="#ffffff" stroke-width="4" font-family="Open Sans" y="36.5" font-size="25pt" fill="#000000" font-weight="bold" transform="matrix(0.707 0.409 -0.707 0.409 0 0)" xml:space="preserve"><tspan x="8" dy="0">Notifications</tspan></text><text font-family="Open Sans" y="36.5" font-size="25pt" fill="#000000" font-weight="bold" transform="matrix(0.707 0.409 -0.707 0.409 0 0)" xml:space="preserve"><tspan x="8" dy="0">Notifications</tspan></text></svg></g></g><g opacity="1"><g id="cd368494-c7d9-465f-853b-72626694a14e"><svg x="224" y="592" overflow="visible"><text stroke="#ffffff" stroke-width="4" font-family="Open Sans" y="36.5" font-size="25pt" fill="#000000" font-weight="bold" transform="matrix(0.707 -0.409 0.707 0.409 0 0)" xml:space="preserve"><tspan x="8" dy="0">Storage</tspan></text><text font-family="Open Sans" y="36.5" font-size="25pt" fill="#000000" font-weight="bold" transform="matrix(0.707 -0.409 0.707 0.409 0 0)" xml:space="preserve"><tspan x="8" dy="0">Storage</tspan></text></svg></g></g><g opacity="1"><g id="69460052-e1d3-4862-9b9e-c69890b500e6"><svg x="240" y="379" overflow="visible"><text stroke="#ffffff" stroke-width="4" font-family="Open Sans" y="36.5" font-size="25pt" fill="#000000" font-weight="bold" transform="matrix(0.707 0.409 -0.707 0.409 0 0)" xml:space="preserve"><tspan x="8" dy="0">Machine</tspan><tspan x="8" dy="1.1em">Learning</tspan></text><text font-family="Open Sans" y="36.5" font-size="25pt" fill="#000000" font-weight="bold" transform="matrix(0.707 0.409 -0.707 0.409 0 0)" xml:space="preserve"><tspan x="8" dy="0">Machine</tspan><tspan x="8" dy="1.1em">Learning</tspan></text></svg></g></g><g opacity="1"><g id="a50a1c78-21e5-4f1e-9028-86aec9f4dc93"><svg x="-64" y="444" overflow="visible"><text stroke="#ffffff" stroke-width="4" font-family="Open Sans" y="36.5" font-size="25pt" fill="#000000" font-weight="bold" transform="matrix(0.707 -0.409 0.707 0.409 0 0)" xml:space="preserve"><tspan x="8" dy="0">Analystics</tspan></text><text font-family="Open Sans" y="36.5" font-size="25pt" fill="#000000" font-weight="bold" transform="matrix(0.707 -0.409 0.707 0.409 0 0)" xml:space="preserve"><tspan x="8" dy="0">Analystics</tspan></text></svg></g></g><g opacity="1"><g id="5ba40b7e-c7fb-4fdb-bf25-8cfffba18f68"><svg x="128" y="222" overflow="visible"><text stroke="#ffffff" stroke-width="4" font-family="Open Sans" y="36.5" font-size="25pt" fill="#000000" font-weight="bold" transform="matrix(0.707 0.409 -0.707 0.409 0 0)" xml:space="preserve"><tspan x="8" dy="0">Websites</tspan><tspan x="8" dy="1.1em">Mobile Services</tspan></text><text font-family="Open Sans" y="36.5" font-size="25pt" fill="#000000" font-weight="bold" transform="matrix(0.707 0.409 -0.707 0.409 0 0)" xml:space="preserve"><tspan x="8" dy="0">Websites</tspan><tspan x="8" dy="1.1em">Mobile Services</tspan></text></svg></g></g><g opacity="1"><g id="d7017c16-4842-4fde-bbad-1ce78c0eec91"><svg x="256" y="167" overflow="visible"><text stroke="#ffffff" stroke-width="4" font-family="Open Sans" y="36.5" font-size="25pt" fill="#000000" font-weight="bold" transform="matrix(0.707 0.409 -0.707 0.409 0 0)" xml:space="preserve"><tspan x="8" dy="0">Industrial User</tspan></text><text font-family="Open Sans" y="36.5" font-size="25pt" fill="#000000" font-weight="bold" transform="matrix(0.707 0.409 -0.707 0.409 0 0)" xml:space="preserve"><tspan x="8" dy="0">Industrial User</tspan></text></svg></g></g><g opacity="1"><g id="8f4330a3-3e92-4824-9502-9a2ae75e5454" transform="translate(0 0)"><svg x="-528" y="490" overflow="visible"><text stroke="#ffffff" stroke-width="4" font-family="Open Sans" y="36.5" font-size="25pt" fill="#03a9f4" font-weight="bold" transform="matrix(0.707 -0.409 0.707 0.409 0 0)" xml:space="preserve"><tspan x="8" dy="0">MQTT</tspan></text><text font-family="Open Sans" y="36.5" font-size="25pt" fill="#03a9f4" font-weight="bold" transform="matrix(0.707 -0.409 0.707 0.409 0 0)" xml:space="preserve"><tspan x="8" dy="0">MQTT</tspan></text></svg></g></g><g opacity="1"><g id="1dfdf189-0519-4dc1-96ee-3f8840460a56" transform="translate(0 0)"><svg x="-256" y="796" overflow="visible"><text stroke="#ffffff" stroke-width="4" font-family="Open Sans" y="36.5" font-size="25pt" fill="#03a9f4" font-weight="bold" transform="matrix(0.707 -0.409 0.707 0.409 0 0)" xml:space="preserve"><tspan x="8" dy="0">OPC UA</tspan></text><text font-family="Open Sans" y="36.5" font-size="25pt" fill="#03a9f4" font-weight="bold" transform="matrix(0.707 -0.409 0.707 0.409 0 0)" xml:space="preserve"><tspan x="8" dy="0">OPC UA</tspan></text></svg></g></g><g opacity="1"><g id="0ea03900-3c14-4626-8112-547fe265df2b" transform="translate(0 0)"><svg x="-688" y="731" overflow="visible"><text stroke="#ffffff" stroke-width="4" font-family="Open Sans" y="36.5" font-size="25pt" fill="#ff5722" font-weight="bold" transform="matrix(0.707 0.409 -0.707 0.409 0 0)" xml:space="preserve"><tspan x="8" dy="0">Physical Layer Security</tspan><tspan x="8" dy="1.1em">&gt; Ruotsalainen</tspan></text><text font-family="Open Sans" y="36.5" font-size="25pt" fill="#ff5722" font-weight="bold" transform="matrix(0.707 0.409 -0.707 0.409 0 0)" xml:space="preserve"><tspan x="8" dy="0">Physical Layer Security</tspan><tspan x="8" dy="1.1em">&gt; Ruotsalainen</tspan></text></svg></g></g><g opacity="1"><g id="c8fd2ffc-6729-4810-9857-61b1207b2d65" transform="translate(0 0)"><svg x="-64" y="944" overflow="visible"><text stroke="#ffffff" stroke-width="4" font-family="Open Sans" y="36.5" font-size="25pt" fill="#9c27b0" font-weight="bold" transform="matrix(0.707 -0.409 0.707 0.409 0 0)" xml:space="preserve"><tspan x="8" dy="0">OT</tspan></text><text font-family="Open Sans" y="36.5" font-size="25pt" fill="#9c27b0" font-weight="bold" transform="matrix(0.707 -0.409 0.707 0.409 0 0)" xml:space="preserve"><tspan x="8" dy="0">OT</tspan></text></svg></g></g><g opacity="1"><g id="a1684590-a13c-4947-a3b0-a56aa5ad823c" transform="translate(0 0)"><svg x="-784" y="213" overflow="visible"><text stroke="#ffffff" stroke-width="0" font-family="Open Sans" y="36.5" font-size="25pt" fill="#9c27b0" font-weight="bold" transform="matrix(0.707, -0.409, 0, 0.816, 0, 0)" xml:space="preserve"><tspan x="8" dy="0">Lifecycle</tspan><tspan x="8" dy="1.1em">Business Impact</tspan><tspan x="8" dy="1.1em">&gt; Dirnberger</tspan></text><text font-family="Open Sans" y="36.5" font-size="25pt" fill="#9c27b0" font-weight="bold" transform="matrix(0.707, -0.409, 0, 0.816, 0, 0)" xml:space="preserve"><tspan x="8" dy="0">Lifecycle</tspan><tspan x="8" dy="1.1em">Business Impact</tspan><tspan x="8" dy="1.1em">&gt; Dirnberger</tspan></text></svg></g></g><g opacity="1"><g id="3496ebd9-318b-4e63-8764-45d16fc60e7a" transform="translate(0 0)"><svg x="-608" y="222" overflow="visible"><text stroke="#ffffff" stroke-width="4" font-family="Open Sans" y="36.5" font-size="25pt" fill="#9c27b0" font-weight="bold" transform="matrix(0.707 -0.409 0.707 0.409 0 0)" xml:space="preserve"><tspan x="8" dy="0">Management</tspan></text><text font-family="Open Sans" y="36.5" font-size="25pt" fill="#9c27b0" font-weight="bold" transform="matrix(0.707 -0.409 0.707 0.409 0 0)" xml:space="preserve"><tspan x="8" dy="0">Management</tspan></text></svg></g></g><g opacity="1"><g id="a0adead7-d7e2-4701-883e-e4ecedc73e3a" transform="translate(0 0)"><svg x="96" y="907" overflow="visible"><text stroke="#ffffff" stroke-width="4" font-family="Open Sans" y="36.5" font-size="25pt" fill="#03a9f4" font-weight="bold" transform="matrix(0.707 -0.409 0.707 0.409 0 0)" xml:space="preserve"><tspan x="8" dy="0">Sicher vom Gateway in die Cloud</tspan><tspan x="8" dy="1.1em">&gt; Zillner</tspan></text><text font-family="Open Sans" y="36.5" font-size="25pt" fill="#03a9f4" font-weight="bold" transform="matrix(0.707 -0.409 0.707 0.409 0 0)" xml:space="preserve"><tspan x="8" dy="0">Sicher vom Gateway in die Cloud</tspan><tspan x="8" dy="1.1em">&gt; Zillner</tspan></text></svg></g></g><g opacity="1"><g id="1df4cddc-7fd9-438e-9dbb-c16e6a2def4f"><svg x="160" y="796" overflow="visible"><text stroke="#ffffff" stroke-width="4" font-family="Open Sans" y="36.5" font-size="25pt" fill="#4caf50" font-weight="bold" transform="matrix(0.707 -0.409 0.707 0.409 0 0)" xml:space="preserve"><tspan x="8" dy="0">IT</tspan></text><text font-family="Open Sans" y="36.5" font-size="25pt" fill="#4caf50" font-weight="bold" transform="matrix(0.707 -0.409 0.707 0.409 0 0)" xml:space="preserve"><tspan x="8" dy="0">IT</tspan></text></svg></g></g><g opacity="1"><g id="4f42d5d1-13f0-4e10-8078-6c65e25b2b1e" transform="translate(0 0)"><svg x="-352" y="611" overflow="visible"><text stroke="#ffffff" stroke-width="4" font-family="Open Sans" y="36.5" font-size="25pt" fill="#03a9f4" font-weight="bold" transform="matrix(0.707 -0.409 0.707 0.409 0 0)" xml:space="preserve"><tspan x="8" dy="0">REST, XML</tspan></text><text font-family="Open Sans" y="36.5" font-size="25pt" fill="#03a9f4" font-weight="bold" transform="matrix(0.707 -0.409 0.707 0.409 0 0)" xml:space="preserve"><tspan x="8" dy="0">REST, XML</tspan></text></svg></g></g><g opacity="1"><g id="92319856-ed3f-40ab-9861-08737140bb71" transform="translate(0 0)"><svg x="-928" y="444" overflow="visible"><text stroke="#ffffff" stroke-width="4" font-family="Open Sans" y="36.5" font-size="25pt" fill="#9c27b0" font-weight="bold" transform="matrix(0.707 -0.409 0.707 0.409 0 0)" xml:space="preserve"><tspan x="8" dy="0">Industrial Security </tspan><tspan x="8" dy="1.1em">ISA/IEC 62443</tspan><tspan x="8" dy="1.1em">&gt; Dirnberger</tspan></text><text font-family="Open Sans" y="36.5" font-size="25pt" fill="#9c27b0" font-weight="bold" transform="matrix(0.707 -0.409 0.707 0.409 0 0)" xml:space="preserve"><tspan x="8" dy="0">Industrial Security </tspan><tspan x="8" dy="1.1em">ISA/IEC 62443</tspan><tspan x="8" dy="1.1em">&gt; Dirnberger</tspan></text></svg></g></g><g opacity="1"><g id="6ced24a3-dfb1-4ec1-ad56-08820304242d" transform="translate(0 0)"><svg x="-480" y="185" overflow="visible"><text stroke="#ffffff" stroke-width="4" font-family="Open Sans" y="36.5" font-size="25pt" fill="#4caf50" font-weight="bold" transform="matrix(0.707 -0.409 0.707 0.409 0 0)" xml:space="preserve"><tspan x="8" dy="0">Information Security</tspan><tspan x="8" dy="1.1em">ISO 27000</tspan><tspan x="8" dy="1.1em">&gt; Spanner</tspan></text><text font-family="Open Sans" y="36.5" font-size="25pt" fill="#4caf50" font-weight="bold" transform="matrix(0.707 -0.409 0.707 0.409 0 0)" xml:space="preserve"><tspan x="8" dy="0">Information Security</tspan><tspan x="8" dy="1.1em">ISO 27000</tspan><tspan x="8" dy="1.1em">&gt; Spanner</tspan></text></svg></g></g><g opacity="1"><g id="2d1e532f-5ab7-4431-9a96-27b16910b74b" transform="translate(0 0)"><svg x="-480" y="296" overflow="visible"><text stroke="#ffffff" stroke-width="4" font-family="Open Sans" y="36.5" font-size="25pt" fill="#4caf50" font-weight="bold" transform="matrix(0.707 -0.409 0.707 0.409 0 0)" xml:space="preserve"><tspan x="8" dy="0">AD</tspan><tspan x="8" dy="1.1em">PKI</tspan></text><text font-family="Open Sans" y="36.5" font-size="25pt" fill="#4caf50" font-weight="bold" transform="matrix(0.707 -0.409 0.707 0.409 0 0)" xml:space="preserve"><tspan x="8" dy="0">AD</tspan><tspan x="8" dy="1.1em">PKI</tspan></text></svg></g></g></g><g></g></g></svg>