<?xml version="1.0" encoding="UTF-8" standalone="no"?><!DOCTYPE svg PUBLIC "-//W3C//DTD SVG 1.1//EN" "http://www.w3.org/Graphics/SVG/1.1/DTD/svg11.dtd"><svg width="100%" height="100%" viewBox="0 0 294 189" version="1.1" xmlns="http://www.w3.org/2000/svg" xmlns:xlink="http://www.w3.org/1999/xlink" xml:space="preserve" xmlns:serif="http://www.serif.com/" style="fill-rule:evenodd;clip-rule:evenodd;stroke-miterlimit:10;"><rect id="ArtBoard1" x="0" y="0" width="293.338" height="188.877" style="fill:none;"/><clipPath id="_clip1"><rect x="0" y="0" width="293.338" height="188.877"/></clipPath><g clip-path="url(#_clip1)"><g><path d="M112.853,23.963l176.457,0l0,10.17l-176.457,0l0,-10.17Zm0,20.34l176.457,0l0,10.17l-176.457,0l0,-10.17Zm0,20.34l176.457,0l0,10.17l-176.457,0l0,-10.17Zm0,20.34l176.457,0l0,10.17l-176.457,0l0,-10.17Zm0,20.34l176.457,0l0,10.17l-176.457,0l0,-10.17Zm0,20.34l176.457,0l0,10.17l-176.457,0l0,-10.17Zm0,20.34l176.457,0l0,10.17l-176.457,0l0,-10.17Zm0,20.339l176.457,0l0,10.171l-176.457,0l0,-10.171Z" style="fill:#e5e7e8;fill-rule:nonzero;"/><path d="M2.302,3.811l287.007,0" style="fill:none;fill-rule:nonzero;stroke:#1b1c20;stroke-width:0.38px;"/><path d="M2.302,13.981l287.007,0" style="fill:none;fill-rule:nonzero;stroke:#1b1c20;stroke-width:0.38px;"/><path d="M2.302,34.133l287.007,0" style="fill:none;fill-rule:nonzero;stroke:#1b1c20;stroke-width:0.38px;"/><path d="M2.302,64.643l287.007,0" style="fill:none;fill-rule:nonzero;stroke:#1b1c20;stroke-width:0.38px;"/><path d="M2.302,115.493l287.007,0" style="fill:none;fill-rule:nonzero;stroke:#1b1c20;stroke-width:0.38px;"/><path d="M2.302,135.833l287.007,0" style="fill:none;fill-rule:nonzero;stroke:#1b1c20;stroke-width:0.38px;"/><path d="M2.302,146.003l287.007,0" style="fill:none;fill-rule:nonzero;stroke:#1b1c20;stroke-width:0.38px;"/><path d="M2.302,186.683l287.007,0" style="fill:none;fill-rule:nonzero;stroke:#1b1c20;stroke-width:0.38px;"/><g transform="matrix(0.75,0,0,0.75,-33.84,-97.5)"><text x="48.19px" y="129.083px" style="font-family:'LucidaGrande-Bold', 'Lucida Grande', sans-serif;font-weight:600;font-size:8px;fill:#1b1c20;">T<tspan x="53.427px 57.848px 62.867px 65.186px " y="129.083px 129.083px 129.083px 129.083px ">able</tspan></text><text x="69.718px" y="129.083px" style="font-family:'LucidaGrande-Bold', 'Lucida Grande', sans-serif;font-weight:600;font-size:8px;fill:#1b1c20;">2</text><text x="82.062px" y="129.083px" style="font-family:'LucidaGrande', 'Lucida Grande', sans-serif;font-weight:500;font-size:8px;fill:#1b1c20;">S<tspan x="86.088px 90.263px 94.079px 98.762px 101.753px 103.783px 106.493px " y="129.083px 129.083px 129.083px 129.083px 129.083px 129.083px 129.083px ">ecurity</tspan></text><text x="113.598px" y="129.083px" style="font-family:'LucidaGrande', 'Lucida Grande', sans-serif;font-weight:500;font-size:8px;fill:#1b1c20;">c<tspan x="117.414px 122.045px 126.728px 129.438px 132.429px 137.061px 139.092px 141.341px 145.156px 147.187px 151.323px 155.118px 158.914px 163.089px " y="129.083px 129.083px 129.083px 129.083px 129.083px 129.083px 129.083px 129.083px 129.083px 129.083px 129.083px 129.083px 129.083px 129.083px ">ontrol classes</tspan></text></g><g transform="matrix(0.75,0,0,0.75,-33.84,-97.5)"><text x="53.859px" y="144.641px" style="font-family:'LucidaGrande-Bold', 'Lucida Grande', sans-serif;font-weight:600;font-size:8px;fill:#1b1c20;">S<tspan x="57.709px 61.677px 65.216px 69.75px 72.667px 74.55px 77.072px " y="144.641px 144.641px 144.641px 144.641px 144.641px 144.641px 144.641px ">ecurity</tspan></text><text x="85.002px" y="144.641px" style="font-family:'LucidaGrande-Bold', 'Lucida Grande', sans-serif;font-weight:600;font-size:8px;fill:#1b1c20;">p<tspan x="89.583px 92.5px 96.89px 101.448px 104.365px 108.349px 115.387px 117.526px 121.494px 123.376px 127.345px 134.383px 138.351px 142.885px 145.408px " y="144.641px 144.641px 144.641px 144.641px 144.641px 144.641px 144.641px 144.641px 144.641px 144.641px 144.641px 144.641px 144.641px 144.641px 144.641px ">rogram elements</tspan></text></g><g transform="matrix(0.75,0,0,0.75,-33.84,-97.5)"><text x="201.266px" y="144.641px" style="font-family:'LucidaGrande-Bold', 'Lucida Grande', sans-serif;font-weight:600;font-size:8px;fill:#1b1c20;">S<tspan x="205.142px 209.134px 212.697px 217.256px 220.197px 222.104px 224.651px " y="144.641px 144.641px 144.641px 144.641px 144.641px 144.641px 144.641px ">ecurity</tspan></text><text x="232.41px" y="144.641px" style="font-family:'LucidaGrande-Bold', 'Lucida Grande', sans-serif;font-weight:600;font-size:8px;fill:#1b1c20;">c<tspan x="235.972px 240.387px 244.945px 247.493px 250.434px 254.848px 256.755px 258.815px 262.377px 264.284px 268.292px 272.12px 275.948px 279.941px " y="144.641px 144.641px 144.641px 144.641px 144.641px 144.641px 144.641px 144.641px 144.641px 144.641px 144.641px 144.641px 144.641px 144.641px ">ontrol classes</tspan></text></g><g transform="matrix(0.75,0,0,0.75,-33.84,-97.5)"><text x="53.859px" y="157.953px" style="font-family:'LucidaGrande', 'Lucida Grande', sans-serif;font-weight:500;font-size:8px;fill:#1b1c20;">O<tspan x="59.458px 62.116px 66.488px 70.291px 74.64px 76.337px 80.308px 84.11px 86.487px 88.184px 92.482px 96.831px 100.634px " y="157.953px 157.953px 157.953px 157.953px 157.953px 157.953px 157.953px 157.953px 157.953px 157.953px 157.953px 157.953px 157.953px ">rganizational</tspan></text><text x="105.623px" y="157.953px" style="font-family:'LucidaGrande', 'Lucida Grande', sans-serif;font-weight:500;font-size:8px;fill:#1b1c20;">s<tspan x="109.085px 113.434px 117.854px 122.274px 126.572px 129.23px " y="157.953px 157.953px 157.953px 157.953px 157.953px 157.953px ">upport</tspan></text></g><g transform="matrix(0.75,0,0,0.75,-33.84,-97.5)"><text x="201.266px" y="157.953px" style="font-family:'LucidaGrande', 'Lucida Grande', sans-serif;font-weight:500;font-size:8px;fill:#1b1c20;">S<tspan x="205.053px 208.987px 212.562px 217.005px 219.756px 221.546px 224.015px " y="157.953px 157.953px 157.953px 157.953px 157.953px 157.953px 157.953px ">ecurity</tspan></text><text x="231.09px" y="157.953px" style="font-family:'LucidaGrande', 'Lucida Grande', sans-serif;font-weight:500;font-size:8px;fill:#1b1c20;">r<tspan x="233.841px 237.775px 239.565px 243.461px 245.93px 249.865px 254.378px 256.611px 261.002px 263.753px 268.219px 272.115px 276.557px 278.347px 282.411px 286.306px 288.776px 290.566px 294.957px " y="157.953px 157.953px 157.953px 157.953px 157.953px 157.953px 157.953px 157.953px 157.953px 157.953px 157.953px 157.953px 157.953px 157.953px 157.953px 157.953px 157.953px 157.953px 157.953px ">elated organization</tspan></text><text x="300.955px" y="157.953px" style="font-family:'LucidaGrande', 'Lucida Grande', sans-serif;font-weight:500;font-size:8px;fill:#1b1c20;">a<tspan x="304.85px 309.292px 313.805px 316.038px 320.551px 324.942px 326.733px 328.523px 332.098px 333.888px 337.822px " y="157.953px 157.953px 157.953px 157.953px 157.953px 157.953px 157.953px 157.953px 157.953px 157.953px 157.953px ">nd policies</tspan></text></g><g transform="matrix(0.75,0,0,0.75,-33.84,-97.5)"><text x="201.259px" y="171.513px" style="font-family:'LucidaGrande', 'Lucida Grande', sans-serif;font-weight:500;font-size:8px;fill:#1b1c20;">S<tspan x="204.958px 208.805px 212.294px 216.649px 219.313px 221.016px 223.399px " y="171.513px 171.513px 171.513px 171.513px 171.513px 171.513px 171.513px ">ecurity</tspan></text><text x="231.082px" y="171.513px" style="font-family:'LucidaGrande', 'Lucida Grande', sans-serif;font-weight:500;font-size:8px;fill:#1b1c20;">a<tspan x="234.89px 238.359px 241.828px 245.675px 249.144px 252.613px 259.472px 263.32px 267.675px 270.058px " y="171.513px 171.513px 171.513px 171.513px 171.513px 171.513px 171.513px 171.513px 171.513px 171.513px ">ssessments</tspan></text><text x="273.627px" y="171.513px" style="font-family:'LucidaGrande', 'Lucida Grande', sans-serif;font-weight:500;font-size:8px;fill:#1b1c20;">a<tspan x="277.436px 281.791px 286.217px 288.401px 291.065px 294.912px 298.444px 300.147px 303.994px 309.549px " y="171.513px 171.513px 171.513px 171.513px 171.513px 171.513px 171.513px 171.513px 171.513px 171.513px ">nd reviews</tspan></text></g><g transform="matrix(0.75,0,0,0.75,-33.84,-97.5)"><text x="53.859px" y="185.073px" style="font-family:'LucidaGrande', 'Lucida Grande', sans-serif;font-weight:500;font-size:8px;fill:#1b1c20;">C<tspan x="58.784px 63.089px 67.444px 69.776px 71.479px 75.858px 80.214px 82.878px 86.686px 89.069px 90.772px 95.077px " y="185.073px 185.073px 185.073px 185.073px 185.073px 185.073px 185.073px 185.073px 185.073px 185.073px 185.073px 185.073px ">onfiguration</tspan></text><text x="102.814px" y="185.073px" style="font-family:'LucidaGrande', 'Lucida Grande', sans-serif;font-weight:500;font-size:8px;fill:#1b1c20;">a<tspan x="106.622px 110.978px 115.403px 117.587px 121.075px 125.431px 129.239px 133.595px 137.974px 141.821px 144.005px 150.864px 154.673px 159.028px 162.837px 167.216px 171.064px 177.923px 181.77px 186.126px 188.509px 201.264px 202.959px 207.314px 210.845px 214.693px 219.048px 221.431px 225.736px 228.4px " y="185.073px 185.073px 185.073px 185.073px 185.073px 185.073px 185.073px 185.073px 185.073px 185.073px 185.073px 185.073px 185.073px 185.073px 185.073px 185.073px 185.073px 185.073px 185.073px 185.073px 185.073px 185.073px 185.073px 185.073px 185.073px 185.073px 185.073px 185.073px 185.073px 185.073px ">nd change management	Inventory</tspan></text><text x="236.272px" y="185.073px" style="font-family:'LucidaGrande', 'Lucida Grande', sans-serif;font-weight:500;font-size:8px;fill:#1b1c20;">m<tspan x="243.131px 246.939px 251.295px 255.103px 259.482px 263.33px 270.189px 274.037px 278.392px " y="185.073px 185.073px 185.073px 185.073px 185.073px 185.073px 185.073px 185.073px 185.073px ">anagement</tspan></text><text x="281.808px" y="185.073px" style="font-family:'LucidaGrande', 'Lucida Grande', sans-serif;font-weight:500;font-size:8px;fill:#1b1c20;">(<tspan x="283.8px 288.156px 291.964px 294.628px 299.054px 304.609px 308.417px 311.081px 314.929px 317.113px 320.921px 325.277px " y="185.073px 185.073px 185.073px 185.073px 185.073px 185.073px 185.073px 185.073px 185.073px 185.073px 185.073px 185.073px ">hardware and</tspan></text><text x="332.396px" y="185.073px" style="font-family:'LucidaGrande', 'Lucida Grande', sans-serif;font-weight:500;font-size:8px;fill:#1b1c20;">s<tspan x="335.864px 340.169px 342.501px 344.884px 350.438px 354.247px 356.911px 360.758px " y="185.073px 185.073px 185.073px 185.073px 185.073px 185.073px 185.073px 185.073px ">oftware)</tspan></text></g><g transform="matrix(0.75,0,0,0.75,-33.84,-97.5)"><text x="201.259px" y="198.633px" style="font-family:'LucidaGrande', 'Lucida Grande', sans-serif;font-weight:500;font-size:8px;fill:#1b1c20;">C<tspan x="206.036px 210.243px 213.903px 218.109px 222.34px " y="198.633px 198.633px 198.633px 198.633px 198.633px ">hange</tspan></text><text x="228.56px" y="198.633px" style="font-family:'LucidaGrande', 'Lucida Grande', sans-serif;font-weight:500;font-size:8px;fill:#1b1c20;">m<tspan x="235.271px 238.931px 243.138px 246.798px 251.028px 254.727px 261.438px 265.137px 269.344px " y="198.633px 198.633px 198.633px 198.633px 198.633px 198.633px 198.633px 198.633px 198.633px ">anagement</tspan></text></g><g transform="matrix(0.75,0,0,0.75,-33.84,-97.5)"><text x="201.259px" y="212.193px" style="font-family:'LucidaGrande', 'Lucida Grande', sans-serif;font-weight:500;font-size:8px;fill:#1b1c20;">P<tspan x="205.156px 209.051px 211.519px 215.093px 219.533px 221.541px 228.486px 232.38px 236.821px 240.715px 245.179px 249.112px 256.057px 259.99px 264.431px " y="212.193px 212.193px 212.193px 212.193px 212.193px 212.193px 212.193px 212.193px 212.193px 212.193px 212.193px 212.193px 212.193px 212.193px 212.193px ">atch management</tspan></text><text x="267.554px" y="212.193px" style="font-family:'LucidaGrande', 'Lucida Grande', sans-serif;font-weight:500;font-size:8px;fill:#1b1c20;">(<tspan x="269.632px 274.143px 278.584px 282.478px 284.267px 286.056px 288.473px 290.262px 293.835px 297.729px 300.198px 301.986px 306.376px " y="212.193px 212.193px 212.193px 212.193px 212.193px 212.193px 212.193px 212.193px 212.193px 212.193px 212.193px 212.193px 212.193px ">qualification</tspan></text><text x="314.571px" y="212.193px" style="font-family:'LucidaGrande', 'Lucida Grande', sans-serif;font-weight:500;font-size:8px;fill:#1b1c20;">a<tspan x="318.465px 322.905px 327.417px 329.424px 331.213px 335.654px 339.208px 341.676px 345.57px 347.359px 349.147px 353.041px 355.51px 357.298px 361.688px 366.129px " y="212.193px 212.193px 212.193px 212.193px 212.193px 212.193px 212.193px 212.193px 212.193px 212.193px 212.193px 212.193px 212.193px 212.193px 212.193px 212.193px ">nd installation)</tspan></text></g><text x="6.554px" y="71.815px" style="font-family:'LucidaGrande', 'Lucida Grande', sans-serif;font-weight:500;font-size:6px;fill:#1b1c20;">S<tspan x="9.417px 12.183px 14.873px 16.748px 19.723px 24.956px 26.485px 29.893px 32.838px 34.925px 36.8px 38.166px 40.041px 41.407px 44.724px 48.079px 49.445px 52.8px " y="71.815px 71.815px 71.815px 71.815px 71.815px 71.815px 71.815px 71.815px 71.815px 71.815px 71.815px 71.815px 71.815px 71.815px 71.815px 71.815px 71.815px 71.815px ">ystem partitioning</tspan></text><g transform="matrix(0.75,0,0,0.75,-33.84,-97.5)"><text x="201.266px" y="225.753px" style="font-family:'LucidaGrande', 'Lucida Grande', sans-serif;font-weight:500;font-size:8px;fill:#1b1c20;">S<tspan x="204.927px 208.46px 211.89px 214.235px 218.044px " y="225.753px 225.753px 225.753px 225.753px 225.753px ">ystem</tspan></text><text x="227.672px" y="225.753px" style="font-family:'LucidaGrande', 'Lucida Grande', sans-serif;font-weight:500;font-size:8px;fill:#1b1c20;">s<tspan x="231.103px 234.912px 239.253px 246.074px 249.883px 254.2px 256.545px 260.315px 262.66px 264.325px 268.591px " y="225.753px 225.753px 225.753px 225.753px 225.753px 225.753px 225.753px 225.753px 225.753px 225.753px 225.753px ">egmentation</tspan></text></g><g transform="matrix(0.75,0,0,0.75,-33.84,-97.5)"><text x="201.259px" y="239.313px" style="font-family:'LucidaGrande', 'Lucida Grande', sans-serif;font-weight:500;font-size:8px;fill:#1b1c20;">S<tspan x="205.001px 208.892px 212.424px 216.823px 219.53px 223.421px 225.592px 230.061px 234.46px 238.073px 241.585px 243.332px 246.864px 250.716px " y="239.313px 239.313px 239.313px 239.313px 239.313px 239.313px 239.313px 239.313px 239.313px 239.313px 239.313px 239.313px 239.313px 239.313px ">ecure physical</tspan></text><text x="255.711px" y="239.313px" style="font-family:'LucidaGrande', 'Lucida Grande', sans-serif;font-weight:500;font-size:8px;fill:#1b1c20;">a<tspan x="259.563px 263.095px 266.627px 270.518px 274.03px " y="239.313px 239.313px 239.313px 239.313px 239.313px ">ccess</tspan></text></g><g transform="matrix(0.75,0,0,0.75,-33.84,-97.5)"><text x="201.259px" y="252.873px" style="font-family:'LucidaGrande', 'Lucida Grande', sans-serif;font-weight:500;font-size:8px;fill:#1b1c20;">S<tspan x="204.889px 208.669px 212.089px 216.376px 218.972px " y="252.873px 252.873px 252.873px 252.873px 252.873px ">ecure</tspan></text><text x="225.744px" y="252.873px" style="font-family:'LucidaGrande', 'Lucida Grande', sans-serif;font-weight:500;font-size:8px;fill:#1b1c20;">r<tspan x="228.34px 232.119px 238.91px 243.147px 245.461px 249.241px 251.094px 254.835px 258.255px 261.675px 265.454px 268.855px " y="252.873px 252.873px 252.873px 252.873px 252.873px 252.873px 252.873px 252.873px 252.873px 252.873px 252.873px 252.873px ">emote access</tspan></text></g><g transform="matrix(0.75,0,0,0.75,-33.84,-97.5)"><text x="201.259px" y="266.433px" style="font-family:'LucidaGrande', 'Lucida Grande', sans-serif;font-weight:500;font-size:8px;fill:#1b1c20;">S<tspan x="204.952px 208.795px 212.277px 216.628px 219.286px " y="266.433px 266.433px 266.433px 266.433px 266.433px ">ecure</tspan></text><text x="225.744px" y="266.433px" style="font-family:'LucidaGrande', 'Lucida Grande', sans-serif;font-weight:500;font-size:8px;fill:#1b1c20;">w<tspan x="231.293px 232.991px 235.65px 239.492px 241.19px 245.032px 248.495px " y="266.433px 266.433px 266.433px 266.433px 266.433px 266.433px 266.433px ">ireless</tspan></text><text x="254.519px" y="266.433px" style="font-family:'LucidaGrande', 'Lucida Grande', sans-serif;font-weight:500;font-size:8px;fill:#1b1c20;">a<tspan x="258.322px 261.805px 265.288px 269.131px 272.594px " y="266.433px 266.433px 266.433px 266.433px 266.433px ">ccess</tspan></text></g><g transform="matrix(0.75,0,0,0.75,-33.84,-97.5)"><text x="201.259px" y="279.993px" style="font-family:'LucidaGrande', 'Lucida Grande', sans-serif;font-weight:500;font-size:8px;fill:#1b1c20;">P<tspan x="205.063px 209.36px 212.017px 214.392px 218.193px 222.611px 224.307px " y="279.993px 279.993px 279.993px 279.993px 279.993px 279.993px 279.993px ">ortable</tspan></text><text x="231.067px" y="279.993px" style="font-family:'LucidaGrande', 'Lucida Grande', sans-serif;font-weight:500;font-size:8px;fill:#1b1c20;">d<tspan x="235.485px 239.325px 242.848px 244.544px 248.025px 251.865px " y="279.993px 279.993px 279.993px 279.993px 279.993px 279.993px ">evices</tspan></text><text x="257.762px" y="279.993px" style="font-family:'LucidaGrande', 'Lucida Grande', sans-serif;font-weight:500;font-size:8px;fill:#1b1c20;">a<tspan x="261.563px 265.911px 270.33px 272.244px 279.096px 282.936px 287.354px 289.049px " y="279.993px 279.993px 279.993px 279.993px 279.993px 279.993px 279.993px 279.993px ">nd media</tspan></text></g><g transform="matrix(0.75,0,0,0.75,-33.84,-97.5)"><text x="53.859px" y="293.553px" style="font-family:'LucidaGrande', 'Lucida Grande', sans-serif;font-weight:500;font-size:8px;fill:#1b1c20;">A<tspan x="58.704px 62.127px 65.551px 69.79px 74.081px 78.372px " y="293.553px 293.553px 293.553px 293.553px 293.553px 293.553px ">ccount</tspan></text><text x="83.971px" y="293.553px" style="font-family:'LucidaGrande', 'Lucida Grande', sans-serif;font-weight:500;font-size:8px;fill:#1b1c20;">m<tspan x="90.765px 94.509px 98.799px 102.543px 106.857px 110.64px 117.434px 121.217px 125.508px " y="293.553px 293.553px 293.553px 293.553px 293.553px 293.553px 293.553px 293.553px 293.553px ">anagement</tspan></text></g><g transform="matrix(0.75,0,0,0.75,-33.84,-97.5)"><text x="201.259px" y="293.553px" style="font-family:'LucidaGrande', 'Lucida Grande', sans-serif;font-weight:500;font-size:8px;fill:#1b1c20;">I<tspan x="203.07px 207.612px 211.576px 216.047px 218.546px 220.365px 222.813px 224.633px 228.237px 232.162px 234.661px 236.48px 240.901px " y="293.553px 293.553px 293.553px 293.553px 293.553px 293.553px 293.553px 293.553px 293.553px 293.553px 293.553px 293.553px 293.553px ">dentification</tspan></text><text x="248.57px" y="293.553px" style="font-family:'LucidaGrande', 'Lucida Grande', sans-serif;font-weight:500;font-size:8px;fill:#1b1c20;">a<tspan x="252.495px 256.967px 261.509px 263.547px 267.471px 271.943px 274.442px 278.913px 282.877px 287.349px 289.848px 291.667px 295.271px 299.196px 301.695px 303.514px 307.935px " y="293.553px 293.553px 293.553px 293.553px 293.553px 293.553px 293.553px 293.553px 293.553px 293.553px 293.553px 293.553px 293.553px 293.553px 293.553px 293.553px 293.553px ">nd authentication</tspan></text></g><g transform="matrix(0.75,0,0,0.75,-33.84,-97.5)"><text x="201.259px" y="307.113px" style="font-family:'LucidaGrande', 'Lucida Grande', sans-serif;font-weight:500;font-size:8px;fill:#1b1c20;">A<tspan x="206.19px 210.566px 212.97px 217.346px 221.672px 224.357px 226.081px 230.079px 233.908px 236.312px 238.036px 242.362px " y="307.113px 307.113px 307.113px 307.113px 307.113px 307.113px 307.113px 307.113px 307.113px 307.113px 307.113px 307.113px ">uthorization</tspan></text><text x="250.214px" y="307.113px" style="font-family:'LucidaGrande', 'Lucida Grande', sans-serif;font-weight:500;font-size:8px;fill:#1b1c20;">a<tspan x="254.043px 258.42px 262.866px 264.809px 268.639px 272.148px 275.657px 279.526px 283.016px 286.505px 288.448px 291.958px 296.283px 300.66px 303.063px 305.748px 310.074px " y="307.113px 307.113px 307.113px 307.113px 307.113px 307.113px 307.113px 307.113px 307.113px 307.113px 307.113px 307.113px 307.113px 307.113px 307.113px 307.113px 307.113px ">nd access control</tspan></text></g><g transform="matrix(0.75,0,0,0.75,-33.84,-97.5)"><text x="53.859px" y="320.673px" style="font-family:'LucidaGrande', 'Lucida Grande', sans-serif;font-weight:500;font-size:8px;fill:#1b1c20;">S<tspan x="57.703px 61.696px 65.33px 69.83px 72.64px 74.488px 77.016px " y="320.673px 320.673px 320.673px 320.673px 320.673px 320.673px 320.673px ">ecurity</tspan></text><text x="83.682px" y="320.673px" style="font-family:'LucidaGrande', 'Lucida Grande', sans-serif;font-weight:500;font-size:8px;fill:#1b1c20;">m<tspan x="90.686px 95.136px 99.637px 101.485px 104.014px 108.464px 111.273px 113.121px 117.622px " y="320.673px 320.673px 320.673px 320.673px 320.673px 320.673px 320.673px 320.673px 320.673px ">onitoring</tspan></text></g><g transform="matrix(0.75,0,0,0.75,-33.84,-97.5)"><text x="201.266px" y="320.673px" style="font-family:'LucidaGrande', 'Lucida Grande', sans-serif;font-weight:500;font-size:8px;fill:#1b1c20;">E<tspan x="205.01px 208.557px 212.421px 216.793px " y="320.673px 320.673px 320.673px 320.673px ">vent</tspan></text><text x="222.631px" y="320.673px" style="font-family:'LucidaGrande', 'Lucida Grande', sans-serif;font-weight:500;font-size:8px;fill:#1b1c20;">a<tspan x="226.456px 230.828px 235.271px 237.209px 238.928px 243.3px 246.805px 248.525px 252.967px 256.831px 261.203px " y="320.673px 320.673px 320.673px 320.673px 320.673px 320.673px 320.673px 320.673px 320.673px 320.673px 320.673px ">nd incident</tspan></text><text x="266.986px" y="320.673px" style="font-family:'LucidaGrande', 'Lucida Grande', sans-serif;font-weight:500;font-size:8px;fill:#1b1c20;">m<tspan x="273.862px 277.687px 282.059px 285.884px 290.279px 294.143px 301.019px 304.883px 309.255px " y="320.673px 320.673px 320.673px 320.673px 320.673px 320.673px 320.673px 320.673px 320.673px ">anagement</tspan></text></g><text x="6.554px" y="153.175px" style="font-family:'LucidaGrande', 'Lucida Grande', sans-serif;font-weight:500;font-size:6px;fill:#1b1c20;">S<tspan x="9.395px 12.14px 14.809px 16.663px 19.616px 24.828px 26.336px 27.681px 31.014px 32.869px 35.822px 39.173px 41.238px 42.583px 44.437px " y="153.175px 153.175px 153.175px 153.175px 153.175px 153.175px 153.175px 153.175px 153.175px 153.175px 153.175px 153.175px 153.175px 153.175px 153.175px ">ystem integrity</tspan></text><g transform="matrix(0.75,0,0,0.75,-33.84,-97.5)"><text x="201.266px" y="334.233px" style="font-family:'LucidaGrande', 'Lucida Grande', sans-serif;font-weight:500;font-size:8px;fill:#1b1c20;">S<tspan x="205.11px 208.824px 212.437px 214.964px 218.955px " y="334.233px 334.233px 334.233px 334.233px 334.233px ">ystem</tspan></text><text x="227.672px" y="334.233px" style="font-family:'LucidaGrande', 'Lucida Grande', sans-serif;font-weight:500;font-size:8px;fill:#1b1c20;">a<tspan x="231.625px 235.3px 239.253px 241.1px 242.947px 246.899px 251.469px 253.316px 255.164px 257.011px 259.537px " y="334.233px 334.233px 334.233px 334.233px 334.233px 334.233px 334.233px 334.233px 334.233px 334.233px 334.233px ">vailability</tspan></text><text x="267.722px" y="334.233px" style="font-family:'LucidaGrande', 'Lucida Grande', sans-serif;font-weight:500;font-size:8px;fill:#1b1c20;">a<tspan x="271.675px 276.175px 280.744px 283.006px 284.853px 289.353px 291.88px 295.871px 300.371px 304.94px 308.932px " y="334.233px 334.233px 334.233px 334.233px 334.233px 334.233px 334.233px 334.233px 334.233px 334.233px 334.233px ">nd intended</tspan></text><text x="314.005px" y="334.233px" style="font-family:'LucidaGrande', 'Lucida Grande', sans-serif;font-weight:500;font-size:8px;fill:#1b1c20;">f<tspan x="316.481px 320.98px 325.48px 329.112px 331.639px 333.486px 337.935px 342.434px 346.387px 348.234px 350.081px 352.608px " y="334.233px 334.233px 334.233px 334.233px 334.233px 334.233px 334.233px 334.233px 334.233px 334.233px 334.233px 334.233px ">unctionality</tspan></text></g><g transform="matrix(0.75,0,0,0.75,-33.84,-97.5)"><text x="201.266px" y="347.793px" style="font-family:'LucidaGrande', 'Lucida Grande', sans-serif;font-weight:500;font-size:8px;fill:#1b1c20;">P<tspan x="205.163px 207.912px 212.301px 214.768px 218.7px 222.272px 224.739px 226.527px 230.916px " y="347.793px 347.793px 347.793px 347.793px 347.793px 347.793px 347.793px 347.793px 347.793px ">rotection</tspan></text><text x="238.051px" y="347.793px" style="font-family:'LucidaGrande', 'Lucida Grande', sans-serif;font-weight:500;font-size:8px;fill:#1b1c20;">o<tspan x="242.44px 244.857px 246.93px 251.44px 255.333px 257.8px " y="347.793px 347.793px 347.793px 347.793px 347.793px 347.793px ">f data</tspan></text></g><g transform="matrix(0.75,0,0,0.75,-33.84,-97.5)"><text x="201.266px" y="361.353px" style="font-family:'LucidaGrande', 'Lucida Grande', sans-serif;font-weight:500;font-size:8px;fill:#1b1c20;">M<tspan x="207.627px 211.514px 213.297px 218.93px 222.818px 225.561px " y="361.353px 361.353px 361.353px 361.353px 361.353px 361.353px ">alware</tspan></text><text x="232.417px" y="361.353px" style="font-family:'LucidaGrande', 'Lucida Grande', sans-serif;font-weight:500;font-size:8px;fill:#1b1c20;">p<tspan x="236.922px 239.665px 244.049px 246.51px 250.437px 254.005px 256.466px 258.249px 262.632px " y="361.353px 361.353px 361.353px 361.353px 361.353px 361.353px 361.353px 361.353px 361.353px ">rotection</tspan></text></g><g transform="matrix(0.75,0,0,0.75,-33.84,-97.5)"><text x="201.266px" y="374.913px" style="font-family:'LucidaGrande', 'Lucida Grande', sans-serif;font-weight:500;font-size:8px;fill:#1b1c20;">B<tspan x="205.23px 209.01px 212.469px 216.506px 220.833px " y="374.913px 374.913px 374.913px 374.913px 374.913px ">ackup</tspan></text><text x="228.272px" y="374.913px" style="font-family:'LucidaGrande', 'Lucida Grande', sans-serif;font-weight:500;font-size:8px;fill:#1b1c20;">/<tspan x="231.829px 233.722px 236.357px 240.176px 243.616px 245.97px 250.246px 252.881px 256.7px 258.593px " y="374.913px 374.913px 374.913px 374.913px 374.913px 374.913px 374.913px 374.913px 374.913px 374.913px "> restore /</tspan></text><text x="263.29px" y="374.913px" style="font-family:'LucidaGrande', 'Lucida Grande', sans-serif;font-weight:500;font-size:8px;fill:#1b1c20;">a<tspan x="267.069px 269.705px 273.164px 277.491px 279.165px 282.667px " y="374.913px 374.913px 374.913px 374.913px 374.913px 374.913px ">rchive</tspan></text></g></g></g></svg>