<?xml version="1.0" encoding="UTF-8" standalone="no"?><!DOCTYPE svg PUBLIC "-//W3C//DTD SVG 1.1//EN" "http://www.w3.org/Graphics/SVG/1.1/DTD/svg11.dtd"><svg width="100%" height="100%" viewBox="0 0 434 186" version="1.1" xmlns="http://www.w3.org/2000/svg" xmlns:xlink="http://www.w3.org/1999/xlink" xml:space="preserve" xmlns:serif="http://www.serif.com/" style="fill-rule:evenodd;clip-rule:evenodd;stroke-linejoin:round;stroke-miterlimit:10;"><rect x="328.072" y="14.065" width="105.54" height="171.747" style="fill:#eaebec;"/><rect x="218.242" y="14.065" width="105.6" height="171.747" style="fill:#eaebec;"/><rect x="109.841" y="14.065" width="105.6" height="171.747" style="fill:#eaebec;"/><rect x="0.071" y="14.065" width="105.539" height="171.747" style="fill:#eaebec;"/><rect x="349.169" y="177.409" width="84.443" height="7.032" style="fill:#5f5e63;stroke:#1b1c20;stroke-width:0.36px;"/><rect x="1.442" y="28.545" width="101.426" height="24.91" style="fill:none;stroke:#1b1c20;stroke-width:0.36px;stroke-linejoin:miter;stroke-miterlimit:8;"/><rect x="1.442" y="56.197" width="101.426" height="24.851" style="fill:none;stroke:#1b1c20;stroke-width:0.36px;stroke-linejoin:miter;stroke-miterlimit:8;"/><rect x="1.442" y="84.564" width="101.426" height="25.327" style="fill:none;stroke:#1b1c20;stroke-width:0.36px;stroke-linejoin:miter;stroke-miterlimit:8;"/><rect x="267.526" y="177.409" width="80.749" height="7.032" style="fill:#444145;stroke:#1b1c20;stroke-width:0.36px;"/><rect x="221.043" y="89.986" width="99.938" height="29.022" style="fill:#444145;stroke:#1b1c20;stroke-width:0.36px;stroke-linejoin:miter;stroke-miterlimit:8;"/><rect x="221.043" y="28.545" width="99.938" height="24.91" style="fill:none;stroke:#1b1c20;stroke-width:0.36px;stroke-linejoin:miter;stroke-miterlimit:8;"/><rect x="112.643" y="84.564" width="99.997" height="24.91" style="fill:#5f5e63;stroke:#1b1c20;stroke-width:0.36px;"/><rect x="330.874" y="56.138" width="99.938" height="29.021" style="fill:#444145;stroke:#1b1c20;stroke-width:0.36px;stroke-linejoin:miter;stroke-miterlimit:8;"/><rect x="330.874" y="28.545" width="99.938" height="24.91" style="fill:#5f5e63;stroke:#1b1c20;stroke-width:0.36px;"/><rect x="112.643" y="111.738" width="99.997" height="28.962" style="fill:#5f5e63;stroke:#1b1c20;stroke-width:0.36px;"/><rect x="221.042" y="55.362" width="99.938" height="32.776" style="fill:url(#_Linear1);"/><rect x="221.043" y="55.362" width="99.938" height="32.777" style="fill:none;stroke:#1b1c20;stroke-width:0.36px;"/><rect x="112.643" y="28.545" width="99.997" height="52.085" style="fill:#5f5e63;stroke:#1b1c20;stroke-width:0.36px;"/><rect x="0.071" y="0" width="433.54" height="11.263" style="fill:#eaebec;"/><text x="362.923px" y="21.249px" style="font-family:'ArialMT', 'Arial', sans-serif;font-size:6.972px;fill:#1b1c20;">Component</text><text x="259.454px" y="21.249px" style="font-family:'ArialMT', 'Arial', sans-serif;font-size:6.972px;fill:#1b1c20;">System</text><text x="125.639px" y="21.249px" style="font-family:'ArialMT', 'Arial', sans-serif;font-size:6.972px;fill:#1b1c20;">Policies and procedures</text><text x="40.514px" y="21.249px" style="font-family:'ArialMT', 'Arial', sans-serif;font-size:6.972px;fill:#1b1c20;">General</text><text x="379.816px" y="182.774px" style="font-family:'ArialMT', 'Arial', sans-serif;font-size:4.946px;fill:#fff;">Processes</text><g transform="matrix(0.75,0,0,0.75,-5.76826,-224.134)"><text x="22.74px" y="351.356px" style="font-family:'ArialMT', 'Arial', sans-serif;font-size:9.297px;fill:#1b1c20;">1-1 T<tspan x="44.438px 49.608px " y="351.356px 351.356px ">er</tspan>minology,<tspan x="92.491px " y="351.356px "> </tspan>concepts</text><text x="53.48px" y="362.483px" style="font-family:'ArialMT', 'Arial', sans-serif;font-size:9.297px;fill:#1b1c20;">and models</text><text x="18.633px" y="388.191px" style="font-family:'ArialMT', 'Arial', sans-serif;font-size:9.297px;fill:#1b1c20;">1-2 Master glossary of terms</text><text x="40.833px" y="399.319px" style="font-family:'ArialMT', 'Arial', sans-serif;font-size:9.297px;fill:#1b1c20;">and abbreviations</text><text x="36.411px" y="426.307px" style="font-family:'ArialMT', 'Arial', sans-serif;font-size:9.297px;fill:#1b1c20;">1-3 System security</text><text x="36.411px" y="437.435px" style="font-family:'ArialMT', 'Arial', sans-serif;font-size:9.297px;fill:#1b1c20;">compliance metrics</text><text x="55.843px" y="504.933px" style="font-family:'ArialMT', 'Arial', sans-serif;font-size:9.297px;fill:#1b1c20;">Deﬁnitions</text><text x="63.412px" y="516.061px" style="font-family:'ArialMT', 'Arial', sans-serif;font-size:9.297px;fill:#1b1c20;">Metrics</text></g><g transform="matrix(0.75,0,0,0.75,-5.76826,-224.134)"><text x="452.855px" y="504.933px" style="font-family:'ArialMT', 'Arial', sans-serif;font-size:9.297px;fill:#1b1c20;">Requirements to secure system</text><text x="492.892px" y="516.061px" style="font-family:'ArialMT', 'Arial', sans-serif;font-size:9.297px;fill:#1b1c20;">components</text></g><text x="281.348px" y="182.774px" style="font-family:'ArialMT', 'Arial', sans-serif;font-size:4.946px;fill:#fff;">Functional requirements</text><g transform="matrix(0.75,0,0,0.75,-5.76826,-224.134)"><text x="157.657px" y="504.926px" style="font-family:'ArialMT', 'Arial', sans-serif;font-size:9.297px;fill:#1b1c20;">Requirements placed on security</text><text x="155.591px" y="516.054px" style="font-family:'ArialMT', 'Arial', sans-serif;font-size:9.297px;fill:#1b1c20;">organization and processes of the</text><text x="172.389px" y="527.182px" style="font-family:'ArialMT', 'Arial', sans-serif;font-size:9.297px;fill:#1b1c20;">plant owner and suppliers</text></g><g transform="matrix(0.75,0,0,0.75,-5.76826,-224.134)"><text x="316.448px" y="504.935px" style="font-family:'ArialMT', 'Arial', sans-serif;font-size:9.297px;fill:#1b1c20;">Requirements to achieve a</text><text x="341.82px" y="516.063px" style="font-family:'ArialMT', 'Arial', sans-serif;font-size:9.297px;fill:#1b1c20;">secure system</text></g><g transform="matrix(0.75,0,0,0.75,-5.76826,-224.134)"><text x="328.49px" y="430.466px" style="font-family:'ArialMT', 'Arial', sans-serif;font-size:9.297px;fill:#fff;">3-3 System security</text><text x="315.873px" y="441.594px" style="font-family:'ArialMT', 'Arial', sans-serif;font-size:9.297px;fill:#fff;">requirements and security</text><text x="357.469px" y="452.722px" style="font-family:'ArialMT', 'Arial', sans-serif;font-size:9.297px;fill:#fff;">levels</text></g><g transform="matrix(0.75,0,0,0.75,-5.76826,-224.134)"><text x="310.395px" y="351.356px" style="font-family:'ArialMT', 'Arial', sans-serif;font-size:9.297px;fill:#1b1c20;">3-1 Security technologies for</text><text x="358.456px" y="362.483px" style="font-family:'ArialMT', 'Arial', sans-serif;font-size:9.297px;fill:#1b1c20;">IACS</text></g><g transform="matrix(0.75,0,0,0.75,-5.76826,-224.134)"><text x="163.812px" y="426.054px" style="font-family:'ArialMT', 'Arial', sans-serif;font-size:9.297px;fill:#fff;">2-3 Patch management in the</text><text x="187.074px" y="437.182px" style="font-family:'ArialMT', 'Arial', sans-serif;font-size:9.297px;fill:#fff;">IACS environment</text></g><g transform="matrix(0.75,0,0,0.75,-5.76826,-224.134)"><text x="470.648px" y="385.315px" style="font-family:'ArialMT', 'Arial', sans-serif;font-size:9.297px;fill:#fff;">4-2</text><text x="486.499px" y="385.315px" style="font-family:'ArialMT', 'Arial', sans-serif;font-size:9.297px;fill:#fff;">T</text><text x="492.142px" y="385.315px" style="font-family:'ArialMT', 'Arial', sans-serif;font-size:9.297px;fill:#fff;">echnical security</text><text x="469.799px" y="396.443px" style="font-family:'ArialMT', 'Arial', sans-serif;font-size:9.297px;fill:#fff;">requirements for IACS</text><text x="497.955px" y="407.571px" style="font-family:'ArialMT', 'Arial', sans-serif;font-size:9.297px;fill:#fff;">products</text></g><g transform="matrix(0.75,0,0,0.75,-5.76826,-224.134)"><text x="463.731px" y="351.356px" style="font-family:'ArialMT', 'Arial', sans-serif;font-size:9.297px;fill:#fff;">4-1 Product development</text><text x="488.571px" y="362.483px" style="font-family:'ArialMT', 'Arial', sans-serif;font-size:9.297px;fill:#fff;">requirements</text></g><g transform="matrix(0.75,0,0,0.75,-5.76826,-224.134)"><text x="168.967px" y="464.997px" style="font-family:'ArialMT', 'Arial', sans-serif;font-size:9.297px;fill:#fff;">2-4 Requirements for IACS</text><text x="188.854px" y="476.125px" style="font-family:'ArialMT', 'Arial', sans-serif;font-size:9.297px;fill:#fff;">solution suppliers</text></g><g transform="matrix(0.75,0,0,0.75,-5.76826,-224.134)"><text x="309.798px" y="392.367px" style="font-family:'ArialMT', 'Arial', sans-serif;font-size:9.297px;fill:#1b1c20;">3-2 Security risk assessment</text><text x="330.455px" y="403.495px" style="font-family:'ArialMT', 'Arial', sans-serif;font-size:9.297px;fill:#1b1c20;">and system design</text></g><g transform="matrix(0.75,0,0,0.75,-5.76826,-224.134)"><text x="174.497px" y="352.795px" style="font-family:'ArialMT', 'Arial', sans-serif;font-size:9.297px;fill:#fff;">2-1 Requirements for an</text><text x="168.054px" y="363.923px" style="font-family:'ArialMT', 'Arial', sans-serif;font-size:9.297px;fill:#fff;">IACS security management</text><text x="195.181px" y="375.051px" style="font-family:'ArialMT', 'Arial', sans-serif;font-size:9.297px;fill:#fff;">system Ed.2.0</text><text x="206.288px" y="386.179px" style="font-family:'ArialMT', 'Arial', sans-serif;font-size:9.297px;fill:#fff;">Proﬁle of</text><text x="185.607px" y="397.307px" style="font-family:'ArialMT', 'Arial', sans-serif;font-size:9.297px;fill:#fff;">ISO 27001 / 27002</text></g><text x="191.352px" y="9.551px" style="font-family:'Arial-BoldMT', 'Arial', sans-serif;font-weight:700;font-size:7.926px;fill:#1b1c20;">IEC <tspan x="206.877px 209.079px 211.391px " y="9.551px 9.551px 9.551px ">/ I</tspan>SA-62443</text><defs><linearGradient id="_Linear1" x1="0" y1="0" x2="1" y2="0" gradientUnits="userSpaceOnUse" gradientTransform="matrix(2.00698e-15,32.7764,-32.7764,2.00698e-15,287.399,55.3615)"><stop offset="0" style="stop-color:#5f5e63;stop-opacity:1"/><stop offset="1" style="stop-color:#d8dadc;stop-opacity:1"/></linearGradient></defs></svg>