<?xml version="1.0" encoding="UTF-8" standalone="no"?><!DOCTYPE svg PUBLIC "-//W3C//DTD SVG 1.1//EN" "http://www.w3.org/Graphics/SVG/1.1/DTD/svg11.dtd"><svg width="100%" height="100%" viewBox="0 0 720 540" version="1.1" xmlns="http://www.w3.org/2000/svg" xmlns:xlink="http://www.w3.org/1999/xlink" xml:space="preserve" xmlns:serif="http://www.serif.com/" style="fill-rule:evenodd;clip-rule:evenodd;stroke-linejoin:round;stroke-miterlimit:10;"><path d="M182.47,74.66l102.15,0l9.06,9.05l0,45.3l-120.27,0l0,-45.3l9.06,-9.05Z" style="fill:#000072;stroke:#000;stroke-width:0.75px;"/><rect x="173.62" y="133.01" width="120.06" height="113.38" style="fill:none;stroke:#000;stroke-width:0.75px;stroke-linejoin:miter;stroke-miterlimit:8;"/><path d="M306.64,74.66l102.16,0l9.06,9.05l0,45.3l-120.28,0l0,-45.3l9.06,-9.05Z" style="fill:#ff0;stroke:#000;stroke-width:0.75px;stroke-miterlimit:8;"/><rect x="297.58" y="133.01" width="120.06" height="113.38" style="fill:none;stroke:#000;stroke-width:0.75px;stroke-linejoin:miter;stroke-miterlimit:8;"/><path d="M430.82,74.66l102.15,0l9.06,9.05l0,45.3l-120.27,0l0,-45.3l9.06,-9.05Z" style="fill:#f00;stroke:#000;stroke-width:0.75px;stroke-miterlimit:8;"/><rect x="421.76" y="133.01" width="120.06" height="113.38" style="fill:none;stroke:#000;stroke-width:0.75px;stroke-linejoin:miter;stroke-miterlimit:8;"/><path d="M657.87,75.36l-102.99,0l-8.94,8.94l0,44.71l120.87,0l0,-44.71c0,-4.94 -4,-8.94 -8.94,-8.94Z" style="fill:#00b050;stroke:#000;stroke-width:0.75px;stroke-miterlimit:8;"/><rect x="546.09" y="133.01" width="120.06" height="113.38" style="fill:none;stroke:#000;stroke-width:0.75px;stroke-linejoin:miter;stroke-miterlimit:8;"/><path d="M58.113,75.36l102.997,0l8.94,8.94l0,44.71l-120.878,0l0,-44.71c0,-4.94 4.003,-8.94 8.941,-8.94Z" style="fill:#0070c0;stroke:#000;stroke-width:0.75px;stroke-miterlimit:8;"/><rect x="49.172" y="251.343" width="121.05" height="98.047" style="fill:none;stroke:#000;stroke-width:0.75px;stroke-linejoin:miter;stroke-miterlimit:8;"/><rect x="173.62" y="250.823" width="121.05" height="98.047" style="fill:none;stroke:#000;stroke-width:0.75px;stroke-linejoin:miter;stroke-miterlimit:8;"/><rect x="297.58" y="250.033" width="121.05" height="98.047" style="fill:none;stroke:#000;stroke-width:0.75px;stroke-linejoin:miter;stroke-miterlimit:8;"/><rect x="421.76" y="249.503" width="121.05" height="98.047" style="fill:none;stroke:#000;stroke-width:0.75px;stroke-linejoin:miter;stroke-miterlimit:8;"/><rect x="546.09" y="248.983" width="121.05" height="98.047" style="fill:none;stroke:#000;stroke-width:0.75px;stroke-linejoin:miter;stroke-miterlimit:8;"/><rect x="49.172" y="133.01" width="120.06" height="113.38" style="fill:none;stroke:#000;stroke-width:0.75px;stroke-linejoin:miter;stroke-miterlimit:8;"/><path d="M110.6,360.48l128.48,0l8.53,8.53l0,42.62l-128.49,0l-8.52,-8.53l0,-42.62Z" style="fill:#000072;stroke:#000;stroke-width:0.75px;stroke-miterlimit:8;"/><rect x="133.26" y="392.65" width="59.4" height="0.72" style="fill:#fff;"/><path d="M298.34,360.48l128.49,0l8.52,8.53l0,42.62l-128.49,0l-8.52,-8.53l0,-42.62Z" style="fill:#ff0;stroke:#000;stroke-width:0.75px;stroke-miterlimit:8;"/><rect x="322.93" y="392.65" width="59.76" height="0.72"/><path d="M486.08,360.48l128.49,0l8.52,8.53l0,42.62l-128.48,0l-8.53,-8.53l0,-42.62Z" style="fill:#f00;stroke:#000;stroke-width:0.75px;stroke-miterlimit:8;"/><text x="10.992px" y="530.616px" style="font-family:'LucidaGrande-Bold', 'Lucida Grande', sans-serif;font-weight:600;font-size:9.96px;">8</text><g><text x="274.7px" y="532.728px" style="font-family:'ArialMT', 'Arial', sans-serif;font-size:9px;fill:#a7a7a7;">©</text><text x="283.763px" y="532.728px" style="font-family:'ArialMT', 'Arial', sans-serif;font-size:9px;fill:#a7a7a7;">2015 <tspan x="306.391px " y="532.728px ">H</tspan>one</text><text x="327.991px" y="532.728px" style="font-family:'ArialMT', 'Arial', sans-serif;font-size:9px;fill:#a7a7a7;">y</text><text x="332.428px" y="532.728px" style="font-family:'ArialMT', 'Arial', sans-serif;font-size:9px;fill:#a7a7a7;">w</text><text x="338.791px" y="532.728px" style="font-family:'ArialMT', 'Arial', sans-serif;font-size:9px;fill:#a7a7a7;">ell I<tspan x="352.908px " y="532.728px ">n</tspan>tern<tspan x="373.534px " y="532.728px ">a</tspan>tion<tspan x="393.162px " y="532.728px ">a</tspan>l <tspan x="402.238px 408.264px " y="532.728px 532.728px ">Al</tspan>l Ri<tspan x="423.374px " y="532.728px ">g</tspan>ht</text><text x="435.953px" y="532.728px" style="font-family:'ArialMT', 'Arial', sans-serif;font-size:9px;fill:#a7a7a7;">s</text><text x="442.514px" y="532.728px" style="font-family:'ArialMT', 'Arial', sans-serif;font-size:9px;fill:#a7a7a7;">Re</text><text x="454.016px" y="532.728px" style="font-family:'ArialMT', 'Arial', sans-serif;font-size:9px;fill:#a7a7a7;">s</text><text x="458.588px" y="532.728px" style="font-family:'ArialMT', 'Arial', sans-serif;font-size:9px;fill:#a7a7a7;">er</text><text x="466.616px" y="532.728px" style="font-family:'ArialMT', 'Arial', sans-serif;font-size:9px;fill:#a7a7a7;">v</text><text x="471.062px" y="532.728px" style="font-family:'ArialMT', 'Arial', sans-serif;font-size:9px;fill:#a7a7a7;">ed</text></g><g transform="matrix(1,0,0,1,1.75191,-0.959312)"><text x="195.41px" y="109.39px" style="font-family:'LucidaGrande-Bold', 'Lucida Grande', sans-serif;font-weight:600;font-size:15.96px;fill:#fff;">PR<tspan x="216.388px 229.617px 240.717px 250.392px 261.851px " y="109.39px 109.39px 109.39px 109.39px 109.39px ">OTECT</tspan></text><text x="205.82px" y="146.83px" style="font-family:'LucidaGrande-Bold', 'Lucida Grande', sans-serif;font-weight:600;font-size:12px;fill:#0070c0;">T<tspan x="213.769px 220.471px 226.528px 234.079px 241.63px 245.202px 251.259px 257.984px " y="146.83px 146.83px 146.83px 146.83px 146.83px 146.83px 146.83px 146.83px ">echnical</tspan></text><text x="209.9px" y="159.79px" style="font-family:'LucidaGrande-Bold', 'Lucida Grande', sans-serif;font-weight:600;font-size:12px;fill:#0070c0;">c<tspan x="215.834px 223.044px 230.472px 234.882px 239.884px 247.095px 250.544px " y="159.79px 159.79px 159.79px 159.79px 159.79px 159.79px 159.79px ">ontrols</tspan></text><text x="190.82px" y="184.78px" style="font-family:'LucidaGrande-Bold', 'Lucida Grande', sans-serif;font-weight:600;font-size:12px;">(<tspan x="195.021px 201.666px 205.323px 210.532px 217.317px 227.425px 234.234px 237.89px 241.547px " y="184.78px 184.78px 184.78px 184.78px 184.78px 184.78px 184.78px 184.78px 184.78px ">Firewall,</tspan></text><text x="246.092px" y="184.78px" style="font-family:'LucidaGrande-Bold', 'Lucida Grande', sans-serif;font-weight:600;font-size:12px;">A<tspan x="254.682px 265.282px 272.015px " y="184.78px 184.78px 184.78px ">WL,</tspan></text><text x="198.62px" y="197.74px" style="font-family:'LucidaGrande-Bold', 'Lucida Grande', sans-serif;font-weight:600;font-size:12px;">AV,</text><text x="221.876px" y="197.74px" style="font-family:'LucidaGrande-Bold', 'Lucida Grande', sans-serif;font-weight:600;font-size:12px;">IPS,</text><text x="247.892px" y="197.74px" style="font-family:'LucidaGrande-Bold', 'Lucida Grande', sans-serif;font-weight:600;font-size:12px;">DC,</text><text x="210.5px" y="210.7px" style="font-family:'LucidaGrande-Bold', 'Lucida Grande', sans-serif;font-weight:600;font-size:12px;">n<tspan x="217.771px 224.192px 228.445px 238.189px 245.243px 250.088px " y="210.7px 210.7px 210.7px 210.7px 210.7px 210.7px ">etwork</tspan></text><text x="181.7px" y="223.66px" style="font-family:'LucidaGrande-Bold', 'Lucida Grande', sans-serif;font-weight:600;font-size:12px;">s<tspan x="188.108px 194.762px 202.301px 213.56px 220.214px 227.717px 232.203px 238.881px 243.367px 246.892px 254.179px 261.682px " y="223.66px 223.66px 223.66px 223.66px 223.66px 223.66px 223.66px 223.66px 223.66px 223.66px 223.66px 223.66px ">egmentation,</tspan></text><text x="266.252px" y="223.66px" style="font-family:'LucidaGrande-Bold', 'Lucida Grande', sans-serif;font-weight:600;font-size:12px;">…<tspan x="277.875px 280.462px " y="223.66px 223.66px ">.)</tspan></text></g><g><text x="325.82px" y="109.39px" style="font-family:'LucidaGrande-Bold', 'Lucida Grande', sans-serif;font-weight:600;font-size:15.96px;">DETEC<tspan x="379.908px " y="109.39px ">T</tspan></text><text x="329.81px" y="146.83px" style="font-family:'LucidaGrande-Bold', 'Lucida Grande', sans-serif;font-weight:600;font-size:12px;fill:#0070c0;">T<tspan x="337.759px 344.461px 350.518px 358.069px 365.62px 369.192px 375.249px 381.974px " y="146.83px 146.83px 146.83px 146.83px 146.83px 146.83px 146.83px 146.83px ">echnical</tspan></text><text x="333.89px" y="159.79px" style="font-family:'LucidaGrande-Bold', 'Lucida Grande', sans-serif;font-weight:600;font-size:12px;fill:#0070c0;">c<tspan x="339.824px 347.034px 354.462px 358.872px 363.874px 371.085px 374.534px " y="159.79px 159.79px 159.79px 159.79px 159.79px 159.79px 159.79px ">ontrols</tspan></text><text x="312.89px" y="184.78px" style="font-family:'LucidaGrande-Bold', 'Lucida Grande', sans-serif;font-weight:600;font-size:12px;">(<tspan x="317.465px 321.571px 329.058px 336.041px 339.133px 343.216px 347.322px 356.965px 363.948px " y="184.78px 184.78px 184.78px 184.78px 184.78px 184.78px 184.78px 184.78px 184.78px ">IPS, IDS,</tspan></text><text x="369.602px" y="184.78px" style="font-family:'LucidaGrande-Bold', 'Lucida Grande', sans-serif;font-weight:600;font-size:12px;">S<tspan x="376.585px 380.691px 388.026px 399.046px " y="184.78px 184.78px 184.78px 184.78px ">IEM,</tspan></text><text x="334.01px" y="197.74px" style="font-family:'LucidaGrande-Bold', 'Lucida Grande', sans-serif;font-weight:600;font-size:12px;">S<tspan x="340.637px 347.44px 353.598px 361.251px 366.477px 370.151px 374.786px " y="197.74px 197.74px 197.74px 197.74px 197.74px 197.74px 197.74px ">ecurity</tspan></text><text x="316.73px" y="210.7px" style="font-family:'LucidaGrande-Bold', 'Lucida Grande', sans-serif;font-weight:600;font-size:12px;">D<tspan x="325.788px 332.385px 338.713px 346.136px 353.629px 360.836px 367.433px 372.43px " y="210.7px 210.7px 210.7px 210.7px 210.7px 210.7px 210.7px 210.7px ">ashboard</tspan></text><text x="382.598px" y="210.7px" style="font-family:'LucidaGrande-Bold', 'Lucida Grande', sans-serif;font-weight:600;font-size:12px;">…<tspan x="394.14px " y="210.7px ">)</tspan></text></g><g><text x="442.46px" y="109.39px" style="font-family:'LucidaGrande-Bold', 'Lucida Grande', sans-serif;font-weight:600;font-size:15.96px;fill:#fff;">R<tspan x="453.895px 463.903px 473.444px 483.655px 497.218px 509.907px " y="109.39px 109.39px 109.39px 109.39px 109.39px 109.39px ">ESPOND</tspan></text><text x="453.98px" y="146.83px" style="font-family:'LucidaGrande-Bold', 'Lucida Grande', sans-serif;font-weight:600;font-size:12px;fill:#0070c0;">T<tspan x="461.929px 468.631px 474.688px 482.239px 489.79px 493.362px 499.419px 506.144px " y="146.83px 146.83px 146.83px 146.83px 146.83px 146.83px 146.83px 146.83px ">echnical</tspan></text><text x="458.06px" y="159.79px" style="font-family:'LucidaGrande-Bold', 'Lucida Grande', sans-serif;font-weight:600;font-size:12px;fill:#0070c0;">c<tspan x="463.994px 471.204px 478.632px 483.042px 488.044px 495.255px 498.704px " y="159.79px 159.79px 159.79px 159.79px 159.79px 159.79px 159.79px ">ontrols</tspan></text><text x="439.94px" y="184.78px" style="font-family:'LucidaGrande-Bold', 'Lucida Grande', sans-serif;font-weight:600;font-size:12px;">(I<tspan x="448.265px 455.574px 462.379px " y="184.78px 184.78px 184.78px ">PS,</tspan></text><text x="469.928px" y="184.78px" style="font-family:'LucidaGrande-Bold', 'Lucida Grande', sans-serif;font-weight:600;font-size:12px;">Re<tspan x="485.138px 491.474px 499.088px 506.157px 513.138px " y="184.78px 184.78px 184.78px 184.78px 184.78px ">cover</tspan>y</text><text x="461.93px" y="197.74px" style="font-family:'LucidaGrande-Bold', 'Lucida Grande', sans-serif;font-weight:600;font-size:12px;">C<tspan x="470.376px 479.788px " y="197.74px 197.74px ">D,</tspan></text><text x="485.81px" y="197.74px" style="font-family:'LucidaGrande-Bold', 'Lucida Grande', sans-serif;font-weight:600;font-size:12px;">…<tspan x="497.707px " y="197.74px ">)</tspan></text></g><g><text x="567.89px" y="109.51px" style="font-family:'LucidaGrande-Bold', 'Lucida Grande', sans-serif;font-weight:600;font-size:15.96px;fill:#fff;">R<tspan x="579.161px 589.006px 600.635px 614.033px 625.444px 635.289px " y="109.51px 109.51px 109.51px 109.51px 109.51px 109.51px ">ECOVER</tspan></text><text x="578.35px" y="146.83px" style="font-family:'LucidaGrande-Bold', 'Lucida Grande', sans-serif;font-weight:600;font-size:12px;fill:#0070c0;">T<tspan x="586.299px 593.001px 599.058px 606.609px 614.16px 617.732px 623.789px 630.514px " y="146.83px 146.83px 146.83px 146.83px 146.83px 146.83px 146.83px 146.83px ">echnical</tspan></text><text x="582.43px" y="159.79px" style="font-family:'LucidaGrande-Bold', 'Lucida Grande', sans-serif;font-weight:600;font-size:12px;fill:#0070c0;">c<tspan x="588.364px 595.574px 603.002px 607.412px 612.414px 619.625px 623.074px " y="159.79px 159.79px 159.79px 159.79px 159.79px 159.79px 159.79px ">ontrols</tspan></text><text x="557.57px" y="184.78px" style="font-family:'LucidaGrande-Bold', 'Lucida Grande', sans-serif;font-weight:600;font-size:12px;">(<tspan x="561.451px 568.443px 574.931px 580.751px 587.778px 594.875px 602.189px " y="184.78px 184.78px 184.78px 184.78px 184.78px 184.78px 184.78px ">Back-up</tspan></text><text x="612.07px" y="184.78px" style="font-family:'LucidaGrande-Bold', 'Lucida Grande', sans-serif;font-weight:600;font-size:12px;">C<tspan x="620.052px 627.15px 634.464px 638.76px 643.649px 650.746px " y="184.78px 184.78px 184.78px 184.78px 184.78px 184.78px ">ontrol</tspan></text><text x="575.95px" y="197.74px" style="font-family:'LucidaGrande-Bold', 'Lucida Grande', sans-serif;font-weight:600;font-size:12px;">C<tspan x="584.197px 590.927px 598.507px 603.069px 609.798px 614.952px " y="197.74px 197.74px 197.74px 197.74px 197.74px 197.74px ">enter,</tspan></text><text x="620.458px" y="197.74px" style="font-family:'LucidaGrande-Bold', 'Lucida Grande', sans-serif;font-weight:600;font-size:12px;">…<tspan x="632.157px " y="197.74px ">)</tspan></text></g><text x="72.312px" y="109.51px" style="font-family:'LucidaGrande-Bold', 'Lucida Grande', sans-serif;font-weight:600;font-size:15.96px;fill:#fff;">I<tspan x="77.147px 89.346px 98.474px 110.283px 120.838px 125.673px 134.38px " y="109.51px 109.51px 109.51px 109.51px 109.51px 109.51px 109.51px ">DENTIFY</tspan></text><g><text x="69.936px" y="265.2px" style="font-family:'LucidaGrande-Bold', 'Lucida Grande', sans-serif;font-weight:600;font-size:12px;fill:#c00000;">N<tspan x="78.513px 85.531px 92.766px 99.784px 104.002px 110.387px 116.128px 123.363px 130.598px 133.854px 139.595px 146.004px " y="265.2px 265.2px 265.2px 265.2px 265.2px 265.2px 265.2px 265.2px 265.2px 265.2px 265.2px 265.2px ">on-technical</tspan></text><text x="86.016px" y="278.16px" style="font-family:'LucidaGrande-Bold', 'Lucida Grande', sans-serif;font-weight:600;font-size:12px;fill:#c00000;">c<tspan x="91.95px 99.16px 106.588px 110.998px 116px 123.211px 126.66px " y="278.16px 278.16px 278.16px 278.16px 278.16px 278.16px 278.16px ">ontrols</tspan></text><text x="67.416px" y="303.12px" style="font-family:'LucidaGrande-Bold', 'Lucida Grande', sans-serif;font-weight:600;font-size:12px;">(<tspan x="71.489px 79.95px 86.36px 92.771px 99.427px 105.838px 112.248px 123.51px 130.167px 137.673px 142.162px 148.572px " y="303.12px 303.12px 303.12px 303.12px 303.12px 303.12px 303.12px 303.12px 303.12px 303.12px 303.12px 303.12px ">Assessments,</tspan></text><text x="56.376px" y="316.08px" style="font-family:'LucidaGrande-Bold', 'Lucida Grande', sans-serif;font-weight:600;font-size:12px;">R<tspan x="64.155px 67.557px 73.841px " y="316.08px 316.08px 316.08px ">isk</tspan></text><text x="84.912px" y="316.08px" style="font-family:'LucidaGrande-Bold', 'Lucida Grande', sans-serif;font-weight:600;font-size:12px;">m<tspan x="96.048px 102.602px 109.983px 116.537px 123.953px 130.483px 141.619px 148.15px 155.531px 159.893px " y="316.08px 316.08px 316.08px 316.08px 316.08px 316.08px 316.08px 316.08px 316.08px 316.08px ">anagement)</tspan></text></g><g><text x="194.42px" y="264.67px" style="font-family:'LucidaGrande-Bold', 'Lucida Grande', sans-serif;font-weight:600;font-size:12px;fill:#c00000;">N<tspan x="202.995px 210.011px 217.244px 224.26px 228.476px 234.859px 240.598px 247.831px 255.064px 258.318px 264.057px 270.464px " y="264.67px 264.67px 264.67px 264.67px 264.67px 264.67px 264.67px 264.67px 264.67px 264.67px 264.67px 264.67px ">on-technical</tspan></text><text x="210.5px" y="277.63px" style="font-family:'LucidaGrande-Bold', 'Lucida Grande', sans-serif;font-weight:600;font-size:12px;fill:#c00000;">c<tspan x="216.434px 223.644px 231.072px 235.482px 240.484px 247.695px 251.144px " y="277.63px 277.63px 277.63px 277.63px 277.63px 277.63px 277.63px ">ontrols</tspan></text><text x="184.1px" y="302.59px" style="font-family:'LucidaGrande-Bold', 'Lucida Grande', sans-serif;font-weight:600;font-size:12px;">(<tspan x="188.297px 194.902px 201.683px 207.82px 215.451px 220.656px 224.308px 228.921px " y="302.59px 302.59px 302.59px 302.59px 302.59px 302.59px 302.59px 302.59px ">Security</tspan></text><text x="238.532px" y="302.59px" style="font-family:'LucidaGrande-Bold', 'Lucida Grande', sans-serif;font-weight:600;font-size:12px;">P<tspan x="245.641px 253.055px 256.707px 260.359px 266.496px 270.148px 276.929px " y="302.59px 302.59px 302.59px 302.59px 302.59px 302.59px 302.59px ">olicies</tspan></text><text x="193.1px" y="315.55px" style="font-family:'LucidaGrande-Bold', 'Lucida Grande', sans-serif;font-weight:600;font-size:12px;">&amp;<tspan x="201.754px 205.429px 212.507px 217.681px 225.064px 231.17px 237.92px 245.59px 253.19px 258.364px 265.114px 271.618px " y="315.55px 315.55px 315.55px 315.55px 315.55px 315.55px 315.55px 315.55px 315.55px 315.55px 315.55px 315.55px "> Procedures)</tspan></text></g><g><text x="318.41px" y="263.88px" style="font-family:'LucidaGrande-Bold', 'Lucida Grande', sans-serif;font-weight:600;font-size:12px;fill:#c00000;">N<tspan x="326.985px 334.001px 341.234px 348.25px 352.466px 358.849px 364.588px 371.821px 379.054px 382.308px 388.047px 394.454px " y="263.88px 263.88px 263.88px 263.88px 263.88px 263.88px 263.88px 263.88px 263.88px 263.88px 263.88px 263.88px ">on-technical</tspan></text><text x="334.49px" y="276.84px" style="font-family:'LucidaGrande-Bold', 'Lucida Grande', sans-serif;font-weight:600;font-size:12px;fill:#c00000;">c<tspan x="340.424px 347.634px 355.062px 359.472px 364.474px 371.685px 375.134px " y="276.84px 276.84px 276.84px 276.84px 276.84px 276.84px 276.84px ">ontrols</tspan></text><text x="332.57px" y="301.82px" style="font-family:'LucidaGrande-Bold', 'Lucida Grande', sans-serif;font-weight:600;font-size:12px;">(<tspan x="336.758px 343.354px 350.126px 356.254px 363.875px 369.071px 372.714px 377.318px " y="301.82px 301.82px 301.82px 301.82px 301.82px 301.82px 301.82px 301.82px ">Security</tspan></text><text x="324.89px" y="314.78px" style="font-family:'LucidaGrande-Bold', 'Lucida Grande', sans-serif;font-weight:600;font-size:12px;">m<tspan x="335.914px 342.966px 350.234px 353.524px 357.774px 364.826px 369.668px 372.958px 380.227px 387.53px " y="314.78px 314.78px 314.78px 314.78px 314.78px 314.78px 314.78px 314.78px 314.78px 314.78px ">onitoring)</tspan></text></g><g><text x="442.58px" y="263.35px" style="font-family:'LucidaGrande-Bold', 'Lucida Grande', sans-serif;font-weight:600;font-size:12px;fill:#c00000;">N<tspan x="451.155px 458.171px 465.404px 472.42px 476.636px 483.019px 488.758px 495.991px 503.224px 506.478px 512.217px 518.624px " y="263.35px 263.35px 263.35px 263.35px 263.35px 263.35px 263.35px 263.35px 263.35px 263.35px 263.35px 263.35px ">on-technical</tspan></text><text x="458.66px" y="276.31px" style="font-family:'LucidaGrande-Bold', 'Lucida Grande', sans-serif;font-weight:600;font-size:12px;fill:#c00000;">c<tspan x="464.594px 471.804px 479.232px 483.642px 488.644px 495.855px 499.304px " y="276.31px 276.31px 276.31px 276.31px 276.31px 276.31px 276.31px ">ontrols</tspan></text><text x="432.02px" y="301.3px" style="font-family:'LucidaGrande-Bold', 'Lucida Grande', sans-serif;font-weight:600;font-size:12px;">(<tspan x="436.12px 442.627px 449.311px 455.35px 462.883px 467.991px 471.546px 476.061px 482.71px 486.317px 489.872px 497.405px 503.444px 506.999px 514.603px 521.286px 528.819px " y="301.3px 301.3px 301.3px 301.3px 301.3px 301.3px 301.3px 301.3px 301.3px 301.3px 301.3px 301.3px 301.3px 301.3px 301.3px 301.3px 301.3px ">Security incident</tspan></text><text x="453.86px" y="314.26px" style="font-family:'LucidaGrande-Bold', 'Lucida Grande', sans-serif;font-weight:600;font-size:12px;">r<tspan x="458.928px 465.571px 471.969px 479.533px 486.809px 494.303px 500.7px 507.344px " y="314.26px 314.26px 314.26px 314.26px 314.26px 314.26px 314.26px 314.26px ">esponse,</tspan></text><text x="440.9px" y="327.22px" style="font-family:'LucidaGrande-Bold', 'Lucida Grande', sans-serif;font-weight:600;font-size:12px;">D<tspan x="450.049px 453.585px 460.004px 466.025px 473.323px 480.837px 488.352px 495.017px 501.037px 505.534px 509.07px 516.368px " y="327.22px 327.22px 327.22px 327.22px 327.22px 327.22px 327.22px 327.22px 327.22px 327.22px 327.22px 327.22px ">isconnection</tspan></text><text x="443.3px" y="340.18px" style="font-family:'LucidaGrande-Bold', 'Lucida Grande', sans-serif;font-weight:600;font-size:12px;">m<tspan x="454.35px 460.819px 468.114px 474.582px 481.912px 488.357px 499.407px 505.852px 513.147px 517.424px " y="340.18px 340.18px 340.18px 340.18px 340.18px 340.18px 340.18px 340.18px 340.18px 340.18px ">anagement)</tspan></text></g><g><text x="566.93px" y="262.85px" style="font-family:'LucidaGrande-Bold', 'Lucida Grande', sans-serif;font-weight:600;font-size:12.024px;fill:#c00000;">N<tspan x="575.509px 582.526px 589.761px 596.778px 600.989px 607.373px 613.11px 620.345px 627.579px 630.827px 636.565px 642.971px " y="262.85px 262.85px 262.85px 262.85px 262.85px 262.85px 262.85px 262.85px 262.85px 262.85px 262.85px 262.85px ">on-technical</tspan></text><text x="583.01px" y="275.81px" style="font-family:'LucidaGrande-Bold', 'Lucida Grande', sans-serif;font-weight:600;font-size:12px;fill:#c00000;">c<tspan x="588.944px 596.154px 603.582px 607.992px 612.994px 620.205px 623.654px " y="275.81px 275.81px 275.81px 275.81px 275.81px 275.81px 275.81px ">ontrols</tspan></text><text x="563.57px" y="300.77px" style="font-family:'LucidaGrande-Bold', 'Lucida Grande', sans-serif;font-weight:600;font-size:12px;">(<tspan x="567.521px 576.54px 583.098px 587.465px " y="300.77px 300.77px 300.77px 300.77px ">Data</tspan></text><text x="596.678px" y="300.77px" style="font-family:'LucidaGrande-Bold', 'Lucida Grande', sans-serif;font-weight:600;font-size:12px;">r<tspan x="601.637px 608.171px 614.062px 621.229px 627.852px 634.387px 639.345px 645.845px " y="300.77px 300.77px 300.77px 300.77px 300.77px 300.77px 300.77px 300.77px ">ecovery,</tspan></text><text x="554.69px" y="313.73px" style="font-family:'LucidaGrande-Bold', 'Lucida Grande', sans-serif;font-weight:600;font-size:12px;">D<tspan x="563.741px 567.18px 573.501px 580.091px 586.412px 590.811px 597.378px " y="313.73px 313.73px 313.73px 313.73px 313.73px 313.73px 313.73px ">isaster</tspan></text><text x="605.054px" y="313.73px" style="font-family:'LucidaGrande-Bold', 'Lucida Grande', sans-serif;font-weight:600;font-size:12px;">r<tspan x="610.045px 616.612px 622.534px 629.734px 636.389px 642.956px 647.947px 654.479px " y="313.73px 313.73px 313.73px 313.73px 313.73px 313.73px 313.73px 313.73px ">ecovery)</tspan></text></g><g><text x="81.36px" y="146.83px" style="font-family:'LucidaGrande-Bold', 'Lucida Grande', sans-serif;font-weight:600;font-size:12px;fill:#0070c0;">T<tspan x="89.309px 96.011px 102.068px 109.619px 117.17px 120.742px 126.799px 133.524px " y="146.83px 146.83px 146.83px 146.83px 146.83px 146.83px 146.83px 146.83px ">echnical</tspan></text><text x="85.44px" y="159.79px" style="font-family:'LucidaGrande-Bold', 'Lucida Grande', sans-serif;font-weight:600;font-size:12px;fill:#0070c0;">c<tspan x="91.374px 98.584px 106.012px 110.422px 115.424px 122.635px 126.084px " y="159.79px 159.79px 159.79px 159.79px 159.79px 159.79px 159.79px ">ontrols</tspan></text><text x="71.28px" y="184.78px" style="font-family:'LucidaGrande-Bold', 'Lucida Grande', sans-serif;font-weight:600;font-size:12px;">(<tspan x="75.183px 83.023px 90.359px 93.717px 101.054px 107.54px 112.451px 118.961px 126.368px 129.726px 133.083px 136.441px 140.76px " y="184.78px 184.78px 184.78px 184.78px 184.78px 184.78px 184.78px 184.78px 184.78px 184.78px 184.78px 184.78px 184.78px ">Vulnerability</tspan></text><text x="81.12px" y="197.74px" style="font-family:'LucidaGrande-Bold', 'Lucida Grande', sans-serif;font-weight:600;font-size:12px;">s<tspan x="87.543px 93.567px 100.259px 107.778px 115.296px 118.836px 126.354px 133.908px " y="197.74px 197.74px 197.74px 197.74px 197.74px 197.74px 197.74px 197.74px ">canning,</tspan></text><text x="68.4px" y="210.7px" style="font-family:'LucidaGrande-Bold', 'Lucida Grande', sans-serif;font-weight:600;font-size:12px;">M<tspan x="78.737px 85.845px 93.17px 96.517px 100.824px 107.933px 112.832px 116.178px 123.504px 130.864px 134.263px 145.707px " y="210.7px 210.7px 210.7px 210.7px 210.7px 210.7px 210.7px 210.7px 210.7px 210.7px 210.7px 210.7px ">onitoring …)</tspan></text></g><g><text x="150.94px" y="374.5px" style="font-family:'LucidaGrande-Bold', 'Lucida Grande', sans-serif;font-weight:600;font-size:14.04px;fill:#fff;">T<tspan x="159.987px 164.003px 176.108px 183.9px 188.116px 197.163px " y="374.5px 374.5px 374.5px 374.5px 374.5px 374.5px ">IME TO</tspan></text><text x="133.3px" y="391.3px" style="font-family:'LucidaGrande-Bold', 'Lucida Grande', sans-serif;font-weight:600;font-size:14.04px;fill:#fff;">BR<tspan x="151.66px 160.007px 170.259px " y="391.3px 391.3px 391.3px ">EAC</tspan>H</text><text x="197.02px" y="391.3px" style="font-family:'LucidaGrande-Bold', 'Lucida Grande', sans-serif;font-weight:600;font-size:14.04px;fill:#fff;">TH<tspan x="217.491px " y="391.3px ">E</tspan></text><text x="133.18px" y="408.1px" style="font-family:'LucidaGrande-Bold', 'Lucida Grande', sans-serif;font-weight:600;font-size:14.04px;fill:#fff;">P<tspan x="141.558px 151.012px 162.338px 171.792px 179.991px 189.761px 199.215px 203.637px 214.963px " y="408.1px 408.1px 408.1px 408.1px 408.1px 408.1px 408.1px 408.1px 408.1px ">ROTECTION</tspan></text></g><g><text x="338.69px" y="374.5px" style="font-family:'LucidaGrande-Bold', 'Lucida Grande', sans-serif;font-weight:600;font-size:14.04px;">T<tspan x="347.732px 351.741px 363.841px 371.628px 375.841px 384.883px " y="374.5px 374.5px 374.5px 374.5px 374.5px 374.5px ">IME TO</tspan></text><text x="322.97px" y="391.3px" style="font-family:'LucidaGrande-Bold', 'Lucida Grande', sans-serif;font-weight:600;font-size:14.04px;">D<tspan x="333.669px 341.666px 350.918px 358.916px 368.484px " y="391.3px 391.3px 391.3px 391.3px 391.3px ">ETECT</tspan></text><text x="382.75px" y="391.3px" style="font-family:'LucidaGrande-Bold', 'Lucida Grande', sans-serif;font-weight:600;font-size:14.04px;">T<tspan x="392.002px 402.523px " y="391.3px 391.3px ">HE</tspan></text><text x="343.49px" y="408.1px" style="font-family:'LucidaGrande-Bold', 'Lucida Grande', sans-serif;font-weight:600;font-size:14.04px;">E<tspan x="352.096px 362.08px 370.686px 381.651px " y="408.1px 408.1px 408.1px 408.1px ">VENT</tspan></text></g><g><text x="526.46px" y="374.5px" style="font-family:'LucidaGrande-Bold', 'Lucida Grande', sans-serif;font-weight:600;font-size:14.04px;fill:#fff;">T<tspan x="535.502px 539.511px 551.611px 559.398px 563.611px 572.653px " y="374.5px 374.5px 374.5px 374.5px 374.5px 374.5px ">IME TO</tspan></text><text x="508.46px" y="391.3px" style="font-family:'LucidaGrande-Bold', 'Lucida Grande', sans-serif;font-weight:600;font-size:14.04px;fill:#fff;">RES<tspan x="534.475px " y="391.3px ">P</tspan>ON<tspan x="565.309px " y="391.3px ">D</tspan></text><text x="581.54px" y="391.3px" style="font-family:'LucidaGrande-Bold', 'Lucida Grande', sans-serif;font-weight:600;font-size:14.04px;fill:#fff;">TO</text><text x="515.42px" y="408.1px" style="font-family:'LucidaGrande-Bold', 'Lucida Grande', sans-serif;font-weight:600;font-size:14.04px;fill:#fff;">TH<tspan x="535.944px " y="408.1px ">E</tspan></text><text x="547.221px" y="408.1px" style="font-family:'LucidaGrande-Bold', 'Lucida Grande', sans-serif;font-weight:600;font-size:14.04px;fill:#fff;">EV<tspan x="565.346px 573.719px 584.451px " y="408.1px 408.1px 408.1px ">ENT</tspan></text></g><text x="259.49px" y="400.99px" style="font-family:'LucidaGrande-Bold', 'Lucida Grande', sans-serif;font-weight:600;font-size:44.04px;">&gt;</text><g><text x="447.26px" y="400.99px" style="font-family:'LucidaGrande-Bold', 'Lucida Grande', sans-serif;font-weight:600;font-size:44.04px;">+</text><text x="212.47px" y="457.9px" style="font-family:'LucidaGrande-Bold', 'Lucida Grande', sans-serif;font-weight:600;font-size:20.04px;">IF</text><text x="235.636px" y="457.9px" style="font-family:'LucidaGrande-Bold', 'Lucida Grande', sans-serif;font-weight:600;font-size:20.04px;">TR<tspan x="263.46px " y="457.9px ">U</tspan>E</text><text x="295.736px" y="457.9px" style="font-family:'LucidaGrande-Bold', 'Lucida Grande', sans-serif;font-weight:600;font-size:20.04px;">TH<tspan x="325.37px " y="457.9px ">E</tspan></text><text x="341.387px" y="457.9px" style="font-family:'LucidaGrande-Bold', 'Lucida Grande', sans-serif;font-weight:600;font-size:20.04px;">PL<tspan x="365.503px 380.344px 395.832px " y="457.9px 457.9px 457.9px ">ANT</tspan></text><text x="413.732px" y="457.9px" style="font-family:'LucidaGrande-Bold', 'Lucida Grande', sans-serif;font-weight:600;font-size:20.04px;">IS</text><text x="438.04px" y="457.9px" style="font-family:'LucidaGrande-Bold', 'Lucida Grande', sans-serif;font-weight:600;font-size:20.04px;">SE<tspan x="461.696px 476.058px 490.899px " y="457.9px 457.9px 457.9px ">CUR</tspan>E</text><text x="219.62px" y="501.796px" style="font-family:'LucidaGrande-Bold', 'Lucida Grande', sans-serif;font-weight:600;font-size:44.064px;fill:#c00000;">T</text><text x="246.352px" y="512.716px" style="font-family:'LucidaGrande-Bold', 'Lucida Grande', sans-serif;font-weight:600;font-size:29.28px;fill:#c00000;">B</text><text x="279.77px" y="501.796px" style="font-family:'LucidaGrande-Bold', 'Lucida Grande', sans-serif;font-weight:600;font-size:44.064px;fill:#c00000;">&gt;</text><text x="317.753px" y="501.796px" style="font-family:'LucidaGrande-Bold', 'Lucida Grande', sans-serif;font-weight:600;font-size:44.064px;fill:#c00000;">(<tspan x="330.414px " y="501.796px ">T</tspan></text><text x="357.145px" y="512.716px" style="font-family:'LucidaGrande-Bold', 'Lucida Grande', sans-serif;font-weight:600;font-size:29.28px;fill:#c00000;">D</text><text x="392.69px" y="501.796px" style="font-family:'LucidaGrande-Bold', 'Lucida Grande', sans-serif;font-weight:600;font-size:44.064px;fill:#c00000;">+</text><text x="430.673px" y="501.796px" style="font-family:'LucidaGrande-Bold', 'Lucida Grande', sans-serif;font-weight:600;font-size:44.064px;fill:#c00000;">T</text><text x="457.405px" y="512.716px" style="font-family:'LucidaGrande-Bold', 'Lucida Grande', sans-serif;font-weight:600;font-size:29.28px;fill:#c00000;">R</text><text x="486.79px" y="501.796px" style="font-family:'LucidaGrande-Bold', 'Lucida Grande', sans-serif;font-weight:600;font-size:44.064px;fill:#c00000;">)</text></g><rect x="508.39" y="392.65" width="69.24" height="0.72" style="fill:#fff;"/></svg>