<?xml version="1.0" standalone="no"?>
<!DOCTYPE svg PUBLIC "-//W3C//DTD SVG 1.1//EN"
  "http://www.w3.org/Graphics/SVG/1.1/DTD/svg11.dtd">
<svg version="1.1" xmlns="http://www.w3.org/2000/svg" xmlns:xlink="http://www.w3.org/1999/xlink" width="2560" height="1440" viewBox="-1040.8888888888887 -32 1889.7777777777776 1063" id="ccdiagram"><filter id="grayscale"><feColorMatrix type="matrix" values="0.3333 0.3333 0.3333 0 0 0.3333 0.3333 0.3333 0 0 0.3333 0.3333 0.3333 0 0 0 0 0 1 0"></feColorMatrix></filter><defs><style type="text/css">@import url('https://fonts.googleapis.com/css?family=Open+Sans:400,700|Inconsolata:400');</style></defs><g><g style="pointer-events: none;"><g><pattern id="gridPatternMinor" x="0" y="37" width="128" height="74" patternUnits="userSpaceOnUse"><path d="M 0 0 L 128 74" stroke="#eee" stroke-width="1"></path><path d="M 128 0 L 0 74" stroke="#eee" stroke-width="1"></path></pattern><polygon points="0 0, 768 444, -192 999, -960 555" fill="url(#gridPatternMinor)"></polygon></g><polygon points="-960 555, -960 565, -192 1009, -192 999" stroke-linejoin="round" stroke="#54626f" stroke-width="1" fill="#f9f9f9"></polygon><polygon points="-192 1009, 768 454, 768 444, -192 999" stroke-linejoin="round" stroke="#54626f" stroke-width="1" fill="#e2e2e2"></polygon></g><g pointer-events="auto"></g><g style="pointer-events: none;"><g><pattern id="gridPatternMajor" x="0" y="37" width="128" height="74" patternUnits="userSpaceOnUse"><path d="M 64 0 L 128 37 64 74 0 37 z" stroke="#54626f" stroke-width="1" fill="none"></path></pattern><polygon points="0 0, 768 444, -192 999, -960 555" fill="url(#gridPatternMajor)"></polygon></g></g><g pointer-events="auto"></g><g></g><g pointer-events="auto"></g><g></g><g pointer-events="auto"></g><g pointer-events="none"></g><g pointer-events="auto"></g><g pointer-events="auto"><g opacity="1"><g id="a7f2ea7f-7421-4f74-90ac-35520b81f519" transform="translate(0 0)"><g><polygon points="0 37, 320 222, 224 278, -96 93" fill="#ececed"></polygon><polygon points="-96 130, 224 315, 224 278, -96 93" fill="#d2d2d4" stroke="#83838a"></polygon><polygon points="224 315, 320 259, 320 222, 224 278" fill="#b8b8bb" stroke="#83838a"></polygon><polygon points="0 37, -96 93, -96 130, 224 315, 320 259, 320 222" fill="none" stroke="#000000" stroke-width="2"></polygon></g></g></g><g opacity="1"><g id="f090a0eb-bb02-411d-a888-593625e47b9b" transform="translate(0 0)"><g><polygon points="320 222, 608 389, 512 444, 224 278" fill="#ececed"></polygon><polygon points="224 315, 512 481, 512 444, 224 278" fill="#d2d2d4" stroke="#83838a"></polygon><polygon points="512 481, 608 426, 608 389, 512 444" fill="#b8b8bb" stroke="#83838a"></polygon><polygon points="320 222, 224 278, 224 315, 512 481, 608 426, 608 389" fill="none" stroke="#000000" stroke-width="2"></polygon></g></g></g><g opacity="1"><g id="a6a40c46-7197-4bb8-bbde-e59db446ba62" transform="translate(0 0)"><g><polygon points="-96 93, 224 278, 128 333, -192 148" fill="#ececed"></polygon><polygon points="-192 185, 128 370, 128 333, -192 148" fill="#d2d2d4" stroke="#83838a"></polygon><polygon points="128 370, 224 315, 224 278, 128 333" fill="#b8b8bb" stroke="#83838a"></polygon><polygon points="-96 93, -192 148, -192 185, 128 370, 224 315, 224 278" fill="none" stroke="#000000" stroke-width="2"></polygon></g></g></g><g opacity="1"><g id="6a3236df-9ec0-45d8-a55d-2f1adb136593" transform="translate(0 0)"><g><polygon points="224 278, 512 444, 416 500, 128 333" fill="#ececed"></polygon><polygon points="128 370, 416 537, 416 500, 128 333" fill="#d2d2d4" stroke="#83838a"></polygon><polygon points="416 537, 512 481, 512 444, 416 500" fill="#b8b8bb" stroke="#83838a"></polygon><polygon points="224 278, 128 333, 128 370, 416 537, 512 481, 512 444" fill="none" stroke="#000000" stroke-width="2"></polygon></g></g></g><g opacity="1"><g id="30184fba-26d1-4af8-b70f-67d2029745ef" transform="translate(0 0)"><g><polygon points="-192 148, 128 333, 32 389, -288 204" fill="#ececed"></polygon><polygon points="-288 241, 32 426, 32 389, -288 204" fill="#d2d2d4" stroke="#83838a"></polygon><polygon points="32 426, 128 370, 128 333, 32 389" fill="#b8b8bb" stroke="#83838a"></polygon><polygon points="-192 148, -288 204, -288 241, 32 426, 128 370, 128 333" fill="none" stroke="#000000" stroke-width="2"></polygon></g></g></g><g opacity="1"><g id="d62434de-3f8f-4445-b61a-ba5a2d58bfbb" transform="translate(0 0)"><g><polygon points="128 333, 192 370, -224 611, -288 574" fill="#ececed"></polygon><polygon points="-288 611, -224 648, -224 611, -288 574" fill="#d2d2d4" stroke="#83838a"></polygon><polygon points="-224 648, 192 407, 192 370, -224 611" fill="#b8b8bb" stroke="#83838a"></polygon><polygon points="128 333, -288 574, -288 611, -224 648, 192 407, 192 370" fill="none" stroke="#000000" stroke-width="2"></polygon></g></g></g><g opacity="1"><g id="05ec1d2a-23ae-406b-9fb3-13ee41509269" transform="translate(0 0)"><g><polygon points="192 370, 256 407, -160 648, -224 611" fill="#ececed"></polygon><polygon points="-224 648, -160 685, -160 648, -224 611" fill="#d2d2d4" stroke="#83838a"></polygon><polygon points="-160 685, 256 444, 256 407, -160 648" fill="#b8b8bb" stroke="#83838a"></polygon><polygon points="192 370, -224 611, -224 648, -160 685, 256 444, 256 407" fill="none" stroke="#000000" stroke-width="2"></polygon></g></g></g><g opacity="1"><g id="9d4ee5a9-45d6-4dc5-a62d-602805502f24" transform="translate(0 0)"><g><polygon points="256 407, 320 444, -96 685, -160 648" fill="#ececed"></polygon><polygon points="-160 685, -96 722, -96 685, -160 648" fill="#d2d2d4" stroke="#83838a"></polygon><polygon points="-96 722, 320 481, 320 444, -96 685" fill="#b8b8bb" stroke="#83838a"></polygon><polygon points="256 407, -160 648, -160 685, -96 722, 320 481, 320 444" fill="none" stroke="#000000" stroke-width="2"></polygon></g></g></g><g opacity="1"><g id="1da52714-6e5b-4fbb-9e49-f05573ce10d4" transform="translate(0 0)"><g><polygon points="-384 222, -320 259, -576 407, -640 370" fill="#ececed"></polygon><polygon points="-640 407, -576 444, -576 407, -640 370" fill="#d2d2d4" stroke="#83838a"></polygon><polygon points="-576 444, -320 296, -320 259, -576 407" fill="#b8b8bb" stroke="#83838a"></polygon><polygon points="-384 222, -640 370, -640 407, -576 444, -320 296, -320 259" fill="none" stroke="#000000" stroke-width="2"></polygon></g></g></g><g opacity="1"><g id="9ee9de4f-367e-463c-9cb1-547b7dc30719" transform="translate(0 0)"><g><polygon points="-640 370, -576 407, -832 555, -896 518" fill="#ececed"></polygon><polygon points="-896 555, -832 592, -832 555, -896 518" fill="#d2d2d4" stroke="#83838a"></polygon><polygon points="-832 592, -576 444, -576 407, -832 555" fill="#b8b8bb" stroke="#83838a"></polygon><polygon points="-640 370, -896 518, -896 555, -832 592, -576 444, -576 407" fill="none" stroke="#000000" stroke-width="2"></polygon></g></g></g><g opacity="1"><g id="3bceddd9-71c5-4659-9a1b-7911b92b7327" transform="translate(0 0)"><g><polygon points="-576 407, -64 703, -224 796, -736 500" fill="#ececed"></polygon><polygon points="-736 537, -224 833, -224 796, -736 500" fill="#d2d2d4" stroke="#83838a"></polygon><polygon points="-224 833, -64 740, -64 703, -224 796" fill="#b8b8bb" stroke="#83838a"></polygon><polygon points="-576 407, -736 500, -736 537, -224 833, -64 740, -64 703" fill="none" stroke="#000000" stroke-width="2"></polygon></g></g></g><g opacity="1"><g id="489ee541-11ab-4edd-a9e1-354d207dd7ab" transform="translate(0 0)"><g><polygon points="-736 500, -480 648, -576 703, -832 555" fill="#ececed"></polygon><polygon points="-832 592, -576 740, -576 703, -832 555" fill="#d2d2d4" stroke="#83838a"></polygon><polygon points="-576 740, -480 685, -480 648, -576 703" fill="#b8b8bb" stroke="#83838a"></polygon><polygon points="-736 500, -832 555, -832 592, -576 740, -480 685, -480 648" fill="none" stroke="#000000" stroke-width="2"></polygon></g></g></g><g opacity="1"><g id="fd3a37be-f92e-49ba-bf91-3e8ec70b1129" transform="translate(0 0)"><g><polygon points="-480 648, -224 796, -320 851, -576 703" fill="#ececed"></polygon><polygon points="-576 740, -320 888, -320 851, -576 703" fill="#d2d2d4" stroke="#83838a"></polygon><polygon points="-320 888, -224 833, -224 796, -320 851" fill="#b8b8bb" stroke="#83838a"></polygon><polygon points="-480 648, -576 703, -576 740, -320 888, -224 833, -224 796" fill="none" stroke="#000000" stroke-width="2"></polygon></g></g></g></g><g pointer-events="auto"></g><g pointer-events="auto"></g><g pointer-events="auto"><g opacity="1"><g id="7a175425-0c99-42dd-a88f-e744831fb972"><svg x="16" y="83" overflow="visible"><text stroke="#ffffff" stroke-width="4" font-family="Open Sans" y="36.5" font-size="25pt" fill="#000000" font-weight="bold" transform="matrix(0.707 0.409 -0.707 0.409 0 0)" xml:space="preserve"><tspan x="8" dy="0">Mobile Notifications</tspan></text><text font-family="Open Sans" y="36.5" font-size="25pt" fill="#000000" font-weight="bold" transform="matrix(0.707 0.409 -0.707 0.409 0 0)" xml:space="preserve"><tspan x="8" dy="0">Mobile Notifications</tspan></text></svg></g></g><g opacity="1"><g id="69460052-e1d3-4862-9b9e-c69890b500e6"><svg x="-16" y="157" overflow="visible"><text stroke="#ffffff" stroke-width="4" font-family="Open Sans" y="36.5" font-size="25pt" fill="#000000" font-weight="bold" transform="matrix(0.707 0.409 -0.707 0.409 0 0)" xml:space="preserve"><tspan x="8" dy="0">Machine</tspan><tspan x="8" dy="1.1em">Learning</tspan></text><text font-family="Open Sans" y="36.5" font-size="25pt" fill="#000000" font-weight="bold" transform="matrix(0.707 0.409 -0.707 0.409 0 0)" xml:space="preserve"><tspan x="8" dy="0">Machine</tspan><tspan x="8" dy="1.1em">Learning</tspan></text></svg></g></g><g opacity="1"><g id="58c0087d-d244-47d4-9869-0e6a749bd943"><svg x="-112" y="213" overflow="visible"><text stroke="#ffffff" stroke-width="4" font-family="Open Sans" y="36.5" font-size="25pt" fill="#000000" font-weight="bold" transform="matrix(0.707 0.409 -0.707 0.409 0 0)" xml:space="preserve"><tspan x="8" dy="0">Analytics</tspan><tspan x="8" dy="1.1em">Big Data</tspan></text><text font-family="Open Sans" y="36.5" font-size="25pt" fill="#000000" font-weight="bold" transform="matrix(0.707 0.409 -0.707 0.409 0 0)" xml:space="preserve"><tspan x="8" dy="0">Analytics</tspan><tspan x="8" dy="1.1em">Big Data</tspan></text></svg></g></g><g opacity="1"><g id="763f70cf-5a48-4a84-8296-d58e801b5c19"><svg x="208" y="305" overflow="visible"><text stroke="#ffffff" stroke-width="4" font-family="Open Sans" y="36.5" font-size="25pt" fill="#000000" font-weight="bold" transform="matrix(0.707 0.409 -0.707 0.409 0 0)" xml:space="preserve"><tspan x="8" dy="0">Remote Services</tspan></text><text font-family="Open Sans" y="36.5" font-size="25pt" fill="#000000" font-weight="bold" transform="matrix(0.707 0.409 -0.707 0.409 0 0)" xml:space="preserve"><tspan x="8" dy="0">Remote Services</tspan></text></svg></g></g><g opacity="1"><g id="8d5565fc-96de-4e46-b36c-f80f67afcff4"><svg x="304" y="231" overflow="visible"><text stroke="#ffffff" stroke-width="4" font-family="Open Sans" y="36.5" font-size="25pt" fill="#000000" font-weight="bold" transform="matrix(0.707 0.409 -0.707 0.409 0 0)" xml:space="preserve"><tspan x="8" dy="0">Internet of Things</tspan><tspan x="8" dy="1.1em">Edge/Cloud Computing</tspan></text><text font-family="Open Sans" y="36.5" font-size="25pt" fill="#000000" font-weight="bold" transform="matrix(0.707 0.409 -0.707 0.409 0 0)" xml:space="preserve"><tspan x="8" dy="0">Internet of Things</tspan><tspan x="8" dy="1.1em">Edge/Cloud Computing</tspan></text></svg></g></g><g opacity="1"><g id="7f5191e7-0f52-4efb-8795-4baa87e5d31c"><svg x="-704" y="555" overflow="visible"><text stroke="#ffffff" stroke-width="4" font-family="Open Sans" y="36.5" font-size="25pt" fill="#000000" font-weight="bold" transform="matrix(0.707 0.409 -0.707 0.409 0 0)" xml:space="preserve"><tspan x="8" dy="0">Connectivity</tspan></text><text font-family="Open Sans" y="36.5" font-size="25pt" fill="#000000" font-weight="bold" transform="matrix(0.707 0.409 -0.707 0.409 0 0)" xml:space="preserve"><tspan x="8" dy="0">Connectivity</tspan></text></svg></g></g><g opacity="1"><g id="7b9e1e9a-3ce1-4f73-af31-e95cef412246"><svg x="-32" y="574" overflow="visible"><text stroke="#ffffff" stroke-width="4" font-family="Open Sans" y="36.5" font-size="25pt" fill="#000000" font-weight="bold" transform="matrix(0.707 -0.409 0.707 0.409 0 0)" xml:space="preserve"><tspan x="8" dy="0">Process Mining</tspan></text><text font-family="Open Sans" y="36.5" font-size="25pt" fill="#000000" font-weight="bold" transform="matrix(0.707 -0.409 0.707 0.409 0 0)" xml:space="preserve"><tspan x="8" dy="0">Process Mining</tspan></text></svg></g></g><g opacity="1"><g id="556923bb-9c89-4913-90b4-a1489d1f220c"><svg x="-160" y="500" overflow="visible"><text stroke="#ffffff" stroke-width="4" font-family="Open Sans" y="36.5" font-size="25pt" fill="#000000" font-weight="bold" transform="matrix(0.707 -0.409 0.707 0.409 0 0)" xml:space="preserve"><tspan x="8" dy="0">Predictive</tspan><tspan x="8" dy="1.1em">Maintenance</tspan></text><text font-family="Open Sans" y="36.5" font-size="25pt" fill="#000000" font-weight="bold" transform="matrix(0.707 -0.409 0.707 0.409 0 0)" xml:space="preserve"><tspan x="8" dy="0">Predictive</tspan><tspan x="8" dy="1.1em">Maintenance</tspan></text></svg></g></g><g opacity="1"><g id="2d82d80d-a2b5-46f1-bfd9-42707616a3dc"><svg x="-96" y="537" overflow="visible"><text stroke="#ffffff" stroke-width="4" font-family="Open Sans" y="36.5" font-size="25pt" fill="#000000" font-weight="bold" transform="matrix(0.707 -0.409 0.707 0.409 0 0)" xml:space="preserve"><tspan x="8" dy="0">Robot Process</tspan><tspan x="8" dy="1.1em">Automation</tspan></text><text font-family="Open Sans" y="36.5" font-size="25pt" fill="#000000" font-weight="bold" transform="matrix(0.707 -0.409 0.707 0.409 0 0)" xml:space="preserve"><tspan x="8" dy="0">Robot Process</tspan><tspan x="8" dy="1.1em">Automation</tspan></text></svg></g></g><g opacity="1"><g id="c80608b5-593c-4c1d-852a-c85226ea7797"><svg x="-640" y="370" overflow="visible"><text stroke="#ffffff" stroke-width="4" font-family="Open Sans" y="36.5" font-size="25pt" fill="#000000" font-weight="bold" transform="matrix(0.707 -0.409 0.707 0.409 0 0)" xml:space="preserve"><tspan x="8" dy="0">Papierlose Fertigung</tspan><tspan x="8" dy="1.1em">Shopfloor Boards</tspan></text><text font-family="Open Sans" y="36.5" font-size="25pt" fill="#000000" font-weight="bold" transform="matrix(0.707 -0.409 0.707 0.409 0 0)" xml:space="preserve"><tspan x="8" dy="0">Papierlose Fertigung</tspan><tspan x="8" dy="1.1em">Shopfloor Boards</tspan></text></svg></g></g><g opacity="1"><g id="c4ab9ac8-d9f3-4dfa-9991-46368adaa6ab"><svg x="-832" y="500" overflow="visible"><text stroke="#ffffff" stroke-width="4" font-family="Open Sans" y="36.5" font-size="25pt" fill="#000000" font-weight="bold" transform="matrix(0.707 -0.409 0.707 0.409 0 0)" xml:space="preserve"><tspan x="8" dy="0">AutoID</tspan></text><text font-family="Open Sans" y="36.5" font-size="25pt" fill="#000000" font-weight="bold" transform="matrix(0.707 -0.409 0.707 0.409 0 0)" xml:space="preserve"><tspan x="8" dy="0">AutoID</tspan></text></svg></g></g><g opacity="1"><g id="18035fca-aeaf-4c51-a223-2df579b649b1"><svg x="-432" y="694" overflow="visible"><text stroke="#ffffff" stroke-width="4" font-family="Open Sans" y="36.5" font-size="25pt" fill="#000000" font-weight="bold" transform="matrix(0.707 0.409 -0.707 0.409 0 0)" xml:space="preserve"><tspan x="8" dy="0">Robotics</tspan><tspan x="8" dy="1.1em">Smart Logistics</tspan></text><text font-family="Open Sans" y="36.5" font-size="25pt" fill="#000000" font-weight="bold" transform="matrix(0.707 0.409 -0.707 0.409 0 0)" xml:space="preserve"><tspan x="8" dy="0">Robotics</tspan><tspan x="8" dy="1.1em">Smart Logistics</tspan></text></svg></g></g><g opacity="1"><g id="e366d1f3-4d38-432d-a289-633c0062f59b"><svg x="-560" y="435" overflow="visible"><text stroke="#ffffff" stroke-width="4" font-family="Open Sans" y="36.5" font-size="25pt" fill="#000000" font-weight="bold" transform="matrix(0.707 0.409 -0.707 0.409 0 0)" xml:space="preserve"><tspan x="8" dy="0">Virtuelle Inbetriebnahme</tspan><tspan x="8" dy="1.1em">Computer Aided Manufacturing</tspan><tspan x="8" dy="1.1em">Digitale Fabriksplanung</tspan><tspan x="8" dy="1.1em">Augemented Reality</tspan><tspan x="8" dy="1.1em">Digitaler Zwilling</tspan><tspan x="8" dy="1.1em"> </tspan><tspan x="8" dy="1.1em"> </tspan></text><text font-family="Open Sans" y="36.5" font-size="25pt" fill="#000000" font-weight="bold" transform="matrix(0.707 0.409 -0.707 0.409 0 0)" xml:space="preserve"><tspan x="8" dy="0">Virtuelle Inbetriebnahme</tspan><tspan x="8" dy="1.1em">Computer Aided Manufacturing</tspan><tspan x="8" dy="1.1em">Digitale Fabriksplanung</tspan><tspan x="8" dy="1.1em">Augemented Reality</tspan><tspan x="8" dy="1.1em">Digitaler Zwilling</tspan><tspan x="8" dy="1.1em"> </tspan><tspan x="8" dy="1.1em"> </tspan></text></svg></g></g></g><g></g></g></svg>